<?xml version="1.0" encoding="utf-8"?>
<!-- Generator: Adobe Illustrator 15.1.0, SVG Export Plug-In . SVG Version: 6.00 Build 0)  -->
<!DOCTYPE svg PUBLIC "-//W3C//DTD SVG 1.1//EN" "http://www.w3.org/Graphics/SVG/1.1/DTD/svg11.dtd">
<svg version="1.1" id="Layer_1" xmlns="http://www.w3.org/2000/svg" xmlns:xlink="http://www.w3.org/1999/xlink" x="0px" y="0px"
	 width="693.165px" height="620.861px" viewBox="0 0 693.165 620.861" enable-background="new 0 0 693.165 620.861"
	 xml:space="preserve">
<path fill="#182E33" d="M2.54,474.236c15.735,48.273,41.311,92.062,74.354,129.011c10.375,11.594,25.252,17.795,40.768,16.997
	c15.535-0.78,29.699-8.456,38.855-21.054c21.34-29.413,49.395-53.678,81.773-70.553c32.397-16.845,69.023-26.354,108.247-26.336
	c28.203,0.049,55.032,5.026,79.939,14.109c44.354,16.162,82.59,45.471,109.88,83.236c9.116,12.598,23.263,20.311,38.782,21.139
	c15.534,0.835,30.427-5.348,40.819-16.893c30.612-34.061,54.828-73.964,70.823-117.875c1.325-3.649,2.613-7.299,3.802-10.973
	c4.858-14.785,2.802-30.783-5.653-43.838c-8.438-13.062-22.193-21.48-37.661-23.113c-19.221-2.017-38.17-6.402-56.324-13.019
	c-25.011-9.12-48.512-22.485-69.31-39.751c-20.819-17.271-38.938-38.41-53.303-63.37c-18.065-31.361-27.947-64.85-30.579-98.483
	c-2.616-33.641,2.123-67.409,13.583-98.874c1.937-5.318,4.075-10.564,6.384-15.742c6.369-14.194,5.961-30.345-1.084-44.198
	c-7.063-13.854-19.903-23.704-35.115-26.878C397.526,2.735,372.616,0.018,347.111,0c-25.5-0.019-50.412,2.632-74.408,7.608
	c-15.23,3.156-28.084,12.952-35.163,26.793c-7.098,13.842-7.542,30.004-1.206,44.198c12.159,27.256,19.056,56.681,20.273,86.513
	c1.207,29.852-3.259,60.056-13.871,89.146c-4.636,12.738-10.441,25.215-17.49,37.424c-19.665,33.926-46.27,60.859-77.138,80.415
	c-30.838,19.562-65.935,31.605-102.085,35.285c-15.467,1.614-29.235,10.003-37.715,23.04C-0.177,443.464-2.28,459.425,2.54,474.236z
	 M348.452,279.369c46.08,0,83.437,37.356,83.437,83.437c0,46.08-37.356,83.437-83.437,83.437c-46.081,0-83.437-37.356-83.437-83.437
	C265.015,316.725,302.372,279.369,348.452,279.369z"/>
</svg>
