M48
; DRILL file {KiCad (6.0.9)} date Tue Dec 13 11:16:03 2022
; FORMAT={-:-/ absolute / inch / decimal}
; #@! TF.CreationDate,2022-12-13T11:16:03-07:00
; #@! TF.GenerationSoftware,Kicad,Pcbnew,(6.0.9)
; #@! TF.FileFunction,Plated,1,2,PTH
FMAT,2
INCH
; #@! TA.AperFunction,Plated,PTH,ComponentDrill
T1C0.0276
; #@! TA.AperFunction,Plated,PTH,ComponentDrill
T2C0.0315
; #@! TA.AperFunction,Plated,PTH,ComponentDrill
T3C0.0335
; #@! TA.AperFunction,Plated,PTH,ComponentDrill
T4C0.0394
; #@! TA.AperFunction,Plated,PTH,ViaDrill
T5C0.0400
; #@! TA.AperFunction,Plated,PTH,ComponentDrill
T6C0.0433
; #@! TA.AperFunction,Plated,PTH,ComponentDrill
T7C0.0512
; #@! TA.AperFunction,Plated,PTH,ComponentDrill
T8C0.0520
; #@! TA.AperFunction,Plated,PTH,ComponentDrill
T9C0.1260
%
G90
G05
T1
X3.22Y-3.47
X3.22Y-3.77
X3.22Y-3.97
X3.22Y-4.17
X3.52Y-3.47
X3.52Y-3.77
X3.52Y-3.97
X3.52Y-4.17
X3.6496Y-3.9704
X3.6496Y-4.1704
X3.65Y-3.47
X3.65Y-3.77
X3.95Y-3.47
X3.95Y-3.77
X3.95Y-3.9696
X3.95Y-4.17
T2
X1.0599Y-3.66
X1.06Y-2.6601
X1.1599Y-3.66
X1.16Y-2.6601
X1.16Y-3.91
X1.16Y-4.01
X1.16Y-4.11
X1.2599Y-2.66
X1.2599Y-3.66
X1.3599Y-2.66
X1.3599Y-3.66
X1.4599Y-2.66
X1.4599Y-3.66
X1.5599Y-2.66
X1.5599Y-3.66
X1.6599Y-2.66
X1.6599Y-3.66
X1.7599Y-2.66
X1.7599Y-3.66
X1.8599Y-2.66
X1.8599Y-3.66
X1.9599Y-2.66
X1.9599Y-3.66
X2.0599Y-2.66
X2.0599Y-3.66
X2.1599Y-2.66
X2.1599Y-3.66
X2.2599Y-2.66
X2.2599Y-3.66
X2.3599Y-2.66
X2.3599Y-3.66
X2.4599Y-2.66
X2.4599Y-3.66
X2.5599Y-2.66
X2.5599Y-3.66
X2.6599Y-2.66
X2.6599Y-3.66
X2.7599Y-2.66
X2.7599Y-3.66
X2.8599Y-2.66
X2.8599Y-3.66
X2.87Y-3.89
X2.87Y-3.9513
X2.87Y-4.03
X2.87Y-4.0869
T3
X1.881Y-3.907
X1.981Y-3.907
X2.081Y-3.907
X2.181Y-3.907
X2.381Y-3.907
X2.481Y-3.907
X2.581Y-3.907
T4
X1.64Y-2.45
X1.74Y-2.45
X1.84Y-2.45
X1.94Y-2.45
X4.18Y-3.63
X4.18Y-3.73
X4.28Y-3.63
X4.28Y-3.73
T5
X1.56Y-3.75
X1.65Y-3.88
X2.3Y-2.86
X2.82Y-2.57
X3.01Y-2.76
X3.06Y-3.27
X3.14Y-3.27
X3.41Y-3.77
X3.41Y-3.97
X3.45Y-3.27
X3.52Y-3.27
T6
X1.0594Y-1.099
X1.0594Y-1.355
X1.0594Y-1.906
X1.0594Y-2.162
X1.1774Y-1.503
X1.1774Y-1.759
X1.2366Y-1.099
X1.2366Y-1.355
X1.2366Y-1.906
X1.2366Y-2.162
X1.3546Y-1.503
X1.3546Y-1.759
T7
X1.7446Y-2.8805
X1.7446Y-3.3727
X1.9414Y-2.8805
X1.9414Y-3.3727
X2.7446Y-2.8805
X2.7446Y-3.3727
X2.9414Y-2.8805
X2.9414Y-3.3727
T8
X4.2Y-2.5963
X4.2Y-2.7931
X4.2Y-2.99
X4.2Y-3.1869
T9
X1.403Y-1.099
X1.403Y-2.162
X1.403Y-4.123
X3.5Y-2.527
X4.535Y-3.71
T0
M30
