G04 #@! TF.GenerationSoftware,KiCad,Pcbnew,(6.0.9)*
G04 #@! TF.CreationDate,2022-11-18T10:30:43-07:00*
G04 #@! TF.ProjectId,Thermostat1,54686572-6d6f-4737-9461-74312e6b6963,rev?*
G04 #@! TF.SameCoordinates,Original*
G04 #@! TF.FileFunction,Copper,L1,Top*
G04 #@! TF.FilePolarity,Positive*
%FSLAX46Y46*%
G04 Gerber Fmt 4.6, Leading zero omitted, Abs format (unit mm)*
G04 Created by KiCad (PCBNEW (6.0.9)) date 2022-11-18 10:30:43*
%MOMM*%
%LPD*%
G01*
G04 APERTURE LIST*
G04 Aperture macros list*
%AMRoundRect*
0 Rectangle with rounded corners*
0 $1 Rounding radius*
0 $2 $3 $4 $5 $6 $7 $8 $9 X,Y pos of 4 corners*
0 Add a 4 corners polygon primitive as box body*
4,1,4,$2,$3,$4,$5,$6,$7,$8,$9,$2,$3,0*
0 Add four circle primitives for the rounded corners*
1,1,$1+$1,$2,$3*
1,1,$1+$1,$4,$5*
1,1,$1+$1,$6,$7*
1,1,$1+$1,$8,$9*
0 Add four rect primitives between the rounded corners*
20,1,$1+$1,$2,$3,$4,$5,0*
20,1,$1+$1,$4,$5,$6,$7,0*
20,1,$1+$1,$6,$7,$8,$9,0*
20,1,$1+$1,$8,$9,$2,$3,0*%
G04 Aperture macros list end*
G04 #@! TA.AperFunction,ComponentPad*
%ADD10O,1.850000X3.048000*%
G04 #@! TD*
G04 #@! TA.AperFunction,ComponentPad*
%ADD11C,2.000000*%
G04 #@! TD*
G04 #@! TA.AperFunction,SMDPad,CuDef*
%ADD12RoundRect,0.237500X-0.250000X-0.237500X0.250000X-0.237500X0.250000X0.237500X-0.250000X0.237500X0*%
G04 #@! TD*
G04 #@! TA.AperFunction,SMDPad,CuDef*
%ADD13RoundRect,0.237500X0.237500X-0.250000X0.237500X0.250000X-0.237500X0.250000X-0.237500X-0.250000X0*%
G04 #@! TD*
G04 #@! TA.AperFunction,SMDPad,CuDef*
%ADD14RoundRect,0.250000X-0.400000X-0.625000X0.400000X-0.625000X0.400000X0.625000X-0.400000X0.625000X0*%
G04 #@! TD*
G04 #@! TA.AperFunction,ComponentPad*
%ADD15R,1.050000X1.500000*%
G04 #@! TD*
G04 #@! TA.AperFunction,ComponentPad*
%ADD16O,1.050000X1.500000*%
G04 #@! TD*
G04 #@! TA.AperFunction,SMDPad,CuDef*
%ADD17RoundRect,0.237500X0.287500X0.237500X-0.287500X0.237500X-0.287500X-0.237500X0.287500X-0.237500X0*%
G04 #@! TD*
G04 #@! TA.AperFunction,SMDPad,CuDef*
%ADD18RoundRect,0.237500X-0.237500X0.250000X-0.237500X-0.250000X0.237500X-0.250000X0.237500X0.250000X0*%
G04 #@! TD*
G04 #@! TA.AperFunction,SMDPad,CuDef*
%ADD19RoundRect,0.150000X-0.150000X0.587500X-0.150000X-0.587500X0.150000X-0.587500X0.150000X0.587500X0*%
G04 #@! TD*
G04 #@! TA.AperFunction,SMDPad,CuDef*
%ADD20R,1.800000X2.500000*%
G04 #@! TD*
G04 #@! TA.AperFunction,SMDPad,CuDef*
%ADD21RoundRect,0.250000X-0.475000X0.337500X-0.475000X-0.337500X0.475000X-0.337500X0.475000X0.337500X0*%
G04 #@! TD*
G04 #@! TA.AperFunction,SMDPad,CuDef*
%ADD22RoundRect,0.237500X-0.300000X-0.237500X0.300000X-0.237500X0.300000X0.237500X-0.300000X0.237500X0*%
G04 #@! TD*
G04 #@! TA.AperFunction,SMDPad,CuDef*
%ADD23RoundRect,0.237500X-0.237500X0.300000X-0.237500X-0.300000X0.237500X-0.300000X0.237500X0.300000X0*%
G04 #@! TD*
G04 #@! TA.AperFunction,ComponentPad*
%ADD24C,5.600000*%
G04 #@! TD*
G04 #@! TA.AperFunction,SMDPad,CuDef*
%ADD25RoundRect,0.237500X0.250000X0.237500X-0.250000X0.237500X-0.250000X-0.237500X0.250000X-0.237500X0*%
G04 #@! TD*
G04 #@! TA.AperFunction,SMDPad,CuDef*
%ADD26RoundRect,0.150000X-0.587500X-0.150000X0.587500X-0.150000X0.587500X0.150000X-0.587500X0.150000X0*%
G04 #@! TD*
G04 #@! TA.AperFunction,SMDPad,CuDef*
%ADD27RoundRect,0.250000X-0.875000X-1.025000X0.875000X-1.025000X0.875000X1.025000X-0.875000X1.025000X0*%
G04 #@! TD*
G04 #@! TA.AperFunction,ComponentPad*
%ADD28R,1.700000X1.700000*%
G04 #@! TD*
G04 #@! TA.AperFunction,ComponentPad*
%ADD29O,1.700000X1.700000*%
G04 #@! TD*
G04 #@! TA.AperFunction,SMDPad,CuDef*
%ADD30RoundRect,0.250000X0.875000X1.025000X-0.875000X1.025000X-0.875000X-1.025000X0.875000X-1.025000X0*%
G04 #@! TD*
G04 #@! TA.AperFunction,SMDPad,CuDef*
%ADD31RoundRect,0.250000X0.337500X0.475000X-0.337500X0.475000X-0.337500X-0.475000X0.337500X-0.475000X0*%
G04 #@! TD*
G04 #@! TA.AperFunction,SMDPad,CuDef*
%ADD32RoundRect,0.150000X-0.750000X-0.150000X0.750000X-0.150000X0.750000X0.150000X-0.750000X0.150000X0*%
G04 #@! TD*
G04 #@! TA.AperFunction,SMDPad,CuDef*
%ADD33RoundRect,0.237500X0.300000X0.237500X-0.300000X0.237500X-0.300000X-0.237500X0.300000X-0.237500X0*%
G04 #@! TD*
G04 #@! TA.AperFunction,ComponentPad*
%ADD34R,1.400000X1.400000*%
G04 #@! TD*
G04 #@! TA.AperFunction,ComponentPad*
%ADD35C,1.400000*%
G04 #@! TD*
G04 #@! TA.AperFunction,ComponentPad*
%ADD36R,1.200000X2.000000*%
G04 #@! TD*
G04 #@! TA.AperFunction,ComponentPad*
%ADD37O,1.200000X2.000000*%
G04 #@! TD*
G04 #@! TA.AperFunction,ComponentPad*
%ADD38R,3.960000X1.980000*%
G04 #@! TD*
G04 #@! TA.AperFunction,ComponentPad*
%ADD39O,3.960000X1.980000*%
G04 #@! TD*
G04 #@! TA.AperFunction,ComponentPad*
%ADD40R,1.850000X1.850000*%
G04 #@! TD*
G04 #@! TA.AperFunction,ComponentPad*
%ADD41C,1.850000*%
G04 #@! TD*
G04 #@! TA.AperFunction,ViaPad*
%ADD42C,1.524000*%
G04 #@! TD*
G04 #@! TA.AperFunction,Conductor*
%ADD43C,1.270000*%
G04 #@! TD*
G04 #@! TA.AperFunction,Conductor*
%ADD44C,0.635000*%
G04 #@! TD*
G04 #@! TA.AperFunction,Conductor*
%ADD45C,1.016000*%
G04 #@! TD*
G04 #@! TA.AperFunction,Conductor*
%ADD46C,0.381000*%
G04 #@! TD*
G04 APERTURE END LIST*
D10*
X69712200Y-85665800D03*
X69712200Y-73165800D03*
X74712200Y-85665800D03*
X74712200Y-73165800D03*
D11*
X26909200Y-48413600D03*
X26909200Y-54913600D03*
X31409200Y-48413600D03*
X31409200Y-54913600D03*
X26909200Y-34415800D03*
X26909200Y-27915800D03*
X31409200Y-27915800D03*
X31409200Y-34415800D03*
X29906400Y-38177400D03*
X29906400Y-44677400D03*
X34406400Y-38177400D03*
X34406400Y-44677400D03*
D12*
X81741000Y-78994000D03*
X83566000Y-78994000D03*
D13*
X54864000Y-72691000D03*
X54864000Y-70866000D03*
X58928000Y-72691000D03*
X58928000Y-70866000D03*
D14*
X86308000Y-71882000D03*
X89408000Y-71882000D03*
X86257200Y-74650600D03*
X89357200Y-74650600D03*
D13*
X36830000Y-72691000D03*
X36830000Y-70866000D03*
X39116000Y-72691000D03*
X39116000Y-70866000D03*
X56896000Y-72691000D03*
X56896000Y-70866000D03*
D10*
X44312200Y-85665800D03*
X44312200Y-73165800D03*
X49312200Y-73165800D03*
X49312200Y-85665800D03*
D15*
X30734000Y-104216200D03*
D16*
X29464000Y-104216200D03*
X28194000Y-104216200D03*
D17*
X98487200Y-74676000D03*
X96737200Y-74676000D03*
X98487200Y-84201000D03*
X96737200Y-84201000D03*
D18*
X43688000Y-95711000D03*
X43688000Y-97536000D03*
D19*
X93660000Y-83723000D03*
X91760000Y-83723000D03*
X92710000Y-85598000D03*
D20*
X85598000Y-90360000D03*
X85598000Y-86360000D03*
D21*
X56896000Y-62187000D03*
X56896000Y-64262000D03*
D22*
X71427000Y-88646000D03*
X73152000Y-88646000D03*
D23*
X53848000Y-62283000D03*
X53848000Y-64008000D03*
D24*
X35636200Y-104724200D03*
D22*
X27993000Y-58420000D03*
X29718000Y-58420000D03*
D25*
X93472000Y-81788000D03*
X91647000Y-81788000D03*
D26*
X83644500Y-81521500D03*
X83644500Y-83421500D03*
X85519500Y-82471500D03*
D24*
X35636200Y-27914600D03*
D27*
X60300000Y-104648000D03*
X66700000Y-104648000D03*
D22*
X28501000Y-100076000D03*
X30226000Y-100076000D03*
D28*
X106172000Y-92202000D03*
D29*
X108712000Y-92202000D03*
D20*
X95758000Y-92176600D03*
X95758000Y-88176600D03*
D30*
X54864000Y-104648000D03*
X48464000Y-104648000D03*
D24*
X115189000Y-94234000D03*
D23*
X39116000Y-86413000D03*
X39116000Y-88138000D03*
D24*
X35636200Y-54914800D03*
X88900000Y-64185800D03*
D31*
X30501500Y-88138000D03*
X28426500Y-88138000D03*
D32*
X70510000Y-99314000D03*
X70510000Y-101854000D03*
X76810000Y-101854000D03*
X76810000Y-99314000D03*
D12*
X91543500Y-80010000D03*
X93368500Y-80010000D03*
D28*
X106172000Y-94742000D03*
D29*
X108712000Y-94742000D03*
D33*
X30072500Y-90170000D03*
X28347500Y-90170000D03*
D13*
X81534000Y-83359000D03*
X81534000Y-81534000D03*
D34*
X100330000Y-88138000D03*
D35*
X100330000Y-95758000D03*
X100330000Y-100828000D03*
X100330000Y-105918000D03*
X92700000Y-105928000D03*
X92700000Y-100848000D03*
X92710000Y-95758000D03*
X92710000Y-88138000D03*
D28*
X41656000Y-62230000D03*
D29*
X44196000Y-62230000D03*
X46736000Y-62230000D03*
X49276000Y-62230000D03*
D36*
X72641280Y-92964000D03*
D37*
X70101280Y-92964000D03*
X67561280Y-92964000D03*
X65021280Y-92964000D03*
X62481280Y-92964000D03*
X59941280Y-92964000D03*
X57401280Y-92964000D03*
X54861280Y-92964000D03*
X52321280Y-92964000D03*
X49781280Y-92964000D03*
X47241280Y-92964000D03*
X44701280Y-92964000D03*
X42161280Y-92964000D03*
X39621280Y-92964000D03*
X37081280Y-92964000D03*
X34541280Y-92964000D03*
X32001280Y-92964000D03*
X29461280Y-92964000D03*
X26921280Y-92964000D03*
X26924000Y-67567680D03*
X29464000Y-67567680D03*
X32001280Y-67564000D03*
X34541280Y-67564000D03*
X37081280Y-67564000D03*
X39621280Y-67564000D03*
X42161280Y-67564000D03*
X44701280Y-67564000D03*
X47241280Y-67564000D03*
X49781280Y-67564000D03*
X52321280Y-67564000D03*
X54861280Y-67564000D03*
X57401280Y-67564000D03*
X59941280Y-67564000D03*
X62481280Y-67564000D03*
X65021280Y-67564000D03*
X67561280Y-67564000D03*
X70101280Y-67564000D03*
X72641280Y-67564000D03*
D38*
X111760000Y-80946000D03*
D39*
X111760000Y-75946000D03*
X111760000Y-70946000D03*
X111760000Y-65946000D03*
D40*
X65557400Y-99237800D03*
D41*
X63017400Y-99237800D03*
X60477400Y-99237800D03*
X55397400Y-99237800D03*
X52857400Y-99237800D03*
X50317400Y-99237800D03*
X47777400Y-99237800D03*
D34*
X89408000Y-88138000D03*
D35*
X89408000Y-95758000D03*
X89408000Y-100838000D03*
X89408000Y-105918000D03*
X81788000Y-105918000D03*
X81788000Y-100838000D03*
X81788000Y-95758000D03*
X81788000Y-88138000D03*
D42*
X76454000Y-70104000D03*
X39624000Y-95250000D03*
X77724000Y-83058000D03*
X89408000Y-83058000D03*
X87630000Y-83058000D03*
X79756000Y-83058000D03*
X71628000Y-65278000D03*
X76962000Y-103378000D03*
X76962000Y-97790000D03*
D43*
X41910000Y-65024000D02*
X42164000Y-65278000D01*
X30072500Y-90170000D02*
X30480000Y-89762500D01*
D44*
X73152000Y-88646000D02*
X74712200Y-87085800D01*
D43*
X50317400Y-100812600D02*
X48464000Y-102666000D01*
X34406400Y-38177400D02*
X34406400Y-44677400D01*
X88900000Y-64185800D02*
X92633800Y-64185800D01*
X50317400Y-99237800D02*
X50317400Y-100812600D01*
X98487200Y-74676000D02*
X98487200Y-84201000D01*
X49312200Y-84291800D02*
X55118000Y-78486000D01*
D44*
X79756000Y-83058000D02*
X77724000Y-83058000D01*
D43*
X41656000Y-64770000D02*
X41656000Y-62230000D01*
X39594492Y-92937212D02*
X39621280Y-92964000D01*
X36830000Y-64516000D02*
X41402000Y-64516000D01*
D44*
X39116000Y-89691508D02*
X39116000Y-88138000D01*
D43*
X35635000Y-54913600D02*
X35636200Y-54914800D01*
D45*
X30734000Y-100584000D02*
X30226000Y-100076000D01*
D43*
X35635000Y-27915800D02*
X35636200Y-27914600D01*
X41402000Y-64516000D02*
X41910000Y-65024000D01*
X31409200Y-58252800D02*
X31242000Y-58420000D01*
X35712400Y-104648000D02*
X35636200Y-104724200D01*
X82372200Y-64185800D02*
X88900000Y-64185800D01*
X30480000Y-89762500D02*
X30480000Y-88159500D01*
X34406400Y-44677400D02*
X34406400Y-45416400D01*
X57401280Y-65280720D02*
X56896000Y-64775440D01*
D45*
X30734000Y-104216200D02*
X30734000Y-100584000D01*
D43*
X71882000Y-65278000D02*
X72641280Y-66037280D01*
X39594492Y-90170000D02*
X44808000Y-90170000D01*
D44*
X87630000Y-83058000D02*
X91095000Y-83058000D01*
D43*
X72641280Y-66037280D02*
X72641280Y-67564000D01*
X57401280Y-65280720D02*
X57401280Y-67564000D01*
X31409200Y-34415800D02*
X31409200Y-35180200D01*
D44*
X81596500Y-83421500D02*
X81534000Y-83359000D01*
D43*
X48464000Y-104648000D02*
X35712400Y-104648000D01*
X30480000Y-88159500D02*
X30501500Y-88138000D01*
X74712200Y-71845800D02*
X82372200Y-64185800D01*
X56896000Y-64775440D02*
X56896000Y-64262000D01*
X39621280Y-90170000D02*
X30072500Y-90170000D01*
X31409200Y-48413600D02*
X31409200Y-54913600D01*
X74712200Y-74639800D02*
X74712200Y-73165800D01*
D44*
X91647000Y-81788000D02*
X91647000Y-83610000D01*
D43*
X31242000Y-58420000D02*
X29718000Y-58420000D01*
X39621280Y-95247280D02*
X39624000Y-95250000D01*
D44*
X81534000Y-83359000D02*
X80057000Y-83359000D01*
D43*
X31409200Y-59095200D02*
X36830000Y-64516000D01*
X31409200Y-58252800D02*
X31409200Y-59095200D01*
X41910000Y-65024000D02*
X41656000Y-64770000D01*
D44*
X83644500Y-83421500D02*
X81596500Y-83421500D01*
D43*
X53848000Y-65278000D02*
X53848000Y-64008000D01*
X98552000Y-70104000D02*
X98552000Y-74611200D01*
X55118000Y-78486000D02*
X70866000Y-78486000D01*
X42164000Y-65278000D02*
X53848000Y-65278000D01*
X31409200Y-54913600D02*
X35635000Y-54913600D01*
X31409200Y-35180200D02*
X34406400Y-38177400D01*
X92633800Y-64185800D02*
X98552000Y-70104000D01*
D44*
X91647000Y-83610000D02*
X91760000Y-83723000D01*
D43*
X53848000Y-65278000D02*
X71882000Y-65278000D01*
X48464000Y-102666000D02*
X48464000Y-104648000D01*
X31409200Y-27915800D02*
X35635000Y-27915800D01*
X44808000Y-90170000D02*
X49312200Y-85665800D01*
X39621280Y-92964000D02*
X39621280Y-90170000D01*
X98552000Y-74611200D02*
X98487200Y-74676000D01*
X74712200Y-73165800D02*
X74712200Y-71845800D01*
D44*
X91095000Y-83058000D02*
X91760000Y-83723000D01*
D43*
X31409200Y-54913600D02*
X31409200Y-58252800D01*
X70866000Y-78486000D02*
X74712200Y-74639800D01*
X49312200Y-85665800D02*
X49312200Y-84291800D01*
D44*
X80057000Y-83359000D02*
X79756000Y-83058000D01*
D43*
X31409200Y-27915800D02*
X31409200Y-34415800D01*
D44*
X39594492Y-90170000D02*
X39116000Y-89691508D01*
X74712200Y-87085800D02*
X74712200Y-85665800D01*
D43*
X39594492Y-90170000D02*
X39594492Y-92937212D01*
X34406400Y-45416400D02*
X31409200Y-48413600D01*
X39621280Y-92964000D02*
X39621280Y-95247280D01*
D46*
X47241280Y-92966720D02*
X44497000Y-95711000D01*
X44497000Y-95711000D02*
X43688000Y-95711000D01*
X47241280Y-92964000D02*
X47241280Y-92966720D01*
X54861280Y-68831280D02*
X55626000Y-69596000D01*
X56388000Y-69596000D02*
X56896000Y-70104000D01*
X54861280Y-67564000D02*
X54861280Y-68831280D01*
X55626000Y-69596000D02*
X56388000Y-69596000D01*
X56896000Y-70104000D02*
X56896000Y-70866000D01*
D45*
X28344780Y-90172720D02*
X28347500Y-90170000D01*
D43*
X54864000Y-102870000D02*
X54864000Y-104648000D01*
D45*
X52324000Y-62230000D02*
X72390000Y-62230000D01*
D43*
X26921280Y-92964000D02*
X26921280Y-95247280D01*
D45*
X44196000Y-62230000D02*
X45757200Y-63791200D01*
X28194000Y-100383000D02*
X28501000Y-100076000D01*
X45757200Y-63791200D02*
X50762800Y-63791200D01*
D43*
X100231700Y-88138000D02*
X100231700Y-89506300D01*
D45*
X26921280Y-90172720D02*
X26921280Y-88135280D01*
D43*
X45212000Y-97536000D02*
X46736000Y-96012000D01*
X79820000Y-90360000D02*
X85598000Y-90360000D01*
D45*
X74930000Y-64770000D02*
X74930000Y-68580000D01*
D43*
X74930000Y-95250000D02*
X79820000Y-90360000D01*
X91287600Y-92176600D02*
X89471000Y-90360000D01*
D45*
X72136000Y-71374000D02*
X72136000Y-74168000D01*
X50762800Y-63791200D02*
X52324000Y-62230000D01*
X43434000Y-75946000D02*
X50800000Y-75946000D01*
D43*
X61722000Y-96012000D02*
X62484000Y-95250000D01*
X52857400Y-99237800D02*
X52857400Y-100863400D01*
D45*
X54055000Y-72691000D02*
X54864000Y-72691000D01*
X62183000Y-75946000D02*
X58928000Y-72691000D01*
X72136000Y-74168000D02*
X70358000Y-75946000D01*
X26921280Y-92964000D02*
X26921280Y-90172720D01*
X26921280Y-88135280D02*
X28423780Y-88135280D01*
D43*
X52857400Y-96037400D02*
X52857400Y-99237800D01*
X100231700Y-89506300D02*
X97561400Y-92176600D01*
X89471000Y-90360000D02*
X85598000Y-90360000D01*
D45*
X72390000Y-62230000D02*
X74930000Y-64770000D01*
X54864000Y-72691000D02*
X56896000Y-72691000D01*
X40179000Y-72691000D02*
X43434000Y-75946000D01*
D43*
X29210000Y-97536000D02*
X45212000Y-97536000D01*
X62484000Y-95250000D02*
X74930000Y-95250000D01*
X97561400Y-92176600D02*
X91287600Y-92176600D01*
X26921280Y-95247280D02*
X29210000Y-97536000D01*
X52832000Y-96012000D02*
X52857400Y-96037400D01*
X46736000Y-96012000D02*
X61722000Y-96012000D01*
D45*
X28423780Y-88135280D02*
X28426500Y-88138000D01*
D43*
X52857400Y-100863400D02*
X54864000Y-102870000D01*
X89408000Y-90360000D02*
X89408000Y-88138000D01*
D45*
X33481000Y-72691000D02*
X36830000Y-72691000D01*
X26921280Y-88135280D02*
X26921280Y-79250720D01*
X70358000Y-75946000D02*
X62183000Y-75946000D01*
X28194000Y-104216200D02*
X28194000Y-100383000D01*
X39116000Y-72691000D02*
X40179000Y-72691000D01*
X74930000Y-68580000D02*
X72136000Y-71374000D01*
X50800000Y-75946000D02*
X54055000Y-72691000D01*
X56896000Y-72691000D02*
X58928000Y-72691000D01*
X26921280Y-79250720D02*
X33481000Y-72691000D01*
X26921280Y-90172720D02*
X28344780Y-90172720D01*
X36830000Y-72691000D02*
X39116000Y-72691000D01*
D46*
X47241280Y-68836720D02*
X47241280Y-67564000D01*
X39116000Y-70866000D02*
X45212000Y-70866000D01*
X45212000Y-70866000D02*
X47241280Y-68836720D01*
X44701280Y-67564000D02*
X44701280Y-68582720D01*
X44701280Y-68582720D02*
X43942000Y-69342000D01*
D44*
X27993000Y-58420000D02*
X26909200Y-57336200D01*
X26909200Y-57336200D02*
X26909200Y-54913600D01*
D46*
X38354000Y-69342000D02*
X36830000Y-70866000D01*
X43942000Y-69342000D02*
X38354000Y-69342000D01*
X96737200Y-78195200D02*
X96737200Y-84201000D01*
X93218000Y-74676000D02*
X96737200Y-78195200D01*
X89382600Y-74676000D02*
X93218000Y-74676000D01*
X89357200Y-74650600D02*
X89382600Y-74676000D01*
X96737200Y-74676000D02*
X93943200Y-71882000D01*
X93943200Y-71882000D02*
X89408000Y-71882000D01*
D43*
X98044000Y-103808150D02*
X100153850Y-105918000D01*
X103886000Y-94742000D02*
X98044000Y-100584000D01*
X106092000Y-70946000D02*
X103886000Y-73152000D01*
X111760000Y-70946000D02*
X106092000Y-70946000D01*
X103886000Y-73152000D02*
X103886000Y-94742000D01*
X100153850Y-105918000D02*
X100231700Y-105918000D01*
X98044000Y-100584000D02*
X98044000Y-103808150D01*
X95719400Y-88138000D02*
X95758000Y-88176600D01*
X92710000Y-88138000D02*
X95719400Y-88138000D01*
D44*
X92710000Y-85598000D02*
X92710000Y-88138000D01*
X85598000Y-82550000D02*
X85598000Y-86360000D01*
D43*
X85598000Y-86360000D02*
X83566000Y-86360000D01*
X83566000Y-86360000D02*
X81788000Y-88138000D01*
D44*
X85519500Y-82471500D02*
X85598000Y-82550000D01*
D46*
X71374000Y-82550000D02*
X77216000Y-76708000D01*
X54861280Y-88394720D02*
X60706000Y-82550000D01*
X54861280Y-92964000D02*
X54861280Y-88394720D01*
X86868000Y-76708000D02*
X90170000Y-80010000D01*
X90170000Y-80010000D02*
X91647000Y-80010000D01*
X77216000Y-76708000D02*
X86868000Y-76708000D01*
X60706000Y-82550000D02*
X71374000Y-82550000D01*
X93472000Y-83535000D02*
X93660000Y-83723000D01*
X93472000Y-80010000D02*
X93472000Y-81788000D01*
X93472000Y-81788000D02*
X93472000Y-83535000D01*
X61214000Y-83312000D02*
X71882000Y-83312000D01*
X76200000Y-78994000D02*
X81741000Y-78994000D01*
X57401280Y-87124720D02*
X61214000Y-83312000D01*
X71882000Y-83312000D02*
X76200000Y-78994000D01*
X57401280Y-92964000D02*
X57401280Y-87124720D01*
X83644500Y-81521500D02*
X81546500Y-81521500D01*
X83566000Y-81443000D02*
X83644500Y-81521500D01*
X83566000Y-78994000D02*
X83566000Y-81443000D01*
X81546500Y-81521500D02*
X81534000Y-81534000D01*
X70866000Y-81788000D02*
X78003400Y-74650600D01*
X52321280Y-92964000D02*
X52321280Y-89664720D01*
X78003400Y-74650600D02*
X86257200Y-74650600D01*
X60198000Y-81788000D02*
X70866000Y-81788000D01*
X52321280Y-89664720D02*
X60198000Y-81788000D01*
D43*
X60300000Y-103022000D02*
X60300000Y-104648000D01*
X70510000Y-98704000D02*
X70510000Y-99314000D01*
X63017400Y-100304600D02*
X60300000Y-103022000D01*
X63017400Y-99237800D02*
X63017400Y-100304600D01*
X64008000Y-97282000D02*
X69088000Y-97282000D01*
X63017400Y-98272600D02*
X64008000Y-97282000D01*
X63017400Y-99237800D02*
X63017400Y-98272600D01*
X69088000Y-97282000D02*
X70510000Y-98704000D01*
X70510000Y-102718000D02*
X70510000Y-101854000D01*
X65557400Y-99237800D02*
X65557400Y-100863400D01*
X66802000Y-102108000D02*
X66802000Y-104546000D01*
X66700000Y-104648000D02*
X68580000Y-104648000D01*
X66802000Y-104546000D02*
X66700000Y-104648000D01*
X68580000Y-104648000D02*
X70510000Y-102718000D01*
X65557400Y-100863400D02*
X66802000Y-102108000D01*
X76962000Y-102006000D02*
X76810000Y-101854000D01*
X76962000Y-103378000D02*
X76962000Y-102006000D01*
X76962000Y-97790000D02*
X76962000Y-99162000D01*
X76962000Y-99162000D02*
X76810000Y-99314000D01*
D46*
X49781280Y-90934720D02*
X49781280Y-92964000D01*
X70358000Y-81026000D02*
X59690000Y-81026000D01*
X79502000Y-71882000D02*
X70358000Y-81026000D01*
X59690000Y-81026000D02*
X49781280Y-90934720D01*
X86308000Y-71882000D02*
X79502000Y-71882000D01*
X68072000Y-70866000D02*
X58928000Y-70866000D01*
X70101280Y-67564000D02*
X70101280Y-70360720D01*
X68072000Y-70866000D02*
X69712200Y-70866000D01*
D44*
X69712200Y-86931200D02*
X69712200Y-85665800D01*
D46*
X70101280Y-70360720D02*
X69596000Y-70866000D01*
X69712200Y-70866000D02*
X69712200Y-73165800D01*
D44*
X71427000Y-88646000D02*
X69712200Y-86931200D01*
D46*
X69596000Y-70866000D02*
X68072000Y-70866000D01*
D44*
X39863200Y-85665800D02*
X44312200Y-85665800D01*
D46*
X44690200Y-73165800D02*
X46990000Y-70866000D01*
X52321280Y-70866000D02*
X52321280Y-67564000D01*
X46990000Y-70866000D02*
X52321280Y-70866000D01*
X52321280Y-70866000D02*
X54864000Y-70866000D01*
D44*
X39116000Y-86413000D02*
X39863200Y-85665800D01*
D46*
X44312200Y-73165800D02*
X44690200Y-73165800D01*
D43*
X111760000Y-65946000D02*
X106012000Y-65946000D01*
X106012000Y-65946000D02*
X102108000Y-69850000D01*
X95758000Y-97282000D02*
X95758000Y-101600000D01*
X93980000Y-103378000D02*
X91440000Y-103378000D01*
X102108000Y-90932000D02*
X95758000Y-97282000D01*
X89408000Y-105410000D02*
X89408000Y-105918000D01*
X91440000Y-103378000D02*
X89408000Y-105410000D01*
X102108000Y-69850000D02*
X102108000Y-90932000D01*
X95758000Y-101600000D02*
X93980000Y-103378000D01*
M02*
