G04 #@! TF.GenerationSoftware,KiCad,Pcbnew,(6.0.9)*
G04 #@! TF.CreationDate,2022-12-13T11:15:51-07:00*
G04 #@! TF.ProjectId,Thermostat1,54686572-6d6f-4737-9461-74312e6b6963,rev?*
G04 #@! TF.SameCoordinates,Original*
G04 #@! TF.FileFunction,Soldermask,Top*
G04 #@! TF.FilePolarity,Negative*
%FSLAX46Y46*%
G04 Gerber Fmt 4.6, Leading zero omitted, Abs format (unit mm)*
G04 Created by KiCad (PCBNEW (6.0.9)) date 2022-12-13 11:15:51*
%MOMM*%
%LPD*%
G01*
G04 APERTURE LIST*
G04 Aperture macros list*
%AMRoundRect*
0 Rectangle with rounded corners*
0 $1 Rounding radius*
0 $2 $3 $4 $5 $6 $7 $8 $9 X,Y pos of 4 corners*
0 Add a 4 corners polygon primitive as box body*
4,1,4,$2,$3,$4,$5,$6,$7,$8,$9,$2,$3,0*
0 Add four circle primitives for the rounded corners*
1,1,$1+$1,$2,$3*
1,1,$1+$1,$4,$5*
1,1,$1+$1,$6,$7*
1,1,$1+$1,$8,$9*
0 Add four rect primitives between the rounded corners*
20,1,$1+$1,$2,$3,$4,$5,0*
20,1,$1+$1,$4,$5,$6,$7,0*
20,1,$1+$1,$6,$7,$8,$9,0*
20,1,$1+$1,$8,$9,$2,$3,0*%
G04 Aperture macros list end*
%ADD10RoundRect,0.051000X-0.800000X0.800000X-0.800000X-0.800000X0.800000X-0.800000X0.800000X0.800000X0*%
%ADD11C,1.702000*%
%ADD12RoundRect,0.301000X-0.400000X-0.625000X0.400000X-0.625000X0.400000X0.625000X-0.400000X0.625000X0*%
%ADD13O,1.952000X3.150000*%
%ADD14C,2.102000*%
%ADD15RoundRect,0.288500X-0.250000X-0.237500X0.250000X-0.237500X0.250000X0.237500X-0.250000X0.237500X0*%
%ADD16RoundRect,0.288500X0.237500X-0.250000X0.237500X0.250000X-0.237500X0.250000X-0.237500X-0.250000X0*%
%ADD17RoundRect,0.051000X0.750000X-0.750000X0.750000X0.750000X-0.750000X0.750000X-0.750000X-0.750000X0*%
%ADD18C,1.602000*%
%ADD19RoundRect,0.288500X0.287500X0.237500X-0.287500X0.237500X-0.287500X-0.237500X0.287500X-0.237500X0*%
%ADD20RoundRect,0.201000X-0.150000X0.587500X-0.150000X-0.587500X0.150000X-0.587500X0.150000X0.587500X0*%
%ADD21RoundRect,0.051000X0.900000X-1.250000X0.900000X1.250000X-0.900000X1.250000X-0.900000X-1.250000X0*%
%ADD22RoundRect,0.301000X-0.475000X0.337500X-0.475000X-0.337500X0.475000X-0.337500X0.475000X0.337500X0*%
%ADD23RoundRect,0.288500X-0.300000X-0.237500X0.300000X-0.237500X0.300000X0.237500X-0.300000X0.237500X0*%
%ADD24RoundRect,0.288500X-0.237500X0.300000X-0.237500X-0.300000X0.237500X-0.300000X0.237500X0.300000X0*%
%ADD25C,5.702000*%
%ADD26RoundRect,0.288500X0.250000X0.237500X-0.250000X0.237500X-0.250000X-0.237500X0.250000X-0.237500X0*%
%ADD27RoundRect,0.201000X-0.587500X-0.150000X0.587500X-0.150000X0.587500X0.150000X-0.587500X0.150000X0*%
%ADD28RoundRect,0.288500X-0.237500X0.250000X-0.237500X-0.250000X0.237500X-0.250000X0.237500X0.250000X0*%
%ADD29RoundRect,0.301000X-0.875000X-1.025000X0.875000X-1.025000X0.875000X1.025000X-0.875000X1.025000X0*%
%ADD30RoundRect,0.301000X0.875000X1.025000X-0.875000X1.025000X-0.875000X-1.025000X0.875000X-1.025000X0*%
%ADD31RoundRect,0.301000X0.337500X0.475000X-0.337500X0.475000X-0.337500X-0.475000X0.337500X-0.475000X0*%
%ADD32RoundRect,0.201000X-0.150000X0.750000X-0.150000X-0.750000X0.150000X-0.750000X0.150000X0.750000X0*%
%ADD33RoundRect,0.288500X0.300000X0.237500X-0.300000X0.237500X-0.300000X-0.237500X0.300000X-0.237500X0*%
%ADD34RoundRect,0.051000X0.700000X0.700000X-0.700000X0.700000X-0.700000X-0.700000X0.700000X-0.700000X0*%
%ADD35C,1.502000*%
%ADD36RoundRect,0.051000X-0.850000X0.850000X-0.850000X-0.850000X0.850000X-0.850000X0.850000X0.850000X0*%
%ADD37O,1.802000X1.802000*%
%ADD38RoundRect,0.051000X0.600000X1.000000X-0.600000X1.000000X-0.600000X-1.000000X0.600000X-1.000000X0*%
%ADD39O,1.302000X2.102000*%
%ADD40RoundRect,0.051000X1.980000X-0.990000X1.980000X0.990000X-1.980000X0.990000X-1.980000X-0.990000X0*%
%ADD41O,4.062000X2.082000*%
%ADD42C,1.952000*%
%ADD43RoundRect,0.051000X0.925000X-0.925000X0.925000X0.925000X-0.925000X0.925000X-0.925000X-0.925000X0*%
G04 APERTURE END LIST*
D10*
X72898000Y-98806000D03*
D11*
X72898000Y-103806000D03*
D12*
X84022000Y-98298000D03*
X87122000Y-98298000D03*
X84022000Y-103378000D03*
X87122000Y-103378000D03*
D10*
X72898000Y-100362000D03*
D11*
X72898000Y-102362000D03*
D13*
X69712200Y-85665800D03*
X69712200Y-73165800D03*
X74712200Y-85665800D03*
X74712200Y-73165800D03*
D14*
X26909200Y-48413600D03*
X26909200Y-54913600D03*
X31409200Y-48413600D03*
X31409200Y-54913600D03*
X26909200Y-34415800D03*
X26909200Y-27915800D03*
X31409200Y-27915800D03*
X31409200Y-34415800D03*
X29906400Y-38177400D03*
X29906400Y-44677400D03*
X34406400Y-38177400D03*
X34406400Y-44677400D03*
D15*
X81741000Y-78994000D03*
X83566000Y-78994000D03*
D16*
X54864000Y-72691000D03*
X54864000Y-70866000D03*
X64008000Y-72691000D03*
X64008000Y-70866000D03*
D12*
X86308000Y-71882000D03*
X89408000Y-71882000D03*
X86257200Y-74650600D03*
X89357200Y-74650600D03*
D16*
X36830000Y-72691000D03*
X36830000Y-70866000D03*
X39116000Y-72691000D03*
X39116000Y-70866000D03*
X56896000Y-72691000D03*
X56896000Y-70866000D03*
D13*
X44312200Y-85665800D03*
X44312200Y-73165800D03*
X49312200Y-73165800D03*
X49312200Y-85665800D03*
D17*
X29464000Y-104394000D03*
D18*
X29464000Y-101854000D03*
X29464000Y-99314000D03*
D19*
X98487200Y-74676000D03*
X96737200Y-74676000D03*
X98487200Y-84201000D03*
X96737200Y-84201000D03*
D20*
X93660000Y-83723000D03*
X91760000Y-83723000D03*
X92710000Y-85598000D03*
D21*
X85598000Y-90360000D03*
X85598000Y-86360000D03*
D22*
X56896000Y-62187000D03*
X56896000Y-64262000D03*
D23*
X71427000Y-88646000D03*
X73152000Y-88646000D03*
D24*
X53848000Y-62283000D03*
X53848000Y-64008000D03*
D25*
X35636200Y-104724200D03*
D23*
X27993000Y-58420000D03*
X29718000Y-58420000D03*
D26*
X93472000Y-81788000D03*
X91647000Y-81788000D03*
D27*
X83644500Y-81521500D03*
X83644500Y-83421500D03*
X85519500Y-82471500D03*
D28*
X61976000Y-70819000D03*
X61976000Y-72644000D03*
D25*
X35636200Y-27914600D03*
D29*
X60300000Y-104648000D03*
X66700000Y-104648000D03*
D24*
X32766000Y-99467500D03*
X32766000Y-101192500D03*
D21*
X95758000Y-92176600D03*
X95758000Y-88176600D03*
D30*
X54864000Y-104648000D03*
X48464000Y-104648000D03*
D28*
X59944000Y-70819000D03*
X59944000Y-72644000D03*
D25*
X115189000Y-94234000D03*
D24*
X39116000Y-86413000D03*
X39116000Y-88138000D03*
D25*
X35636200Y-54914800D03*
X88900000Y-64185800D03*
D31*
X30501500Y-88138000D03*
X28426500Y-88138000D03*
D32*
X77724000Y-99720000D03*
X75184000Y-99720000D03*
X75184000Y-106020000D03*
X77724000Y-106020000D03*
D15*
X91543500Y-80010000D03*
X93368500Y-80010000D03*
D33*
X30072500Y-90170000D03*
X28347500Y-90170000D03*
D16*
X81534000Y-83359000D03*
X81534000Y-81534000D03*
D34*
X100330000Y-88138000D03*
D35*
X100330000Y-95758000D03*
X100330000Y-100828000D03*
X100330000Y-105918000D03*
X92700000Y-105928000D03*
X92700000Y-100848000D03*
X92710000Y-95758000D03*
X92710000Y-88138000D03*
D36*
X41656000Y-62230000D03*
D37*
X44196000Y-62230000D03*
X46736000Y-62230000D03*
X49276000Y-62230000D03*
D36*
X106172000Y-92202000D03*
D37*
X108712000Y-92202000D03*
D38*
X72641280Y-92964000D03*
D39*
X70101280Y-92964000D03*
X67561280Y-92964000D03*
X65021280Y-92964000D03*
X62481280Y-92964000D03*
X59941280Y-92964000D03*
X57401280Y-92964000D03*
X54861280Y-92964000D03*
X52321280Y-92964000D03*
X49781280Y-92964000D03*
X47241280Y-92964000D03*
X44701280Y-92964000D03*
X42161280Y-92964000D03*
X39621280Y-92964000D03*
X37081280Y-92964000D03*
X34541280Y-92964000D03*
X32001280Y-92964000D03*
X29461280Y-92964000D03*
X26921280Y-92964000D03*
X26924000Y-67567680D03*
X29464000Y-67567680D03*
X32001280Y-67564000D03*
X34541280Y-67564000D03*
X37081280Y-67564000D03*
X39621280Y-67564000D03*
X42161280Y-67564000D03*
X44701280Y-67564000D03*
X47241280Y-67564000D03*
X49781280Y-67564000D03*
X52321280Y-67564000D03*
X54861280Y-67564000D03*
X57401280Y-67564000D03*
X59941280Y-67564000D03*
X62481280Y-67564000D03*
X65021280Y-67564000D03*
X67561280Y-67564000D03*
X70101280Y-67564000D03*
X72641280Y-67564000D03*
D40*
X106680000Y-80946000D03*
D41*
X106680000Y-75946000D03*
X106680000Y-70946000D03*
X106680000Y-65946000D03*
D42*
X47777400Y-99237800D03*
X50317400Y-99237800D03*
X52857400Y-99237800D03*
X55397400Y-99237800D03*
X60477400Y-99237800D03*
X63017400Y-99237800D03*
D43*
X65557400Y-99237800D03*
D34*
X89408000Y-88138000D03*
D35*
X89408000Y-95758000D03*
X89408000Y-100838000D03*
X89408000Y-105918000D03*
X81788000Y-105918000D03*
X81788000Y-100838000D03*
X81788000Y-95758000D03*
X81788000Y-88138000D03*
D36*
X106172000Y-94742000D03*
D37*
X108712000Y-94742000D03*
M02*
