G04 #@! TF.GenerationSoftware,KiCad,Pcbnew,5.0.2-bee76a0~70~ubuntu18.04.1*
G04 #@! TF.CreationDate,2019-06-28T18:52:20-06:00*
G04 #@! TF.ProjectId,Thermostat1,54686572-6d6f-4737-9461-74312e6b6963,rev?*
G04 #@! TF.SameCoordinates,Original*
G04 #@! TF.FileFunction,Copper,L2,Bot*
G04 #@! TF.FilePolarity,Positive*
%FSLAX46Y46*%
G04 Gerber Fmt 4.6, Leading zero omitted, Abs format (unit mm)*
G04 Created by KiCad (PCBNEW 5.0.2-bee76a0~70~ubuntu18.04.1) date Fri 28 Jun 2019 06:52:20 PM MDT*
%MOMM*%
%LPD*%
G01*
G04 APERTURE LIST*
G04 #@! TA.AperFunction,ComponentPad*
%ADD10R,1.600000X1.600000*%
G04 #@! TD*
G04 #@! TA.AperFunction,ComponentPad*
%ADD11O,1.600000X1.600000*%
G04 #@! TD*
G04 #@! TA.AperFunction,ComponentPad*
%ADD12C,1.800000*%
G04 #@! TD*
G04 #@! TA.AperFunction,ComponentPad*
%ADD13R,1.800000X1.800000*%
G04 #@! TD*
G04 #@! TA.AperFunction,ComponentPad*
%ADD14R,2.200000X2.200000*%
G04 #@! TD*
G04 #@! TA.AperFunction,ComponentPad*
%ADD15O,2.200000X2.200000*%
G04 #@! TD*
G04 #@! TA.AperFunction,ComponentPad*
%ADD16R,3.500000X3.500000*%
G04 #@! TD*
G04 #@! TA.AperFunction,Conductor*
%ADD17C,0.100000*%
G04 #@! TD*
G04 #@! TA.AperFunction,ComponentPad*
%ADD18C,3.000000*%
G04 #@! TD*
G04 #@! TA.AperFunction,ComponentPad*
%ADD19C,3.500000*%
G04 #@! TD*
G04 #@! TA.AperFunction,ComponentPad*
%ADD20R,1.700000X1.700000*%
G04 #@! TD*
G04 #@! TA.AperFunction,ComponentPad*
%ADD21O,1.700000X1.700000*%
G04 #@! TD*
G04 #@! TA.AperFunction,ComponentPad*
%ADD22R,3.960000X1.980000*%
G04 #@! TD*
G04 #@! TA.AperFunction,ComponentPad*
%ADD23O,3.960000X1.980000*%
G04 #@! TD*
G04 #@! TA.AperFunction,ComponentPad*
%ADD24R,1.400000X1.400000*%
G04 #@! TD*
G04 #@! TA.AperFunction,ComponentPad*
%ADD25C,1.400000*%
G04 #@! TD*
G04 #@! TA.AperFunction,ComponentPad*
%ADD26R,1.050000X1.500000*%
G04 #@! TD*
G04 #@! TA.AperFunction,ComponentPad*
%ADD27O,1.050000X1.500000*%
G04 #@! TD*
G04 #@! TA.AperFunction,ComponentPad*
%ADD28C,1.600000*%
G04 #@! TD*
G04 #@! TA.AperFunction,ComponentPad*
%ADD29C,2.000000*%
G04 #@! TD*
G04 #@! TA.AperFunction,ComponentPad*
%ADD30C,6.400000*%
G04 #@! TD*
G04 #@! TA.AperFunction,ViaPad*
%ADD31C,0.800000*%
G04 #@! TD*
G04 #@! TA.AperFunction,Conductor*
%ADD32C,0.250000*%
G04 #@! TD*
G04 #@! TA.AperFunction,Conductor*
%ADD33C,0.600000*%
G04 #@! TD*
G04 #@! TA.AperFunction,Conductor*
%ADD34C,0.254000*%
G04 #@! TD*
G04 APERTURE END LIST*
D10*
G04 #@! TO.P,A1,1*
G04 #@! TO.N,Net-(A1-Pad1)*
X88000000Y-73000000D03*
D11*
G04 #@! TO.P,A1,17*
G04 #@! TO.N,Net-(A1-Pad17)*
X54980000Y-88240000D03*
G04 #@! TO.P,A1,2*
G04 #@! TO.N,Net-(A1-Pad2)*
X85460000Y-73000000D03*
G04 #@! TO.P,A1,18*
G04 #@! TO.N,Net-(A1-Pad18)*
X57520000Y-88240000D03*
G04 #@! TO.P,A1,3*
G04 #@! TO.N,Net-(A1-Pad3)*
X82920000Y-73000000D03*
G04 #@! TO.P,A1,19*
G04 #@! TO.N,Net-(A1-Pad19)*
X60060000Y-88240000D03*
G04 #@! TO.P,A1,4*
G04 #@! TO.N,GND*
X80380000Y-73000000D03*
G04 #@! TO.P,A1,20*
G04 #@! TO.N,Net-(A1-Pad20)*
X62600000Y-88240000D03*
G04 #@! TO.P,A1,5*
G04 #@! TO.N,/TEMP_DATA*
X77840000Y-73000000D03*
G04 #@! TO.P,A1,21*
G04 #@! TO.N,Net-(A1-Pad21)*
X65140000Y-88240000D03*
G04 #@! TO.P,A1,6*
G04 #@! TO.N,Net-(A1-Pad6)*
X75300000Y-73000000D03*
G04 #@! TO.P,A1,22*
G04 #@! TO.N,Net-(A1-Pad22)*
X67680000Y-88240000D03*
G04 #@! TO.P,A1,7*
G04 #@! TO.N,/RELAY_DRIVE*
X72760000Y-73000000D03*
G04 #@! TO.P,A1,23*
G04 #@! TO.N,/SDA*
X70220000Y-88240000D03*
G04 #@! TO.P,A1,8*
G04 #@! TO.N,/HEATING_LED*
X70220000Y-73000000D03*
G04 #@! TO.P,A1,24*
G04 #@! TO.N,/SCL*
X72760000Y-88240000D03*
G04 #@! TO.P,A1,9*
G04 #@! TO.N,/OVERRIDE_LED*
X67680000Y-73000000D03*
G04 #@! TO.P,A1,25*
G04 #@! TO.N,Net-(A1-Pad25)*
X75300000Y-88240000D03*
G04 #@! TO.P,A1,10*
G04 #@! TO.N,Net-(A1-Pad10)*
X65140000Y-73000000D03*
G04 #@! TO.P,A1,26*
G04 #@! TO.N,Net-(A1-Pad26)*
X77840000Y-88240000D03*
G04 #@! TO.P,A1,11*
G04 #@! TO.N,/SET_SWITCH*
X62600000Y-73000000D03*
G04 #@! TO.P,A1,27*
G04 #@! TO.N,+5V*
X80380000Y-88240000D03*
G04 #@! TO.P,A1,12*
G04 #@! TO.N,/UP_SWITCH*
X60060000Y-73000000D03*
G04 #@! TO.P,A1,28*
G04 #@! TO.N,Net-(A1-Pad28)*
X82920000Y-88240000D03*
G04 #@! TO.P,A1,13*
G04 #@! TO.N,/DOWN_SWITCH*
X57520000Y-73000000D03*
G04 #@! TO.P,A1,29*
G04 #@! TO.N,GND*
X85460000Y-88240000D03*
G04 #@! TO.P,A1,14*
G04 #@! TO.N,/START_SWITCH*
X54980000Y-73000000D03*
G04 #@! TO.P,A1,30*
G04 #@! TO.N,/VIN*
X88000000Y-88240000D03*
G04 #@! TO.P,A1,15*
G04 #@! TO.N,/CANCEL_SWITCH*
X52440000Y-73000000D03*
G04 #@! TO.P,A1,16*
G04 #@! TO.N,Net-(A1-Pad16)*
X52440000Y-88240000D03*
G04 #@! TD*
D12*
G04 #@! TO.P,D1,2*
G04 #@! TO.N,Net-(D1-Pad2)*
X119540000Y-75000000D03*
D13*
G04 #@! TO.P,D1,1*
G04 #@! TO.N,GND*
X117000000Y-75000000D03*
G04 #@! TD*
G04 #@! TO.P,D2,1*
G04 #@! TO.N,GND*
X117000000Y-87000000D03*
D12*
G04 #@! TO.P,D2,2*
G04 #@! TO.N,Net-(D2-Pad2)*
X119540000Y-87000000D03*
G04 #@! TD*
D14*
G04 #@! TO.P,D3,1*
G04 #@! TO.N,+5V*
X99000000Y-98000000D03*
D15*
G04 #@! TO.P,D3,2*
G04 #@! TO.N,/RELAY_PULLDOWN*
X109160000Y-98000000D03*
G04 #@! TD*
D16*
G04 #@! TO.P,J1,1*
G04 #@! TO.N,/VIN*
X40000000Y-101000000D03*
D17*
G04 #@! TD*
G04 #@! TO.N,GND*
G04 #@! TO.C,J1*
G36*
X34823513Y-99253611D02*
X34896318Y-99264411D01*
X34967714Y-99282295D01*
X35037013Y-99307090D01*
X35103548Y-99338559D01*
X35166678Y-99376398D01*
X35225795Y-99420242D01*
X35280330Y-99469670D01*
X35329758Y-99524205D01*
X35373602Y-99583322D01*
X35411441Y-99646452D01*
X35442910Y-99712987D01*
X35467705Y-99782286D01*
X35485589Y-99853682D01*
X35496389Y-99926487D01*
X35500000Y-100000000D01*
X35500000Y-102000000D01*
X35496389Y-102073513D01*
X35485589Y-102146318D01*
X35467705Y-102217714D01*
X35442910Y-102287013D01*
X35411441Y-102353548D01*
X35373602Y-102416678D01*
X35329758Y-102475795D01*
X35280330Y-102530330D01*
X35225795Y-102579758D01*
X35166678Y-102623602D01*
X35103548Y-102661441D01*
X35037013Y-102692910D01*
X34967714Y-102717705D01*
X34896318Y-102735589D01*
X34823513Y-102746389D01*
X34750000Y-102750000D01*
X33250000Y-102750000D01*
X33176487Y-102746389D01*
X33103682Y-102735589D01*
X33032286Y-102717705D01*
X32962987Y-102692910D01*
X32896452Y-102661441D01*
X32833322Y-102623602D01*
X32774205Y-102579758D01*
X32719670Y-102530330D01*
X32670242Y-102475795D01*
X32626398Y-102416678D01*
X32588559Y-102353548D01*
X32557090Y-102287013D01*
X32532295Y-102217714D01*
X32514411Y-102146318D01*
X32503611Y-102073513D01*
X32500000Y-102000000D01*
X32500000Y-100000000D01*
X32503611Y-99926487D01*
X32514411Y-99853682D01*
X32532295Y-99782286D01*
X32557090Y-99712987D01*
X32588559Y-99646452D01*
X32626398Y-99583322D01*
X32670242Y-99524205D01*
X32719670Y-99469670D01*
X32774205Y-99420242D01*
X32833322Y-99376398D01*
X32896452Y-99338559D01*
X32962987Y-99307090D01*
X33032286Y-99282295D01*
X33103682Y-99264411D01*
X33176487Y-99253611D01*
X33250000Y-99250000D01*
X34750000Y-99250000D01*
X34823513Y-99253611D01*
X34823513Y-99253611D01*
G37*
D18*
G04 #@! TO.P,J1,2*
G04 #@! TO.N,GND*
X34000000Y-101000000D03*
D17*
G04 #@! TD*
G04 #@! TO.N,N/C*
G04 #@! TO.C,J1*
G36*
X37960765Y-103954213D02*
X38045704Y-103966813D01*
X38128999Y-103987677D01*
X38209848Y-104016605D01*
X38287472Y-104053319D01*
X38361124Y-104097464D01*
X38430094Y-104148616D01*
X38493718Y-104206282D01*
X38551384Y-104269906D01*
X38602536Y-104338876D01*
X38646681Y-104412528D01*
X38683395Y-104490152D01*
X38712323Y-104571001D01*
X38733187Y-104654296D01*
X38745787Y-104739235D01*
X38750000Y-104825000D01*
X38750000Y-106575000D01*
X38745787Y-106660765D01*
X38733187Y-106745704D01*
X38712323Y-106828999D01*
X38683395Y-106909848D01*
X38646681Y-106987472D01*
X38602536Y-107061124D01*
X38551384Y-107130094D01*
X38493718Y-107193718D01*
X38430094Y-107251384D01*
X38361124Y-107302536D01*
X38287472Y-107346681D01*
X38209848Y-107383395D01*
X38128999Y-107412323D01*
X38045704Y-107433187D01*
X37960765Y-107445787D01*
X37875000Y-107450000D01*
X36125000Y-107450000D01*
X36039235Y-107445787D01*
X35954296Y-107433187D01*
X35871001Y-107412323D01*
X35790152Y-107383395D01*
X35712528Y-107346681D01*
X35638876Y-107302536D01*
X35569906Y-107251384D01*
X35506282Y-107193718D01*
X35448616Y-107130094D01*
X35397464Y-107061124D01*
X35353319Y-106987472D01*
X35316605Y-106909848D01*
X35287677Y-106828999D01*
X35266813Y-106745704D01*
X35254213Y-106660765D01*
X35250000Y-106575000D01*
X35250000Y-104825000D01*
X35254213Y-104739235D01*
X35266813Y-104654296D01*
X35287677Y-104571001D01*
X35316605Y-104490152D01*
X35353319Y-104412528D01*
X35397464Y-104338876D01*
X35448616Y-104269906D01*
X35506282Y-104206282D01*
X35569906Y-104148616D01*
X35638876Y-104097464D01*
X35712528Y-104053319D01*
X35790152Y-104016605D01*
X35871001Y-103987677D01*
X35954296Y-103966813D01*
X36039235Y-103954213D01*
X36125000Y-103950000D01*
X37875000Y-103950000D01*
X37960765Y-103954213D01*
X37960765Y-103954213D01*
G37*
D19*
G04 #@! TO.P,J1,3*
G04 #@! TO.N,N/C*
X37000000Y-105700000D03*
G04 #@! TD*
D20*
G04 #@! TO.P,J2,1*
G04 #@! TO.N,GND*
X52000000Y-38000000D03*
D21*
G04 #@! TO.P,J2,2*
G04 #@! TO.N,+5V*
X52000000Y-40540000D03*
G04 #@! TO.P,J2,3*
G04 #@! TO.N,/SDA*
X52000000Y-43080000D03*
G04 #@! TO.P,J2,4*
G04 #@! TO.N,/SCL*
X52000000Y-45620000D03*
G04 #@! TD*
D22*
G04 #@! TO.P,J3,1*
G04 #@! TO.N,/RELAY_OUTA*
X121000000Y-117000000D03*
D23*
G04 #@! TO.P,J3,2*
G04 #@! TO.N,/RELAY_OUTB*
X121000000Y-112000000D03*
G04 #@! TD*
D24*
G04 #@! TO.P,K1,1*
G04 #@! TO.N,+5V*
X101000000Y-108000000D03*
D25*
G04 #@! TO.P,K1,16*
G04 #@! TO.N,/RELAY_PULLDOWN*
X108620000Y-108000000D03*
G04 #@! TO.P,K1,6*
G04 #@! TO.N,Net-(K1-Pad6)*
X101000000Y-120690000D03*
G04 #@! TO.P,K1,8*
G04 #@! TO.N,Net-(K1-Pad8)*
X101000000Y-125780000D03*
G04 #@! TO.P,K1,4*
G04 #@! TO.N,Net-(K1-Pad4)*
X101000000Y-115620000D03*
G04 #@! TO.P,K1,11*
G04 #@! TO.N,Net-(K1-Pad11)*
X108630000Y-120710000D03*
G04 #@! TO.P,K1,9*
G04 #@! TO.N,/RELAY_OUTA*
X108630000Y-125790000D03*
G04 #@! TO.P,K1,13*
G04 #@! TO.N,/RELAY_OUTB*
X108620000Y-115620000D03*
G04 #@! TD*
D26*
G04 #@! TO.P,Q1,1*
G04 #@! TO.N,GND*
X120000000Y-104000000D03*
D27*
G04 #@! TO.P,Q1,3*
G04 #@! TO.N,/RELAY_PULLDOWN*
X122540000Y-104000000D03*
G04 #@! TO.P,Q1,2*
G04 #@! TO.N,Net-(Q1-Pad2)*
X121270000Y-104000000D03*
G04 #@! TD*
D11*
G04 #@! TO.P,R1,2*
G04 #@! TO.N,/SET_SWITCH*
X36000000Y-44840000D03*
D28*
G04 #@! TO.P,R1,1*
G04 #@! TO.N,+5V*
X36000000Y-55000000D03*
G04 #@! TD*
D11*
G04 #@! TO.P,R2,2*
G04 #@! TO.N,/UP_SWITCH*
X46000000Y-31840000D03*
D28*
G04 #@! TO.P,R2,1*
G04 #@! TO.N,+5V*
X46000000Y-42000000D03*
G04 #@! TD*
G04 #@! TO.P,R3,1*
G04 #@! TO.N,+5V*
X46000000Y-68000000D03*
D11*
G04 #@! TO.P,R3,2*
G04 #@! TO.N,/DOWN_SWITCH*
X46000000Y-57840000D03*
G04 #@! TD*
D28*
G04 #@! TO.P,R4,1*
G04 #@! TO.N,/HEATING_LED*
X100840000Y-75000000D03*
D11*
G04 #@! TO.P,R4,2*
G04 #@! TO.N,Net-(D1-Pad2)*
X111000000Y-75000000D03*
G04 #@! TD*
G04 #@! TO.P,R5,2*
G04 #@! TO.N,Net-(D2-Pad2)*
X111160000Y-87000000D03*
D28*
G04 #@! TO.P,R5,1*
G04 #@! TO.N,/OVERRIDE_LED*
X101000000Y-87000000D03*
G04 #@! TD*
D11*
G04 #@! TO.P,R6,2*
G04 #@! TO.N,/START_SWITCH*
X79160000Y-107000000D03*
D28*
G04 #@! TO.P,R6,1*
G04 #@! TO.N,+5V*
X69000000Y-107000000D03*
G04 #@! TD*
G04 #@! TO.P,R7,1*
G04 #@! TO.N,+5V*
X69000000Y-114000000D03*
D11*
G04 #@! TO.P,R7,2*
G04 #@! TO.N,/CANCEL_SWITCH*
X79160000Y-114000000D03*
G04 #@! TD*
D28*
G04 #@! TO.P,R8,1*
G04 #@! TO.N,Net-(Q1-Pad2)*
X125000000Y-98000000D03*
D11*
G04 #@! TO.P,R8,2*
G04 #@! TO.N,/RELAY_DRIVE*
X114840000Y-98000000D03*
G04 #@! TD*
D29*
G04 #@! TO.P,SW1,2*
G04 #@! TO.N,GND*
X44500000Y-53000000D03*
G04 #@! TO.P,SW1,1*
G04 #@! TO.N,/SET_SWITCH*
X40000000Y-53000000D03*
G04 #@! TO.P,SW1,2*
G04 #@! TO.N,GND*
X44500000Y-46500000D03*
G04 #@! TO.P,SW1,1*
G04 #@! TO.N,/SET_SWITCH*
X40000000Y-46500000D03*
G04 #@! TD*
G04 #@! TO.P,SW2,1*
G04 #@! TO.N,/UP_SWITCH*
X41500000Y-35000000D03*
G04 #@! TO.P,SW2,2*
G04 #@! TO.N,GND*
X41500000Y-39500000D03*
G04 #@! TO.P,SW2,1*
G04 #@! TO.N,/UP_SWITCH*
X35000000Y-35000000D03*
G04 #@! TO.P,SW2,2*
G04 #@! TO.N,GND*
X35000000Y-39500000D03*
G04 #@! TD*
G04 #@! TO.P,SW3,2*
G04 #@! TO.N,GND*
X35000000Y-64500000D03*
G04 #@! TO.P,SW3,1*
G04 #@! TO.N,/DOWN_SWITCH*
X35000000Y-60000000D03*
G04 #@! TO.P,SW3,2*
G04 #@! TO.N,GND*
X41500000Y-64500000D03*
G04 #@! TO.P,SW3,1*
G04 #@! TO.N,/DOWN_SWITCH*
X41500000Y-60000000D03*
G04 #@! TD*
G04 #@! TO.P,SW4,1*
G04 #@! TO.N,/START_SWITCH*
X77500000Y-97000000D03*
G04 #@! TO.P,SW4,2*
G04 #@! TO.N,GND*
X77500000Y-101500000D03*
G04 #@! TO.P,SW4,1*
G04 #@! TO.N,/START_SWITCH*
X71000000Y-97000000D03*
G04 #@! TO.P,SW4,2*
G04 #@! TO.N,GND*
X71000000Y-101500000D03*
G04 #@! TD*
G04 #@! TO.P,SW5,2*
G04 #@! TO.N,GND*
X71000000Y-123500000D03*
G04 #@! TO.P,SW5,1*
G04 #@! TO.N,/CANCEL_SWITCH*
X71000000Y-119000000D03*
G04 #@! TO.P,SW5,2*
G04 #@! TO.N,GND*
X77500000Y-123500000D03*
G04 #@! TO.P,SW5,1*
G04 #@! TO.N,/CANCEL_SWITCH*
X77500000Y-119000000D03*
G04 #@! TD*
D27*
G04 #@! TO.P,U1,2*
G04 #@! TO.N,/TEMP_DATA*
X34270000Y-125000000D03*
G04 #@! TO.P,U1,3*
G04 #@! TO.N,+5V*
X35540000Y-125000000D03*
D26*
G04 #@! TO.P,U1,1*
G04 #@! TO.N,GND*
X33000000Y-125000000D03*
G04 #@! TD*
D30*
G04 #@! TO.P,REF\002A\002A,1*
G04 #@! TO.N,N/C*
X125000000Y-35000000D03*
G04 #@! TD*
G04 #@! TO.P,REF\002A\002A,1*
G04 #@! TO.N,N/C*
X125000000Y-125000000D03*
G04 #@! TD*
G04 #@! TO.P,REF\002A\002A,1*
G04 #@! TO.N,N/C*
X35000000Y-81000000D03*
G04 #@! TD*
D28*
G04 #@! TO.P,R9,1*
G04 #@! TO.N,/TEMP_DATA*
X64000000Y-104000000D03*
D11*
G04 #@! TO.P,R9,2*
G04 #@! TO.N,+5V*
X64000000Y-114160000D03*
G04 #@! TD*
D31*
G04 #@! TO.N,/CANCEL_SWITCH*
X57764300Y-104087300D03*
G04 #@! TD*
D32*
G04 #@! TO.N,GND*
X119730000Y-106270000D02*
X119730000Y-108000000D01*
G04 #@! TO.N,/TEMP_DATA*
X65131370Y-104000000D02*
X64000000Y-104000000D01*
X65961002Y-104000000D02*
X65131370Y-104000000D01*
X76714700Y-93246302D02*
X65961002Y-104000000D01*
X76714700Y-75250600D02*
X76714700Y-93246302D01*
X77840000Y-74125300D02*
X76714700Y-75250600D01*
X77840000Y-73000000D02*
X77840000Y-74125300D01*
X34270000Y-124775000D02*
X34270000Y-125000000D01*
X46045000Y-113000000D02*
X34270000Y-124775000D01*
X55000000Y-113000000D02*
X46045000Y-113000000D01*
X64000000Y-104000000D02*
X55000000Y-113000000D01*
G04 #@! TO.N,/SDA*
X70220000Y-87114700D02*
X63870000Y-80764700D01*
X63870000Y-80764700D02*
X63870000Y-69972100D01*
X63870000Y-69972100D02*
X50808100Y-56910200D01*
X50808100Y-56910200D02*
X50808100Y-45079900D01*
X50808100Y-45079900D02*
X51632700Y-44255300D01*
X51632700Y-44255300D02*
X52000000Y-44255300D01*
X70220000Y-88240000D02*
X70220000Y-87114700D01*
X52000000Y-43080000D02*
X52000000Y-44255300D01*
G04 #@! TO.N,/SCL*
X72760000Y-88240000D02*
X72760000Y-87114700D01*
X52000000Y-45620000D02*
X52000000Y-46795300D01*
X52000000Y-46795300D02*
X71634700Y-66430000D01*
X71634700Y-66430000D02*
X71634700Y-85989400D01*
X71634700Y-85989400D02*
X72760000Y-87114700D01*
G04 #@! TO.N,/SET_SWITCH*
X40000000Y-53000000D02*
X40000000Y-46500000D01*
D33*
G04 #@! TO.N,+5V*
X69000000Y-114000000D02*
X69000000Y-107000000D01*
D32*
G04 #@! TO.N,/UP_SWITCH*
X42732700Y-36232600D02*
X43690700Y-37190700D01*
X43690700Y-37190700D02*
X43690700Y-42334000D01*
X43690700Y-42334000D02*
X45825400Y-44468700D01*
X45825400Y-44468700D02*
X45825400Y-53201200D01*
X45825400Y-53201200D02*
X60060000Y-67435800D01*
X60060000Y-67435800D02*
X60060000Y-73000000D01*
X41500000Y-35000000D02*
X42732700Y-36232600D01*
X46000000Y-32965300D02*
X42732700Y-36232600D01*
X46000000Y-31840000D02*
X46000000Y-32965300D01*
G04 #@! TO.N,/START_SWITCH*
X54980000Y-73000000D02*
X54980000Y-74125300D01*
X71000000Y-97000000D02*
X64014600Y-90014600D01*
X64014600Y-90014600D02*
X64014600Y-83159900D01*
X64014600Y-83159900D02*
X54980000Y-74125300D01*
G04 #@! TO.N,/CANCEL_SWITCH*
X52440000Y-73000000D02*
X52440000Y-74125300D01*
X57764300Y-104087300D02*
X53565300Y-99888300D01*
X53565300Y-99888300D02*
X53565300Y-75250600D01*
X53565300Y-75250600D02*
X52440000Y-74125300D01*
G04 #@! TD*
D34*
G04 #@! TO.N,GND*
G36*
X44648260Y-31280091D02*
X44536887Y-31840000D01*
X44648260Y-32399909D01*
X44965423Y-32874577D01*
X44995694Y-32894804D01*
X43135000Y-34755499D01*
X43135000Y-34674778D01*
X42886086Y-34073847D01*
X42426153Y-33613914D01*
X41825222Y-33365000D01*
X41174778Y-33365000D01*
X40573847Y-33613914D01*
X40113914Y-34073847D01*
X39865000Y-34674778D01*
X39865000Y-35325222D01*
X40113914Y-35926153D01*
X40573847Y-36386086D01*
X41174778Y-36635000D01*
X41825222Y-36635000D01*
X41991434Y-36566153D01*
X42142381Y-36717087D01*
X42184771Y-36780529D01*
X42248213Y-36822920D01*
X42930700Y-37505479D01*
X42930700Y-38653049D01*
X42919387Y-38625736D01*
X42652532Y-38527073D01*
X41679605Y-39500000D01*
X42652532Y-40472927D01*
X42919387Y-40374264D01*
X42930701Y-40343811D01*
X42930701Y-42259148D01*
X42915812Y-42334000D01*
X42974797Y-42630537D01*
X43076980Y-42783464D01*
X43142772Y-42881929D01*
X43206228Y-42924329D01*
X45065400Y-44783502D01*
X45065400Y-44965866D01*
X44764539Y-44854092D01*
X44114540Y-44878144D01*
X43625736Y-45080613D01*
X43527073Y-45347468D01*
X44500000Y-46320395D01*
X44514143Y-46306253D01*
X44693748Y-46485858D01*
X44679605Y-46500000D01*
X44693748Y-46514143D01*
X44514143Y-46693748D01*
X44500000Y-46679605D01*
X43527073Y-47652532D01*
X43625736Y-47919387D01*
X44235461Y-48145908D01*
X44885460Y-48121856D01*
X45065400Y-48047322D01*
X45065401Y-51465866D01*
X44764539Y-51354092D01*
X44114540Y-51378144D01*
X43625736Y-51580613D01*
X43527073Y-51847468D01*
X44500000Y-52820395D01*
X44514143Y-52806253D01*
X44693748Y-52985858D01*
X44679605Y-53000000D01*
X45092651Y-53413046D01*
X45109497Y-53497737D01*
X45277472Y-53749129D01*
X45340928Y-53791529D01*
X59300000Y-67750603D01*
X59300001Y-71781956D01*
X59025423Y-71965423D01*
X58790000Y-72317758D01*
X58554577Y-71965423D01*
X58079909Y-71648260D01*
X57661333Y-71565000D01*
X57378667Y-71565000D01*
X56960091Y-71648260D01*
X56485423Y-71965423D01*
X56250000Y-72317758D01*
X56014577Y-71965423D01*
X55539909Y-71648260D01*
X55121333Y-71565000D01*
X54838667Y-71565000D01*
X54420091Y-71648260D01*
X53945423Y-71965423D01*
X53710000Y-72317758D01*
X53474577Y-71965423D01*
X52999909Y-71648260D01*
X52581333Y-71565000D01*
X52298667Y-71565000D01*
X51880091Y-71648260D01*
X51405423Y-71965423D01*
X51088260Y-72440091D01*
X50976887Y-73000000D01*
X51088260Y-73559909D01*
X51405423Y-74034577D01*
X51684106Y-74220787D01*
X51724097Y-74421837D01*
X51760095Y-74475711D01*
X51892072Y-74673229D01*
X51955528Y-74715629D01*
X52805301Y-75565403D01*
X52805301Y-86849550D01*
X52581333Y-86805000D01*
X52298667Y-86805000D01*
X51880091Y-86888260D01*
X51405423Y-87205423D01*
X51088260Y-87680091D01*
X50976887Y-88240000D01*
X51088260Y-88799909D01*
X51405423Y-89274577D01*
X51880091Y-89591740D01*
X52298667Y-89675000D01*
X52581333Y-89675000D01*
X52805300Y-89630450D01*
X52805300Y-99813453D01*
X52790412Y-99888300D01*
X52805300Y-99963147D01*
X52805300Y-99963151D01*
X52849396Y-100184836D01*
X53017371Y-100436229D01*
X53080830Y-100478631D01*
X56729300Y-104127102D01*
X56729300Y-104293174D01*
X56886869Y-104673580D01*
X57178020Y-104964731D01*
X57558426Y-105122300D01*
X57970174Y-105122300D01*
X58350580Y-104964731D01*
X58641731Y-104673580D01*
X58799300Y-104293174D01*
X58799300Y-103881426D01*
X58641731Y-103501020D01*
X58350580Y-103209869D01*
X57970174Y-103052300D01*
X57804102Y-103052300D01*
X54325300Y-99573499D01*
X54325300Y-89528403D01*
X54420091Y-89591740D01*
X54838667Y-89675000D01*
X55121333Y-89675000D01*
X55539909Y-89591740D01*
X56014577Y-89274577D01*
X56250000Y-88922242D01*
X56485423Y-89274577D01*
X56960091Y-89591740D01*
X57378667Y-89675000D01*
X57661333Y-89675000D01*
X58079909Y-89591740D01*
X58554577Y-89274577D01*
X58790000Y-88922242D01*
X59025423Y-89274577D01*
X59500091Y-89591740D01*
X59918667Y-89675000D01*
X60201333Y-89675000D01*
X60619909Y-89591740D01*
X61094577Y-89274577D01*
X61330000Y-88922242D01*
X61565423Y-89274577D01*
X62040091Y-89591740D01*
X62458667Y-89675000D01*
X62741333Y-89675000D01*
X63159909Y-89591740D01*
X63254600Y-89528469D01*
X63254600Y-89939753D01*
X63239712Y-90014600D01*
X63254600Y-90089447D01*
X63254600Y-90089451D01*
X63298696Y-90311136D01*
X63466671Y-90562529D01*
X63530130Y-90604931D01*
X69433823Y-96508625D01*
X69365000Y-96674778D01*
X69365000Y-97325222D01*
X69613914Y-97926153D01*
X70073847Y-98386086D01*
X70375264Y-98510937D01*
X65646201Y-103240000D01*
X65238430Y-103240000D01*
X65216534Y-103187138D01*
X64812862Y-102783466D01*
X64285439Y-102565000D01*
X63714561Y-102565000D01*
X63187138Y-102783466D01*
X62783466Y-103187138D01*
X62565000Y-103714561D01*
X62565000Y-104285439D01*
X62586896Y-104338302D01*
X54685199Y-112240000D01*
X46119848Y-112240000D01*
X46045000Y-112225112D01*
X45970152Y-112240000D01*
X45970148Y-112240000D01*
X45796605Y-112274520D01*
X45748462Y-112284096D01*
X45561418Y-112409076D01*
X45497071Y-112452071D01*
X45454671Y-112515527D01*
X34360018Y-123610181D01*
X34270000Y-123592275D01*
X33817391Y-123682305D01*
X33816016Y-123683224D01*
X33651309Y-123615000D01*
X33285750Y-123615000D01*
X33127000Y-123773750D01*
X33127000Y-124575291D01*
X33110000Y-124660755D01*
X33110000Y-125339246D01*
X33127000Y-125424710D01*
X33127000Y-126226250D01*
X33285750Y-126385000D01*
X33651309Y-126385000D01*
X33816016Y-126316776D01*
X33817392Y-126317695D01*
X34270000Y-126407725D01*
X34722609Y-126317695D01*
X34905001Y-126195825D01*
X35087392Y-126317695D01*
X35540000Y-126407725D01*
X35992609Y-126317695D01*
X36376313Y-126061313D01*
X36632695Y-125677608D01*
X36665148Y-125514452D01*
X99665000Y-125514452D01*
X99665000Y-126045548D01*
X99868242Y-126536217D01*
X100243783Y-126911758D01*
X100734452Y-127115000D01*
X101265548Y-127115000D01*
X101756217Y-126911758D01*
X102131758Y-126536217D01*
X102335000Y-126045548D01*
X102335000Y-125524452D01*
X107295000Y-125524452D01*
X107295000Y-126055548D01*
X107498242Y-126546217D01*
X107873783Y-126921758D01*
X108364452Y-127125000D01*
X108895548Y-127125000D01*
X109386217Y-126921758D01*
X109761758Y-126546217D01*
X109965000Y-126055548D01*
X109965000Y-125524452D01*
X109761758Y-125033783D01*
X109386217Y-124658242D01*
X108895548Y-124455000D01*
X108364452Y-124455000D01*
X107873783Y-124658242D01*
X107498242Y-125033783D01*
X107295000Y-125524452D01*
X102335000Y-125524452D01*
X102335000Y-125514452D01*
X102131758Y-125023783D01*
X101756217Y-124648242D01*
X101265548Y-124445000D01*
X100734452Y-124445000D01*
X100243783Y-124648242D01*
X99868242Y-125023783D01*
X99665000Y-125514452D01*
X36665148Y-125514452D01*
X36700000Y-125339245D01*
X36700000Y-124660754D01*
X36698365Y-124652532D01*
X70027073Y-124652532D01*
X70125736Y-124919387D01*
X70735461Y-125145908D01*
X71385460Y-125121856D01*
X71874264Y-124919387D01*
X71972927Y-124652532D01*
X76527073Y-124652532D01*
X76625736Y-124919387D01*
X77235461Y-125145908D01*
X77885460Y-125121856D01*
X78374264Y-124919387D01*
X78472927Y-124652532D01*
X77500000Y-123679605D01*
X76527073Y-124652532D01*
X71972927Y-124652532D01*
X71000000Y-123679605D01*
X70027073Y-124652532D01*
X36698365Y-124652532D01*
X36632695Y-124322391D01*
X36376313Y-123938687D01*
X36259300Y-123860502D01*
X36884341Y-123235461D01*
X69354092Y-123235461D01*
X69378144Y-123885460D01*
X69580613Y-124374264D01*
X69847468Y-124472927D01*
X70820395Y-123500000D01*
X71179605Y-123500000D01*
X72152532Y-124472927D01*
X72419387Y-124374264D01*
X72645908Y-123764539D01*
X72626331Y-123235461D01*
X75854092Y-123235461D01*
X75878144Y-123885460D01*
X76080613Y-124374264D01*
X76347468Y-124472927D01*
X77320395Y-123500000D01*
X77679605Y-123500000D01*
X78652532Y-124472927D01*
X78919387Y-124374264D01*
X78970318Y-124237171D01*
X121165000Y-124237171D01*
X121165000Y-125762829D01*
X121748844Y-127172353D01*
X122827647Y-128251156D01*
X124237171Y-128835000D01*
X125762829Y-128835000D01*
X127172353Y-128251156D01*
X128251156Y-127172353D01*
X128835000Y-125762829D01*
X128835000Y-124237171D01*
X128251156Y-122827647D01*
X127172353Y-121748844D01*
X125762829Y-121165000D01*
X124237171Y-121165000D01*
X122827647Y-121748844D01*
X121748844Y-122827647D01*
X121165000Y-124237171D01*
X78970318Y-124237171D01*
X79145908Y-123764539D01*
X79121856Y-123114540D01*
X78919387Y-122625736D01*
X78652532Y-122527073D01*
X77679605Y-123500000D01*
X77320395Y-123500000D01*
X76347468Y-122527073D01*
X76080613Y-122625736D01*
X75854092Y-123235461D01*
X72626331Y-123235461D01*
X72621856Y-123114540D01*
X72419387Y-122625736D01*
X72152532Y-122527073D01*
X71179605Y-123500000D01*
X70820395Y-123500000D01*
X69847468Y-122527073D01*
X69580613Y-122625736D01*
X69354092Y-123235461D01*
X36884341Y-123235461D01*
X37772334Y-122347468D01*
X70027073Y-122347468D01*
X71000000Y-123320395D01*
X71972927Y-122347468D01*
X76527073Y-122347468D01*
X77500000Y-123320395D01*
X78472927Y-122347468D01*
X78374264Y-122080613D01*
X77764539Y-121854092D01*
X77114540Y-121878144D01*
X76625736Y-122080613D01*
X76527073Y-122347468D01*
X71972927Y-122347468D01*
X71874264Y-122080613D01*
X71264539Y-121854092D01*
X70614540Y-121878144D01*
X70125736Y-122080613D01*
X70027073Y-122347468D01*
X37772334Y-122347468D01*
X41445024Y-118674778D01*
X69365000Y-118674778D01*
X69365000Y-119325222D01*
X69613914Y-119926153D01*
X70073847Y-120386086D01*
X70674778Y-120635000D01*
X71325222Y-120635000D01*
X71926153Y-120386086D01*
X72386086Y-119926153D01*
X72635000Y-119325222D01*
X72635000Y-118674778D01*
X75865000Y-118674778D01*
X75865000Y-119325222D01*
X76113914Y-119926153D01*
X76573847Y-120386086D01*
X77174778Y-120635000D01*
X77825222Y-120635000D01*
X78333529Y-120424452D01*
X99665000Y-120424452D01*
X99665000Y-120955548D01*
X99868242Y-121446217D01*
X100243783Y-121821758D01*
X100734452Y-122025000D01*
X101265548Y-122025000D01*
X101756217Y-121821758D01*
X102131758Y-121446217D01*
X102335000Y-120955548D01*
X102335000Y-120444452D01*
X107295000Y-120444452D01*
X107295000Y-120975548D01*
X107498242Y-121466217D01*
X107873783Y-121841758D01*
X108364452Y-122045000D01*
X108895548Y-122045000D01*
X109386217Y-121841758D01*
X109761758Y-121466217D01*
X109965000Y-120975548D01*
X109965000Y-120444452D01*
X109761758Y-119953783D01*
X109386217Y-119578242D01*
X108895548Y-119375000D01*
X108364452Y-119375000D01*
X107873783Y-119578242D01*
X107498242Y-119953783D01*
X107295000Y-120444452D01*
X102335000Y-120444452D01*
X102335000Y-120424452D01*
X102131758Y-119933783D01*
X101756217Y-119558242D01*
X101265548Y-119355000D01*
X100734452Y-119355000D01*
X100243783Y-119558242D01*
X99868242Y-119933783D01*
X99665000Y-120424452D01*
X78333529Y-120424452D01*
X78426153Y-120386086D01*
X78886086Y-119926153D01*
X79135000Y-119325222D01*
X79135000Y-118674778D01*
X78886086Y-118073847D01*
X78426153Y-117613914D01*
X77825222Y-117365000D01*
X77174778Y-117365000D01*
X76573847Y-117613914D01*
X76113914Y-118073847D01*
X75865000Y-118674778D01*
X72635000Y-118674778D01*
X72386086Y-118073847D01*
X71926153Y-117613914D01*
X71325222Y-117365000D01*
X70674778Y-117365000D01*
X70073847Y-117613914D01*
X69613914Y-118073847D01*
X69365000Y-118674778D01*
X41445024Y-118674778D01*
X45959802Y-114160000D01*
X62536887Y-114160000D01*
X62648260Y-114719909D01*
X62965423Y-115194577D01*
X63440091Y-115511740D01*
X63858667Y-115595000D01*
X64141333Y-115595000D01*
X64559909Y-115511740D01*
X65034577Y-115194577D01*
X65351740Y-114719909D01*
X65463113Y-114160000D01*
X65351740Y-113600091D01*
X65034577Y-113125423D01*
X64559909Y-112808260D01*
X64141333Y-112725000D01*
X63858667Y-112725000D01*
X63440091Y-112808260D01*
X62965423Y-113125423D01*
X62648260Y-113600091D01*
X62536887Y-114160000D01*
X45959802Y-114160000D01*
X46359802Y-113760000D01*
X54925153Y-113760000D01*
X55000000Y-113774888D01*
X55074847Y-113760000D01*
X55074852Y-113760000D01*
X55296537Y-113715904D01*
X55547929Y-113547929D01*
X55590331Y-113484470D01*
X62360240Y-106714561D01*
X67565000Y-106714561D01*
X67565000Y-107285439D01*
X67783466Y-107812862D01*
X68065001Y-108094397D01*
X68065000Y-112905604D01*
X67783466Y-113187138D01*
X67565000Y-113714561D01*
X67565000Y-114285439D01*
X67783466Y-114812862D01*
X68187138Y-115216534D01*
X68714561Y-115435000D01*
X69285439Y-115435000D01*
X69812862Y-115216534D01*
X70216534Y-114812862D01*
X70435000Y-114285439D01*
X70435000Y-114000000D01*
X77696887Y-114000000D01*
X77808260Y-114559909D01*
X78125423Y-115034577D01*
X78600091Y-115351740D01*
X79018667Y-115435000D01*
X79301333Y-115435000D01*
X79706274Y-115354452D01*
X99665000Y-115354452D01*
X99665000Y-115885548D01*
X99868242Y-116376217D01*
X100243783Y-116751758D01*
X100734452Y-116955000D01*
X101265548Y-116955000D01*
X101756217Y-116751758D01*
X102131758Y-116376217D01*
X102335000Y-115885548D01*
X102335000Y-115354452D01*
X107285000Y-115354452D01*
X107285000Y-115885548D01*
X107488242Y-116376217D01*
X107863783Y-116751758D01*
X108354452Y-116955000D01*
X108885548Y-116955000D01*
X109376217Y-116751758D01*
X109751758Y-116376217D01*
X109903450Y-116010000D01*
X118372560Y-116010000D01*
X118372560Y-117990000D01*
X118421843Y-118237765D01*
X118562191Y-118447809D01*
X118772235Y-118588157D01*
X119020000Y-118637440D01*
X122980000Y-118637440D01*
X123227765Y-118588157D01*
X123437809Y-118447809D01*
X123578157Y-118237765D01*
X123627440Y-117990000D01*
X123627440Y-116010000D01*
X123578157Y-115762235D01*
X123437809Y-115552191D01*
X123227765Y-115411843D01*
X122980000Y-115362560D01*
X119020000Y-115362560D01*
X118772235Y-115411843D01*
X118562191Y-115552191D01*
X118421843Y-115762235D01*
X118372560Y-116010000D01*
X109903450Y-116010000D01*
X109955000Y-115885548D01*
X109955000Y-115354452D01*
X109751758Y-114863783D01*
X109376217Y-114488242D01*
X108885548Y-114285000D01*
X108354452Y-114285000D01*
X107863783Y-114488242D01*
X107488242Y-114863783D01*
X107285000Y-115354452D01*
X102335000Y-115354452D01*
X102131758Y-114863783D01*
X101756217Y-114488242D01*
X101265548Y-114285000D01*
X100734452Y-114285000D01*
X100243783Y-114488242D01*
X99868242Y-114863783D01*
X99665000Y-115354452D01*
X79706274Y-115354452D01*
X79719909Y-115351740D01*
X80194577Y-115034577D01*
X80511740Y-114559909D01*
X80623113Y-114000000D01*
X80511740Y-113440091D01*
X80194577Y-112965423D01*
X79719909Y-112648260D01*
X79301333Y-112565000D01*
X79018667Y-112565000D01*
X78600091Y-112648260D01*
X78125423Y-112965423D01*
X77808260Y-113440091D01*
X77696887Y-114000000D01*
X70435000Y-114000000D01*
X70435000Y-113714561D01*
X70216534Y-113187138D01*
X69935000Y-112905604D01*
X69935000Y-112000000D01*
X118353165Y-112000000D01*
X118479284Y-112634043D01*
X118838441Y-113171559D01*
X119375957Y-113530716D01*
X119849955Y-113625000D01*
X122150045Y-113625000D01*
X122624043Y-113530716D01*
X123161559Y-113171559D01*
X123520716Y-112634043D01*
X123646835Y-112000000D01*
X123520716Y-111365957D01*
X123161559Y-110828441D01*
X122624043Y-110469284D01*
X122150045Y-110375000D01*
X119849955Y-110375000D01*
X119375957Y-110469284D01*
X118838441Y-110828441D01*
X118479284Y-111365957D01*
X118353165Y-112000000D01*
X69935000Y-112000000D01*
X69935000Y-108094396D01*
X70216534Y-107812862D01*
X70435000Y-107285439D01*
X70435000Y-107000000D01*
X77696887Y-107000000D01*
X77808260Y-107559909D01*
X78125423Y-108034577D01*
X78600091Y-108351740D01*
X79018667Y-108435000D01*
X79301333Y-108435000D01*
X79719909Y-108351740D01*
X80194577Y-108034577D01*
X80511740Y-107559909D01*
X80563439Y-107300000D01*
X99652560Y-107300000D01*
X99652560Y-108700000D01*
X99701843Y-108947765D01*
X99842191Y-109157809D01*
X100052235Y-109298157D01*
X100300000Y-109347440D01*
X101700000Y-109347440D01*
X101947765Y-109298157D01*
X102157809Y-109157809D01*
X102298157Y-108947765D01*
X102347440Y-108700000D01*
X102347440Y-107734452D01*
X107285000Y-107734452D01*
X107285000Y-108265548D01*
X107488242Y-108756217D01*
X107863783Y-109131758D01*
X108354452Y-109335000D01*
X108885548Y-109335000D01*
X109376217Y-109131758D01*
X109751758Y-108756217D01*
X109955000Y-108265548D01*
X109955000Y-107734452D01*
X109751758Y-107243783D01*
X109376217Y-106868242D01*
X108885548Y-106665000D01*
X108354452Y-106665000D01*
X107863783Y-106868242D01*
X107488242Y-107243783D01*
X107285000Y-107734452D01*
X102347440Y-107734452D01*
X102347440Y-107300000D01*
X102298157Y-107052235D01*
X102157809Y-106842191D01*
X101947765Y-106701843D01*
X101700000Y-106652560D01*
X100300000Y-106652560D01*
X100052235Y-106701843D01*
X99842191Y-106842191D01*
X99701843Y-107052235D01*
X99652560Y-107300000D01*
X80563439Y-107300000D01*
X80623113Y-107000000D01*
X80511740Y-106440091D01*
X80194577Y-105965423D01*
X79719909Y-105648260D01*
X79301333Y-105565000D01*
X79018667Y-105565000D01*
X78600091Y-105648260D01*
X78125423Y-105965423D01*
X77808260Y-106440091D01*
X77696887Y-107000000D01*
X70435000Y-107000000D01*
X70435000Y-106714561D01*
X70216534Y-106187138D01*
X69812862Y-105783466D01*
X69285439Y-105565000D01*
X68714561Y-105565000D01*
X68187138Y-105783466D01*
X67783466Y-106187138D01*
X67565000Y-106714561D01*
X62360240Y-106714561D01*
X63661698Y-105413104D01*
X63714561Y-105435000D01*
X64285439Y-105435000D01*
X64812862Y-105216534D01*
X65216534Y-104812862D01*
X65238430Y-104760000D01*
X65886155Y-104760000D01*
X65961002Y-104774888D01*
X66035849Y-104760000D01*
X66035854Y-104760000D01*
X66257539Y-104715904D01*
X66508931Y-104547929D01*
X66551333Y-104484470D01*
X66750053Y-104285750D01*
X118840000Y-104285750D01*
X118840000Y-104876310D01*
X118936673Y-105109699D01*
X119115302Y-105288327D01*
X119348691Y-105385000D01*
X119714250Y-105385000D01*
X119873000Y-105226250D01*
X119873000Y-104127000D01*
X118998750Y-104127000D01*
X118840000Y-104285750D01*
X66750053Y-104285750D01*
X68383271Y-102652532D01*
X70027073Y-102652532D01*
X70125736Y-102919387D01*
X70735461Y-103145908D01*
X71385460Y-103121856D01*
X71874264Y-102919387D01*
X71972927Y-102652532D01*
X76527073Y-102652532D01*
X76625736Y-102919387D01*
X77235461Y-103145908D01*
X77835896Y-103123690D01*
X118840000Y-103123690D01*
X118840000Y-103714250D01*
X118998750Y-103873000D01*
X119873000Y-103873000D01*
X119873000Y-103660755D01*
X120110000Y-103660755D01*
X120110000Y-104339246D01*
X120127000Y-104424710D01*
X120127000Y-105226250D01*
X120285750Y-105385000D01*
X120651309Y-105385000D01*
X120816016Y-105316776D01*
X120817392Y-105317695D01*
X121270000Y-105407725D01*
X121722609Y-105317695D01*
X121905001Y-105195825D01*
X122087392Y-105317695D01*
X122540000Y-105407725D01*
X122992609Y-105317695D01*
X123376313Y-105061313D01*
X123632695Y-104677608D01*
X123700000Y-104339245D01*
X123700000Y-103660754D01*
X123632695Y-103322391D01*
X123376313Y-102938687D01*
X122992608Y-102682305D01*
X122540000Y-102592275D01*
X122087391Y-102682305D01*
X121905000Y-102804175D01*
X121722608Y-102682305D01*
X121270000Y-102592275D01*
X120817391Y-102682305D01*
X120816016Y-102683224D01*
X120651309Y-102615000D01*
X120285750Y-102615000D01*
X120127000Y-102773750D01*
X120127000Y-103575291D01*
X120110000Y-103660755D01*
X119873000Y-103660755D01*
X119873000Y-102773750D01*
X119714250Y-102615000D01*
X119348691Y-102615000D01*
X119115302Y-102711673D01*
X118936673Y-102890301D01*
X118840000Y-103123690D01*
X77835896Y-103123690D01*
X77885460Y-103121856D01*
X78374264Y-102919387D01*
X78472927Y-102652532D01*
X77500000Y-101679605D01*
X76527073Y-102652532D01*
X71972927Y-102652532D01*
X71000000Y-101679605D01*
X70027073Y-102652532D01*
X68383271Y-102652532D01*
X69370015Y-101665788D01*
X69378144Y-101885460D01*
X69580613Y-102374264D01*
X69847468Y-102472927D01*
X70820395Y-101500000D01*
X71179605Y-101500000D01*
X72152532Y-102472927D01*
X72419387Y-102374264D01*
X72645908Y-101764539D01*
X72626331Y-101235461D01*
X75854092Y-101235461D01*
X75878144Y-101885460D01*
X76080613Y-102374264D01*
X76347468Y-102472927D01*
X77320395Y-101500000D01*
X77679605Y-101500000D01*
X78652532Y-102472927D01*
X78919387Y-102374264D01*
X79145908Y-101764539D01*
X79121856Y-101114540D01*
X78919387Y-100625736D01*
X78652532Y-100527073D01*
X77679605Y-101500000D01*
X77320395Y-101500000D01*
X76347468Y-100527073D01*
X76080613Y-100625736D01*
X75854092Y-101235461D01*
X72626331Y-101235461D01*
X72621856Y-101114540D01*
X72419387Y-100625736D01*
X72152532Y-100527073D01*
X71179605Y-101500000D01*
X70820395Y-101500000D01*
X70806253Y-101485858D01*
X70985858Y-101306253D01*
X71000000Y-101320395D01*
X71972927Y-100347468D01*
X76527073Y-100347468D01*
X77500000Y-101320395D01*
X78472927Y-100347468D01*
X78374264Y-100080613D01*
X77764539Y-99854092D01*
X77114540Y-99878144D01*
X76625736Y-100080613D01*
X76527073Y-100347468D01*
X71972927Y-100347468D01*
X71874264Y-100080613D01*
X71264539Y-99854092D01*
X71178529Y-99857275D01*
X74361026Y-96674778D01*
X75865000Y-96674778D01*
X75865000Y-97325222D01*
X76113914Y-97926153D01*
X76573847Y-98386086D01*
X77174778Y-98635000D01*
X77825222Y-98635000D01*
X78426153Y-98386086D01*
X78886086Y-97926153D01*
X79135000Y-97325222D01*
X79135000Y-96900000D01*
X97252560Y-96900000D01*
X97252560Y-99100000D01*
X97301843Y-99347765D01*
X97442191Y-99557809D01*
X97652235Y-99698157D01*
X97900000Y-99747440D01*
X100100000Y-99747440D01*
X100347765Y-99698157D01*
X100557809Y-99557809D01*
X100698157Y-99347765D01*
X100747440Y-99100000D01*
X100747440Y-98000000D01*
X107391010Y-98000000D01*
X107525666Y-98676963D01*
X107909135Y-99250865D01*
X108483037Y-99634334D01*
X108989120Y-99735000D01*
X109330880Y-99735000D01*
X109836963Y-99634334D01*
X110410865Y-99250865D01*
X110794334Y-98676963D01*
X110928990Y-98000000D01*
X113376887Y-98000000D01*
X113488260Y-98559909D01*
X113805423Y-99034577D01*
X114280091Y-99351740D01*
X114698667Y-99435000D01*
X114981333Y-99435000D01*
X115399909Y-99351740D01*
X115874577Y-99034577D01*
X116191740Y-98559909D01*
X116303113Y-98000000D01*
X116246336Y-97714561D01*
X123565000Y-97714561D01*
X123565000Y-98285439D01*
X123783466Y-98812862D01*
X124187138Y-99216534D01*
X124714561Y-99435000D01*
X125285439Y-99435000D01*
X125812862Y-99216534D01*
X126216534Y-98812862D01*
X126435000Y-98285439D01*
X126435000Y-97714561D01*
X126216534Y-97187138D01*
X125812862Y-96783466D01*
X125285439Y-96565000D01*
X124714561Y-96565000D01*
X124187138Y-96783466D01*
X123783466Y-97187138D01*
X123565000Y-97714561D01*
X116246336Y-97714561D01*
X116191740Y-97440091D01*
X115874577Y-96965423D01*
X115399909Y-96648260D01*
X114981333Y-96565000D01*
X114698667Y-96565000D01*
X114280091Y-96648260D01*
X113805423Y-96965423D01*
X113488260Y-97440091D01*
X113376887Y-98000000D01*
X110928990Y-98000000D01*
X110794334Y-97323037D01*
X110410865Y-96749135D01*
X109836963Y-96365666D01*
X109330880Y-96265000D01*
X108989120Y-96265000D01*
X108483037Y-96365666D01*
X107909135Y-96749135D01*
X107525666Y-97323037D01*
X107391010Y-98000000D01*
X100747440Y-98000000D01*
X100747440Y-96900000D01*
X100698157Y-96652235D01*
X100557809Y-96442191D01*
X100347765Y-96301843D01*
X100100000Y-96252560D01*
X97900000Y-96252560D01*
X97652235Y-96301843D01*
X97442191Y-96442191D01*
X97301843Y-96652235D01*
X97252560Y-96900000D01*
X79135000Y-96900000D01*
X79135000Y-96674778D01*
X78886086Y-96073847D01*
X78426153Y-95613914D01*
X77825222Y-95365000D01*
X77174778Y-95365000D01*
X76573847Y-95613914D01*
X76113914Y-96073847D01*
X75865000Y-96674778D01*
X74361026Y-96674778D01*
X77199173Y-93836631D01*
X77262629Y-93794231D01*
X77430604Y-93542839D01*
X77474700Y-93321154D01*
X77474700Y-93321150D01*
X77489588Y-93246302D01*
X77474700Y-93171454D01*
X77474700Y-89630450D01*
X77698667Y-89675000D01*
X77981333Y-89675000D01*
X78399909Y-89591740D01*
X78874577Y-89274577D01*
X79110000Y-88922242D01*
X79345423Y-89274577D01*
X79820091Y-89591740D01*
X80238667Y-89675000D01*
X80521333Y-89675000D01*
X80939909Y-89591740D01*
X81414577Y-89274577D01*
X81650000Y-88922242D01*
X81885423Y-89274577D01*
X82360091Y-89591740D01*
X82778667Y-89675000D01*
X83061333Y-89675000D01*
X83479909Y-89591740D01*
X83954577Y-89274577D01*
X84210947Y-88890892D01*
X84307611Y-89095134D01*
X84722577Y-89471041D01*
X85110961Y-89631904D01*
X85333000Y-89509915D01*
X85333000Y-88367000D01*
X85313000Y-88367000D01*
X85313000Y-88113000D01*
X85333000Y-88113000D01*
X85333000Y-86970085D01*
X85587000Y-86970085D01*
X85587000Y-88113000D01*
X85607000Y-88113000D01*
X85607000Y-88367000D01*
X85587000Y-88367000D01*
X85587000Y-89509915D01*
X85809039Y-89631904D01*
X86197423Y-89471041D01*
X86612389Y-89095134D01*
X86709053Y-88890892D01*
X86965423Y-89274577D01*
X87440091Y-89591740D01*
X87858667Y-89675000D01*
X88141333Y-89675000D01*
X88559909Y-89591740D01*
X89034577Y-89274577D01*
X89351740Y-88799909D01*
X89463113Y-88240000D01*
X89351740Y-87680091D01*
X89034577Y-87205423D01*
X88559909Y-86888260D01*
X88141333Y-86805000D01*
X87858667Y-86805000D01*
X87440091Y-86888260D01*
X86965423Y-87205423D01*
X86709053Y-87589108D01*
X86612389Y-87384866D01*
X86197423Y-87008959D01*
X85809039Y-86848096D01*
X85587000Y-86970085D01*
X85333000Y-86970085D01*
X85110961Y-86848096D01*
X84722577Y-87008959D01*
X84307611Y-87384866D01*
X84210947Y-87589108D01*
X83954577Y-87205423D01*
X83479909Y-86888260D01*
X83061333Y-86805000D01*
X82778667Y-86805000D01*
X82360091Y-86888260D01*
X81885423Y-87205423D01*
X81650000Y-87557758D01*
X81414577Y-87205423D01*
X80939909Y-86888260D01*
X80521333Y-86805000D01*
X80238667Y-86805000D01*
X79820091Y-86888260D01*
X79345423Y-87205423D01*
X79110000Y-87557758D01*
X78874577Y-87205423D01*
X78399909Y-86888260D01*
X77981333Y-86805000D01*
X77698667Y-86805000D01*
X77474700Y-86849550D01*
X77474700Y-86714561D01*
X99565000Y-86714561D01*
X99565000Y-87285439D01*
X99783466Y-87812862D01*
X100187138Y-88216534D01*
X100714561Y-88435000D01*
X101285439Y-88435000D01*
X101812862Y-88216534D01*
X102216534Y-87812862D01*
X102435000Y-87285439D01*
X102435000Y-87000000D01*
X109696887Y-87000000D01*
X109808260Y-87559909D01*
X110125423Y-88034577D01*
X110600091Y-88351740D01*
X111018667Y-88435000D01*
X111301333Y-88435000D01*
X111719909Y-88351740D01*
X112194577Y-88034577D01*
X112511740Y-87559909D01*
X112566273Y-87285750D01*
X115465000Y-87285750D01*
X115465000Y-88026310D01*
X115561673Y-88259699D01*
X115740302Y-88438327D01*
X115973691Y-88535000D01*
X116714250Y-88535000D01*
X116873000Y-88376250D01*
X116873000Y-87127000D01*
X115623750Y-87127000D01*
X115465000Y-87285750D01*
X112566273Y-87285750D01*
X112623113Y-87000000D01*
X112511740Y-86440091D01*
X112200101Y-85973690D01*
X115465000Y-85973690D01*
X115465000Y-86714250D01*
X115623750Y-86873000D01*
X116873000Y-86873000D01*
X116873000Y-85623750D01*
X117127000Y-85623750D01*
X117127000Y-86873000D01*
X117147000Y-86873000D01*
X117147000Y-87127000D01*
X117127000Y-87127000D01*
X117127000Y-88376250D01*
X117285750Y-88535000D01*
X118026309Y-88535000D01*
X118259698Y-88438327D01*
X118438327Y-88259699D01*
X118494139Y-88124956D01*
X118670493Y-88301310D01*
X119234670Y-88535000D01*
X119845330Y-88535000D01*
X120409507Y-88301310D01*
X120841310Y-87869507D01*
X121075000Y-87305330D01*
X121075000Y-86694670D01*
X120841310Y-86130493D01*
X120409507Y-85698690D01*
X119845330Y-85465000D01*
X119234670Y-85465000D01*
X118670493Y-85698690D01*
X118494139Y-85875044D01*
X118438327Y-85740301D01*
X118259698Y-85561673D01*
X118026309Y-85465000D01*
X117285750Y-85465000D01*
X117127000Y-85623750D01*
X116873000Y-85623750D01*
X116714250Y-85465000D01*
X115973691Y-85465000D01*
X115740302Y-85561673D01*
X115561673Y-85740301D01*
X115465000Y-85973690D01*
X112200101Y-85973690D01*
X112194577Y-85965423D01*
X111719909Y-85648260D01*
X111301333Y-85565000D01*
X111018667Y-85565000D01*
X110600091Y-85648260D01*
X110125423Y-85965423D01*
X109808260Y-86440091D01*
X109696887Y-87000000D01*
X102435000Y-87000000D01*
X102435000Y-86714561D01*
X102216534Y-86187138D01*
X101812862Y-85783466D01*
X101285439Y-85565000D01*
X100714561Y-85565000D01*
X100187138Y-85783466D01*
X99783466Y-86187138D01*
X99565000Y-86714561D01*
X77474700Y-86714561D01*
X77474700Y-75565401D01*
X78324473Y-74715629D01*
X78326071Y-74714561D01*
X99405000Y-74714561D01*
X99405000Y-75285439D01*
X99623466Y-75812862D01*
X100027138Y-76216534D01*
X100554561Y-76435000D01*
X101125439Y-76435000D01*
X101652862Y-76216534D01*
X102056534Y-75812862D01*
X102275000Y-75285439D01*
X102275000Y-75000000D01*
X109536887Y-75000000D01*
X109648260Y-75559909D01*
X109965423Y-76034577D01*
X110440091Y-76351740D01*
X110858667Y-76435000D01*
X111141333Y-76435000D01*
X111559909Y-76351740D01*
X112034577Y-76034577D01*
X112351740Y-75559909D01*
X112406273Y-75285750D01*
X115465000Y-75285750D01*
X115465000Y-76026310D01*
X115561673Y-76259699D01*
X115740302Y-76438327D01*
X115973691Y-76535000D01*
X116714250Y-76535000D01*
X116873000Y-76376250D01*
X116873000Y-75127000D01*
X115623750Y-75127000D01*
X115465000Y-75285750D01*
X112406273Y-75285750D01*
X112463113Y-75000000D01*
X112351740Y-74440091D01*
X112040101Y-73973690D01*
X115465000Y-73973690D01*
X115465000Y-74714250D01*
X115623750Y-74873000D01*
X116873000Y-74873000D01*
X116873000Y-73623750D01*
X117127000Y-73623750D01*
X117127000Y-74873000D01*
X117147000Y-74873000D01*
X117147000Y-75127000D01*
X117127000Y-75127000D01*
X117127000Y-76376250D01*
X117285750Y-76535000D01*
X118026309Y-76535000D01*
X118259698Y-76438327D01*
X118438327Y-76259699D01*
X118494139Y-76124956D01*
X118670493Y-76301310D01*
X119234670Y-76535000D01*
X119845330Y-76535000D01*
X120409507Y-76301310D01*
X120841310Y-75869507D01*
X121075000Y-75305330D01*
X121075000Y-74694670D01*
X120841310Y-74130493D01*
X120409507Y-73698690D01*
X119845330Y-73465000D01*
X119234670Y-73465000D01*
X118670493Y-73698690D01*
X118494139Y-73875044D01*
X118438327Y-73740301D01*
X118259698Y-73561673D01*
X118026309Y-73465000D01*
X117285750Y-73465000D01*
X117127000Y-73623750D01*
X116873000Y-73623750D01*
X116714250Y-73465000D01*
X115973691Y-73465000D01*
X115740302Y-73561673D01*
X115561673Y-73740301D01*
X115465000Y-73973690D01*
X112040101Y-73973690D01*
X112034577Y-73965423D01*
X111559909Y-73648260D01*
X111141333Y-73565000D01*
X110858667Y-73565000D01*
X110440091Y-73648260D01*
X109965423Y-73965423D01*
X109648260Y-74440091D01*
X109536887Y-75000000D01*
X102275000Y-75000000D01*
X102275000Y-74714561D01*
X102056534Y-74187138D01*
X101652862Y-73783466D01*
X101125439Y-73565000D01*
X100554561Y-73565000D01*
X100027138Y-73783466D01*
X99623466Y-74187138D01*
X99405000Y-74714561D01*
X78326071Y-74714561D01*
X78387929Y-74673229D01*
X78555904Y-74421837D01*
X78595896Y-74220786D01*
X78874577Y-74034577D01*
X79130947Y-73650892D01*
X79227611Y-73855134D01*
X79642577Y-74231041D01*
X80030961Y-74391904D01*
X80253000Y-74269915D01*
X80253000Y-73127000D01*
X80233000Y-73127000D01*
X80233000Y-72873000D01*
X80253000Y-72873000D01*
X80253000Y-71730085D01*
X80507000Y-71730085D01*
X80507000Y-72873000D01*
X80527000Y-72873000D01*
X80527000Y-73127000D01*
X80507000Y-73127000D01*
X80507000Y-74269915D01*
X80729039Y-74391904D01*
X81117423Y-74231041D01*
X81532389Y-73855134D01*
X81629053Y-73650892D01*
X81885423Y-74034577D01*
X82360091Y-74351740D01*
X82778667Y-74435000D01*
X83061333Y-74435000D01*
X83479909Y-74351740D01*
X83954577Y-74034577D01*
X84190000Y-73682242D01*
X84425423Y-74034577D01*
X84900091Y-74351740D01*
X85318667Y-74435000D01*
X85601333Y-74435000D01*
X86019909Y-74351740D01*
X86494577Y-74034577D01*
X86575215Y-73913894D01*
X86601843Y-74047765D01*
X86742191Y-74257809D01*
X86952235Y-74398157D01*
X87200000Y-74447440D01*
X88800000Y-74447440D01*
X89047765Y-74398157D01*
X89257809Y-74257809D01*
X89398157Y-74047765D01*
X89447440Y-73800000D01*
X89447440Y-72200000D01*
X89398157Y-71952235D01*
X89257809Y-71742191D01*
X89047765Y-71601843D01*
X88800000Y-71552560D01*
X87200000Y-71552560D01*
X86952235Y-71601843D01*
X86742191Y-71742191D01*
X86601843Y-71952235D01*
X86575215Y-72086106D01*
X86494577Y-71965423D01*
X86019909Y-71648260D01*
X85601333Y-71565000D01*
X85318667Y-71565000D01*
X84900091Y-71648260D01*
X84425423Y-71965423D01*
X84190000Y-72317758D01*
X83954577Y-71965423D01*
X83479909Y-71648260D01*
X83061333Y-71565000D01*
X82778667Y-71565000D01*
X82360091Y-71648260D01*
X81885423Y-71965423D01*
X81629053Y-72349108D01*
X81532389Y-72144866D01*
X81117423Y-71768959D01*
X80729039Y-71608096D01*
X80507000Y-71730085D01*
X80253000Y-71730085D01*
X80030961Y-71608096D01*
X79642577Y-71768959D01*
X79227611Y-72144866D01*
X79130947Y-72349108D01*
X78874577Y-71965423D01*
X78399909Y-71648260D01*
X77981333Y-71565000D01*
X77698667Y-71565000D01*
X77280091Y-71648260D01*
X76805423Y-71965423D01*
X76570000Y-72317758D01*
X76334577Y-71965423D01*
X75859909Y-71648260D01*
X75441333Y-71565000D01*
X75158667Y-71565000D01*
X74740091Y-71648260D01*
X74265423Y-71965423D01*
X74030000Y-72317758D01*
X73794577Y-71965423D01*
X73319909Y-71648260D01*
X72901333Y-71565000D01*
X72618667Y-71565000D01*
X72394700Y-71609550D01*
X72394700Y-66504846D01*
X72409588Y-66429999D01*
X72394700Y-66355152D01*
X72394700Y-66355148D01*
X72350604Y-66133463D01*
X72182629Y-65882071D01*
X72119173Y-65839671D01*
X53010380Y-46730879D01*
X53070625Y-46690625D01*
X53398839Y-46199418D01*
X53514092Y-45620000D01*
X53398839Y-45040582D01*
X53070625Y-44549375D01*
X52772239Y-44350000D01*
X53070625Y-44150625D01*
X53398839Y-43659418D01*
X53514092Y-43080000D01*
X53398839Y-42500582D01*
X53070625Y-42009375D01*
X52772239Y-41810000D01*
X53070625Y-41610625D01*
X53398839Y-41119418D01*
X53514092Y-40540000D01*
X53398839Y-39960582D01*
X53070625Y-39469375D01*
X53048967Y-39454904D01*
X53209698Y-39388327D01*
X53388327Y-39209699D01*
X53485000Y-38976310D01*
X53485000Y-38285750D01*
X53326250Y-38127000D01*
X52127000Y-38127000D01*
X52127000Y-38147000D01*
X51873000Y-38147000D01*
X51873000Y-38127000D01*
X50673750Y-38127000D01*
X50515000Y-38285750D01*
X50515000Y-38976310D01*
X50611673Y-39209699D01*
X50790302Y-39388327D01*
X50951033Y-39454904D01*
X50929375Y-39469375D01*
X50601161Y-39960582D01*
X50485908Y-40540000D01*
X50601161Y-41119418D01*
X50929375Y-41610625D01*
X51227761Y-41810000D01*
X50929375Y-42009375D01*
X50601161Y-42500582D01*
X50485908Y-43080000D01*
X50601161Y-43659418D01*
X50822509Y-43990689D01*
X50323628Y-44489571D01*
X50260172Y-44531971D01*
X50217772Y-44595427D01*
X50217771Y-44595428D01*
X50092197Y-44783363D01*
X50033212Y-45079900D01*
X50048101Y-45154752D01*
X50048100Y-56349099D01*
X46585400Y-52886399D01*
X46585400Y-44543548D01*
X46600288Y-44468700D01*
X46585400Y-44393852D01*
X46585400Y-44393848D01*
X46541304Y-44172163D01*
X46541304Y-44172162D01*
X46415729Y-43984227D01*
X46373329Y-43920771D01*
X46309873Y-43878371D01*
X45866502Y-43435000D01*
X46285439Y-43435000D01*
X46812862Y-43216534D01*
X47216534Y-42812862D01*
X47435000Y-42285439D01*
X47435000Y-41714561D01*
X47216534Y-41187138D01*
X46812862Y-40783466D01*
X46285439Y-40565000D01*
X45714561Y-40565000D01*
X45187138Y-40783466D01*
X44783466Y-41187138D01*
X44565000Y-41714561D01*
X44565000Y-42133499D01*
X44450700Y-42019199D01*
X44450700Y-37265567D01*
X44465588Y-37190740D01*
X44450700Y-37115872D01*
X44450700Y-37115848D01*
X44432369Y-37023690D01*
X50515000Y-37023690D01*
X50515000Y-37714250D01*
X50673750Y-37873000D01*
X51873000Y-37873000D01*
X51873000Y-36673750D01*
X52127000Y-36673750D01*
X52127000Y-37873000D01*
X53326250Y-37873000D01*
X53485000Y-37714250D01*
X53485000Y-37023690D01*
X53388327Y-36790301D01*
X53209698Y-36611673D01*
X52976309Y-36515000D01*
X52285750Y-36515000D01*
X52127000Y-36673750D01*
X51873000Y-36673750D01*
X51714250Y-36515000D01*
X51023691Y-36515000D01*
X50790302Y-36611673D01*
X50611673Y-36790301D01*
X50515000Y-37023690D01*
X44432369Y-37023690D01*
X44406619Y-36894199D01*
X44406608Y-36894182D01*
X44406604Y-36894163D01*
X44325444Y-36772699D01*
X44281054Y-36706257D01*
X44281039Y-36706242D01*
X44238629Y-36642771D01*
X44175191Y-36600383D01*
X43807474Y-36232628D01*
X45802931Y-34237171D01*
X121165000Y-34237171D01*
X121165000Y-35762829D01*
X121748844Y-37172353D01*
X122827647Y-38251156D01*
X124237171Y-38835000D01*
X125762829Y-38835000D01*
X127172353Y-38251156D01*
X128251156Y-37172353D01*
X128835000Y-35762829D01*
X128835000Y-34237171D01*
X128251156Y-32827647D01*
X127172353Y-31748844D01*
X125762829Y-31165000D01*
X124237171Y-31165000D01*
X122827647Y-31748844D01*
X121748844Y-32827647D01*
X121165000Y-34237171D01*
X45802931Y-34237171D01*
X46484473Y-33555629D01*
X46547929Y-33513229D01*
X46715904Y-33261837D01*
X46755896Y-33060786D01*
X47034577Y-32874577D01*
X47351740Y-32399909D01*
X47463113Y-31840000D01*
X47351740Y-31280091D01*
X47249448Y-31127000D01*
X128873000Y-31127000D01*
X128873000Y-128873000D01*
X31127000Y-128873000D01*
X31127000Y-125285750D01*
X31840000Y-125285750D01*
X31840000Y-125876310D01*
X31936673Y-126109699D01*
X32115302Y-126288327D01*
X32348691Y-126385000D01*
X32714250Y-126385000D01*
X32873000Y-126226250D01*
X32873000Y-125127000D01*
X31998750Y-125127000D01*
X31840000Y-125285750D01*
X31127000Y-125285750D01*
X31127000Y-124123690D01*
X31840000Y-124123690D01*
X31840000Y-124714250D01*
X31998750Y-124873000D01*
X32873000Y-124873000D01*
X32873000Y-123773750D01*
X32714250Y-123615000D01*
X32348691Y-123615000D01*
X32115302Y-123711673D01*
X31936673Y-123890301D01*
X31840000Y-124123690D01*
X31127000Y-124123690D01*
X31127000Y-104825000D01*
X34602560Y-104825000D01*
X34602560Y-106575000D01*
X34718449Y-107157613D01*
X35048472Y-107651528D01*
X35542387Y-107981551D01*
X36125000Y-108097440D01*
X37875000Y-108097440D01*
X38457613Y-107981551D01*
X38951528Y-107651528D01*
X39281551Y-107157613D01*
X39397440Y-106575000D01*
X39397440Y-104825000D01*
X39281551Y-104242387D01*
X38951528Y-103748472D01*
X38457613Y-103418449D01*
X38351994Y-103397440D01*
X41750000Y-103397440D01*
X41997765Y-103348157D01*
X42207809Y-103207809D01*
X42348157Y-102997765D01*
X42397440Y-102750000D01*
X42397440Y-99250000D01*
X42348157Y-99002235D01*
X42207809Y-98792191D01*
X41997765Y-98651843D01*
X41750000Y-98602560D01*
X38250000Y-98602560D01*
X38002235Y-98651843D01*
X37792191Y-98792191D01*
X37651843Y-99002235D01*
X37602560Y-99250000D01*
X37602560Y-102750000D01*
X37651843Y-102997765D01*
X37792191Y-103207809D01*
X37959001Y-103319269D01*
X37875000Y-103302560D01*
X36125000Y-103302560D01*
X35542387Y-103418449D01*
X35048472Y-103748472D01*
X34718449Y-104242387D01*
X34602560Y-104825000D01*
X31127000Y-104825000D01*
X31127000Y-101285750D01*
X31865000Y-101285750D01*
X31865000Y-102876310D01*
X31961673Y-103109699D01*
X32140302Y-103288327D01*
X32373691Y-103385000D01*
X33714250Y-103385000D01*
X33873000Y-103226250D01*
X33873000Y-101127000D01*
X34127000Y-101127000D01*
X34127000Y-103226250D01*
X34285750Y-103385000D01*
X35626309Y-103385000D01*
X35859698Y-103288327D01*
X36038327Y-103109699D01*
X36135000Y-102876310D01*
X36135000Y-101285750D01*
X35976250Y-101127000D01*
X34127000Y-101127000D01*
X33873000Y-101127000D01*
X32023750Y-101127000D01*
X31865000Y-101285750D01*
X31127000Y-101285750D01*
X31127000Y-99123690D01*
X31865000Y-99123690D01*
X31865000Y-100714250D01*
X32023750Y-100873000D01*
X33873000Y-100873000D01*
X33873000Y-98773750D01*
X34127000Y-98773750D01*
X34127000Y-100873000D01*
X35976250Y-100873000D01*
X36135000Y-100714250D01*
X36135000Y-99123690D01*
X36038327Y-98890301D01*
X35859698Y-98711673D01*
X35626309Y-98615000D01*
X34285750Y-98615000D01*
X34127000Y-98773750D01*
X33873000Y-98773750D01*
X33714250Y-98615000D01*
X32373691Y-98615000D01*
X32140302Y-98711673D01*
X31961673Y-98890301D01*
X31865000Y-99123690D01*
X31127000Y-99123690D01*
X31127000Y-80237171D01*
X31165000Y-80237171D01*
X31165000Y-81762829D01*
X31748844Y-83172353D01*
X32827647Y-84251156D01*
X34237171Y-84835000D01*
X35762829Y-84835000D01*
X37172353Y-84251156D01*
X38251156Y-83172353D01*
X38835000Y-81762829D01*
X38835000Y-80237171D01*
X38251156Y-78827647D01*
X37172353Y-77748844D01*
X35762829Y-77165000D01*
X34237171Y-77165000D01*
X32827647Y-77748844D01*
X31748844Y-78827647D01*
X31165000Y-80237171D01*
X31127000Y-80237171D01*
X31127000Y-67714561D01*
X44565000Y-67714561D01*
X44565000Y-68285439D01*
X44783466Y-68812862D01*
X45187138Y-69216534D01*
X45714561Y-69435000D01*
X46285439Y-69435000D01*
X46812862Y-69216534D01*
X47216534Y-68812862D01*
X47435000Y-68285439D01*
X47435000Y-67714561D01*
X47216534Y-67187138D01*
X46812862Y-66783466D01*
X46285439Y-66565000D01*
X45714561Y-66565000D01*
X45187138Y-66783466D01*
X44783466Y-67187138D01*
X44565000Y-67714561D01*
X31127000Y-67714561D01*
X31127000Y-65652532D01*
X34027073Y-65652532D01*
X34125736Y-65919387D01*
X34735461Y-66145908D01*
X35385460Y-66121856D01*
X35874264Y-65919387D01*
X35972927Y-65652532D01*
X40527073Y-65652532D01*
X40625736Y-65919387D01*
X41235461Y-66145908D01*
X41885460Y-66121856D01*
X42374264Y-65919387D01*
X42472927Y-65652532D01*
X41500000Y-64679605D01*
X40527073Y-65652532D01*
X35972927Y-65652532D01*
X35000000Y-64679605D01*
X34027073Y-65652532D01*
X31127000Y-65652532D01*
X31127000Y-64235461D01*
X33354092Y-64235461D01*
X33378144Y-64885460D01*
X33580613Y-65374264D01*
X33847468Y-65472927D01*
X34820395Y-64500000D01*
X35179605Y-64500000D01*
X36152532Y-65472927D01*
X36419387Y-65374264D01*
X36645908Y-64764539D01*
X36626331Y-64235461D01*
X39854092Y-64235461D01*
X39878144Y-64885460D01*
X40080613Y-65374264D01*
X40347468Y-65472927D01*
X41320395Y-64500000D01*
X41679605Y-64500000D01*
X42652532Y-65472927D01*
X42919387Y-65374264D01*
X43145908Y-64764539D01*
X43121856Y-64114540D01*
X42919387Y-63625736D01*
X42652532Y-63527073D01*
X41679605Y-64500000D01*
X41320395Y-64500000D01*
X40347468Y-63527073D01*
X40080613Y-63625736D01*
X39854092Y-64235461D01*
X36626331Y-64235461D01*
X36621856Y-64114540D01*
X36419387Y-63625736D01*
X36152532Y-63527073D01*
X35179605Y-64500000D01*
X34820395Y-64500000D01*
X33847468Y-63527073D01*
X33580613Y-63625736D01*
X33354092Y-64235461D01*
X31127000Y-64235461D01*
X31127000Y-63347468D01*
X34027073Y-63347468D01*
X35000000Y-64320395D01*
X35972927Y-63347468D01*
X40527073Y-63347468D01*
X41500000Y-64320395D01*
X42472927Y-63347468D01*
X42374264Y-63080613D01*
X41764539Y-62854092D01*
X41114540Y-62878144D01*
X40625736Y-63080613D01*
X40527073Y-63347468D01*
X35972927Y-63347468D01*
X35874264Y-63080613D01*
X35264539Y-62854092D01*
X34614540Y-62878144D01*
X34125736Y-63080613D01*
X34027073Y-63347468D01*
X31127000Y-63347468D01*
X31127000Y-59674778D01*
X33365000Y-59674778D01*
X33365000Y-60325222D01*
X33613914Y-60926153D01*
X34073847Y-61386086D01*
X34674778Y-61635000D01*
X35325222Y-61635000D01*
X35926153Y-61386086D01*
X36386086Y-60926153D01*
X36635000Y-60325222D01*
X36635000Y-59674778D01*
X39865000Y-59674778D01*
X39865000Y-60325222D01*
X40113914Y-60926153D01*
X40573847Y-61386086D01*
X41174778Y-61635000D01*
X41825222Y-61635000D01*
X42426153Y-61386086D01*
X42886086Y-60926153D01*
X43135000Y-60325222D01*
X43135000Y-59674778D01*
X42886086Y-59073847D01*
X42426153Y-58613914D01*
X41825222Y-58365000D01*
X41174778Y-58365000D01*
X40573847Y-58613914D01*
X40113914Y-59073847D01*
X39865000Y-59674778D01*
X36635000Y-59674778D01*
X36386086Y-59073847D01*
X35926153Y-58613914D01*
X35325222Y-58365000D01*
X34674778Y-58365000D01*
X34073847Y-58613914D01*
X33613914Y-59073847D01*
X33365000Y-59674778D01*
X31127000Y-59674778D01*
X31127000Y-57840000D01*
X44536887Y-57840000D01*
X44648260Y-58399909D01*
X44965423Y-58874577D01*
X45440091Y-59191740D01*
X45858667Y-59275000D01*
X46141333Y-59275000D01*
X46559909Y-59191740D01*
X47034577Y-58874577D01*
X47351740Y-58399909D01*
X47463113Y-57840000D01*
X47351740Y-57280091D01*
X47034577Y-56805423D01*
X46559909Y-56488260D01*
X46141333Y-56405000D01*
X45858667Y-56405000D01*
X45440091Y-56488260D01*
X44965423Y-56805423D01*
X44648260Y-57280091D01*
X44536887Y-57840000D01*
X31127000Y-57840000D01*
X31127000Y-54714561D01*
X34565000Y-54714561D01*
X34565000Y-55285439D01*
X34783466Y-55812862D01*
X35187138Y-56216534D01*
X35714561Y-56435000D01*
X36285439Y-56435000D01*
X36812862Y-56216534D01*
X37216534Y-55812862D01*
X37435000Y-55285439D01*
X37435000Y-54714561D01*
X37216534Y-54187138D01*
X36812862Y-53783466D01*
X36285439Y-53565000D01*
X35714561Y-53565000D01*
X35187138Y-53783466D01*
X34783466Y-54187138D01*
X34565000Y-54714561D01*
X31127000Y-54714561D01*
X31127000Y-44840000D01*
X34536887Y-44840000D01*
X34648260Y-45399909D01*
X34965423Y-45874577D01*
X35440091Y-46191740D01*
X35858667Y-46275000D01*
X36141333Y-46275000D01*
X36559909Y-46191740D01*
X36585294Y-46174778D01*
X38365000Y-46174778D01*
X38365000Y-46825222D01*
X38613914Y-47426153D01*
X39073847Y-47886086D01*
X39240001Y-47954909D01*
X39240000Y-51545091D01*
X39073847Y-51613914D01*
X38613914Y-52073847D01*
X38365000Y-52674778D01*
X38365000Y-53325222D01*
X38613914Y-53926153D01*
X39073847Y-54386086D01*
X39674778Y-54635000D01*
X40325222Y-54635000D01*
X40926153Y-54386086D01*
X41159707Y-54152532D01*
X43527073Y-54152532D01*
X43625736Y-54419387D01*
X44235461Y-54645908D01*
X44885460Y-54621856D01*
X45374264Y-54419387D01*
X45472927Y-54152532D01*
X44500000Y-53179605D01*
X43527073Y-54152532D01*
X41159707Y-54152532D01*
X41386086Y-53926153D01*
X41635000Y-53325222D01*
X41635000Y-52735461D01*
X42854092Y-52735461D01*
X42878144Y-53385460D01*
X43080613Y-53874264D01*
X43347468Y-53972927D01*
X44320395Y-53000000D01*
X43347468Y-52027073D01*
X43080613Y-52125736D01*
X42854092Y-52735461D01*
X41635000Y-52735461D01*
X41635000Y-52674778D01*
X41386086Y-52073847D01*
X40926153Y-51613914D01*
X40760000Y-51545091D01*
X40760000Y-47954909D01*
X40926153Y-47886086D01*
X41386086Y-47426153D01*
X41635000Y-46825222D01*
X41635000Y-46235461D01*
X42854092Y-46235461D01*
X42878144Y-46885460D01*
X43080613Y-47374264D01*
X43347468Y-47472927D01*
X44320395Y-46500000D01*
X43347468Y-45527073D01*
X43080613Y-45625736D01*
X42854092Y-46235461D01*
X41635000Y-46235461D01*
X41635000Y-46174778D01*
X41386086Y-45573847D01*
X40926153Y-45113914D01*
X40325222Y-44865000D01*
X39674778Y-44865000D01*
X39073847Y-45113914D01*
X38613914Y-45573847D01*
X38365000Y-46174778D01*
X36585294Y-46174778D01*
X37034577Y-45874577D01*
X37351740Y-45399909D01*
X37463113Y-44840000D01*
X37351740Y-44280091D01*
X37034577Y-43805423D01*
X36559909Y-43488260D01*
X36141333Y-43405000D01*
X35858667Y-43405000D01*
X35440091Y-43488260D01*
X34965423Y-43805423D01*
X34648260Y-44280091D01*
X34536887Y-44840000D01*
X31127000Y-44840000D01*
X31127000Y-40652532D01*
X34027073Y-40652532D01*
X34125736Y-40919387D01*
X34735461Y-41145908D01*
X35385460Y-41121856D01*
X35874264Y-40919387D01*
X35972927Y-40652532D01*
X40527073Y-40652532D01*
X40625736Y-40919387D01*
X41235461Y-41145908D01*
X41885460Y-41121856D01*
X42374264Y-40919387D01*
X42472927Y-40652532D01*
X41500000Y-39679605D01*
X40527073Y-40652532D01*
X35972927Y-40652532D01*
X35000000Y-39679605D01*
X34027073Y-40652532D01*
X31127000Y-40652532D01*
X31127000Y-39235461D01*
X33354092Y-39235461D01*
X33378144Y-39885460D01*
X33580613Y-40374264D01*
X33847468Y-40472927D01*
X34820395Y-39500000D01*
X35179605Y-39500000D01*
X36152532Y-40472927D01*
X36419387Y-40374264D01*
X36645908Y-39764539D01*
X36626331Y-39235461D01*
X39854092Y-39235461D01*
X39878144Y-39885460D01*
X40080613Y-40374264D01*
X40347468Y-40472927D01*
X41320395Y-39500000D01*
X40347468Y-38527073D01*
X40080613Y-38625736D01*
X39854092Y-39235461D01*
X36626331Y-39235461D01*
X36621856Y-39114540D01*
X36419387Y-38625736D01*
X36152532Y-38527073D01*
X35179605Y-39500000D01*
X34820395Y-39500000D01*
X33847468Y-38527073D01*
X33580613Y-38625736D01*
X33354092Y-39235461D01*
X31127000Y-39235461D01*
X31127000Y-38347468D01*
X34027073Y-38347468D01*
X35000000Y-39320395D01*
X35972927Y-38347468D01*
X40527073Y-38347468D01*
X41500000Y-39320395D01*
X42472927Y-38347468D01*
X42374264Y-38080613D01*
X41764539Y-37854092D01*
X41114540Y-37878144D01*
X40625736Y-38080613D01*
X40527073Y-38347468D01*
X35972927Y-38347468D01*
X35874264Y-38080613D01*
X35264539Y-37854092D01*
X34614540Y-37878144D01*
X34125736Y-38080613D01*
X34027073Y-38347468D01*
X31127000Y-38347468D01*
X31127000Y-34674778D01*
X33365000Y-34674778D01*
X33365000Y-35325222D01*
X33613914Y-35926153D01*
X34073847Y-36386086D01*
X34674778Y-36635000D01*
X35325222Y-36635000D01*
X35926153Y-36386086D01*
X36386086Y-35926153D01*
X36635000Y-35325222D01*
X36635000Y-34674778D01*
X36386086Y-34073847D01*
X35926153Y-33613914D01*
X35325222Y-33365000D01*
X34674778Y-33365000D01*
X34073847Y-33613914D01*
X33613914Y-34073847D01*
X33365000Y-34674778D01*
X31127000Y-34674778D01*
X31127000Y-31127000D01*
X44750552Y-31127000D01*
X44648260Y-31280091D01*
X44648260Y-31280091D01*
G37*
X44648260Y-31280091D02*
X44536887Y-31840000D01*
X44648260Y-32399909D01*
X44965423Y-32874577D01*
X44995694Y-32894804D01*
X43135000Y-34755499D01*
X43135000Y-34674778D01*
X42886086Y-34073847D01*
X42426153Y-33613914D01*
X41825222Y-33365000D01*
X41174778Y-33365000D01*
X40573847Y-33613914D01*
X40113914Y-34073847D01*
X39865000Y-34674778D01*
X39865000Y-35325222D01*
X40113914Y-35926153D01*
X40573847Y-36386086D01*
X41174778Y-36635000D01*
X41825222Y-36635000D01*
X41991434Y-36566153D01*
X42142381Y-36717087D01*
X42184771Y-36780529D01*
X42248213Y-36822920D01*
X42930700Y-37505479D01*
X42930700Y-38653049D01*
X42919387Y-38625736D01*
X42652532Y-38527073D01*
X41679605Y-39500000D01*
X42652532Y-40472927D01*
X42919387Y-40374264D01*
X42930701Y-40343811D01*
X42930701Y-42259148D01*
X42915812Y-42334000D01*
X42974797Y-42630537D01*
X43076980Y-42783464D01*
X43142772Y-42881929D01*
X43206228Y-42924329D01*
X45065400Y-44783502D01*
X45065400Y-44965866D01*
X44764539Y-44854092D01*
X44114540Y-44878144D01*
X43625736Y-45080613D01*
X43527073Y-45347468D01*
X44500000Y-46320395D01*
X44514143Y-46306253D01*
X44693748Y-46485858D01*
X44679605Y-46500000D01*
X44693748Y-46514143D01*
X44514143Y-46693748D01*
X44500000Y-46679605D01*
X43527073Y-47652532D01*
X43625736Y-47919387D01*
X44235461Y-48145908D01*
X44885460Y-48121856D01*
X45065400Y-48047322D01*
X45065401Y-51465866D01*
X44764539Y-51354092D01*
X44114540Y-51378144D01*
X43625736Y-51580613D01*
X43527073Y-51847468D01*
X44500000Y-52820395D01*
X44514143Y-52806253D01*
X44693748Y-52985858D01*
X44679605Y-53000000D01*
X45092651Y-53413046D01*
X45109497Y-53497737D01*
X45277472Y-53749129D01*
X45340928Y-53791529D01*
X59300000Y-67750603D01*
X59300001Y-71781956D01*
X59025423Y-71965423D01*
X58790000Y-72317758D01*
X58554577Y-71965423D01*
X58079909Y-71648260D01*
X57661333Y-71565000D01*
X57378667Y-71565000D01*
X56960091Y-71648260D01*
X56485423Y-71965423D01*
X56250000Y-72317758D01*
X56014577Y-71965423D01*
X55539909Y-71648260D01*
X55121333Y-71565000D01*
X54838667Y-71565000D01*
X54420091Y-71648260D01*
X53945423Y-71965423D01*
X53710000Y-72317758D01*
X53474577Y-71965423D01*
X52999909Y-71648260D01*
X52581333Y-71565000D01*
X52298667Y-71565000D01*
X51880091Y-71648260D01*
X51405423Y-71965423D01*
X51088260Y-72440091D01*
X50976887Y-73000000D01*
X51088260Y-73559909D01*
X51405423Y-74034577D01*
X51684106Y-74220787D01*
X51724097Y-74421837D01*
X51760095Y-74475711D01*
X51892072Y-74673229D01*
X51955528Y-74715629D01*
X52805301Y-75565403D01*
X52805301Y-86849550D01*
X52581333Y-86805000D01*
X52298667Y-86805000D01*
X51880091Y-86888260D01*
X51405423Y-87205423D01*
X51088260Y-87680091D01*
X50976887Y-88240000D01*
X51088260Y-88799909D01*
X51405423Y-89274577D01*
X51880091Y-89591740D01*
X52298667Y-89675000D01*
X52581333Y-89675000D01*
X52805300Y-89630450D01*
X52805300Y-99813453D01*
X52790412Y-99888300D01*
X52805300Y-99963147D01*
X52805300Y-99963151D01*
X52849396Y-100184836D01*
X53017371Y-100436229D01*
X53080830Y-100478631D01*
X56729300Y-104127102D01*
X56729300Y-104293174D01*
X56886869Y-104673580D01*
X57178020Y-104964731D01*
X57558426Y-105122300D01*
X57970174Y-105122300D01*
X58350580Y-104964731D01*
X58641731Y-104673580D01*
X58799300Y-104293174D01*
X58799300Y-103881426D01*
X58641731Y-103501020D01*
X58350580Y-103209869D01*
X57970174Y-103052300D01*
X57804102Y-103052300D01*
X54325300Y-99573499D01*
X54325300Y-89528403D01*
X54420091Y-89591740D01*
X54838667Y-89675000D01*
X55121333Y-89675000D01*
X55539909Y-89591740D01*
X56014577Y-89274577D01*
X56250000Y-88922242D01*
X56485423Y-89274577D01*
X56960091Y-89591740D01*
X57378667Y-89675000D01*
X57661333Y-89675000D01*
X58079909Y-89591740D01*
X58554577Y-89274577D01*
X58790000Y-88922242D01*
X59025423Y-89274577D01*
X59500091Y-89591740D01*
X59918667Y-89675000D01*
X60201333Y-89675000D01*
X60619909Y-89591740D01*
X61094577Y-89274577D01*
X61330000Y-88922242D01*
X61565423Y-89274577D01*
X62040091Y-89591740D01*
X62458667Y-89675000D01*
X62741333Y-89675000D01*
X63159909Y-89591740D01*
X63254600Y-89528469D01*
X63254600Y-89939753D01*
X63239712Y-90014600D01*
X63254600Y-90089447D01*
X63254600Y-90089451D01*
X63298696Y-90311136D01*
X63466671Y-90562529D01*
X63530130Y-90604931D01*
X69433823Y-96508625D01*
X69365000Y-96674778D01*
X69365000Y-97325222D01*
X69613914Y-97926153D01*
X70073847Y-98386086D01*
X70375264Y-98510937D01*
X65646201Y-103240000D01*
X65238430Y-103240000D01*
X65216534Y-103187138D01*
X64812862Y-102783466D01*
X64285439Y-102565000D01*
X63714561Y-102565000D01*
X63187138Y-102783466D01*
X62783466Y-103187138D01*
X62565000Y-103714561D01*
X62565000Y-104285439D01*
X62586896Y-104338302D01*
X54685199Y-112240000D01*
X46119848Y-112240000D01*
X46045000Y-112225112D01*
X45970152Y-112240000D01*
X45970148Y-112240000D01*
X45796605Y-112274520D01*
X45748462Y-112284096D01*
X45561418Y-112409076D01*
X45497071Y-112452071D01*
X45454671Y-112515527D01*
X34360018Y-123610181D01*
X34270000Y-123592275D01*
X33817391Y-123682305D01*
X33816016Y-123683224D01*
X33651309Y-123615000D01*
X33285750Y-123615000D01*
X33127000Y-123773750D01*
X33127000Y-124575291D01*
X33110000Y-124660755D01*
X33110000Y-125339246D01*
X33127000Y-125424710D01*
X33127000Y-126226250D01*
X33285750Y-126385000D01*
X33651309Y-126385000D01*
X33816016Y-126316776D01*
X33817392Y-126317695D01*
X34270000Y-126407725D01*
X34722609Y-126317695D01*
X34905001Y-126195825D01*
X35087392Y-126317695D01*
X35540000Y-126407725D01*
X35992609Y-126317695D01*
X36376313Y-126061313D01*
X36632695Y-125677608D01*
X36665148Y-125514452D01*
X99665000Y-125514452D01*
X99665000Y-126045548D01*
X99868242Y-126536217D01*
X100243783Y-126911758D01*
X100734452Y-127115000D01*
X101265548Y-127115000D01*
X101756217Y-126911758D01*
X102131758Y-126536217D01*
X102335000Y-126045548D01*
X102335000Y-125524452D01*
X107295000Y-125524452D01*
X107295000Y-126055548D01*
X107498242Y-126546217D01*
X107873783Y-126921758D01*
X108364452Y-127125000D01*
X108895548Y-127125000D01*
X109386217Y-126921758D01*
X109761758Y-126546217D01*
X109965000Y-126055548D01*
X109965000Y-125524452D01*
X109761758Y-125033783D01*
X109386217Y-124658242D01*
X108895548Y-124455000D01*
X108364452Y-124455000D01*
X107873783Y-124658242D01*
X107498242Y-125033783D01*
X107295000Y-125524452D01*
X102335000Y-125524452D01*
X102335000Y-125514452D01*
X102131758Y-125023783D01*
X101756217Y-124648242D01*
X101265548Y-124445000D01*
X100734452Y-124445000D01*
X100243783Y-124648242D01*
X99868242Y-125023783D01*
X99665000Y-125514452D01*
X36665148Y-125514452D01*
X36700000Y-125339245D01*
X36700000Y-124660754D01*
X36698365Y-124652532D01*
X70027073Y-124652532D01*
X70125736Y-124919387D01*
X70735461Y-125145908D01*
X71385460Y-125121856D01*
X71874264Y-124919387D01*
X71972927Y-124652532D01*
X76527073Y-124652532D01*
X76625736Y-124919387D01*
X77235461Y-125145908D01*
X77885460Y-125121856D01*
X78374264Y-124919387D01*
X78472927Y-124652532D01*
X77500000Y-123679605D01*
X76527073Y-124652532D01*
X71972927Y-124652532D01*
X71000000Y-123679605D01*
X70027073Y-124652532D01*
X36698365Y-124652532D01*
X36632695Y-124322391D01*
X36376313Y-123938687D01*
X36259300Y-123860502D01*
X36884341Y-123235461D01*
X69354092Y-123235461D01*
X69378144Y-123885460D01*
X69580613Y-124374264D01*
X69847468Y-124472927D01*
X70820395Y-123500000D01*
X71179605Y-123500000D01*
X72152532Y-124472927D01*
X72419387Y-124374264D01*
X72645908Y-123764539D01*
X72626331Y-123235461D01*
X75854092Y-123235461D01*
X75878144Y-123885460D01*
X76080613Y-124374264D01*
X76347468Y-124472927D01*
X77320395Y-123500000D01*
X77679605Y-123500000D01*
X78652532Y-124472927D01*
X78919387Y-124374264D01*
X78970318Y-124237171D01*
X121165000Y-124237171D01*
X121165000Y-125762829D01*
X121748844Y-127172353D01*
X122827647Y-128251156D01*
X124237171Y-128835000D01*
X125762829Y-128835000D01*
X127172353Y-128251156D01*
X128251156Y-127172353D01*
X128835000Y-125762829D01*
X128835000Y-124237171D01*
X128251156Y-122827647D01*
X127172353Y-121748844D01*
X125762829Y-121165000D01*
X124237171Y-121165000D01*
X122827647Y-121748844D01*
X121748844Y-122827647D01*
X121165000Y-124237171D01*
X78970318Y-124237171D01*
X79145908Y-123764539D01*
X79121856Y-123114540D01*
X78919387Y-122625736D01*
X78652532Y-122527073D01*
X77679605Y-123500000D01*
X77320395Y-123500000D01*
X76347468Y-122527073D01*
X76080613Y-122625736D01*
X75854092Y-123235461D01*
X72626331Y-123235461D01*
X72621856Y-123114540D01*
X72419387Y-122625736D01*
X72152532Y-122527073D01*
X71179605Y-123500000D01*
X70820395Y-123500000D01*
X69847468Y-122527073D01*
X69580613Y-122625736D01*
X69354092Y-123235461D01*
X36884341Y-123235461D01*
X37772334Y-122347468D01*
X70027073Y-122347468D01*
X71000000Y-123320395D01*
X71972927Y-122347468D01*
X76527073Y-122347468D01*
X77500000Y-123320395D01*
X78472927Y-122347468D01*
X78374264Y-122080613D01*
X77764539Y-121854092D01*
X77114540Y-121878144D01*
X76625736Y-122080613D01*
X76527073Y-122347468D01*
X71972927Y-122347468D01*
X71874264Y-122080613D01*
X71264539Y-121854092D01*
X70614540Y-121878144D01*
X70125736Y-122080613D01*
X70027073Y-122347468D01*
X37772334Y-122347468D01*
X41445024Y-118674778D01*
X69365000Y-118674778D01*
X69365000Y-119325222D01*
X69613914Y-119926153D01*
X70073847Y-120386086D01*
X70674778Y-120635000D01*
X71325222Y-120635000D01*
X71926153Y-120386086D01*
X72386086Y-119926153D01*
X72635000Y-119325222D01*
X72635000Y-118674778D01*
X75865000Y-118674778D01*
X75865000Y-119325222D01*
X76113914Y-119926153D01*
X76573847Y-120386086D01*
X77174778Y-120635000D01*
X77825222Y-120635000D01*
X78333529Y-120424452D01*
X99665000Y-120424452D01*
X99665000Y-120955548D01*
X99868242Y-121446217D01*
X100243783Y-121821758D01*
X100734452Y-122025000D01*
X101265548Y-122025000D01*
X101756217Y-121821758D01*
X102131758Y-121446217D01*
X102335000Y-120955548D01*
X102335000Y-120444452D01*
X107295000Y-120444452D01*
X107295000Y-120975548D01*
X107498242Y-121466217D01*
X107873783Y-121841758D01*
X108364452Y-122045000D01*
X108895548Y-122045000D01*
X109386217Y-121841758D01*
X109761758Y-121466217D01*
X109965000Y-120975548D01*
X109965000Y-120444452D01*
X109761758Y-119953783D01*
X109386217Y-119578242D01*
X108895548Y-119375000D01*
X108364452Y-119375000D01*
X107873783Y-119578242D01*
X107498242Y-119953783D01*
X107295000Y-120444452D01*
X102335000Y-120444452D01*
X102335000Y-120424452D01*
X102131758Y-119933783D01*
X101756217Y-119558242D01*
X101265548Y-119355000D01*
X100734452Y-119355000D01*
X100243783Y-119558242D01*
X99868242Y-119933783D01*
X99665000Y-120424452D01*
X78333529Y-120424452D01*
X78426153Y-120386086D01*
X78886086Y-119926153D01*
X79135000Y-119325222D01*
X79135000Y-118674778D01*
X78886086Y-118073847D01*
X78426153Y-117613914D01*
X77825222Y-117365000D01*
X77174778Y-117365000D01*
X76573847Y-117613914D01*
X76113914Y-118073847D01*
X75865000Y-118674778D01*
X72635000Y-118674778D01*
X72386086Y-118073847D01*
X71926153Y-117613914D01*
X71325222Y-117365000D01*
X70674778Y-117365000D01*
X70073847Y-117613914D01*
X69613914Y-118073847D01*
X69365000Y-118674778D01*
X41445024Y-118674778D01*
X45959802Y-114160000D01*
X62536887Y-114160000D01*
X62648260Y-114719909D01*
X62965423Y-115194577D01*
X63440091Y-115511740D01*
X63858667Y-115595000D01*
X64141333Y-115595000D01*
X64559909Y-115511740D01*
X65034577Y-115194577D01*
X65351740Y-114719909D01*
X65463113Y-114160000D01*
X65351740Y-113600091D01*
X65034577Y-113125423D01*
X64559909Y-112808260D01*
X64141333Y-112725000D01*
X63858667Y-112725000D01*
X63440091Y-112808260D01*
X62965423Y-113125423D01*
X62648260Y-113600091D01*
X62536887Y-114160000D01*
X45959802Y-114160000D01*
X46359802Y-113760000D01*
X54925153Y-113760000D01*
X55000000Y-113774888D01*
X55074847Y-113760000D01*
X55074852Y-113760000D01*
X55296537Y-113715904D01*
X55547929Y-113547929D01*
X55590331Y-113484470D01*
X62360240Y-106714561D01*
X67565000Y-106714561D01*
X67565000Y-107285439D01*
X67783466Y-107812862D01*
X68065001Y-108094397D01*
X68065000Y-112905604D01*
X67783466Y-113187138D01*
X67565000Y-113714561D01*
X67565000Y-114285439D01*
X67783466Y-114812862D01*
X68187138Y-115216534D01*
X68714561Y-115435000D01*
X69285439Y-115435000D01*
X69812862Y-115216534D01*
X70216534Y-114812862D01*
X70435000Y-114285439D01*
X70435000Y-114000000D01*
X77696887Y-114000000D01*
X77808260Y-114559909D01*
X78125423Y-115034577D01*
X78600091Y-115351740D01*
X79018667Y-115435000D01*
X79301333Y-115435000D01*
X79706274Y-115354452D01*
X99665000Y-115354452D01*
X99665000Y-115885548D01*
X99868242Y-116376217D01*
X100243783Y-116751758D01*
X100734452Y-116955000D01*
X101265548Y-116955000D01*
X101756217Y-116751758D01*
X102131758Y-116376217D01*
X102335000Y-115885548D01*
X102335000Y-115354452D01*
X107285000Y-115354452D01*
X107285000Y-115885548D01*
X107488242Y-116376217D01*
X107863783Y-116751758D01*
X108354452Y-116955000D01*
X108885548Y-116955000D01*
X109376217Y-116751758D01*
X109751758Y-116376217D01*
X109903450Y-116010000D01*
X118372560Y-116010000D01*
X118372560Y-117990000D01*
X118421843Y-118237765D01*
X118562191Y-118447809D01*
X118772235Y-118588157D01*
X119020000Y-118637440D01*
X122980000Y-118637440D01*
X123227765Y-118588157D01*
X123437809Y-118447809D01*
X123578157Y-118237765D01*
X123627440Y-117990000D01*
X123627440Y-116010000D01*
X123578157Y-115762235D01*
X123437809Y-115552191D01*
X123227765Y-115411843D01*
X122980000Y-115362560D01*
X119020000Y-115362560D01*
X118772235Y-115411843D01*
X118562191Y-115552191D01*
X118421843Y-115762235D01*
X118372560Y-116010000D01*
X109903450Y-116010000D01*
X109955000Y-115885548D01*
X109955000Y-115354452D01*
X109751758Y-114863783D01*
X109376217Y-114488242D01*
X108885548Y-114285000D01*
X108354452Y-114285000D01*
X107863783Y-114488242D01*
X107488242Y-114863783D01*
X107285000Y-115354452D01*
X102335000Y-115354452D01*
X102131758Y-114863783D01*
X101756217Y-114488242D01*
X101265548Y-114285000D01*
X100734452Y-114285000D01*
X100243783Y-114488242D01*
X99868242Y-114863783D01*
X99665000Y-115354452D01*
X79706274Y-115354452D01*
X79719909Y-115351740D01*
X80194577Y-115034577D01*
X80511740Y-114559909D01*
X80623113Y-114000000D01*
X80511740Y-113440091D01*
X80194577Y-112965423D01*
X79719909Y-112648260D01*
X79301333Y-112565000D01*
X79018667Y-112565000D01*
X78600091Y-112648260D01*
X78125423Y-112965423D01*
X77808260Y-113440091D01*
X77696887Y-114000000D01*
X70435000Y-114000000D01*
X70435000Y-113714561D01*
X70216534Y-113187138D01*
X69935000Y-112905604D01*
X69935000Y-112000000D01*
X118353165Y-112000000D01*
X118479284Y-112634043D01*
X118838441Y-113171559D01*
X119375957Y-113530716D01*
X119849955Y-113625000D01*
X122150045Y-113625000D01*
X122624043Y-113530716D01*
X123161559Y-113171559D01*
X123520716Y-112634043D01*
X123646835Y-112000000D01*
X123520716Y-111365957D01*
X123161559Y-110828441D01*
X122624043Y-110469284D01*
X122150045Y-110375000D01*
X119849955Y-110375000D01*
X119375957Y-110469284D01*
X118838441Y-110828441D01*
X118479284Y-111365957D01*
X118353165Y-112000000D01*
X69935000Y-112000000D01*
X69935000Y-108094396D01*
X70216534Y-107812862D01*
X70435000Y-107285439D01*
X70435000Y-107000000D01*
X77696887Y-107000000D01*
X77808260Y-107559909D01*
X78125423Y-108034577D01*
X78600091Y-108351740D01*
X79018667Y-108435000D01*
X79301333Y-108435000D01*
X79719909Y-108351740D01*
X80194577Y-108034577D01*
X80511740Y-107559909D01*
X80563439Y-107300000D01*
X99652560Y-107300000D01*
X99652560Y-108700000D01*
X99701843Y-108947765D01*
X99842191Y-109157809D01*
X100052235Y-109298157D01*
X100300000Y-109347440D01*
X101700000Y-109347440D01*
X101947765Y-109298157D01*
X102157809Y-109157809D01*
X102298157Y-108947765D01*
X102347440Y-108700000D01*
X102347440Y-107734452D01*
X107285000Y-107734452D01*
X107285000Y-108265548D01*
X107488242Y-108756217D01*
X107863783Y-109131758D01*
X108354452Y-109335000D01*
X108885548Y-109335000D01*
X109376217Y-109131758D01*
X109751758Y-108756217D01*
X109955000Y-108265548D01*
X109955000Y-107734452D01*
X109751758Y-107243783D01*
X109376217Y-106868242D01*
X108885548Y-106665000D01*
X108354452Y-106665000D01*
X107863783Y-106868242D01*
X107488242Y-107243783D01*
X107285000Y-107734452D01*
X102347440Y-107734452D01*
X102347440Y-107300000D01*
X102298157Y-107052235D01*
X102157809Y-106842191D01*
X101947765Y-106701843D01*
X101700000Y-106652560D01*
X100300000Y-106652560D01*
X100052235Y-106701843D01*
X99842191Y-106842191D01*
X99701843Y-107052235D01*
X99652560Y-107300000D01*
X80563439Y-107300000D01*
X80623113Y-107000000D01*
X80511740Y-106440091D01*
X80194577Y-105965423D01*
X79719909Y-105648260D01*
X79301333Y-105565000D01*
X79018667Y-105565000D01*
X78600091Y-105648260D01*
X78125423Y-105965423D01*
X77808260Y-106440091D01*
X77696887Y-107000000D01*
X70435000Y-107000000D01*
X70435000Y-106714561D01*
X70216534Y-106187138D01*
X69812862Y-105783466D01*
X69285439Y-105565000D01*
X68714561Y-105565000D01*
X68187138Y-105783466D01*
X67783466Y-106187138D01*
X67565000Y-106714561D01*
X62360240Y-106714561D01*
X63661698Y-105413104D01*
X63714561Y-105435000D01*
X64285439Y-105435000D01*
X64812862Y-105216534D01*
X65216534Y-104812862D01*
X65238430Y-104760000D01*
X65886155Y-104760000D01*
X65961002Y-104774888D01*
X66035849Y-104760000D01*
X66035854Y-104760000D01*
X66257539Y-104715904D01*
X66508931Y-104547929D01*
X66551333Y-104484470D01*
X66750053Y-104285750D01*
X118840000Y-104285750D01*
X118840000Y-104876310D01*
X118936673Y-105109699D01*
X119115302Y-105288327D01*
X119348691Y-105385000D01*
X119714250Y-105385000D01*
X119873000Y-105226250D01*
X119873000Y-104127000D01*
X118998750Y-104127000D01*
X118840000Y-104285750D01*
X66750053Y-104285750D01*
X68383271Y-102652532D01*
X70027073Y-102652532D01*
X70125736Y-102919387D01*
X70735461Y-103145908D01*
X71385460Y-103121856D01*
X71874264Y-102919387D01*
X71972927Y-102652532D01*
X76527073Y-102652532D01*
X76625736Y-102919387D01*
X77235461Y-103145908D01*
X77835896Y-103123690D01*
X118840000Y-103123690D01*
X118840000Y-103714250D01*
X118998750Y-103873000D01*
X119873000Y-103873000D01*
X119873000Y-103660755D01*
X120110000Y-103660755D01*
X120110000Y-104339246D01*
X120127000Y-104424710D01*
X120127000Y-105226250D01*
X120285750Y-105385000D01*
X120651309Y-105385000D01*
X120816016Y-105316776D01*
X120817392Y-105317695D01*
X121270000Y-105407725D01*
X121722609Y-105317695D01*
X121905001Y-105195825D01*
X122087392Y-105317695D01*
X122540000Y-105407725D01*
X122992609Y-105317695D01*
X123376313Y-105061313D01*
X123632695Y-104677608D01*
X123700000Y-104339245D01*
X123700000Y-103660754D01*
X123632695Y-103322391D01*
X123376313Y-102938687D01*
X122992608Y-102682305D01*
X122540000Y-102592275D01*
X122087391Y-102682305D01*
X121905000Y-102804175D01*
X121722608Y-102682305D01*
X121270000Y-102592275D01*
X120817391Y-102682305D01*
X120816016Y-102683224D01*
X120651309Y-102615000D01*
X120285750Y-102615000D01*
X120127000Y-102773750D01*
X120127000Y-103575291D01*
X120110000Y-103660755D01*
X119873000Y-103660755D01*
X119873000Y-102773750D01*
X119714250Y-102615000D01*
X119348691Y-102615000D01*
X119115302Y-102711673D01*
X118936673Y-102890301D01*
X118840000Y-103123690D01*
X77835896Y-103123690D01*
X77885460Y-103121856D01*
X78374264Y-102919387D01*
X78472927Y-102652532D01*
X77500000Y-101679605D01*
X76527073Y-102652532D01*
X71972927Y-102652532D01*
X71000000Y-101679605D01*
X70027073Y-102652532D01*
X68383271Y-102652532D01*
X69370015Y-101665788D01*
X69378144Y-101885460D01*
X69580613Y-102374264D01*
X69847468Y-102472927D01*
X70820395Y-101500000D01*
X71179605Y-101500000D01*
X72152532Y-102472927D01*
X72419387Y-102374264D01*
X72645908Y-101764539D01*
X72626331Y-101235461D01*
X75854092Y-101235461D01*
X75878144Y-101885460D01*
X76080613Y-102374264D01*
X76347468Y-102472927D01*
X77320395Y-101500000D01*
X77679605Y-101500000D01*
X78652532Y-102472927D01*
X78919387Y-102374264D01*
X79145908Y-101764539D01*
X79121856Y-101114540D01*
X78919387Y-100625736D01*
X78652532Y-100527073D01*
X77679605Y-101500000D01*
X77320395Y-101500000D01*
X76347468Y-100527073D01*
X76080613Y-100625736D01*
X75854092Y-101235461D01*
X72626331Y-101235461D01*
X72621856Y-101114540D01*
X72419387Y-100625736D01*
X72152532Y-100527073D01*
X71179605Y-101500000D01*
X70820395Y-101500000D01*
X70806253Y-101485858D01*
X70985858Y-101306253D01*
X71000000Y-101320395D01*
X71972927Y-100347468D01*
X76527073Y-100347468D01*
X77500000Y-101320395D01*
X78472927Y-100347468D01*
X78374264Y-100080613D01*
X77764539Y-99854092D01*
X77114540Y-99878144D01*
X76625736Y-100080613D01*
X76527073Y-100347468D01*
X71972927Y-100347468D01*
X71874264Y-100080613D01*
X71264539Y-99854092D01*
X71178529Y-99857275D01*
X74361026Y-96674778D01*
X75865000Y-96674778D01*
X75865000Y-97325222D01*
X76113914Y-97926153D01*
X76573847Y-98386086D01*
X77174778Y-98635000D01*
X77825222Y-98635000D01*
X78426153Y-98386086D01*
X78886086Y-97926153D01*
X79135000Y-97325222D01*
X79135000Y-96900000D01*
X97252560Y-96900000D01*
X97252560Y-99100000D01*
X97301843Y-99347765D01*
X97442191Y-99557809D01*
X97652235Y-99698157D01*
X97900000Y-99747440D01*
X100100000Y-99747440D01*
X100347765Y-99698157D01*
X100557809Y-99557809D01*
X100698157Y-99347765D01*
X100747440Y-99100000D01*
X100747440Y-98000000D01*
X107391010Y-98000000D01*
X107525666Y-98676963D01*
X107909135Y-99250865D01*
X108483037Y-99634334D01*
X108989120Y-99735000D01*
X109330880Y-99735000D01*
X109836963Y-99634334D01*
X110410865Y-99250865D01*
X110794334Y-98676963D01*
X110928990Y-98000000D01*
X113376887Y-98000000D01*
X113488260Y-98559909D01*
X113805423Y-99034577D01*
X114280091Y-99351740D01*
X114698667Y-99435000D01*
X114981333Y-99435000D01*
X115399909Y-99351740D01*
X115874577Y-99034577D01*
X116191740Y-98559909D01*
X116303113Y-98000000D01*
X116246336Y-97714561D01*
X123565000Y-97714561D01*
X123565000Y-98285439D01*
X123783466Y-98812862D01*
X124187138Y-99216534D01*
X124714561Y-99435000D01*
X125285439Y-99435000D01*
X125812862Y-99216534D01*
X126216534Y-98812862D01*
X126435000Y-98285439D01*
X126435000Y-97714561D01*
X126216534Y-97187138D01*
X125812862Y-96783466D01*
X125285439Y-96565000D01*
X124714561Y-96565000D01*
X124187138Y-96783466D01*
X123783466Y-97187138D01*
X123565000Y-97714561D01*
X116246336Y-97714561D01*
X116191740Y-97440091D01*
X115874577Y-96965423D01*
X115399909Y-96648260D01*
X114981333Y-96565000D01*
X114698667Y-96565000D01*
X114280091Y-96648260D01*
X113805423Y-96965423D01*
X113488260Y-97440091D01*
X113376887Y-98000000D01*
X110928990Y-98000000D01*
X110794334Y-97323037D01*
X110410865Y-96749135D01*
X109836963Y-96365666D01*
X109330880Y-96265000D01*
X108989120Y-96265000D01*
X108483037Y-96365666D01*
X107909135Y-96749135D01*
X107525666Y-97323037D01*
X107391010Y-98000000D01*
X100747440Y-98000000D01*
X100747440Y-96900000D01*
X100698157Y-96652235D01*
X100557809Y-96442191D01*
X100347765Y-96301843D01*
X100100000Y-96252560D01*
X97900000Y-96252560D01*
X97652235Y-96301843D01*
X97442191Y-96442191D01*
X97301843Y-96652235D01*
X97252560Y-96900000D01*
X79135000Y-96900000D01*
X79135000Y-96674778D01*
X78886086Y-96073847D01*
X78426153Y-95613914D01*
X77825222Y-95365000D01*
X77174778Y-95365000D01*
X76573847Y-95613914D01*
X76113914Y-96073847D01*
X75865000Y-96674778D01*
X74361026Y-96674778D01*
X77199173Y-93836631D01*
X77262629Y-93794231D01*
X77430604Y-93542839D01*
X77474700Y-93321154D01*
X77474700Y-93321150D01*
X77489588Y-93246302D01*
X77474700Y-93171454D01*
X77474700Y-89630450D01*
X77698667Y-89675000D01*
X77981333Y-89675000D01*
X78399909Y-89591740D01*
X78874577Y-89274577D01*
X79110000Y-88922242D01*
X79345423Y-89274577D01*
X79820091Y-89591740D01*
X80238667Y-89675000D01*
X80521333Y-89675000D01*
X80939909Y-89591740D01*
X81414577Y-89274577D01*
X81650000Y-88922242D01*
X81885423Y-89274577D01*
X82360091Y-89591740D01*
X82778667Y-89675000D01*
X83061333Y-89675000D01*
X83479909Y-89591740D01*
X83954577Y-89274577D01*
X84210947Y-88890892D01*
X84307611Y-89095134D01*
X84722577Y-89471041D01*
X85110961Y-89631904D01*
X85333000Y-89509915D01*
X85333000Y-88367000D01*
X85313000Y-88367000D01*
X85313000Y-88113000D01*
X85333000Y-88113000D01*
X85333000Y-86970085D01*
X85587000Y-86970085D01*
X85587000Y-88113000D01*
X85607000Y-88113000D01*
X85607000Y-88367000D01*
X85587000Y-88367000D01*
X85587000Y-89509915D01*
X85809039Y-89631904D01*
X86197423Y-89471041D01*
X86612389Y-89095134D01*
X86709053Y-88890892D01*
X86965423Y-89274577D01*
X87440091Y-89591740D01*
X87858667Y-89675000D01*
X88141333Y-89675000D01*
X88559909Y-89591740D01*
X89034577Y-89274577D01*
X89351740Y-88799909D01*
X89463113Y-88240000D01*
X89351740Y-87680091D01*
X89034577Y-87205423D01*
X88559909Y-86888260D01*
X88141333Y-86805000D01*
X87858667Y-86805000D01*
X87440091Y-86888260D01*
X86965423Y-87205423D01*
X86709053Y-87589108D01*
X86612389Y-87384866D01*
X86197423Y-87008959D01*
X85809039Y-86848096D01*
X85587000Y-86970085D01*
X85333000Y-86970085D01*
X85110961Y-86848096D01*
X84722577Y-87008959D01*
X84307611Y-87384866D01*
X84210947Y-87589108D01*
X83954577Y-87205423D01*
X83479909Y-86888260D01*
X83061333Y-86805000D01*
X82778667Y-86805000D01*
X82360091Y-86888260D01*
X81885423Y-87205423D01*
X81650000Y-87557758D01*
X81414577Y-87205423D01*
X80939909Y-86888260D01*
X80521333Y-86805000D01*
X80238667Y-86805000D01*
X79820091Y-86888260D01*
X79345423Y-87205423D01*
X79110000Y-87557758D01*
X78874577Y-87205423D01*
X78399909Y-86888260D01*
X77981333Y-86805000D01*
X77698667Y-86805000D01*
X77474700Y-86849550D01*
X77474700Y-86714561D01*
X99565000Y-86714561D01*
X99565000Y-87285439D01*
X99783466Y-87812862D01*
X100187138Y-88216534D01*
X100714561Y-88435000D01*
X101285439Y-88435000D01*
X101812862Y-88216534D01*
X102216534Y-87812862D01*
X102435000Y-87285439D01*
X102435000Y-87000000D01*
X109696887Y-87000000D01*
X109808260Y-87559909D01*
X110125423Y-88034577D01*
X110600091Y-88351740D01*
X111018667Y-88435000D01*
X111301333Y-88435000D01*
X111719909Y-88351740D01*
X112194577Y-88034577D01*
X112511740Y-87559909D01*
X112566273Y-87285750D01*
X115465000Y-87285750D01*
X115465000Y-88026310D01*
X115561673Y-88259699D01*
X115740302Y-88438327D01*
X115973691Y-88535000D01*
X116714250Y-88535000D01*
X116873000Y-88376250D01*
X116873000Y-87127000D01*
X115623750Y-87127000D01*
X115465000Y-87285750D01*
X112566273Y-87285750D01*
X112623113Y-87000000D01*
X112511740Y-86440091D01*
X112200101Y-85973690D01*
X115465000Y-85973690D01*
X115465000Y-86714250D01*
X115623750Y-86873000D01*
X116873000Y-86873000D01*
X116873000Y-85623750D01*
X117127000Y-85623750D01*
X117127000Y-86873000D01*
X117147000Y-86873000D01*
X117147000Y-87127000D01*
X117127000Y-87127000D01*
X117127000Y-88376250D01*
X117285750Y-88535000D01*
X118026309Y-88535000D01*
X118259698Y-88438327D01*
X118438327Y-88259699D01*
X118494139Y-88124956D01*
X118670493Y-88301310D01*
X119234670Y-88535000D01*
X119845330Y-88535000D01*
X120409507Y-88301310D01*
X120841310Y-87869507D01*
X121075000Y-87305330D01*
X121075000Y-86694670D01*
X120841310Y-86130493D01*
X120409507Y-85698690D01*
X119845330Y-85465000D01*
X119234670Y-85465000D01*
X118670493Y-85698690D01*
X118494139Y-85875044D01*
X118438327Y-85740301D01*
X118259698Y-85561673D01*
X118026309Y-85465000D01*
X117285750Y-85465000D01*
X117127000Y-85623750D01*
X116873000Y-85623750D01*
X116714250Y-85465000D01*
X115973691Y-85465000D01*
X115740302Y-85561673D01*
X115561673Y-85740301D01*
X115465000Y-85973690D01*
X112200101Y-85973690D01*
X112194577Y-85965423D01*
X111719909Y-85648260D01*
X111301333Y-85565000D01*
X111018667Y-85565000D01*
X110600091Y-85648260D01*
X110125423Y-85965423D01*
X109808260Y-86440091D01*
X109696887Y-87000000D01*
X102435000Y-87000000D01*
X102435000Y-86714561D01*
X102216534Y-86187138D01*
X101812862Y-85783466D01*
X101285439Y-85565000D01*
X100714561Y-85565000D01*
X100187138Y-85783466D01*
X99783466Y-86187138D01*
X99565000Y-86714561D01*
X77474700Y-86714561D01*
X77474700Y-75565401D01*
X78324473Y-74715629D01*
X78326071Y-74714561D01*
X99405000Y-74714561D01*
X99405000Y-75285439D01*
X99623466Y-75812862D01*
X100027138Y-76216534D01*
X100554561Y-76435000D01*
X101125439Y-76435000D01*
X101652862Y-76216534D01*
X102056534Y-75812862D01*
X102275000Y-75285439D01*
X102275000Y-75000000D01*
X109536887Y-75000000D01*
X109648260Y-75559909D01*
X109965423Y-76034577D01*
X110440091Y-76351740D01*
X110858667Y-76435000D01*
X111141333Y-76435000D01*
X111559909Y-76351740D01*
X112034577Y-76034577D01*
X112351740Y-75559909D01*
X112406273Y-75285750D01*
X115465000Y-75285750D01*
X115465000Y-76026310D01*
X115561673Y-76259699D01*
X115740302Y-76438327D01*
X115973691Y-76535000D01*
X116714250Y-76535000D01*
X116873000Y-76376250D01*
X116873000Y-75127000D01*
X115623750Y-75127000D01*
X115465000Y-75285750D01*
X112406273Y-75285750D01*
X112463113Y-75000000D01*
X112351740Y-74440091D01*
X112040101Y-73973690D01*
X115465000Y-73973690D01*
X115465000Y-74714250D01*
X115623750Y-74873000D01*
X116873000Y-74873000D01*
X116873000Y-73623750D01*
X117127000Y-73623750D01*
X117127000Y-74873000D01*
X117147000Y-74873000D01*
X117147000Y-75127000D01*
X117127000Y-75127000D01*
X117127000Y-76376250D01*
X117285750Y-76535000D01*
X118026309Y-76535000D01*
X118259698Y-76438327D01*
X118438327Y-76259699D01*
X118494139Y-76124956D01*
X118670493Y-76301310D01*
X119234670Y-76535000D01*
X119845330Y-76535000D01*
X120409507Y-76301310D01*
X120841310Y-75869507D01*
X121075000Y-75305330D01*
X121075000Y-74694670D01*
X120841310Y-74130493D01*
X120409507Y-73698690D01*
X119845330Y-73465000D01*
X119234670Y-73465000D01*
X118670493Y-73698690D01*
X118494139Y-73875044D01*
X118438327Y-73740301D01*
X118259698Y-73561673D01*
X118026309Y-73465000D01*
X117285750Y-73465000D01*
X117127000Y-73623750D01*
X116873000Y-73623750D01*
X116714250Y-73465000D01*
X115973691Y-73465000D01*
X115740302Y-73561673D01*
X115561673Y-73740301D01*
X115465000Y-73973690D01*
X112040101Y-73973690D01*
X112034577Y-73965423D01*
X111559909Y-73648260D01*
X111141333Y-73565000D01*
X110858667Y-73565000D01*
X110440091Y-73648260D01*
X109965423Y-73965423D01*
X109648260Y-74440091D01*
X109536887Y-75000000D01*
X102275000Y-75000000D01*
X102275000Y-74714561D01*
X102056534Y-74187138D01*
X101652862Y-73783466D01*
X101125439Y-73565000D01*
X100554561Y-73565000D01*
X100027138Y-73783466D01*
X99623466Y-74187138D01*
X99405000Y-74714561D01*
X78326071Y-74714561D01*
X78387929Y-74673229D01*
X78555904Y-74421837D01*
X78595896Y-74220786D01*
X78874577Y-74034577D01*
X79130947Y-73650892D01*
X79227611Y-73855134D01*
X79642577Y-74231041D01*
X80030961Y-74391904D01*
X80253000Y-74269915D01*
X80253000Y-73127000D01*
X80233000Y-73127000D01*
X80233000Y-72873000D01*
X80253000Y-72873000D01*
X80253000Y-71730085D01*
X80507000Y-71730085D01*
X80507000Y-72873000D01*
X80527000Y-72873000D01*
X80527000Y-73127000D01*
X80507000Y-73127000D01*
X80507000Y-74269915D01*
X80729039Y-74391904D01*
X81117423Y-74231041D01*
X81532389Y-73855134D01*
X81629053Y-73650892D01*
X81885423Y-74034577D01*
X82360091Y-74351740D01*
X82778667Y-74435000D01*
X83061333Y-74435000D01*
X83479909Y-74351740D01*
X83954577Y-74034577D01*
X84190000Y-73682242D01*
X84425423Y-74034577D01*
X84900091Y-74351740D01*
X85318667Y-74435000D01*
X85601333Y-74435000D01*
X86019909Y-74351740D01*
X86494577Y-74034577D01*
X86575215Y-73913894D01*
X86601843Y-74047765D01*
X86742191Y-74257809D01*
X86952235Y-74398157D01*
X87200000Y-74447440D01*
X88800000Y-74447440D01*
X89047765Y-74398157D01*
X89257809Y-74257809D01*
X89398157Y-74047765D01*
X89447440Y-73800000D01*
X89447440Y-72200000D01*
X89398157Y-71952235D01*
X89257809Y-71742191D01*
X89047765Y-71601843D01*
X88800000Y-71552560D01*
X87200000Y-71552560D01*
X86952235Y-71601843D01*
X86742191Y-71742191D01*
X86601843Y-71952235D01*
X86575215Y-72086106D01*
X86494577Y-71965423D01*
X86019909Y-71648260D01*
X85601333Y-71565000D01*
X85318667Y-71565000D01*
X84900091Y-71648260D01*
X84425423Y-71965423D01*
X84190000Y-72317758D01*
X83954577Y-71965423D01*
X83479909Y-71648260D01*
X83061333Y-71565000D01*
X82778667Y-71565000D01*
X82360091Y-71648260D01*
X81885423Y-71965423D01*
X81629053Y-72349108D01*
X81532389Y-72144866D01*
X81117423Y-71768959D01*
X80729039Y-71608096D01*
X80507000Y-71730085D01*
X80253000Y-71730085D01*
X80030961Y-71608096D01*
X79642577Y-71768959D01*
X79227611Y-72144866D01*
X79130947Y-72349108D01*
X78874577Y-71965423D01*
X78399909Y-71648260D01*
X77981333Y-71565000D01*
X77698667Y-71565000D01*
X77280091Y-71648260D01*
X76805423Y-71965423D01*
X76570000Y-72317758D01*
X76334577Y-71965423D01*
X75859909Y-71648260D01*
X75441333Y-71565000D01*
X75158667Y-71565000D01*
X74740091Y-71648260D01*
X74265423Y-71965423D01*
X74030000Y-72317758D01*
X73794577Y-71965423D01*
X73319909Y-71648260D01*
X72901333Y-71565000D01*
X72618667Y-71565000D01*
X72394700Y-71609550D01*
X72394700Y-66504846D01*
X72409588Y-66429999D01*
X72394700Y-66355152D01*
X72394700Y-66355148D01*
X72350604Y-66133463D01*
X72182629Y-65882071D01*
X72119173Y-65839671D01*
X53010380Y-46730879D01*
X53070625Y-46690625D01*
X53398839Y-46199418D01*
X53514092Y-45620000D01*
X53398839Y-45040582D01*
X53070625Y-44549375D01*
X52772239Y-44350000D01*
X53070625Y-44150625D01*
X53398839Y-43659418D01*
X53514092Y-43080000D01*
X53398839Y-42500582D01*
X53070625Y-42009375D01*
X52772239Y-41810000D01*
X53070625Y-41610625D01*
X53398839Y-41119418D01*
X53514092Y-40540000D01*
X53398839Y-39960582D01*
X53070625Y-39469375D01*
X53048967Y-39454904D01*
X53209698Y-39388327D01*
X53388327Y-39209699D01*
X53485000Y-38976310D01*
X53485000Y-38285750D01*
X53326250Y-38127000D01*
X52127000Y-38127000D01*
X52127000Y-38147000D01*
X51873000Y-38147000D01*
X51873000Y-38127000D01*
X50673750Y-38127000D01*
X50515000Y-38285750D01*
X50515000Y-38976310D01*
X50611673Y-39209699D01*
X50790302Y-39388327D01*
X50951033Y-39454904D01*
X50929375Y-39469375D01*
X50601161Y-39960582D01*
X50485908Y-40540000D01*
X50601161Y-41119418D01*
X50929375Y-41610625D01*
X51227761Y-41810000D01*
X50929375Y-42009375D01*
X50601161Y-42500582D01*
X50485908Y-43080000D01*
X50601161Y-43659418D01*
X50822509Y-43990689D01*
X50323628Y-44489571D01*
X50260172Y-44531971D01*
X50217772Y-44595427D01*
X50217771Y-44595428D01*
X50092197Y-44783363D01*
X50033212Y-45079900D01*
X50048101Y-45154752D01*
X50048100Y-56349099D01*
X46585400Y-52886399D01*
X46585400Y-44543548D01*
X46600288Y-44468700D01*
X46585400Y-44393852D01*
X46585400Y-44393848D01*
X46541304Y-44172163D01*
X46541304Y-44172162D01*
X46415729Y-43984227D01*
X46373329Y-43920771D01*
X46309873Y-43878371D01*
X45866502Y-43435000D01*
X46285439Y-43435000D01*
X46812862Y-43216534D01*
X47216534Y-42812862D01*
X47435000Y-42285439D01*
X47435000Y-41714561D01*
X47216534Y-41187138D01*
X46812862Y-40783466D01*
X46285439Y-40565000D01*
X45714561Y-40565000D01*
X45187138Y-40783466D01*
X44783466Y-41187138D01*
X44565000Y-41714561D01*
X44565000Y-42133499D01*
X44450700Y-42019199D01*
X44450700Y-37265567D01*
X44465588Y-37190740D01*
X44450700Y-37115872D01*
X44450700Y-37115848D01*
X44432369Y-37023690D01*
X50515000Y-37023690D01*
X50515000Y-37714250D01*
X50673750Y-37873000D01*
X51873000Y-37873000D01*
X51873000Y-36673750D01*
X52127000Y-36673750D01*
X52127000Y-37873000D01*
X53326250Y-37873000D01*
X53485000Y-37714250D01*
X53485000Y-37023690D01*
X53388327Y-36790301D01*
X53209698Y-36611673D01*
X52976309Y-36515000D01*
X52285750Y-36515000D01*
X52127000Y-36673750D01*
X51873000Y-36673750D01*
X51714250Y-36515000D01*
X51023691Y-36515000D01*
X50790302Y-36611673D01*
X50611673Y-36790301D01*
X50515000Y-37023690D01*
X44432369Y-37023690D01*
X44406619Y-36894199D01*
X44406608Y-36894182D01*
X44406604Y-36894163D01*
X44325444Y-36772699D01*
X44281054Y-36706257D01*
X44281039Y-36706242D01*
X44238629Y-36642771D01*
X44175191Y-36600383D01*
X43807474Y-36232628D01*
X45802931Y-34237171D01*
X121165000Y-34237171D01*
X121165000Y-35762829D01*
X121748844Y-37172353D01*
X122827647Y-38251156D01*
X124237171Y-38835000D01*
X125762829Y-38835000D01*
X127172353Y-38251156D01*
X128251156Y-37172353D01*
X128835000Y-35762829D01*
X128835000Y-34237171D01*
X128251156Y-32827647D01*
X127172353Y-31748844D01*
X125762829Y-31165000D01*
X124237171Y-31165000D01*
X122827647Y-31748844D01*
X121748844Y-32827647D01*
X121165000Y-34237171D01*
X45802931Y-34237171D01*
X46484473Y-33555629D01*
X46547929Y-33513229D01*
X46715904Y-33261837D01*
X46755896Y-33060786D01*
X47034577Y-32874577D01*
X47351740Y-32399909D01*
X47463113Y-31840000D01*
X47351740Y-31280091D01*
X47249448Y-31127000D01*
X128873000Y-31127000D01*
X128873000Y-128873000D01*
X31127000Y-128873000D01*
X31127000Y-125285750D01*
X31840000Y-125285750D01*
X31840000Y-125876310D01*
X31936673Y-126109699D01*
X32115302Y-126288327D01*
X32348691Y-126385000D01*
X32714250Y-126385000D01*
X32873000Y-126226250D01*
X32873000Y-125127000D01*
X31998750Y-125127000D01*
X31840000Y-125285750D01*
X31127000Y-125285750D01*
X31127000Y-124123690D01*
X31840000Y-124123690D01*
X31840000Y-124714250D01*
X31998750Y-124873000D01*
X32873000Y-124873000D01*
X32873000Y-123773750D01*
X32714250Y-123615000D01*
X32348691Y-123615000D01*
X32115302Y-123711673D01*
X31936673Y-123890301D01*
X31840000Y-124123690D01*
X31127000Y-124123690D01*
X31127000Y-104825000D01*
X34602560Y-104825000D01*
X34602560Y-106575000D01*
X34718449Y-107157613D01*
X35048472Y-107651528D01*
X35542387Y-107981551D01*
X36125000Y-108097440D01*
X37875000Y-108097440D01*
X38457613Y-107981551D01*
X38951528Y-107651528D01*
X39281551Y-107157613D01*
X39397440Y-106575000D01*
X39397440Y-104825000D01*
X39281551Y-104242387D01*
X38951528Y-103748472D01*
X38457613Y-103418449D01*
X38351994Y-103397440D01*
X41750000Y-103397440D01*
X41997765Y-103348157D01*
X42207809Y-103207809D01*
X42348157Y-102997765D01*
X42397440Y-102750000D01*
X42397440Y-99250000D01*
X42348157Y-99002235D01*
X42207809Y-98792191D01*
X41997765Y-98651843D01*
X41750000Y-98602560D01*
X38250000Y-98602560D01*
X38002235Y-98651843D01*
X37792191Y-98792191D01*
X37651843Y-99002235D01*
X37602560Y-99250000D01*
X37602560Y-102750000D01*
X37651843Y-102997765D01*
X37792191Y-103207809D01*
X37959001Y-103319269D01*
X37875000Y-103302560D01*
X36125000Y-103302560D01*
X35542387Y-103418449D01*
X35048472Y-103748472D01*
X34718449Y-104242387D01*
X34602560Y-104825000D01*
X31127000Y-104825000D01*
X31127000Y-101285750D01*
X31865000Y-101285750D01*
X31865000Y-102876310D01*
X31961673Y-103109699D01*
X32140302Y-103288327D01*
X32373691Y-103385000D01*
X33714250Y-103385000D01*
X33873000Y-103226250D01*
X33873000Y-101127000D01*
X34127000Y-101127000D01*
X34127000Y-103226250D01*
X34285750Y-103385000D01*
X35626309Y-103385000D01*
X35859698Y-103288327D01*
X36038327Y-103109699D01*
X36135000Y-102876310D01*
X36135000Y-101285750D01*
X35976250Y-101127000D01*
X34127000Y-101127000D01*
X33873000Y-101127000D01*
X32023750Y-101127000D01*
X31865000Y-101285750D01*
X31127000Y-101285750D01*
X31127000Y-99123690D01*
X31865000Y-99123690D01*
X31865000Y-100714250D01*
X32023750Y-100873000D01*
X33873000Y-100873000D01*
X33873000Y-98773750D01*
X34127000Y-98773750D01*
X34127000Y-100873000D01*
X35976250Y-100873000D01*
X36135000Y-100714250D01*
X36135000Y-99123690D01*
X36038327Y-98890301D01*
X35859698Y-98711673D01*
X35626309Y-98615000D01*
X34285750Y-98615000D01*
X34127000Y-98773750D01*
X33873000Y-98773750D01*
X33714250Y-98615000D01*
X32373691Y-98615000D01*
X32140302Y-98711673D01*
X31961673Y-98890301D01*
X31865000Y-99123690D01*
X31127000Y-99123690D01*
X31127000Y-80237171D01*
X31165000Y-80237171D01*
X31165000Y-81762829D01*
X31748844Y-83172353D01*
X32827647Y-84251156D01*
X34237171Y-84835000D01*
X35762829Y-84835000D01*
X37172353Y-84251156D01*
X38251156Y-83172353D01*
X38835000Y-81762829D01*
X38835000Y-80237171D01*
X38251156Y-78827647D01*
X37172353Y-77748844D01*
X35762829Y-77165000D01*
X34237171Y-77165000D01*
X32827647Y-77748844D01*
X31748844Y-78827647D01*
X31165000Y-80237171D01*
X31127000Y-80237171D01*
X31127000Y-67714561D01*
X44565000Y-67714561D01*
X44565000Y-68285439D01*
X44783466Y-68812862D01*
X45187138Y-69216534D01*
X45714561Y-69435000D01*
X46285439Y-69435000D01*
X46812862Y-69216534D01*
X47216534Y-68812862D01*
X47435000Y-68285439D01*
X47435000Y-67714561D01*
X47216534Y-67187138D01*
X46812862Y-66783466D01*
X46285439Y-66565000D01*
X45714561Y-66565000D01*
X45187138Y-66783466D01*
X44783466Y-67187138D01*
X44565000Y-67714561D01*
X31127000Y-67714561D01*
X31127000Y-65652532D01*
X34027073Y-65652532D01*
X34125736Y-65919387D01*
X34735461Y-66145908D01*
X35385460Y-66121856D01*
X35874264Y-65919387D01*
X35972927Y-65652532D01*
X40527073Y-65652532D01*
X40625736Y-65919387D01*
X41235461Y-66145908D01*
X41885460Y-66121856D01*
X42374264Y-65919387D01*
X42472927Y-65652532D01*
X41500000Y-64679605D01*
X40527073Y-65652532D01*
X35972927Y-65652532D01*
X35000000Y-64679605D01*
X34027073Y-65652532D01*
X31127000Y-65652532D01*
X31127000Y-64235461D01*
X33354092Y-64235461D01*
X33378144Y-64885460D01*
X33580613Y-65374264D01*
X33847468Y-65472927D01*
X34820395Y-64500000D01*
X35179605Y-64500000D01*
X36152532Y-65472927D01*
X36419387Y-65374264D01*
X36645908Y-64764539D01*
X36626331Y-64235461D01*
X39854092Y-64235461D01*
X39878144Y-64885460D01*
X40080613Y-65374264D01*
X40347468Y-65472927D01*
X41320395Y-64500000D01*
X41679605Y-64500000D01*
X42652532Y-65472927D01*
X42919387Y-65374264D01*
X43145908Y-64764539D01*
X43121856Y-64114540D01*
X42919387Y-63625736D01*
X42652532Y-63527073D01*
X41679605Y-64500000D01*
X41320395Y-64500000D01*
X40347468Y-63527073D01*
X40080613Y-63625736D01*
X39854092Y-64235461D01*
X36626331Y-64235461D01*
X36621856Y-64114540D01*
X36419387Y-63625736D01*
X36152532Y-63527073D01*
X35179605Y-64500000D01*
X34820395Y-64500000D01*
X33847468Y-63527073D01*
X33580613Y-63625736D01*
X33354092Y-64235461D01*
X31127000Y-64235461D01*
X31127000Y-63347468D01*
X34027073Y-63347468D01*
X35000000Y-64320395D01*
X35972927Y-63347468D01*
X40527073Y-63347468D01*
X41500000Y-64320395D01*
X42472927Y-63347468D01*
X42374264Y-63080613D01*
X41764539Y-62854092D01*
X41114540Y-62878144D01*
X40625736Y-63080613D01*
X40527073Y-63347468D01*
X35972927Y-63347468D01*
X35874264Y-63080613D01*
X35264539Y-62854092D01*
X34614540Y-62878144D01*
X34125736Y-63080613D01*
X34027073Y-63347468D01*
X31127000Y-63347468D01*
X31127000Y-59674778D01*
X33365000Y-59674778D01*
X33365000Y-60325222D01*
X33613914Y-60926153D01*
X34073847Y-61386086D01*
X34674778Y-61635000D01*
X35325222Y-61635000D01*
X35926153Y-61386086D01*
X36386086Y-60926153D01*
X36635000Y-60325222D01*
X36635000Y-59674778D01*
X39865000Y-59674778D01*
X39865000Y-60325222D01*
X40113914Y-60926153D01*
X40573847Y-61386086D01*
X41174778Y-61635000D01*
X41825222Y-61635000D01*
X42426153Y-61386086D01*
X42886086Y-60926153D01*
X43135000Y-60325222D01*
X43135000Y-59674778D01*
X42886086Y-59073847D01*
X42426153Y-58613914D01*
X41825222Y-58365000D01*
X41174778Y-58365000D01*
X40573847Y-58613914D01*
X40113914Y-59073847D01*
X39865000Y-59674778D01*
X36635000Y-59674778D01*
X36386086Y-59073847D01*
X35926153Y-58613914D01*
X35325222Y-58365000D01*
X34674778Y-58365000D01*
X34073847Y-58613914D01*
X33613914Y-59073847D01*
X33365000Y-59674778D01*
X31127000Y-59674778D01*
X31127000Y-57840000D01*
X44536887Y-57840000D01*
X44648260Y-58399909D01*
X44965423Y-58874577D01*
X45440091Y-59191740D01*
X45858667Y-59275000D01*
X46141333Y-59275000D01*
X46559909Y-59191740D01*
X47034577Y-58874577D01*
X47351740Y-58399909D01*
X47463113Y-57840000D01*
X47351740Y-57280091D01*
X47034577Y-56805423D01*
X46559909Y-56488260D01*
X46141333Y-56405000D01*
X45858667Y-56405000D01*
X45440091Y-56488260D01*
X44965423Y-56805423D01*
X44648260Y-57280091D01*
X44536887Y-57840000D01*
X31127000Y-57840000D01*
X31127000Y-54714561D01*
X34565000Y-54714561D01*
X34565000Y-55285439D01*
X34783466Y-55812862D01*
X35187138Y-56216534D01*
X35714561Y-56435000D01*
X36285439Y-56435000D01*
X36812862Y-56216534D01*
X37216534Y-55812862D01*
X37435000Y-55285439D01*
X37435000Y-54714561D01*
X37216534Y-54187138D01*
X36812862Y-53783466D01*
X36285439Y-53565000D01*
X35714561Y-53565000D01*
X35187138Y-53783466D01*
X34783466Y-54187138D01*
X34565000Y-54714561D01*
X31127000Y-54714561D01*
X31127000Y-44840000D01*
X34536887Y-44840000D01*
X34648260Y-45399909D01*
X34965423Y-45874577D01*
X35440091Y-46191740D01*
X35858667Y-46275000D01*
X36141333Y-46275000D01*
X36559909Y-46191740D01*
X36585294Y-46174778D01*
X38365000Y-46174778D01*
X38365000Y-46825222D01*
X38613914Y-47426153D01*
X39073847Y-47886086D01*
X39240001Y-47954909D01*
X39240000Y-51545091D01*
X39073847Y-51613914D01*
X38613914Y-52073847D01*
X38365000Y-52674778D01*
X38365000Y-53325222D01*
X38613914Y-53926153D01*
X39073847Y-54386086D01*
X39674778Y-54635000D01*
X40325222Y-54635000D01*
X40926153Y-54386086D01*
X41159707Y-54152532D01*
X43527073Y-54152532D01*
X43625736Y-54419387D01*
X44235461Y-54645908D01*
X44885460Y-54621856D01*
X45374264Y-54419387D01*
X45472927Y-54152532D01*
X44500000Y-53179605D01*
X43527073Y-54152532D01*
X41159707Y-54152532D01*
X41386086Y-53926153D01*
X41635000Y-53325222D01*
X41635000Y-52735461D01*
X42854092Y-52735461D01*
X42878144Y-53385460D01*
X43080613Y-53874264D01*
X43347468Y-53972927D01*
X44320395Y-53000000D01*
X43347468Y-52027073D01*
X43080613Y-52125736D01*
X42854092Y-52735461D01*
X41635000Y-52735461D01*
X41635000Y-52674778D01*
X41386086Y-52073847D01*
X40926153Y-51613914D01*
X40760000Y-51545091D01*
X40760000Y-47954909D01*
X40926153Y-47886086D01*
X41386086Y-47426153D01*
X41635000Y-46825222D01*
X41635000Y-46235461D01*
X42854092Y-46235461D01*
X42878144Y-46885460D01*
X43080613Y-47374264D01*
X43347468Y-47472927D01*
X44320395Y-46500000D01*
X43347468Y-45527073D01*
X43080613Y-45625736D01*
X42854092Y-46235461D01*
X41635000Y-46235461D01*
X41635000Y-46174778D01*
X41386086Y-45573847D01*
X40926153Y-45113914D01*
X40325222Y-44865000D01*
X39674778Y-44865000D01*
X39073847Y-45113914D01*
X38613914Y-45573847D01*
X38365000Y-46174778D01*
X36585294Y-46174778D01*
X37034577Y-45874577D01*
X37351740Y-45399909D01*
X37463113Y-44840000D01*
X37351740Y-44280091D01*
X37034577Y-43805423D01*
X36559909Y-43488260D01*
X36141333Y-43405000D01*
X35858667Y-43405000D01*
X35440091Y-43488260D01*
X34965423Y-43805423D01*
X34648260Y-44280091D01*
X34536887Y-44840000D01*
X31127000Y-44840000D01*
X31127000Y-40652532D01*
X34027073Y-40652532D01*
X34125736Y-40919387D01*
X34735461Y-41145908D01*
X35385460Y-41121856D01*
X35874264Y-40919387D01*
X35972927Y-40652532D01*
X40527073Y-40652532D01*
X40625736Y-40919387D01*
X41235461Y-41145908D01*
X41885460Y-41121856D01*
X42374264Y-40919387D01*
X42472927Y-40652532D01*
X41500000Y-39679605D01*
X40527073Y-40652532D01*
X35972927Y-40652532D01*
X35000000Y-39679605D01*
X34027073Y-40652532D01*
X31127000Y-40652532D01*
X31127000Y-39235461D01*
X33354092Y-39235461D01*
X33378144Y-39885460D01*
X33580613Y-40374264D01*
X33847468Y-40472927D01*
X34820395Y-39500000D01*
X35179605Y-39500000D01*
X36152532Y-40472927D01*
X36419387Y-40374264D01*
X36645908Y-39764539D01*
X36626331Y-39235461D01*
X39854092Y-39235461D01*
X39878144Y-39885460D01*
X40080613Y-40374264D01*
X40347468Y-40472927D01*
X41320395Y-39500000D01*
X40347468Y-38527073D01*
X40080613Y-38625736D01*
X39854092Y-39235461D01*
X36626331Y-39235461D01*
X36621856Y-39114540D01*
X36419387Y-38625736D01*
X36152532Y-38527073D01*
X35179605Y-39500000D01*
X34820395Y-39500000D01*
X33847468Y-38527073D01*
X33580613Y-38625736D01*
X33354092Y-39235461D01*
X31127000Y-39235461D01*
X31127000Y-38347468D01*
X34027073Y-38347468D01*
X35000000Y-39320395D01*
X35972927Y-38347468D01*
X40527073Y-38347468D01*
X41500000Y-39320395D01*
X42472927Y-38347468D01*
X42374264Y-38080613D01*
X41764539Y-37854092D01*
X41114540Y-37878144D01*
X40625736Y-38080613D01*
X40527073Y-38347468D01*
X35972927Y-38347468D01*
X35874264Y-38080613D01*
X35264539Y-37854092D01*
X34614540Y-37878144D01*
X34125736Y-38080613D01*
X34027073Y-38347468D01*
X31127000Y-38347468D01*
X31127000Y-34674778D01*
X33365000Y-34674778D01*
X33365000Y-35325222D01*
X33613914Y-35926153D01*
X34073847Y-36386086D01*
X34674778Y-36635000D01*
X35325222Y-36635000D01*
X35926153Y-36386086D01*
X36386086Y-35926153D01*
X36635000Y-35325222D01*
X36635000Y-34674778D01*
X36386086Y-34073847D01*
X35926153Y-33613914D01*
X35325222Y-33365000D01*
X34674778Y-33365000D01*
X34073847Y-33613914D01*
X33613914Y-34073847D01*
X33365000Y-34674778D01*
X31127000Y-34674778D01*
X31127000Y-31127000D01*
X44750552Y-31127000D01*
X44648260Y-31280091D01*
G04 #@! TD*
M02*
