M48
; DRILL file {KiCad (6.0.9)} date Fri Nov 18 10:31:11 2022
; FORMAT={-:-/ absolute / metric / decimal}
; #@! TF.CreationDate,2022-11-18T10:31:11-07:00
; #@! TF.GenerationSoftware,Kicad,Pcbnew,(6.0.9)
; #@! TF.FileFunction,Plated,1,2,PTH
FMAT,2
METRIC
; #@! TA.AperFunction,Plated,PTH,ComponentDrill
T1C0.700
; #@! TA.AperFunction,Plated,PTH,ComponentDrill
T2C0.750
; #@! TA.AperFunction,Plated,PTH,ComponentDrill
T3C0.800
; #@! TA.AperFunction,Plated,PTH,ComponentDrill
T4C0.850
; #@! TA.AperFunction,Plated,PTH,ComponentDrill
T5C1.000
; #@! TA.AperFunction,Plated,PTH,ViaDrill
T6C1.016
; #@! TA.AperFunction,Plated,PTH,ComponentDrill
T7C1.100
; #@! TA.AperFunction,Plated,PTH,ComponentDrill
T8C1.300
; #@! TA.AperFunction,Plated,PTH,ComponentDrill
T9C1.320
; #@! TA.AperFunction,Plated,PTH,ComponentDrill
T10C3.200
%
G90
G05
T1
X81.788Y-88.138
X81.788Y-95.758
X81.788Y-100.838
X81.788Y-105.918
X89.408Y-88.138
X89.408Y-95.758
X89.408Y-100.838
X89.408Y-105.918
X92.7Y-100.848
X92.7Y-105.928
X92.71Y-88.138
X92.71Y-95.758
X100.33Y-88.138
X100.33Y-95.758
X100.33Y-100.828
X100.33Y-105.918
T2
X28.194Y-104.216
X29.464Y-104.216
X30.734Y-104.216
T3
X26.921Y-92.964
X26.924Y-67.568
X29.461Y-92.964
X29.464Y-67.568
X32.001Y-67.564
X32.001Y-92.964
X34.541Y-67.564
X34.541Y-92.964
X37.081Y-67.564
X37.081Y-92.964
X39.621Y-67.564
X39.621Y-92.964
X42.161Y-67.564
X42.161Y-92.964
X44.701Y-67.564
X44.701Y-92.964
X47.241Y-67.564
X47.241Y-92.964
X49.781Y-67.564
X49.781Y-92.964
X52.321Y-67.564
X52.321Y-92.964
X54.861Y-67.564
X54.861Y-92.964
X57.401Y-67.564
X57.401Y-92.964
X59.941Y-67.564
X59.941Y-92.964
X62.481Y-67.564
X62.481Y-92.964
X65.021Y-67.564
X65.021Y-92.964
X67.561Y-67.564
X67.561Y-92.964
X70.101Y-67.564
X70.101Y-92.964
X72.641Y-67.564
X72.641Y-92.964
T4
X47.777Y-99.238
X50.317Y-99.238
X52.857Y-99.238
X55.397Y-99.238
X60.477Y-99.238
X63.017Y-99.238
X65.557Y-99.238
T5
X41.656Y-62.23
X44.196Y-62.23
X46.736Y-62.23
X49.276Y-62.23
X106.172Y-92.202
X106.172Y-94.742
X108.712Y-92.202
X108.712Y-94.742
T6
X39.624Y-95.25
X71.628Y-65.278
X76.454Y-70.104
X76.962Y-97.79
X76.962Y-103.378
X77.724Y-83.058
X79.756Y-83.058
X87.63Y-83.058
X89.408Y-83.058
T7
X26.909Y-27.916
X26.909Y-34.416
X26.909Y-48.414
X26.909Y-54.914
X29.906Y-38.177
X29.906Y-44.677
X31.409Y-27.916
X31.409Y-34.416
X31.409Y-48.414
X31.409Y-54.914
X34.406Y-38.177
X34.406Y-44.677
T8
X44.312Y-73.166
X44.312Y-85.666
X49.312Y-73.166
X49.312Y-85.666
X69.712Y-73.166
X69.712Y-85.666
X74.712Y-73.166
X74.712Y-85.666
T9
X111.76Y-65.946
X111.76Y-70.946
X111.76Y-75.946
X111.76Y-80.946
T10
X35.636Y-27.915
X35.636Y-54.915
X35.636Y-104.724
X88.9Y-64.186
X115.189Y-94.234
T0
M30
