G04 #@! TF.GenerationSoftware,KiCad,Pcbnew,(6.0.9)*
G04 #@! TF.CreationDate,2022-12-13T11:15:51-07:00*
G04 #@! TF.ProjectId,Thermostat1,54686572-6d6f-4737-9461-74312e6b6963,rev?*
G04 #@! TF.SameCoordinates,Original*
G04 #@! TF.FileFunction,Copper,L2,Bot*
G04 #@! TF.FilePolarity,Positive*
%FSLAX46Y46*%
G04 Gerber Fmt 4.6, Leading zero omitted, Abs format (unit mm)*
G04 Created by KiCad (PCBNEW (6.0.9)) date 2022-12-13 11:15:51*
%MOMM*%
%LPD*%
G01*
G04 APERTURE LIST*
G04 Aperture macros list*
%AMRoundRect*
0 Rectangle with rounded corners*
0 $1 Rounding radius*
0 $2 $3 $4 $5 $6 $7 $8 $9 X,Y pos of 4 corners*
0 Add a 4 corners polygon primitive as box body*
4,1,4,$2,$3,$4,$5,$6,$7,$8,$9,$2,$3,0*
0 Add four circle primitives for the rounded corners*
1,1,$1+$1,$2,$3*
1,1,$1+$1,$4,$5*
1,1,$1+$1,$6,$7*
1,1,$1+$1,$8,$9*
0 Add four rect primitives between the rounded corners*
20,1,$1+$1,$2,$3,$4,$5,0*
20,1,$1+$1,$4,$5,$6,$7,0*
20,1,$1+$1,$6,$7,$8,$9,0*
20,1,$1+$1,$8,$9,$2,$3,0*%
G04 Aperture macros list end*
G04 #@! TA.AperFunction,ComponentPad*
%ADD10R,1.600000X1.600000*%
G04 #@! TD*
G04 #@! TA.AperFunction,ComponentPad*
%ADD11C,1.600000*%
G04 #@! TD*
G04 #@! TA.AperFunction,SMDPad,CuDef*
%ADD12RoundRect,0.250000X-0.625000X0.400000X-0.625000X-0.400000X0.625000X-0.400000X0.625000X0.400000X0*%
G04 #@! TD*
G04 #@! TA.AperFunction,ComponentPad*
%ADD13O,1.850000X3.048000*%
G04 #@! TD*
G04 #@! TA.AperFunction,ComponentPad*
%ADD14C,2.000000*%
G04 #@! TD*
G04 #@! TA.AperFunction,ComponentPad*
%ADD15R,1.500000X1.500000*%
G04 #@! TD*
G04 #@! TA.AperFunction,ComponentPad*
%ADD16C,1.500000*%
G04 #@! TD*
G04 #@! TA.AperFunction,ComponentPad*
%ADD17C,5.600000*%
G04 #@! TD*
G04 #@! TA.AperFunction,ComponentPad*
%ADD18R,1.400000X1.400000*%
G04 #@! TD*
G04 #@! TA.AperFunction,ComponentPad*
%ADD19C,1.400000*%
G04 #@! TD*
G04 #@! TA.AperFunction,ComponentPad*
%ADD20R,1.700000X1.700000*%
G04 #@! TD*
G04 #@! TA.AperFunction,ComponentPad*
%ADD21O,1.700000X1.700000*%
G04 #@! TD*
G04 #@! TA.AperFunction,SMDPad,CuDef*
%ADD22RoundRect,0.237500X0.250000X0.237500X-0.250000X0.237500X-0.250000X-0.237500X0.250000X-0.237500X0*%
G04 #@! TD*
G04 #@! TA.AperFunction,SMDPad,CuDef*
%ADD23RoundRect,0.237500X0.300000X0.237500X-0.300000X0.237500X-0.300000X-0.237500X0.300000X-0.237500X0*%
G04 #@! TD*
G04 #@! TA.AperFunction,ComponentPad*
%ADD24R,1.200000X2.000000*%
G04 #@! TD*
G04 #@! TA.AperFunction,ComponentPad*
%ADD25O,1.200000X2.000000*%
G04 #@! TD*
G04 #@! TA.AperFunction,SMDPad,CuDef*
%ADD26RoundRect,0.237500X-0.300000X-0.237500X0.300000X-0.237500X0.300000X0.237500X-0.300000X0.237500X0*%
G04 #@! TD*
G04 #@! TA.AperFunction,ComponentPad*
%ADD27R,3.960000X1.980000*%
G04 #@! TD*
G04 #@! TA.AperFunction,ComponentPad*
%ADD28O,3.960000X1.980000*%
G04 #@! TD*
G04 #@! TA.AperFunction,ComponentPad*
%ADD29C,1.850000*%
G04 #@! TD*
G04 #@! TA.AperFunction,ComponentPad*
%ADD30R,1.850000X1.850000*%
G04 #@! TD*
G04 #@! TA.AperFunction,SMDPad,CuDef*
%ADD31RoundRect,0.250000X0.337500X0.475000X-0.337500X0.475000X-0.337500X-0.475000X0.337500X-0.475000X0*%
G04 #@! TD*
G04 #@! TA.AperFunction,ViaPad*
%ADD32C,1.524000*%
G04 #@! TD*
G04 #@! TA.AperFunction,Conductor*
%ADD33C,1.270000*%
G04 #@! TD*
G04 #@! TA.AperFunction,Conductor*
%ADD34C,0.381000*%
G04 #@! TD*
G04 #@! TA.AperFunction,Conductor*
%ADD35C,1.016000*%
G04 #@! TD*
G04 APERTURE END LIST*
D10*
X72898000Y-98806000D03*
D11*
X72898000Y-103806000D03*
D12*
X42672000Y-102108000D03*
X42672000Y-105208000D03*
D10*
X72898000Y-100362000D03*
D11*
X72898000Y-102362000D03*
D13*
X69712200Y-85665800D03*
X69712200Y-73165800D03*
X74712200Y-85665800D03*
X74712200Y-73165800D03*
D14*
X26909200Y-48413600D03*
X26909200Y-54913600D03*
X31409200Y-48413600D03*
X31409200Y-54913600D03*
X26909200Y-34415800D03*
X26909200Y-27915800D03*
X31409200Y-27915800D03*
X31409200Y-34415800D03*
X29906400Y-38177400D03*
X29906400Y-44677400D03*
X34406400Y-38177400D03*
X34406400Y-44677400D03*
D13*
X44312200Y-85665800D03*
X44312200Y-73165800D03*
X49312200Y-73165800D03*
X49312200Y-85665800D03*
D15*
X29464000Y-104394000D03*
D16*
X29464000Y-101854000D03*
X29464000Y-99314000D03*
D17*
X35636200Y-104724200D03*
X35636200Y-27914600D03*
X115189000Y-94234000D03*
X35636200Y-54914800D03*
X88900000Y-64185800D03*
D18*
X100330000Y-88138000D03*
D19*
X100330000Y-95758000D03*
X100330000Y-100828000D03*
X100330000Y-105918000D03*
X92700000Y-105928000D03*
X92700000Y-100848000D03*
X92710000Y-95758000D03*
X92710000Y-88138000D03*
D20*
X41656000Y-62230000D03*
D21*
X44196000Y-62230000D03*
X46736000Y-62230000D03*
X49276000Y-62230000D03*
D22*
X30630500Y-96774000D03*
X28805500Y-96774000D03*
D23*
X53541000Y-80518000D03*
X51816000Y-80518000D03*
D20*
X106172000Y-92202000D03*
D21*
X108712000Y-92202000D03*
D24*
X72641280Y-92964000D03*
D25*
X70101280Y-92964000D03*
X67561280Y-92964000D03*
X65021280Y-92964000D03*
X62481280Y-92964000D03*
X59941280Y-92964000D03*
X57401280Y-92964000D03*
X54861280Y-92964000D03*
X52321280Y-92964000D03*
X49781280Y-92964000D03*
X47241280Y-92964000D03*
X44701280Y-92964000D03*
X42161280Y-92964000D03*
X39621280Y-92964000D03*
X37081280Y-92964000D03*
X34541280Y-92964000D03*
X32001280Y-92964000D03*
X29461280Y-92964000D03*
X26921280Y-92964000D03*
X26924000Y-67567680D03*
X29464000Y-67567680D03*
X32001280Y-67564000D03*
X34541280Y-67564000D03*
X37081280Y-67564000D03*
X39621280Y-67564000D03*
X42161280Y-67564000D03*
X44701280Y-67564000D03*
X47241280Y-67564000D03*
X49781280Y-67564000D03*
X52321280Y-67564000D03*
X54861280Y-67564000D03*
X57401280Y-67564000D03*
X59941280Y-67564000D03*
X62481280Y-67564000D03*
X65021280Y-67564000D03*
X67561280Y-67564000D03*
X70101280Y-67564000D03*
X72641280Y-67564000D03*
D26*
X26924000Y-30988000D03*
X28649000Y-30988000D03*
X29972000Y-41402000D03*
X31697000Y-41402000D03*
D27*
X106680000Y-80946000D03*
D28*
X106680000Y-75946000D03*
X106680000Y-70946000D03*
X106680000Y-65946000D03*
D29*
X47777400Y-99237800D03*
X50317400Y-99237800D03*
X52857400Y-99237800D03*
X55397400Y-99237800D03*
X60477400Y-99237800D03*
X63017400Y-99237800D03*
D30*
X65557400Y-99237800D03*
D18*
X89408000Y-88138000D03*
D19*
X89408000Y-95758000D03*
X89408000Y-100838000D03*
X89408000Y-105918000D03*
X81788000Y-105918000D03*
X81788000Y-100838000D03*
X81788000Y-95758000D03*
X81788000Y-88138000D03*
D20*
X106172000Y-94742000D03*
D21*
X108712000Y-94742000D03*
D31*
X53637000Y-77216000D03*
X51562000Y-77216000D03*
D32*
X76454000Y-70104000D03*
X39624000Y-95250000D03*
X77724000Y-83058000D03*
X89408000Y-83058000D03*
X87630000Y-83058000D03*
X79756000Y-83058000D03*
X71628000Y-65278000D03*
X41910000Y-98552000D03*
X58420000Y-72644000D03*
X86614000Y-100838000D03*
X86614000Y-95758000D03*
D33*
X88138000Y-98552000D02*
X86614000Y-100076000D01*
X86614000Y-100076000D02*
X86614000Y-100838000D01*
X100076000Y-98552000D02*
X88138000Y-98552000D01*
X101600000Y-97028000D02*
X100076000Y-98552000D01*
X108712000Y-95504000D02*
X107188000Y-97028000D01*
X107188000Y-97028000D02*
X101600000Y-97028000D01*
X108712000Y-94742000D02*
X108712000Y-95504000D01*
X101600000Y-90170000D02*
X103124000Y-88646000D01*
X105156000Y-75946000D02*
X106680000Y-75946000D01*
X86614000Y-94742000D02*
X91186000Y-90170000D01*
X103124000Y-77978000D02*
X105156000Y-75946000D01*
X86614000Y-95758000D02*
X86614000Y-94742000D01*
X103124000Y-88646000D02*
X103124000Y-77978000D01*
X91186000Y-90170000D02*
X101600000Y-90170000D01*
X62432000Y-105208000D02*
X65557400Y-102082600D01*
X42672000Y-105208000D02*
X62432000Y-105208000D01*
X65557400Y-102082600D02*
X65557400Y-99237800D01*
X74712200Y-69634920D02*
X72641280Y-67564000D01*
X49312200Y-77252200D02*
X49312200Y-73165800D01*
X57404000Y-70358000D02*
X57401280Y-70355280D01*
X51816000Y-70358000D02*
X60195280Y-70358000D01*
X49312200Y-72861800D02*
X51816000Y-70358000D01*
X50317400Y-100558600D02*
X50317400Y-99237800D01*
X74712200Y-85665800D02*
X74712200Y-84799800D01*
X72641280Y-67564000D02*
X72641280Y-68582720D01*
X74712200Y-73165800D02*
X74712200Y-71845800D01*
X39621280Y-99819280D02*
X39621280Y-92964000D01*
X72641280Y-67564000D02*
X72641280Y-66291280D01*
X39624000Y-99822000D02*
X39624000Y-102108000D01*
X79756000Y-83058000D02*
X87630000Y-83058000D01*
X31409200Y-32425200D02*
X29972000Y-30988000D01*
X74712200Y-73165800D02*
X74712200Y-85665800D01*
X51562000Y-77216000D02*
X49348400Y-77216000D01*
X34406400Y-42534400D02*
X33274000Y-41402000D01*
X38252400Y-102108000D02*
X39624000Y-102108000D01*
X72641280Y-68582720D02*
X70866000Y-70358000D01*
X49348400Y-77216000D02*
X49312200Y-77252200D01*
X29972000Y-30988000D02*
X28649000Y-30988000D01*
X35636200Y-104724200D02*
X38252400Y-102108000D01*
X74712200Y-84799800D02*
X76454000Y-83058000D01*
X60195280Y-70358000D02*
X57404000Y-70358000D01*
X49312200Y-80300200D02*
X49312200Y-77252200D01*
X87630000Y-83058000D02*
X89408000Y-83058000D01*
X39624000Y-102108000D02*
X48768000Y-102108000D01*
X31409200Y-34415800D02*
X31409200Y-32425200D01*
X57401280Y-70355280D02*
X57401280Y-67564000D01*
X70866000Y-70358000D02*
X60195280Y-70358000D01*
X49530000Y-80518000D02*
X49312200Y-80300200D01*
X48768000Y-102108000D02*
X50317400Y-100558600D01*
X76454000Y-83058000D02*
X77724000Y-83058000D01*
X74712200Y-71845800D02*
X76454000Y-70104000D01*
X33274000Y-41402000D02*
X31697000Y-41402000D01*
X72641280Y-66291280D02*
X71628000Y-65278000D01*
X34406400Y-44677400D02*
X34406400Y-42534400D01*
X49312200Y-85665800D02*
X49312200Y-80300200D01*
X74712200Y-73165800D02*
X74712200Y-69634920D01*
X49312200Y-73165800D02*
X49312200Y-72861800D01*
X39624000Y-99822000D02*
X39621280Y-99819280D01*
X51816000Y-80518000D02*
X49530000Y-80518000D01*
D34*
X30630500Y-92315290D02*
X30630500Y-96774000D01*
X29464000Y-101854000D02*
X30988000Y-100330000D01*
X30988000Y-100330000D02*
X30988000Y-97131500D01*
X30988000Y-97131500D02*
X30630500Y-96774000D01*
X47241280Y-92964000D02*
X45463280Y-91186000D01*
X31759790Y-91186000D02*
X30630500Y-92315290D01*
X45463280Y-91186000D02*
X31759790Y-91186000D01*
X59941280Y-67053280D02*
X59941280Y-67564000D01*
X49022000Y-65278000D02*
X58166000Y-65278000D01*
X58166000Y-65278000D02*
X59941280Y-67053280D01*
X46736000Y-62992000D02*
X49022000Y-65278000D01*
X49276000Y-63944500D02*
X49847500Y-64516000D01*
X67561280Y-65783280D02*
X67561280Y-67564000D01*
X49276000Y-62992000D02*
X49276000Y-63944500D01*
X66294000Y-64516000D02*
X67561280Y-65783280D01*
X49847500Y-64516000D02*
X66294000Y-64516000D01*
X29906400Y-44677400D02*
X29906400Y-38177400D01*
X53337280Y-66040000D02*
X54861280Y-67564000D01*
X29906400Y-44677400D02*
X29464000Y-45119800D01*
X48260000Y-66040000D02*
X53337280Y-66040000D01*
X46228000Y-64008000D02*
X48260000Y-66040000D01*
X29464000Y-45119800D02*
X29464000Y-58928000D01*
X29464000Y-58928000D02*
X34544000Y-64008000D01*
X34544000Y-64008000D02*
X46228000Y-64008000D01*
X26909200Y-34415800D02*
X26909200Y-27915800D01*
X26909200Y-34415800D02*
X26909200Y-45197200D01*
X28702000Y-59436000D02*
X34036000Y-64770000D01*
X34036000Y-64770000D02*
X45466000Y-64770000D01*
X26909200Y-45197200D02*
X28702000Y-46990000D01*
X47241280Y-66545280D02*
X47241280Y-67564000D01*
X45466000Y-64770000D02*
X47241280Y-66545280D01*
X28702000Y-46990000D02*
X28702000Y-59436000D01*
X33528000Y-65532000D02*
X42669280Y-65532000D01*
X26909200Y-58913200D02*
X33528000Y-65532000D01*
X26909200Y-54913600D02*
X26909200Y-58913200D01*
X26909200Y-54913600D02*
X26909200Y-48413600D01*
X42669280Y-65532000D02*
X44701280Y-67564000D01*
D33*
X106172000Y-94742000D02*
X101346000Y-94742000D01*
X101346000Y-94742000D02*
X100330000Y-95758000D01*
X92964000Y-92202000D02*
X106172000Y-92202000D01*
X89408000Y-95758000D02*
X92964000Y-92202000D01*
D35*
X28702000Y-96877500D02*
X28805500Y-96774000D01*
D33*
X53848000Y-77216000D02*
X58420000Y-72644000D01*
X72641280Y-91183280D02*
X70866000Y-89408000D01*
X72641280Y-92964000D02*
X72641280Y-94490720D01*
X70866000Y-96266000D02*
X44196000Y-96266000D01*
X72641280Y-92964000D02*
X72641280Y-91183280D01*
X53848000Y-81280000D02*
X53848000Y-77216000D01*
X72641280Y-94490720D02*
X70866000Y-96266000D01*
X70866000Y-89408000D02*
X61976000Y-89408000D01*
D35*
X28702000Y-98552000D02*
X28702000Y-96877500D01*
X29464000Y-99314000D02*
X28702000Y-98552000D01*
D33*
X61976000Y-89408000D02*
X53848000Y-81280000D01*
X44196000Y-96266000D02*
X41910000Y-98552000D01*
X108712000Y-92202000D02*
X108712000Y-94742000D01*
X108712000Y-82978000D02*
X108712000Y-92202000D01*
X106680000Y-80946000D02*
X108712000Y-82978000D01*
D34*
X69712200Y-73165800D02*
X69712200Y-85665800D01*
X44312200Y-73165800D02*
X44312200Y-85665800D01*
M02*
