G04 #@! TF.GenerationSoftware,KiCad,Pcbnew,5.0.2-bee76a0~70~ubuntu18.04.1*
G04 #@! TF.CreationDate,2019-06-28T18:52:20-06:00*
G04 #@! TF.ProjectId,Thermostat1,54686572-6d6f-4737-9461-74312e6b6963,rev?*
G04 #@! TF.SameCoordinates,Original*
G04 #@! TF.FileFunction,Copper,L1,Top*
G04 #@! TF.FilePolarity,Positive*
%FSLAX46Y46*%
G04 Gerber Fmt 4.6, Leading zero omitted, Abs format (unit mm)*
G04 Created by KiCad (PCBNEW 5.0.2-bee76a0~70~ubuntu18.04.1) date Fri 28 Jun 2019 06:52:20 PM MDT*
%MOMM*%
%LPD*%
G01*
G04 APERTURE LIST*
G04 #@! TA.AperFunction,ComponentPad*
%ADD10R,1.600000X1.600000*%
G04 #@! TD*
G04 #@! TA.AperFunction,ComponentPad*
%ADD11O,1.600000X1.600000*%
G04 #@! TD*
G04 #@! TA.AperFunction,ComponentPad*
%ADD12C,1.800000*%
G04 #@! TD*
G04 #@! TA.AperFunction,ComponentPad*
%ADD13R,1.800000X1.800000*%
G04 #@! TD*
G04 #@! TA.AperFunction,ComponentPad*
%ADD14R,2.200000X2.200000*%
G04 #@! TD*
G04 #@! TA.AperFunction,ComponentPad*
%ADD15O,2.200000X2.200000*%
G04 #@! TD*
G04 #@! TA.AperFunction,ComponentPad*
%ADD16R,3.500000X3.500000*%
G04 #@! TD*
G04 #@! TA.AperFunction,Conductor*
%ADD17C,0.100000*%
G04 #@! TD*
G04 #@! TA.AperFunction,ComponentPad*
%ADD18C,3.000000*%
G04 #@! TD*
G04 #@! TA.AperFunction,ComponentPad*
%ADD19C,3.500000*%
G04 #@! TD*
G04 #@! TA.AperFunction,ComponentPad*
%ADD20R,1.700000X1.700000*%
G04 #@! TD*
G04 #@! TA.AperFunction,ComponentPad*
%ADD21O,1.700000X1.700000*%
G04 #@! TD*
G04 #@! TA.AperFunction,ComponentPad*
%ADD22R,3.960000X1.980000*%
G04 #@! TD*
G04 #@! TA.AperFunction,ComponentPad*
%ADD23O,3.960000X1.980000*%
G04 #@! TD*
G04 #@! TA.AperFunction,ComponentPad*
%ADD24R,1.400000X1.400000*%
G04 #@! TD*
G04 #@! TA.AperFunction,ComponentPad*
%ADD25C,1.400000*%
G04 #@! TD*
G04 #@! TA.AperFunction,ComponentPad*
%ADD26R,1.050000X1.500000*%
G04 #@! TD*
G04 #@! TA.AperFunction,ComponentPad*
%ADD27O,1.050000X1.500000*%
G04 #@! TD*
G04 #@! TA.AperFunction,ComponentPad*
%ADD28C,1.600000*%
G04 #@! TD*
G04 #@! TA.AperFunction,ComponentPad*
%ADD29C,2.000000*%
G04 #@! TD*
G04 #@! TA.AperFunction,ComponentPad*
%ADD30C,6.400000*%
G04 #@! TD*
G04 #@! TA.AperFunction,ViaPad*
%ADD31C,0.800000*%
G04 #@! TD*
G04 #@! TA.AperFunction,Conductor*
%ADD32C,0.250000*%
G04 #@! TD*
G04 #@! TA.AperFunction,Conductor*
%ADD33C,0.600000*%
G04 #@! TD*
G04 #@! TA.AperFunction,Conductor*
%ADD34C,1.000000*%
G04 #@! TD*
G04 APERTURE END LIST*
D10*
G04 #@! TO.P,A1,1*
G04 #@! TO.N,Net-(A1-Pad1)*
X88000000Y-73000000D03*
D11*
G04 #@! TO.P,A1,17*
G04 #@! TO.N,Net-(A1-Pad17)*
X54980000Y-88240000D03*
G04 #@! TO.P,A1,2*
G04 #@! TO.N,Net-(A1-Pad2)*
X85460000Y-73000000D03*
G04 #@! TO.P,A1,18*
G04 #@! TO.N,Net-(A1-Pad18)*
X57520000Y-88240000D03*
G04 #@! TO.P,A1,3*
G04 #@! TO.N,Net-(A1-Pad3)*
X82920000Y-73000000D03*
G04 #@! TO.P,A1,19*
G04 #@! TO.N,Net-(A1-Pad19)*
X60060000Y-88240000D03*
G04 #@! TO.P,A1,4*
G04 #@! TO.N,GND*
X80380000Y-73000000D03*
G04 #@! TO.P,A1,20*
G04 #@! TO.N,Net-(A1-Pad20)*
X62600000Y-88240000D03*
G04 #@! TO.P,A1,5*
G04 #@! TO.N,/TEMP_DATA*
X77840000Y-73000000D03*
G04 #@! TO.P,A1,21*
G04 #@! TO.N,Net-(A1-Pad21)*
X65140000Y-88240000D03*
G04 #@! TO.P,A1,6*
G04 #@! TO.N,Net-(A1-Pad6)*
X75300000Y-73000000D03*
G04 #@! TO.P,A1,22*
G04 #@! TO.N,Net-(A1-Pad22)*
X67680000Y-88240000D03*
G04 #@! TO.P,A1,7*
G04 #@! TO.N,/RELAY_DRIVE*
X72760000Y-73000000D03*
G04 #@! TO.P,A1,23*
G04 #@! TO.N,/SDA*
X70220000Y-88240000D03*
G04 #@! TO.P,A1,8*
G04 #@! TO.N,/HEATING_LED*
X70220000Y-73000000D03*
G04 #@! TO.P,A1,24*
G04 #@! TO.N,/SCL*
X72760000Y-88240000D03*
G04 #@! TO.P,A1,9*
G04 #@! TO.N,/OVERRIDE_LED*
X67680000Y-73000000D03*
G04 #@! TO.P,A1,25*
G04 #@! TO.N,Net-(A1-Pad25)*
X75300000Y-88240000D03*
G04 #@! TO.P,A1,10*
G04 #@! TO.N,Net-(A1-Pad10)*
X65140000Y-73000000D03*
G04 #@! TO.P,A1,26*
G04 #@! TO.N,Net-(A1-Pad26)*
X77840000Y-88240000D03*
G04 #@! TO.P,A1,11*
G04 #@! TO.N,/SET_SWITCH*
X62600000Y-73000000D03*
G04 #@! TO.P,A1,27*
G04 #@! TO.N,+5V*
X80380000Y-88240000D03*
G04 #@! TO.P,A1,12*
G04 #@! TO.N,/UP_SWITCH*
X60060000Y-73000000D03*
G04 #@! TO.P,A1,28*
G04 #@! TO.N,Net-(A1-Pad28)*
X82920000Y-88240000D03*
G04 #@! TO.P,A1,13*
G04 #@! TO.N,/DOWN_SWITCH*
X57520000Y-73000000D03*
G04 #@! TO.P,A1,29*
G04 #@! TO.N,GND*
X85460000Y-88240000D03*
G04 #@! TO.P,A1,14*
G04 #@! TO.N,/START_SWITCH*
X54980000Y-73000000D03*
G04 #@! TO.P,A1,30*
G04 #@! TO.N,/VIN*
X88000000Y-88240000D03*
G04 #@! TO.P,A1,15*
G04 #@! TO.N,/CANCEL_SWITCH*
X52440000Y-73000000D03*
G04 #@! TO.P,A1,16*
G04 #@! TO.N,Net-(A1-Pad16)*
X52440000Y-88240000D03*
G04 #@! TD*
D12*
G04 #@! TO.P,D1,2*
G04 #@! TO.N,Net-(D1-Pad2)*
X119540000Y-75000000D03*
D13*
G04 #@! TO.P,D1,1*
G04 #@! TO.N,GND*
X117000000Y-75000000D03*
G04 #@! TD*
G04 #@! TO.P,D2,1*
G04 #@! TO.N,GND*
X117000000Y-87000000D03*
D12*
G04 #@! TO.P,D2,2*
G04 #@! TO.N,Net-(D2-Pad2)*
X119540000Y-87000000D03*
G04 #@! TD*
D14*
G04 #@! TO.P,D3,1*
G04 #@! TO.N,+5V*
X99000000Y-98000000D03*
D15*
G04 #@! TO.P,D3,2*
G04 #@! TO.N,/RELAY_PULLDOWN*
X109160000Y-98000000D03*
G04 #@! TD*
D16*
G04 #@! TO.P,J1,1*
G04 #@! TO.N,/VIN*
X40000000Y-101000000D03*
D17*
G04 #@! TD*
G04 #@! TO.N,GND*
G04 #@! TO.C,J1*
G36*
X34823513Y-99253611D02*
X34896318Y-99264411D01*
X34967714Y-99282295D01*
X35037013Y-99307090D01*
X35103548Y-99338559D01*
X35166678Y-99376398D01*
X35225795Y-99420242D01*
X35280330Y-99469670D01*
X35329758Y-99524205D01*
X35373602Y-99583322D01*
X35411441Y-99646452D01*
X35442910Y-99712987D01*
X35467705Y-99782286D01*
X35485589Y-99853682D01*
X35496389Y-99926487D01*
X35500000Y-100000000D01*
X35500000Y-102000000D01*
X35496389Y-102073513D01*
X35485589Y-102146318D01*
X35467705Y-102217714D01*
X35442910Y-102287013D01*
X35411441Y-102353548D01*
X35373602Y-102416678D01*
X35329758Y-102475795D01*
X35280330Y-102530330D01*
X35225795Y-102579758D01*
X35166678Y-102623602D01*
X35103548Y-102661441D01*
X35037013Y-102692910D01*
X34967714Y-102717705D01*
X34896318Y-102735589D01*
X34823513Y-102746389D01*
X34750000Y-102750000D01*
X33250000Y-102750000D01*
X33176487Y-102746389D01*
X33103682Y-102735589D01*
X33032286Y-102717705D01*
X32962987Y-102692910D01*
X32896452Y-102661441D01*
X32833322Y-102623602D01*
X32774205Y-102579758D01*
X32719670Y-102530330D01*
X32670242Y-102475795D01*
X32626398Y-102416678D01*
X32588559Y-102353548D01*
X32557090Y-102287013D01*
X32532295Y-102217714D01*
X32514411Y-102146318D01*
X32503611Y-102073513D01*
X32500000Y-102000000D01*
X32500000Y-100000000D01*
X32503611Y-99926487D01*
X32514411Y-99853682D01*
X32532295Y-99782286D01*
X32557090Y-99712987D01*
X32588559Y-99646452D01*
X32626398Y-99583322D01*
X32670242Y-99524205D01*
X32719670Y-99469670D01*
X32774205Y-99420242D01*
X32833322Y-99376398D01*
X32896452Y-99338559D01*
X32962987Y-99307090D01*
X33032286Y-99282295D01*
X33103682Y-99264411D01*
X33176487Y-99253611D01*
X33250000Y-99250000D01*
X34750000Y-99250000D01*
X34823513Y-99253611D01*
X34823513Y-99253611D01*
G37*
D18*
G04 #@! TO.P,J1,2*
G04 #@! TO.N,GND*
X34000000Y-101000000D03*
D17*
G04 #@! TD*
G04 #@! TO.N,N/C*
G04 #@! TO.C,J1*
G36*
X37960765Y-103954213D02*
X38045704Y-103966813D01*
X38128999Y-103987677D01*
X38209848Y-104016605D01*
X38287472Y-104053319D01*
X38361124Y-104097464D01*
X38430094Y-104148616D01*
X38493718Y-104206282D01*
X38551384Y-104269906D01*
X38602536Y-104338876D01*
X38646681Y-104412528D01*
X38683395Y-104490152D01*
X38712323Y-104571001D01*
X38733187Y-104654296D01*
X38745787Y-104739235D01*
X38750000Y-104825000D01*
X38750000Y-106575000D01*
X38745787Y-106660765D01*
X38733187Y-106745704D01*
X38712323Y-106828999D01*
X38683395Y-106909848D01*
X38646681Y-106987472D01*
X38602536Y-107061124D01*
X38551384Y-107130094D01*
X38493718Y-107193718D01*
X38430094Y-107251384D01*
X38361124Y-107302536D01*
X38287472Y-107346681D01*
X38209848Y-107383395D01*
X38128999Y-107412323D01*
X38045704Y-107433187D01*
X37960765Y-107445787D01*
X37875000Y-107450000D01*
X36125000Y-107450000D01*
X36039235Y-107445787D01*
X35954296Y-107433187D01*
X35871001Y-107412323D01*
X35790152Y-107383395D01*
X35712528Y-107346681D01*
X35638876Y-107302536D01*
X35569906Y-107251384D01*
X35506282Y-107193718D01*
X35448616Y-107130094D01*
X35397464Y-107061124D01*
X35353319Y-106987472D01*
X35316605Y-106909848D01*
X35287677Y-106828999D01*
X35266813Y-106745704D01*
X35254213Y-106660765D01*
X35250000Y-106575000D01*
X35250000Y-104825000D01*
X35254213Y-104739235D01*
X35266813Y-104654296D01*
X35287677Y-104571001D01*
X35316605Y-104490152D01*
X35353319Y-104412528D01*
X35397464Y-104338876D01*
X35448616Y-104269906D01*
X35506282Y-104206282D01*
X35569906Y-104148616D01*
X35638876Y-104097464D01*
X35712528Y-104053319D01*
X35790152Y-104016605D01*
X35871001Y-103987677D01*
X35954296Y-103966813D01*
X36039235Y-103954213D01*
X36125000Y-103950000D01*
X37875000Y-103950000D01*
X37960765Y-103954213D01*
X37960765Y-103954213D01*
G37*
D19*
G04 #@! TO.P,J1,3*
G04 #@! TO.N,N/C*
X37000000Y-105700000D03*
G04 #@! TD*
D20*
G04 #@! TO.P,J2,1*
G04 #@! TO.N,GND*
X52000000Y-38000000D03*
D21*
G04 #@! TO.P,J2,2*
G04 #@! TO.N,+5V*
X52000000Y-40540000D03*
G04 #@! TO.P,J2,3*
G04 #@! TO.N,/SDA*
X52000000Y-43080000D03*
G04 #@! TO.P,J2,4*
G04 #@! TO.N,/SCL*
X52000000Y-45620000D03*
G04 #@! TD*
D22*
G04 #@! TO.P,J3,1*
G04 #@! TO.N,/RELAY_OUTA*
X121000000Y-117000000D03*
D23*
G04 #@! TO.P,J3,2*
G04 #@! TO.N,/RELAY_OUTB*
X121000000Y-112000000D03*
G04 #@! TD*
D24*
G04 #@! TO.P,K1,1*
G04 #@! TO.N,+5V*
X101000000Y-108000000D03*
D25*
G04 #@! TO.P,K1,16*
G04 #@! TO.N,/RELAY_PULLDOWN*
X108620000Y-108000000D03*
G04 #@! TO.P,K1,6*
G04 #@! TO.N,Net-(K1-Pad6)*
X101000000Y-120690000D03*
G04 #@! TO.P,K1,8*
G04 #@! TO.N,Net-(K1-Pad8)*
X101000000Y-125780000D03*
G04 #@! TO.P,K1,4*
G04 #@! TO.N,Net-(K1-Pad4)*
X101000000Y-115620000D03*
G04 #@! TO.P,K1,11*
G04 #@! TO.N,Net-(K1-Pad11)*
X108630000Y-120710000D03*
G04 #@! TO.P,K1,9*
G04 #@! TO.N,/RELAY_OUTA*
X108630000Y-125790000D03*
G04 #@! TO.P,K1,13*
G04 #@! TO.N,/RELAY_OUTB*
X108620000Y-115620000D03*
G04 #@! TD*
D26*
G04 #@! TO.P,Q1,1*
G04 #@! TO.N,GND*
X120000000Y-104000000D03*
D27*
G04 #@! TO.P,Q1,3*
G04 #@! TO.N,/RELAY_PULLDOWN*
X122540000Y-104000000D03*
G04 #@! TO.P,Q1,2*
G04 #@! TO.N,Net-(Q1-Pad2)*
X121270000Y-104000000D03*
G04 #@! TD*
D11*
G04 #@! TO.P,R1,2*
G04 #@! TO.N,/SET_SWITCH*
X36000000Y-44840000D03*
D28*
G04 #@! TO.P,R1,1*
G04 #@! TO.N,+5V*
X36000000Y-55000000D03*
G04 #@! TD*
D11*
G04 #@! TO.P,R2,2*
G04 #@! TO.N,/UP_SWITCH*
X46000000Y-31840000D03*
D28*
G04 #@! TO.P,R2,1*
G04 #@! TO.N,+5V*
X46000000Y-42000000D03*
G04 #@! TD*
G04 #@! TO.P,R3,1*
G04 #@! TO.N,+5V*
X46000000Y-68000000D03*
D11*
G04 #@! TO.P,R3,2*
G04 #@! TO.N,/DOWN_SWITCH*
X46000000Y-57840000D03*
G04 #@! TD*
D28*
G04 #@! TO.P,R4,1*
G04 #@! TO.N,/HEATING_LED*
X100840000Y-75000000D03*
D11*
G04 #@! TO.P,R4,2*
G04 #@! TO.N,Net-(D1-Pad2)*
X111000000Y-75000000D03*
G04 #@! TD*
G04 #@! TO.P,R5,2*
G04 #@! TO.N,Net-(D2-Pad2)*
X111160000Y-87000000D03*
D28*
G04 #@! TO.P,R5,1*
G04 #@! TO.N,/OVERRIDE_LED*
X101000000Y-87000000D03*
G04 #@! TD*
D11*
G04 #@! TO.P,R6,2*
G04 #@! TO.N,/START_SWITCH*
X79160000Y-107000000D03*
D28*
G04 #@! TO.P,R6,1*
G04 #@! TO.N,+5V*
X69000000Y-107000000D03*
G04 #@! TD*
G04 #@! TO.P,R7,1*
G04 #@! TO.N,+5V*
X69000000Y-114000000D03*
D11*
G04 #@! TO.P,R7,2*
G04 #@! TO.N,/CANCEL_SWITCH*
X79160000Y-114000000D03*
G04 #@! TD*
D28*
G04 #@! TO.P,R8,1*
G04 #@! TO.N,Net-(Q1-Pad2)*
X125000000Y-98000000D03*
D11*
G04 #@! TO.P,R8,2*
G04 #@! TO.N,/RELAY_DRIVE*
X114840000Y-98000000D03*
G04 #@! TD*
D29*
G04 #@! TO.P,SW1,2*
G04 #@! TO.N,GND*
X44500000Y-53000000D03*
G04 #@! TO.P,SW1,1*
G04 #@! TO.N,/SET_SWITCH*
X40000000Y-53000000D03*
G04 #@! TO.P,SW1,2*
G04 #@! TO.N,GND*
X44500000Y-46500000D03*
G04 #@! TO.P,SW1,1*
G04 #@! TO.N,/SET_SWITCH*
X40000000Y-46500000D03*
G04 #@! TD*
G04 #@! TO.P,SW2,1*
G04 #@! TO.N,/UP_SWITCH*
X41500000Y-35000000D03*
G04 #@! TO.P,SW2,2*
G04 #@! TO.N,GND*
X41500000Y-39500000D03*
G04 #@! TO.P,SW2,1*
G04 #@! TO.N,/UP_SWITCH*
X35000000Y-35000000D03*
G04 #@! TO.P,SW2,2*
G04 #@! TO.N,GND*
X35000000Y-39500000D03*
G04 #@! TD*
G04 #@! TO.P,SW3,2*
G04 #@! TO.N,GND*
X35000000Y-64500000D03*
G04 #@! TO.P,SW3,1*
G04 #@! TO.N,/DOWN_SWITCH*
X35000000Y-60000000D03*
G04 #@! TO.P,SW3,2*
G04 #@! TO.N,GND*
X41500000Y-64500000D03*
G04 #@! TO.P,SW3,1*
G04 #@! TO.N,/DOWN_SWITCH*
X41500000Y-60000000D03*
G04 #@! TD*
G04 #@! TO.P,SW4,1*
G04 #@! TO.N,/START_SWITCH*
X77500000Y-97000000D03*
G04 #@! TO.P,SW4,2*
G04 #@! TO.N,GND*
X77500000Y-101500000D03*
G04 #@! TO.P,SW4,1*
G04 #@! TO.N,/START_SWITCH*
X71000000Y-97000000D03*
G04 #@! TO.P,SW4,2*
G04 #@! TO.N,GND*
X71000000Y-101500000D03*
G04 #@! TD*
G04 #@! TO.P,SW5,2*
G04 #@! TO.N,GND*
X71000000Y-123500000D03*
G04 #@! TO.P,SW5,1*
G04 #@! TO.N,/CANCEL_SWITCH*
X71000000Y-119000000D03*
G04 #@! TO.P,SW5,2*
G04 #@! TO.N,GND*
X77500000Y-123500000D03*
G04 #@! TO.P,SW5,1*
G04 #@! TO.N,/CANCEL_SWITCH*
X77500000Y-119000000D03*
G04 #@! TD*
D27*
G04 #@! TO.P,U1,2*
G04 #@! TO.N,/TEMP_DATA*
X34270000Y-125000000D03*
G04 #@! TO.P,U1,3*
G04 #@! TO.N,+5V*
X35540000Y-125000000D03*
D26*
G04 #@! TO.P,U1,1*
G04 #@! TO.N,GND*
X33000000Y-125000000D03*
G04 #@! TD*
D30*
G04 #@! TO.P,REF\002A\002A,1*
G04 #@! TO.N,N/C*
X125000000Y-35000000D03*
G04 #@! TD*
G04 #@! TO.P,REF\002A\002A,1*
G04 #@! TO.N,N/C*
X125000000Y-125000000D03*
G04 #@! TD*
G04 #@! TO.P,REF\002A\002A,1*
G04 #@! TO.N,N/C*
X35000000Y-81000000D03*
G04 #@! TD*
D28*
G04 #@! TO.P,R9,1*
G04 #@! TO.N,/TEMP_DATA*
X64000000Y-104000000D03*
D11*
G04 #@! TO.P,R9,2*
G04 #@! TO.N,+5V*
X64000000Y-114160000D03*
G04 #@! TD*
D31*
G04 #@! TO.N,/CANCEL_SWITCH*
X57764300Y-104087300D03*
G04 #@! TD*
D32*
G04 #@! TO.N,/TEMP_DATA*
X34270000Y-125000000D02*
X34270000Y-124775000D01*
G04 #@! TO.N,/RELAY_DRIVE*
X73885300Y-73000000D02*
X72760000Y-73000000D01*
X73885300Y-74885300D02*
X73885300Y-73000000D01*
X92840000Y-76000000D02*
X75000000Y-76000000D01*
X75000000Y-76000000D02*
X73885300Y-74885300D01*
X114840000Y-98000000D02*
X92840000Y-76000000D01*
G04 #@! TO.N,/HEATING_LED*
X71345300Y-71654700D02*
X71345300Y-73000000D01*
X73000000Y-70000000D02*
X71345300Y-71654700D01*
X71345300Y-73000000D02*
X70220000Y-73000000D01*
X100840000Y-75000000D02*
X95840000Y-70000000D01*
X95840000Y-70000000D02*
X73000000Y-70000000D01*
G04 #@! TO.N,/OVERRIDE_LED*
X68805300Y-73000000D02*
X68805300Y-73281300D01*
X68805300Y-73281300D02*
X79186700Y-83662700D01*
X79186700Y-83662700D02*
X97662700Y-83662700D01*
X97662700Y-83662700D02*
X101000000Y-87000000D01*
X67680000Y-73000000D02*
X68805300Y-73000000D01*
G04 #@! TO.N,/SET_SWITCH*
X36000000Y-44840000D02*
X37125300Y-44840000D01*
X40000000Y-46500000D02*
X38785300Y-46500000D01*
X38785300Y-46500000D02*
X37125300Y-44840000D01*
X62600000Y-73000000D02*
X62600000Y-71874700D01*
X40000000Y-53000000D02*
X41811300Y-54811300D01*
X41811300Y-54811300D02*
X45536600Y-54811300D01*
X45536600Y-54811300D02*
X62600000Y-71874700D01*
D33*
G04 #@! TO.N,+5V*
X35200001Y-55799999D02*
X36000000Y-55000000D01*
X33499999Y-57500001D02*
X35200001Y-55799999D01*
X33499999Y-65220001D02*
X33499999Y-57500001D01*
X36279998Y-68000000D02*
X33499999Y-65220001D01*
X46000000Y-68000000D02*
X36279998Y-68000000D01*
X45200001Y-42799999D02*
X46000000Y-42000000D01*
X45200001Y-43520001D02*
X45200001Y-42799999D01*
X36000000Y-52720002D02*
X45200001Y-43520001D01*
X36000000Y-55000000D02*
X36000000Y-52720002D01*
X50540000Y-42000000D02*
X52000000Y-40540000D01*
X46000000Y-42000000D02*
X50540000Y-42000000D01*
X58000000Y-125000000D02*
X69000000Y-114000000D01*
X82620000Y-86000000D02*
X81179999Y-87440001D01*
X81179999Y-87440001D02*
X80380000Y-88240000D01*
X87684002Y-86000000D02*
X82620000Y-86000000D01*
X99000000Y-97315998D02*
X87684002Y-86000000D01*
X46000000Y-73000000D02*
X46000000Y-68000000D01*
X50000000Y-77000000D02*
X46000000Y-73000000D01*
X70271370Y-77000000D02*
X50000000Y-77000000D01*
X80380000Y-88240000D02*
X80380000Y-87108630D01*
X80380000Y-87108630D02*
X70271370Y-77000000D01*
D34*
X101000000Y-100000000D02*
X99000000Y-98000000D01*
X101000000Y-108000000D02*
X101000000Y-100000000D01*
D33*
X69799999Y-107799999D02*
X69000000Y-107000000D01*
X70300001Y-108300001D02*
X69799999Y-107799999D01*
X89999999Y-108300001D02*
X70300001Y-108300001D01*
X99000000Y-98000000D02*
X99000000Y-99300000D01*
X99000000Y-99300000D02*
X89999999Y-108300001D01*
X35540000Y-125000000D02*
X53000000Y-125000000D01*
X53000000Y-125000000D02*
X58000000Y-125000000D01*
X68840000Y-114160000D02*
X69000000Y-114000000D01*
X64000000Y-114160000D02*
X68840000Y-114160000D01*
D32*
G04 #@! TO.N,/UP_SWITCH*
X35000000Y-35000000D02*
X41500000Y-35000000D01*
G04 #@! TO.N,/DOWN_SWITCH*
X35000000Y-60000000D02*
X41500000Y-60000000D01*
X46000000Y-57840000D02*
X44874700Y-57840000D01*
X41500000Y-60000000D02*
X42714700Y-60000000D01*
X42714700Y-60000000D02*
X44874700Y-57840000D01*
X57520000Y-69360000D02*
X46000000Y-57840000D01*
X57520000Y-73000000D02*
X57520000Y-69360000D01*
G04 #@! TO.N,/START_SWITCH*
X77500000Y-97000000D02*
X79160000Y-98660000D01*
X79160000Y-98660000D02*
X79160000Y-107000000D01*
X77500000Y-97000000D02*
X71000000Y-97000000D01*
D33*
G04 #@! TO.N,/VIN*
X87200001Y-89039999D02*
X88000000Y-88240000D01*
X84240000Y-92000000D02*
X87200001Y-89039999D01*
X71000000Y-92000000D02*
X84240000Y-92000000D01*
X40000000Y-101000000D02*
X62000000Y-101000000D01*
X62000000Y-101000000D02*
X71000000Y-92000000D01*
D32*
G04 #@! TO.N,/CANCEL_SWITCH*
X77500000Y-119000000D02*
X77500000Y-116785300D01*
X77500000Y-116785300D02*
X79160000Y-115125300D01*
X77500000Y-119000000D02*
X71000000Y-119000000D01*
X79160000Y-114000000D02*
X79160000Y-115125300D01*
X71000000Y-119000000D02*
X71000000Y-114380600D01*
X71000000Y-114380600D02*
X60706700Y-104087300D01*
X60706700Y-104087300D02*
X57764300Y-104087300D01*
G04 #@! TO.N,Net-(D1-Pad2)*
X111000000Y-75000000D02*
X112125300Y-75000000D01*
X112125300Y-75000000D02*
X113350700Y-76225400D01*
X113350700Y-76225400D02*
X118314600Y-76225400D01*
X118314600Y-76225400D02*
X119540000Y-75000000D01*
G04 #@! TO.N,Net-(D2-Pad2)*
X111160000Y-87000000D02*
X112285300Y-87000000D01*
X112285300Y-87000000D02*
X113510700Y-85774600D01*
X113510700Y-85774600D02*
X118314600Y-85774600D01*
X118314600Y-85774600D02*
X119540000Y-87000000D01*
D34*
G04 #@! TO.N,/RELAY_PULLDOWN*
X109160000Y-107460000D02*
X109160000Y-98000000D01*
X108620000Y-108000000D02*
X109160000Y-107460000D01*
D33*
X122540000Y-105350000D02*
X122540000Y-104000000D01*
X119890000Y-108000000D02*
X122540000Y-105350000D01*
X108620000Y-108000000D02*
X119890000Y-108000000D01*
D34*
G04 #@! TO.N,/RELAY_OUTA*
X114200000Y-125790000D02*
X121000000Y-118990000D01*
X121000000Y-118990000D02*
X121000000Y-117000000D01*
X108630000Y-125790000D02*
X114200000Y-125790000D01*
G04 #@! TO.N,/RELAY_OUTB*
X112240000Y-112000000D02*
X121000000Y-112000000D01*
X108620000Y-115620000D02*
X112240000Y-112000000D01*
D32*
G04 #@! TO.N,Net-(Q1-Pad2)*
X121270000Y-101730000D02*
X125000000Y-98000000D01*
X121270000Y-101730000D02*
X121270000Y-104000000D01*
G04 #@! TD*
M02*
