G04 #@! TF.GenerationSoftware,KiCad,Pcbnew,5.0.2-bee76a0~70~ubuntu18.04.1*
G04 #@! TF.CreationDate,2019-06-28T18:52:20-06:00*
G04 #@! TF.ProjectId,Thermostat1,54686572-6d6f-4737-9461-74312e6b6963,rev?*
G04 #@! TF.SameCoordinates,Original*
G04 #@! TF.FileFunction,Legend,Bot*
G04 #@! TF.FilePolarity,Positive*
%FSLAX46Y46*%
G04 Gerber Fmt 4.6, Leading zero omitted, Abs format (unit mm)*
G04 Created by KiCad (PCBNEW 5.0.2-bee76a0~70~ubuntu18.04.1) date Fri 28 Jun 2019 06:52:20 PM MDT*
%MOMM*%
%LPD*%
G01*
G04 APERTURE LIST*
%ADD10C,0.300000*%
%ADD11C,0.010000*%
G04 APERTURE END LIST*
D10*
X95928571Y-34178571D02*
X95071428Y-34178571D01*
X95500000Y-35678571D02*
X95500000Y-34178571D01*
X94571428Y-35678571D02*
X94571428Y-34178571D01*
X93928571Y-35678571D02*
X93928571Y-34892857D01*
X94000000Y-34750000D01*
X94142857Y-34678571D01*
X94357142Y-34678571D01*
X94500000Y-34750000D01*
X94571428Y-34821428D01*
X92642857Y-35607142D02*
X92785714Y-35678571D01*
X93071428Y-35678571D01*
X93214285Y-35607142D01*
X93285714Y-35464285D01*
X93285714Y-34892857D01*
X93214285Y-34750000D01*
X93071428Y-34678571D01*
X92785714Y-34678571D01*
X92642857Y-34750000D01*
X92571428Y-34892857D01*
X92571428Y-35035714D01*
X93285714Y-35178571D01*
X91928571Y-35678571D02*
X91928571Y-34678571D01*
X91928571Y-34964285D02*
X91857142Y-34821428D01*
X91785714Y-34750000D01*
X91642857Y-34678571D01*
X91500000Y-34678571D01*
X91000000Y-35678571D02*
X91000000Y-34678571D01*
X91000000Y-34821428D02*
X90928571Y-34750000D01*
X90785714Y-34678571D01*
X90571428Y-34678571D01*
X90428571Y-34750000D01*
X90357142Y-34892857D01*
X90357142Y-35678571D01*
X90357142Y-34892857D02*
X90285714Y-34750000D01*
X90142857Y-34678571D01*
X89928571Y-34678571D01*
X89785714Y-34750000D01*
X89714285Y-34892857D01*
X89714285Y-35678571D01*
X88785714Y-35678571D02*
X88928571Y-35607142D01*
X89000000Y-35535714D01*
X89071428Y-35392857D01*
X89071428Y-34964285D01*
X89000000Y-34821428D01*
X88928571Y-34750000D01*
X88785714Y-34678571D01*
X88571428Y-34678571D01*
X88428571Y-34750000D01*
X88357142Y-34821428D01*
X88285714Y-34964285D01*
X88285714Y-35392857D01*
X88357142Y-35535714D01*
X88428571Y-35607142D01*
X88571428Y-35678571D01*
X88785714Y-35678571D01*
X87714285Y-35607142D02*
X87571428Y-35678571D01*
X87285714Y-35678571D01*
X87142857Y-35607142D01*
X87071428Y-35464285D01*
X87071428Y-35392857D01*
X87142857Y-35250000D01*
X87285714Y-35178571D01*
X87500000Y-35178571D01*
X87642857Y-35107142D01*
X87714285Y-34964285D01*
X87714285Y-34892857D01*
X87642857Y-34750000D01*
X87500000Y-34678571D01*
X87285714Y-34678571D01*
X87142857Y-34750000D01*
X86642857Y-34678571D02*
X86071428Y-34678571D01*
X86428571Y-34178571D02*
X86428571Y-35464285D01*
X86357142Y-35607142D01*
X86214285Y-35678571D01*
X86071428Y-35678571D01*
X84928571Y-35678571D02*
X84928571Y-34892857D01*
X85000000Y-34750000D01*
X85142857Y-34678571D01*
X85428571Y-34678571D01*
X85571428Y-34750000D01*
X84928571Y-35607142D02*
X85071428Y-35678571D01*
X85428571Y-35678571D01*
X85571428Y-35607142D01*
X85642857Y-35464285D01*
X85642857Y-35321428D01*
X85571428Y-35178571D01*
X85428571Y-35107142D01*
X85071428Y-35107142D01*
X84928571Y-35035714D01*
X84428571Y-34678571D02*
X83857142Y-34678571D01*
X84214285Y-34178571D02*
X84214285Y-35464285D01*
X84142857Y-35607142D01*
X84000000Y-35678571D01*
X83857142Y-35678571D01*
X81357142Y-35678571D02*
X81857142Y-34964285D01*
X82214285Y-35678571D02*
X82214285Y-34178571D01*
X81642857Y-34178571D01*
X81500000Y-34250000D01*
X81428571Y-34321428D01*
X81357142Y-34464285D01*
X81357142Y-34678571D01*
X81428571Y-34821428D01*
X81500000Y-34892857D01*
X81642857Y-34964285D01*
X82214285Y-34964285D01*
X80142857Y-35607142D02*
X80285714Y-35678571D01*
X80571428Y-35678571D01*
X80714285Y-35607142D01*
X80785714Y-35464285D01*
X80785714Y-34892857D01*
X80714285Y-34750000D01*
X80571428Y-34678571D01*
X80285714Y-34678571D01*
X80142857Y-34750000D01*
X80071428Y-34892857D01*
X80071428Y-35035714D01*
X80785714Y-35178571D01*
X79571428Y-34678571D02*
X79214285Y-35678571D01*
X78857142Y-34678571D01*
X76857142Y-34178571D02*
X76714285Y-34178571D01*
X76571428Y-34250000D01*
X76500000Y-34321428D01*
X76428571Y-34464285D01*
X76357142Y-34750000D01*
X76357142Y-35107142D01*
X76428571Y-35392857D01*
X76500000Y-35535714D01*
X76571428Y-35607142D01*
X76714285Y-35678571D01*
X76857142Y-35678571D01*
X77000000Y-35607142D01*
X77071428Y-35535714D01*
X77142857Y-35392857D01*
X77214285Y-35107142D01*
X77214285Y-34750000D01*
X77142857Y-34464285D01*
X77071428Y-34321428D01*
X77000000Y-34250000D01*
X76857142Y-34178571D01*
X75714285Y-35535714D02*
X75642857Y-35607142D01*
X75714285Y-35678571D01*
X75785714Y-35607142D01*
X75714285Y-35535714D01*
X75714285Y-35678571D01*
X74214285Y-35678571D02*
X75071428Y-35678571D01*
X74642857Y-35678571D02*
X74642857Y-34178571D01*
X74785714Y-34392857D01*
X74928571Y-34535714D01*
X75071428Y-34607142D01*
D11*
G04 #@! TO.C,G\002A\002A\002A*
G36*
X76843827Y-39587411D02*
X76203506Y-39661450D01*
X75715215Y-39778402D01*
X75538500Y-39844864D01*
X75245157Y-39951264D01*
X75057320Y-39985180D01*
X75052811Y-39984361D01*
X74999186Y-40036591D01*
X75014154Y-40067550D01*
X74962173Y-40195260D01*
X74748464Y-40369300D01*
X74703854Y-40396700D01*
X74472272Y-40574696D01*
X74394675Y-40721644D01*
X74400756Y-40737503D01*
X74384672Y-40848393D01*
X74343482Y-40855999D01*
X74267179Y-40948789D01*
X74286074Y-41046499D01*
X74295454Y-41210249D01*
X74250338Y-41236774D01*
X74192559Y-41348614D01*
X74156114Y-41625863D01*
X74142656Y-41980692D01*
X74153836Y-42325274D01*
X74191306Y-42571782D01*
X74224057Y-42634000D01*
X74312025Y-42798624D01*
X74351057Y-42951500D01*
X74429469Y-43193358D01*
X74489049Y-43275443D01*
X74568438Y-43440208D01*
X74624231Y-43725687D01*
X74675801Y-44038170D01*
X74735044Y-44227243D01*
X74782235Y-44422240D01*
X74815558Y-44760877D01*
X74820875Y-44880005D01*
X74792157Y-45286854D01*
X74650157Y-45553977D01*
X74553013Y-45645088D01*
X74329498Y-45878136D01*
X74226568Y-46064881D01*
X74137880Y-46273192D01*
X74099568Y-46315798D01*
X74044072Y-46378263D01*
X74010493Y-46503816D01*
X73988142Y-46759453D01*
X73970050Y-47127704D01*
X73951000Y-47557409D01*
X73093750Y-47661879D01*
X72641687Y-47717373D01*
X72287088Y-47761640D01*
X72109500Y-47784725D01*
X71906010Y-47855163D01*
X71560374Y-48010626D01*
X71152727Y-48213223D01*
X70800951Y-48403465D01*
X70512505Y-48608154D01*
X70236989Y-48866109D01*
X70038960Y-49109214D01*
X69982250Y-49267297D01*
X69918325Y-49360496D01*
X69879505Y-49365000D01*
X69803656Y-49442804D01*
X69823500Y-49492000D01*
X69803615Y-49607572D01*
X69746329Y-49619000D01*
X69644028Y-49659230D01*
X69657813Y-49686146D01*
X69666997Y-49835937D01*
X69621957Y-50155242D01*
X69553964Y-50479896D01*
X69453960Y-51027492D01*
X69391372Y-51605518D01*
X69380984Y-51865468D01*
X69379000Y-52524436D01*
X68775750Y-52624464D01*
X68394182Y-52684213D01*
X68114945Y-52721590D01*
X68045500Y-52727495D01*
X67863820Y-52815788D01*
X67750333Y-52921000D01*
X67629742Y-53046101D01*
X67642605Y-52975515D01*
X67666103Y-52921000D01*
X67656676Y-52874260D01*
X67525992Y-53002799D01*
X67487845Y-53048000D01*
X67305144Y-53297196D01*
X67223112Y-53464185D01*
X67222824Y-53468245D01*
X67142205Y-53517820D01*
X67107439Y-53501423D01*
X66998107Y-53534793D01*
X66895748Y-53785278D01*
X66796114Y-54266642D01*
X66728032Y-54730750D01*
X66691397Y-55149157D01*
X66707843Y-55405537D01*
X66748897Y-55461000D01*
X66813847Y-55554321D01*
X66793074Y-55651500D01*
X66796807Y-55814702D01*
X66856574Y-55842000D01*
X66938089Y-55934543D01*
X66920074Y-56032500D01*
X66908251Y-56196490D01*
X66950698Y-56223000D01*
X67056730Y-56327988D01*
X67206868Y-56584596D01*
X67359660Y-56905283D01*
X67473654Y-57202514D01*
X67507399Y-57388749D01*
X67505751Y-57395165D01*
X67569673Y-57488489D01*
X67608496Y-57493000D01*
X67684345Y-57570804D01*
X67664500Y-57620000D01*
X67678783Y-57736840D01*
X67728000Y-57747000D01*
X67810819Y-57824362D01*
X67791500Y-57874000D01*
X67785748Y-57991703D01*
X67820123Y-58001000D01*
X67950163Y-58101507D01*
X68125863Y-58340623D01*
X68289975Y-58624736D01*
X68385251Y-58860233D01*
X68388978Y-58931189D01*
X68437108Y-58978944D01*
X68486854Y-58955444D01*
X68603614Y-58978021D01*
X68642523Y-59183900D01*
X68628893Y-59312189D01*
X68689415Y-59361874D01*
X68732078Y-59341868D01*
X68884526Y-59367369D01*
X69025791Y-59530051D01*
X69061480Y-59652000D01*
X69138280Y-59768458D01*
X69315718Y-59961276D01*
X69524562Y-60163244D01*
X69695580Y-60307154D01*
X69760000Y-60330121D01*
X69849791Y-60335958D01*
X70045750Y-60443522D01*
X70422385Y-60572203D01*
X70933837Y-60601388D01*
X71483317Y-60535860D01*
X71974034Y-60380405D01*
X72046000Y-60344659D01*
X72353716Y-60200343D01*
X72566449Y-60135862D01*
X72595190Y-60137035D01*
X72644853Y-60087387D01*
X72624269Y-60043952D01*
X72655188Y-59892100D01*
X72773579Y-59790667D01*
X72908117Y-59686240D01*
X72888309Y-59655861D01*
X72908193Y-59578017D01*
X73062954Y-59385805D01*
X73298251Y-59134302D01*
X73559741Y-58878585D01*
X73793080Y-58673731D01*
X73943927Y-58574818D01*
X73957226Y-58572500D01*
X74126656Y-58491281D01*
X74162667Y-58456888D01*
X74174990Y-58404405D01*
X74078000Y-58449517D01*
X73955273Y-58505269D01*
X74006534Y-58412414D01*
X74064348Y-58339809D01*
X74227618Y-58193547D01*
X74305791Y-58186456D01*
X74420506Y-58153936D01*
X74518545Y-58048432D01*
X74633649Y-57941725D01*
X74765368Y-57989165D01*
X74978074Y-58215900D01*
X74993227Y-58233864D01*
X75214709Y-58459476D01*
X75371441Y-58551779D01*
X75397376Y-58544291D01*
X75471206Y-58558320D01*
X75475000Y-58593666D01*
X75484204Y-58654759D01*
X75531186Y-58702461D01*
X75645003Y-58738956D01*
X75854711Y-58766433D01*
X76189365Y-58787076D01*
X76678023Y-58803073D01*
X77349740Y-58816610D01*
X78233572Y-58829873D01*
X78698184Y-58836199D01*
X79660491Y-58846670D01*
X80399377Y-58847969D01*
X80945305Y-58838664D01*
X81328737Y-58817323D01*
X81580135Y-58782514D01*
X81729961Y-58732806D01*
X81788173Y-58690970D01*
X81995325Y-58576471D01*
X82108862Y-58590955D01*
X82185438Y-58594637D01*
X82160279Y-58537766D01*
X82177747Y-58402624D01*
X82357989Y-58317152D01*
X82611068Y-58305482D01*
X82804453Y-58364910D01*
X82984911Y-58497028D01*
X83226190Y-58714238D01*
X83482891Y-58968846D01*
X83709617Y-59213154D01*
X83860970Y-59399467D01*
X83891551Y-59480089D01*
X83857000Y-59470739D01*
X83816206Y-59475512D01*
X83950348Y-59600661D01*
X84016405Y-59653649D01*
X84227168Y-59869882D01*
X84290300Y-60044442D01*
X84282532Y-60063691D01*
X84279534Y-60139246D01*
X84337572Y-60113451D01*
X84502461Y-60136025D01*
X84607333Y-60252578D01*
X84712035Y-60391333D01*
X84742139Y-60377781D01*
X84837480Y-60350492D01*
X85000431Y-60414230D01*
X85235801Y-60487926D01*
X85591038Y-60545612D01*
X85987651Y-60581846D01*
X86347150Y-60591189D01*
X86591044Y-60568202D01*
X86651000Y-60528624D01*
X86757934Y-60432959D01*
X87010308Y-60325095D01*
X87305486Y-60247355D01*
X87349500Y-60240584D01*
X87462796Y-60120663D01*
X87466573Y-60096500D01*
X87413000Y-60096500D01*
X87349500Y-60160000D01*
X87286000Y-60096500D01*
X87349500Y-60033000D01*
X87413000Y-60096500D01*
X87466573Y-60096500D01*
X87476500Y-60033000D01*
X87578160Y-59864627D01*
X87667000Y-59842500D01*
X87835647Y-59753462D01*
X87846425Y-59715500D01*
X87794000Y-59715500D01*
X87730500Y-59779000D01*
X87667000Y-59715500D01*
X87730500Y-59652000D01*
X87794000Y-59715500D01*
X87846425Y-59715500D01*
X87857500Y-59676495D01*
X87948424Y-59486674D01*
X88167875Y-59258550D01*
X88175000Y-59252724D01*
X88342136Y-59104931D01*
X88344703Y-59073047D01*
X88324375Y-59082769D01*
X88221847Y-59112210D01*
X88271733Y-58987625D01*
X88318044Y-58911504D01*
X88484306Y-58740600D01*
X88601042Y-58727337D01*
X88660311Y-58716947D01*
X88631975Y-58656183D01*
X88656679Y-58481259D01*
X88838109Y-58231540D01*
X88898102Y-58171288D01*
X89083244Y-57982607D01*
X89123495Y-57912549D01*
X89094692Y-57924876D01*
X89076995Y-57867582D01*
X89153322Y-57650410D01*
X89293587Y-57335092D01*
X89467702Y-56983363D01*
X89645582Y-56656955D01*
X89797137Y-56417603D01*
X89868598Y-56336956D01*
X89963765Y-56195761D01*
X89963848Y-56177050D01*
X89953097Y-55984356D01*
X89953000Y-55966349D01*
X90079862Y-55929381D01*
X90460069Y-55899048D01*
X91093051Y-55875365D01*
X91978239Y-55858343D01*
X93115063Y-55847997D01*
X94502956Y-55844339D01*
X95163301Y-55844805D01*
X96291630Y-55844747D01*
X97341886Y-55841206D01*
X98286677Y-55834532D01*
X99098611Y-55825076D01*
X99750297Y-55813189D01*
X100214343Y-55799222D01*
X100463357Y-55783526D01*
X100497301Y-55776460D01*
X100708080Y-55759800D01*
X100748001Y-55778499D01*
X100865397Y-55776905D01*
X100875001Y-55737307D01*
X100962066Y-55624501D01*
X101247545Y-55519202D01*
X101481161Y-55463107D01*
X101616303Y-55348245D01*
X101679001Y-55254438D01*
X101873289Y-55066753D01*
X102099393Y-54946197D01*
X102306107Y-54820893D01*
X102341018Y-54707927D01*
X102374744Y-54555531D01*
X102523068Y-54410548D01*
X102686483Y-54247078D01*
X102694526Y-54147858D01*
X102709561Y-54071534D01*
X102766329Y-54064000D01*
X102861940Y-53989500D01*
X102843501Y-53937000D01*
X102853570Y-53819971D01*
X102899505Y-53810000D01*
X103015022Y-53742061D01*
X103015340Y-53714750D01*
X103016908Y-53473341D01*
X103074482Y-53159348D01*
X103163693Y-52858920D01*
X103260170Y-52658204D01*
X103323486Y-52625430D01*
X103401233Y-52632823D01*
X103383679Y-52591372D01*
X103344290Y-52416124D01*
X103305377Y-52059400D01*
X103299437Y-51969611D01*
X102719550Y-51969611D01*
X102585176Y-52835160D01*
X102261674Y-53657346D01*
X101831612Y-54291818D01*
X101483471Y-54624659D01*
X101059574Y-54929862D01*
X100954275Y-54990318D01*
X100821215Y-55058121D01*
X100682685Y-55114208D01*
X100514120Y-55159888D01*
X100290954Y-55196465D01*
X99988621Y-55225246D01*
X99582555Y-55247537D01*
X99048192Y-55264645D01*
X98360964Y-55277874D01*
X97496308Y-55288533D01*
X96429656Y-55297926D01*
X95136443Y-55307359D01*
X94969500Y-55308524D01*
X89508500Y-55346548D01*
X89209093Y-56119848D01*
X88578368Y-57446185D01*
X87714863Y-58757901D01*
X87622745Y-58879411D01*
X87084668Y-59491208D01*
X86574583Y-59867994D01*
X86062410Y-60022032D01*
X85518069Y-59965584D01*
X85218171Y-59859611D01*
X84910219Y-59657852D01*
X84565060Y-59329248D01*
X84373494Y-59098074D01*
X84040415Y-58709954D01*
X83599404Y-58274820D01*
X83181410Y-57915918D01*
X82794585Y-57618564D01*
X82553352Y-57462222D01*
X82406697Y-57427091D01*
X82303602Y-57493368D01*
X82254151Y-57556014D01*
X82024117Y-57794684D01*
X81731735Y-58021722D01*
X81588416Y-58100257D01*
X81405307Y-58158997D01*
X81146083Y-58200754D01*
X80774424Y-58228340D01*
X80254006Y-58244565D01*
X79548508Y-58252241D01*
X78728491Y-58254163D01*
X77834450Y-58252857D01*
X77156746Y-58246153D01*
X76657729Y-58230829D01*
X76299744Y-58203662D01*
X76045140Y-58161432D01*
X75856265Y-58100915D01*
X75695464Y-58018891D01*
X75648741Y-57990641D01*
X75376347Y-57803450D01*
X75226620Y-57664017D01*
X75216961Y-57641391D01*
X75145039Y-57484004D01*
X75032768Y-57318601D01*
X74931118Y-57209390D01*
X74812656Y-57184960D01*
X74626276Y-57263237D01*
X74320874Y-57462147D01*
X74022714Y-57672908D01*
X73526848Y-58068302D01*
X73031248Y-58530765D01*
X72651157Y-58950794D01*
X72071935Y-59554869D01*
X71487568Y-59913308D01*
X70906694Y-60024442D01*
X70337952Y-59886599D01*
X69795362Y-59503274D01*
X69339196Y-58996606D01*
X68867950Y-58352304D01*
X68410584Y-57624048D01*
X67996059Y-56865520D01*
X67653336Y-56130402D01*
X67411378Y-55472375D01*
X67299145Y-54945120D01*
X67294963Y-54868630D01*
X67396241Y-54269423D01*
X67722906Y-53777754D01*
X68267132Y-53400520D01*
X69021095Y-53144616D01*
X69315500Y-53087822D01*
X69950500Y-52984500D01*
X70025052Y-51714500D01*
X70077039Y-51116783D01*
X70154721Y-50565802D01*
X70245250Y-50143473D01*
X70293963Y-50000000D01*
X70694118Y-49338438D01*
X71252988Y-48840212D01*
X71987023Y-48496388D01*
X72912675Y-48298033D01*
X73521933Y-48247116D01*
X74680366Y-48193130D01*
X74557117Y-47791551D01*
X74508871Y-47239669D01*
X74655878Y-46641848D01*
X74973915Y-46079997D01*
X75111352Y-45917424D01*
X75329984Y-45663944D01*
X75439314Y-45443470D01*
X75465258Y-45160555D01*
X75434457Y-44727503D01*
X75350962Y-44207368D01*
X75201804Y-43589189D01*
X75024607Y-43022615D01*
X74811042Y-42304385D01*
X74757136Y-41738600D01*
X74866144Y-41277568D01*
X75141323Y-40873599D01*
X75173681Y-40839111D01*
X75435678Y-40601315D01*
X75729184Y-40424832D01*
X76095109Y-40301251D01*
X76574365Y-40222161D01*
X77207862Y-40179153D01*
X78036510Y-40163817D01*
X78459500Y-40163624D01*
X79412513Y-40176800D01*
X80149057Y-40215824D01*
X80706103Y-40289651D01*
X81120621Y-40407238D01*
X81429580Y-40577538D01*
X81669949Y-40809508D01*
X81788608Y-40970031D01*
X81988170Y-41360617D01*
X82062227Y-41790500D01*
X82010435Y-42315781D01*
X81832448Y-42992557D01*
X81775096Y-43171076D01*
X81609842Y-43720617D01*
X81470061Y-44269568D01*
X81386849Y-44694182D01*
X81302507Y-45293865D01*
X87396563Y-45329182D01*
X88798524Y-45337590D01*
X89968931Y-45345834D01*
X90930228Y-45354960D01*
X91704857Y-45366015D01*
X92315261Y-45380047D01*
X92783884Y-45398102D01*
X93133169Y-45421227D01*
X93385559Y-45450469D01*
X93563497Y-45486875D01*
X93689426Y-45531492D01*
X93785790Y-45585367D01*
X93849059Y-45630177D01*
X94165486Y-45919632D01*
X94469900Y-46279799D01*
X94504490Y-46328677D01*
X94681158Y-46638793D01*
X94757350Y-46958701D01*
X94756412Y-47398818D01*
X94750386Y-47491750D01*
X94699293Y-48222000D01*
X97501397Y-48224789D01*
X98441571Y-48228019D01*
X99164895Y-48237361D01*
X99708494Y-48255461D01*
X100109494Y-48284962D01*
X100405019Y-48328509D01*
X100632196Y-48388749D01*
X100811500Y-48460612D01*
X101512621Y-48913324D01*
X102061330Y-49532556D01*
X102450283Y-50276333D01*
X102672137Y-51102677D01*
X102719550Y-51969611D01*
X103299437Y-51969611D01*
X103274561Y-51593624D01*
X103271334Y-51524000D01*
X103214451Y-50920716D01*
X103109576Y-50395533D01*
X103011374Y-50115034D01*
X102860608Y-49775969D01*
X102764139Y-49515669D01*
X102754845Y-49480034D01*
X102637742Y-49255467D01*
X102589500Y-49210882D01*
X102468040Y-49033195D01*
X102462500Y-48991780D01*
X102380233Y-48835174D01*
X102180486Y-48613006D01*
X101933848Y-48389184D01*
X101710902Y-48227617D01*
X101582235Y-48192212D01*
X101580821Y-48193512D01*
X101516059Y-48165433D01*
X101510001Y-48108671D01*
X101440901Y-48009355D01*
X101393239Y-48025172D01*
X101215762Y-48011525D01*
X101107489Y-47937417D01*
X101009177Y-47857058D01*
X100883283Y-47794873D01*
X100696316Y-47747550D01*
X100414784Y-47711777D01*
X100005193Y-47684242D01*
X99434053Y-47661634D01*
X98667870Y-47640641D01*
X97935264Y-47623745D01*
X95440028Y-47568247D01*
X95341767Y-46974373D01*
X95287831Y-46604076D01*
X95263363Y-46343875D01*
X95265253Y-46285250D01*
X95188487Y-46195846D01*
X95138834Y-46189999D01*
X95049247Y-46142870D01*
X95067230Y-46113437D01*
X95035178Y-45987275D01*
X94859149Y-45771769D01*
X94802646Y-45716590D01*
X94647199Y-45557153D01*
X94661584Y-45536750D01*
X94715500Y-45570903D01*
X94888284Y-45681329D01*
X94876893Y-45630415D01*
X94796361Y-45524648D01*
X94625250Y-45371907D01*
X94533734Y-45359102D01*
X94388443Y-45321685D01*
X94154615Y-45156358D01*
X94130686Y-45135454D01*
X93855919Y-44920659D01*
X93632751Y-44793496D01*
X93631313Y-44793000D01*
X93469283Y-44779095D01*
X93079680Y-44764634D01*
X92488930Y-44750064D01*
X91723456Y-44735830D01*
X90809685Y-44722382D01*
X89774040Y-44710166D01*
X88642947Y-44699630D01*
X87717982Y-44692907D01*
X81990463Y-44656314D01*
X82115061Y-44026157D01*
X82200855Y-43667505D01*
X82284051Y-43439261D01*
X82322803Y-43396000D01*
X82396857Y-43288284D01*
X82426612Y-43121677D01*
X82489246Y-42868277D01*
X82557694Y-42772427D01*
X82617165Y-42619535D01*
X82654633Y-42309869D01*
X82669601Y-41923813D01*
X82661571Y-41541750D01*
X82630047Y-41244064D01*
X82574533Y-41111138D01*
X82567966Y-41109999D01*
X82468935Y-41008514D01*
X82460000Y-40941637D01*
X82374064Y-40745410D01*
X82165300Y-40496723D01*
X82146415Y-40478677D01*
X81955995Y-40246620D01*
X81905875Y-40069584D01*
X81912037Y-40055916D01*
X81908162Y-39989212D01*
X81844623Y-40018372D01*
X81714212Y-40021683D01*
X81698000Y-39966999D01*
X81636033Y-39870492D01*
X81602750Y-39881093D01*
X81426031Y-39880087D01*
X81190000Y-39809046D01*
X80943956Y-39721657D01*
X80674818Y-39658766D01*
X80332772Y-39615283D01*
X79868003Y-39586117D01*
X79230696Y-39566178D01*
X78713500Y-39555981D01*
X77669414Y-39553263D01*
X76843827Y-39587411D01*
X76843827Y-39587411D01*
G37*
X76843827Y-39587411D02*
X76203506Y-39661450D01*
X75715215Y-39778402D01*
X75538500Y-39844864D01*
X75245157Y-39951264D01*
X75057320Y-39985180D01*
X75052811Y-39984361D01*
X74999186Y-40036591D01*
X75014154Y-40067550D01*
X74962173Y-40195260D01*
X74748464Y-40369300D01*
X74703854Y-40396700D01*
X74472272Y-40574696D01*
X74394675Y-40721644D01*
X74400756Y-40737503D01*
X74384672Y-40848393D01*
X74343482Y-40855999D01*
X74267179Y-40948789D01*
X74286074Y-41046499D01*
X74295454Y-41210249D01*
X74250338Y-41236774D01*
X74192559Y-41348614D01*
X74156114Y-41625863D01*
X74142656Y-41980692D01*
X74153836Y-42325274D01*
X74191306Y-42571782D01*
X74224057Y-42634000D01*
X74312025Y-42798624D01*
X74351057Y-42951500D01*
X74429469Y-43193358D01*
X74489049Y-43275443D01*
X74568438Y-43440208D01*
X74624231Y-43725687D01*
X74675801Y-44038170D01*
X74735044Y-44227243D01*
X74782235Y-44422240D01*
X74815558Y-44760877D01*
X74820875Y-44880005D01*
X74792157Y-45286854D01*
X74650157Y-45553977D01*
X74553013Y-45645088D01*
X74329498Y-45878136D01*
X74226568Y-46064881D01*
X74137880Y-46273192D01*
X74099568Y-46315798D01*
X74044072Y-46378263D01*
X74010493Y-46503816D01*
X73988142Y-46759453D01*
X73970050Y-47127704D01*
X73951000Y-47557409D01*
X73093750Y-47661879D01*
X72641687Y-47717373D01*
X72287088Y-47761640D01*
X72109500Y-47784725D01*
X71906010Y-47855163D01*
X71560374Y-48010626D01*
X71152727Y-48213223D01*
X70800951Y-48403465D01*
X70512505Y-48608154D01*
X70236989Y-48866109D01*
X70038960Y-49109214D01*
X69982250Y-49267297D01*
X69918325Y-49360496D01*
X69879505Y-49365000D01*
X69803656Y-49442804D01*
X69823500Y-49492000D01*
X69803615Y-49607572D01*
X69746329Y-49619000D01*
X69644028Y-49659230D01*
X69657813Y-49686146D01*
X69666997Y-49835937D01*
X69621957Y-50155242D01*
X69553964Y-50479896D01*
X69453960Y-51027492D01*
X69391372Y-51605518D01*
X69380984Y-51865468D01*
X69379000Y-52524436D01*
X68775750Y-52624464D01*
X68394182Y-52684213D01*
X68114945Y-52721590D01*
X68045500Y-52727495D01*
X67863820Y-52815788D01*
X67750333Y-52921000D01*
X67629742Y-53046101D01*
X67642605Y-52975515D01*
X67666103Y-52921000D01*
X67656676Y-52874260D01*
X67525992Y-53002799D01*
X67487845Y-53048000D01*
X67305144Y-53297196D01*
X67223112Y-53464185D01*
X67222824Y-53468245D01*
X67142205Y-53517820D01*
X67107439Y-53501423D01*
X66998107Y-53534793D01*
X66895748Y-53785278D01*
X66796114Y-54266642D01*
X66728032Y-54730750D01*
X66691397Y-55149157D01*
X66707843Y-55405537D01*
X66748897Y-55461000D01*
X66813847Y-55554321D01*
X66793074Y-55651500D01*
X66796807Y-55814702D01*
X66856574Y-55842000D01*
X66938089Y-55934543D01*
X66920074Y-56032500D01*
X66908251Y-56196490D01*
X66950698Y-56223000D01*
X67056730Y-56327988D01*
X67206868Y-56584596D01*
X67359660Y-56905283D01*
X67473654Y-57202514D01*
X67507399Y-57388749D01*
X67505751Y-57395165D01*
X67569673Y-57488489D01*
X67608496Y-57493000D01*
X67684345Y-57570804D01*
X67664500Y-57620000D01*
X67678783Y-57736840D01*
X67728000Y-57747000D01*
X67810819Y-57824362D01*
X67791500Y-57874000D01*
X67785748Y-57991703D01*
X67820123Y-58001000D01*
X67950163Y-58101507D01*
X68125863Y-58340623D01*
X68289975Y-58624736D01*
X68385251Y-58860233D01*
X68388978Y-58931189D01*
X68437108Y-58978944D01*
X68486854Y-58955444D01*
X68603614Y-58978021D01*
X68642523Y-59183900D01*
X68628893Y-59312189D01*
X68689415Y-59361874D01*
X68732078Y-59341868D01*
X68884526Y-59367369D01*
X69025791Y-59530051D01*
X69061480Y-59652000D01*
X69138280Y-59768458D01*
X69315718Y-59961276D01*
X69524562Y-60163244D01*
X69695580Y-60307154D01*
X69760000Y-60330121D01*
X69849791Y-60335958D01*
X70045750Y-60443522D01*
X70422385Y-60572203D01*
X70933837Y-60601388D01*
X71483317Y-60535860D01*
X71974034Y-60380405D01*
X72046000Y-60344659D01*
X72353716Y-60200343D01*
X72566449Y-60135862D01*
X72595190Y-60137035D01*
X72644853Y-60087387D01*
X72624269Y-60043952D01*
X72655188Y-59892100D01*
X72773579Y-59790667D01*
X72908117Y-59686240D01*
X72888309Y-59655861D01*
X72908193Y-59578017D01*
X73062954Y-59385805D01*
X73298251Y-59134302D01*
X73559741Y-58878585D01*
X73793080Y-58673731D01*
X73943927Y-58574818D01*
X73957226Y-58572500D01*
X74126656Y-58491281D01*
X74162667Y-58456888D01*
X74174990Y-58404405D01*
X74078000Y-58449517D01*
X73955273Y-58505269D01*
X74006534Y-58412414D01*
X74064348Y-58339809D01*
X74227618Y-58193547D01*
X74305791Y-58186456D01*
X74420506Y-58153936D01*
X74518545Y-58048432D01*
X74633649Y-57941725D01*
X74765368Y-57989165D01*
X74978074Y-58215900D01*
X74993227Y-58233864D01*
X75214709Y-58459476D01*
X75371441Y-58551779D01*
X75397376Y-58544291D01*
X75471206Y-58558320D01*
X75475000Y-58593666D01*
X75484204Y-58654759D01*
X75531186Y-58702461D01*
X75645003Y-58738956D01*
X75854711Y-58766433D01*
X76189365Y-58787076D01*
X76678023Y-58803073D01*
X77349740Y-58816610D01*
X78233572Y-58829873D01*
X78698184Y-58836199D01*
X79660491Y-58846670D01*
X80399377Y-58847969D01*
X80945305Y-58838664D01*
X81328737Y-58817323D01*
X81580135Y-58782514D01*
X81729961Y-58732806D01*
X81788173Y-58690970D01*
X81995325Y-58576471D01*
X82108862Y-58590955D01*
X82185438Y-58594637D01*
X82160279Y-58537766D01*
X82177747Y-58402624D01*
X82357989Y-58317152D01*
X82611068Y-58305482D01*
X82804453Y-58364910D01*
X82984911Y-58497028D01*
X83226190Y-58714238D01*
X83482891Y-58968846D01*
X83709617Y-59213154D01*
X83860970Y-59399467D01*
X83891551Y-59480089D01*
X83857000Y-59470739D01*
X83816206Y-59475512D01*
X83950348Y-59600661D01*
X84016405Y-59653649D01*
X84227168Y-59869882D01*
X84290300Y-60044442D01*
X84282532Y-60063691D01*
X84279534Y-60139246D01*
X84337572Y-60113451D01*
X84502461Y-60136025D01*
X84607333Y-60252578D01*
X84712035Y-60391333D01*
X84742139Y-60377781D01*
X84837480Y-60350492D01*
X85000431Y-60414230D01*
X85235801Y-60487926D01*
X85591038Y-60545612D01*
X85987651Y-60581846D01*
X86347150Y-60591189D01*
X86591044Y-60568202D01*
X86651000Y-60528624D01*
X86757934Y-60432959D01*
X87010308Y-60325095D01*
X87305486Y-60247355D01*
X87349500Y-60240584D01*
X87462796Y-60120663D01*
X87466573Y-60096500D01*
X87413000Y-60096500D01*
X87349500Y-60160000D01*
X87286000Y-60096500D01*
X87349500Y-60033000D01*
X87413000Y-60096500D01*
X87466573Y-60096500D01*
X87476500Y-60033000D01*
X87578160Y-59864627D01*
X87667000Y-59842500D01*
X87835647Y-59753462D01*
X87846425Y-59715500D01*
X87794000Y-59715500D01*
X87730500Y-59779000D01*
X87667000Y-59715500D01*
X87730500Y-59652000D01*
X87794000Y-59715500D01*
X87846425Y-59715500D01*
X87857500Y-59676495D01*
X87948424Y-59486674D01*
X88167875Y-59258550D01*
X88175000Y-59252724D01*
X88342136Y-59104931D01*
X88344703Y-59073047D01*
X88324375Y-59082769D01*
X88221847Y-59112210D01*
X88271733Y-58987625D01*
X88318044Y-58911504D01*
X88484306Y-58740600D01*
X88601042Y-58727337D01*
X88660311Y-58716947D01*
X88631975Y-58656183D01*
X88656679Y-58481259D01*
X88838109Y-58231540D01*
X88898102Y-58171288D01*
X89083244Y-57982607D01*
X89123495Y-57912549D01*
X89094692Y-57924876D01*
X89076995Y-57867582D01*
X89153322Y-57650410D01*
X89293587Y-57335092D01*
X89467702Y-56983363D01*
X89645582Y-56656955D01*
X89797137Y-56417603D01*
X89868598Y-56336956D01*
X89963765Y-56195761D01*
X89963848Y-56177050D01*
X89953097Y-55984356D01*
X89953000Y-55966349D01*
X90079862Y-55929381D01*
X90460069Y-55899048D01*
X91093051Y-55875365D01*
X91978239Y-55858343D01*
X93115063Y-55847997D01*
X94502956Y-55844339D01*
X95163301Y-55844805D01*
X96291630Y-55844747D01*
X97341886Y-55841206D01*
X98286677Y-55834532D01*
X99098611Y-55825076D01*
X99750297Y-55813189D01*
X100214343Y-55799222D01*
X100463357Y-55783526D01*
X100497301Y-55776460D01*
X100708080Y-55759800D01*
X100748001Y-55778499D01*
X100865397Y-55776905D01*
X100875001Y-55737307D01*
X100962066Y-55624501D01*
X101247545Y-55519202D01*
X101481161Y-55463107D01*
X101616303Y-55348245D01*
X101679001Y-55254438D01*
X101873289Y-55066753D01*
X102099393Y-54946197D01*
X102306107Y-54820893D01*
X102341018Y-54707927D01*
X102374744Y-54555531D01*
X102523068Y-54410548D01*
X102686483Y-54247078D01*
X102694526Y-54147858D01*
X102709561Y-54071534D01*
X102766329Y-54064000D01*
X102861940Y-53989500D01*
X102843501Y-53937000D01*
X102853570Y-53819971D01*
X102899505Y-53810000D01*
X103015022Y-53742061D01*
X103015340Y-53714750D01*
X103016908Y-53473341D01*
X103074482Y-53159348D01*
X103163693Y-52858920D01*
X103260170Y-52658204D01*
X103323486Y-52625430D01*
X103401233Y-52632823D01*
X103383679Y-52591372D01*
X103344290Y-52416124D01*
X103305377Y-52059400D01*
X103299437Y-51969611D01*
X102719550Y-51969611D01*
X102585176Y-52835160D01*
X102261674Y-53657346D01*
X101831612Y-54291818D01*
X101483471Y-54624659D01*
X101059574Y-54929862D01*
X100954275Y-54990318D01*
X100821215Y-55058121D01*
X100682685Y-55114208D01*
X100514120Y-55159888D01*
X100290954Y-55196465D01*
X99988621Y-55225246D01*
X99582555Y-55247537D01*
X99048192Y-55264645D01*
X98360964Y-55277874D01*
X97496308Y-55288533D01*
X96429656Y-55297926D01*
X95136443Y-55307359D01*
X94969500Y-55308524D01*
X89508500Y-55346548D01*
X89209093Y-56119848D01*
X88578368Y-57446185D01*
X87714863Y-58757901D01*
X87622745Y-58879411D01*
X87084668Y-59491208D01*
X86574583Y-59867994D01*
X86062410Y-60022032D01*
X85518069Y-59965584D01*
X85218171Y-59859611D01*
X84910219Y-59657852D01*
X84565060Y-59329248D01*
X84373494Y-59098074D01*
X84040415Y-58709954D01*
X83599404Y-58274820D01*
X83181410Y-57915918D01*
X82794585Y-57618564D01*
X82553352Y-57462222D01*
X82406697Y-57427091D01*
X82303602Y-57493368D01*
X82254151Y-57556014D01*
X82024117Y-57794684D01*
X81731735Y-58021722D01*
X81588416Y-58100257D01*
X81405307Y-58158997D01*
X81146083Y-58200754D01*
X80774424Y-58228340D01*
X80254006Y-58244565D01*
X79548508Y-58252241D01*
X78728491Y-58254163D01*
X77834450Y-58252857D01*
X77156746Y-58246153D01*
X76657729Y-58230829D01*
X76299744Y-58203662D01*
X76045140Y-58161432D01*
X75856265Y-58100915D01*
X75695464Y-58018891D01*
X75648741Y-57990641D01*
X75376347Y-57803450D01*
X75226620Y-57664017D01*
X75216961Y-57641391D01*
X75145039Y-57484004D01*
X75032768Y-57318601D01*
X74931118Y-57209390D01*
X74812656Y-57184960D01*
X74626276Y-57263237D01*
X74320874Y-57462147D01*
X74022714Y-57672908D01*
X73526848Y-58068302D01*
X73031248Y-58530765D01*
X72651157Y-58950794D01*
X72071935Y-59554869D01*
X71487568Y-59913308D01*
X70906694Y-60024442D01*
X70337952Y-59886599D01*
X69795362Y-59503274D01*
X69339196Y-58996606D01*
X68867950Y-58352304D01*
X68410584Y-57624048D01*
X67996059Y-56865520D01*
X67653336Y-56130402D01*
X67411378Y-55472375D01*
X67299145Y-54945120D01*
X67294963Y-54868630D01*
X67396241Y-54269423D01*
X67722906Y-53777754D01*
X68267132Y-53400520D01*
X69021095Y-53144616D01*
X69315500Y-53087822D01*
X69950500Y-52984500D01*
X70025052Y-51714500D01*
X70077039Y-51116783D01*
X70154721Y-50565802D01*
X70245250Y-50143473D01*
X70293963Y-50000000D01*
X70694118Y-49338438D01*
X71252988Y-48840212D01*
X71987023Y-48496388D01*
X72912675Y-48298033D01*
X73521933Y-48247116D01*
X74680366Y-48193130D01*
X74557117Y-47791551D01*
X74508871Y-47239669D01*
X74655878Y-46641848D01*
X74973915Y-46079997D01*
X75111352Y-45917424D01*
X75329984Y-45663944D01*
X75439314Y-45443470D01*
X75465258Y-45160555D01*
X75434457Y-44727503D01*
X75350962Y-44207368D01*
X75201804Y-43589189D01*
X75024607Y-43022615D01*
X74811042Y-42304385D01*
X74757136Y-41738600D01*
X74866144Y-41277568D01*
X75141323Y-40873599D01*
X75173681Y-40839111D01*
X75435678Y-40601315D01*
X75729184Y-40424832D01*
X76095109Y-40301251D01*
X76574365Y-40222161D01*
X77207862Y-40179153D01*
X78036510Y-40163817D01*
X78459500Y-40163624D01*
X79412513Y-40176800D01*
X80149057Y-40215824D01*
X80706103Y-40289651D01*
X81120621Y-40407238D01*
X81429580Y-40577538D01*
X81669949Y-40809508D01*
X81788608Y-40970031D01*
X81988170Y-41360617D01*
X82062227Y-41790500D01*
X82010435Y-42315781D01*
X81832448Y-42992557D01*
X81775096Y-43171076D01*
X81609842Y-43720617D01*
X81470061Y-44269568D01*
X81386849Y-44694182D01*
X81302507Y-45293865D01*
X87396563Y-45329182D01*
X88798524Y-45337590D01*
X89968931Y-45345834D01*
X90930228Y-45354960D01*
X91704857Y-45366015D01*
X92315261Y-45380047D01*
X92783884Y-45398102D01*
X93133169Y-45421227D01*
X93385559Y-45450469D01*
X93563497Y-45486875D01*
X93689426Y-45531492D01*
X93785790Y-45585367D01*
X93849059Y-45630177D01*
X94165486Y-45919632D01*
X94469900Y-46279799D01*
X94504490Y-46328677D01*
X94681158Y-46638793D01*
X94757350Y-46958701D01*
X94756412Y-47398818D01*
X94750386Y-47491750D01*
X94699293Y-48222000D01*
X97501397Y-48224789D01*
X98441571Y-48228019D01*
X99164895Y-48237361D01*
X99708494Y-48255461D01*
X100109494Y-48284962D01*
X100405019Y-48328509D01*
X100632196Y-48388749D01*
X100811500Y-48460612D01*
X101512621Y-48913324D01*
X102061330Y-49532556D01*
X102450283Y-50276333D01*
X102672137Y-51102677D01*
X102719550Y-51969611D01*
X103299437Y-51969611D01*
X103274561Y-51593624D01*
X103271334Y-51524000D01*
X103214451Y-50920716D01*
X103109576Y-50395533D01*
X103011374Y-50115034D01*
X102860608Y-49775969D01*
X102764139Y-49515669D01*
X102754845Y-49480034D01*
X102637742Y-49255467D01*
X102589500Y-49210882D01*
X102468040Y-49033195D01*
X102462500Y-48991780D01*
X102380233Y-48835174D01*
X102180486Y-48613006D01*
X101933848Y-48389184D01*
X101710902Y-48227617D01*
X101582235Y-48192212D01*
X101580821Y-48193512D01*
X101516059Y-48165433D01*
X101510001Y-48108671D01*
X101440901Y-48009355D01*
X101393239Y-48025172D01*
X101215762Y-48011525D01*
X101107489Y-47937417D01*
X101009177Y-47857058D01*
X100883283Y-47794873D01*
X100696316Y-47747550D01*
X100414784Y-47711777D01*
X100005193Y-47684242D01*
X99434053Y-47661634D01*
X98667870Y-47640641D01*
X97935264Y-47623745D01*
X95440028Y-47568247D01*
X95341767Y-46974373D01*
X95287831Y-46604076D01*
X95263363Y-46343875D01*
X95265253Y-46285250D01*
X95188487Y-46195846D01*
X95138834Y-46189999D01*
X95049247Y-46142870D01*
X95067230Y-46113437D01*
X95035178Y-45987275D01*
X94859149Y-45771769D01*
X94802646Y-45716590D01*
X94647199Y-45557153D01*
X94661584Y-45536750D01*
X94715500Y-45570903D01*
X94888284Y-45681329D01*
X94876893Y-45630415D01*
X94796361Y-45524648D01*
X94625250Y-45371907D01*
X94533734Y-45359102D01*
X94388443Y-45321685D01*
X94154615Y-45156358D01*
X94130686Y-45135454D01*
X93855919Y-44920659D01*
X93632751Y-44793496D01*
X93631313Y-44793000D01*
X93469283Y-44779095D01*
X93079680Y-44764634D01*
X92488930Y-44750064D01*
X91723456Y-44735830D01*
X90809685Y-44722382D01*
X89774040Y-44710166D01*
X88642947Y-44699630D01*
X87717982Y-44692907D01*
X81990463Y-44656314D01*
X82115061Y-44026157D01*
X82200855Y-43667505D01*
X82284051Y-43439261D01*
X82322803Y-43396000D01*
X82396857Y-43288284D01*
X82426612Y-43121677D01*
X82489246Y-42868277D01*
X82557694Y-42772427D01*
X82617165Y-42619535D01*
X82654633Y-42309869D01*
X82669601Y-41923813D01*
X82661571Y-41541750D01*
X82630047Y-41244064D01*
X82574533Y-41111138D01*
X82567966Y-41109999D01*
X82468935Y-41008514D01*
X82460000Y-40941637D01*
X82374064Y-40745410D01*
X82165300Y-40496723D01*
X82146415Y-40478677D01*
X81955995Y-40246620D01*
X81905875Y-40069584D01*
X81912037Y-40055916D01*
X81908162Y-39989212D01*
X81844623Y-40018372D01*
X81714212Y-40021683D01*
X81698000Y-39966999D01*
X81636033Y-39870492D01*
X81602750Y-39881093D01*
X81426031Y-39880087D01*
X81190000Y-39809046D01*
X80943956Y-39721657D01*
X80674818Y-39658766D01*
X80332772Y-39615283D01*
X79868003Y-39586117D01*
X79230696Y-39566178D01*
X78713500Y-39555981D01*
X77669414Y-39553263D01*
X76843827Y-39587411D01*
G36*
X89191000Y-57683500D02*
X89254500Y-57747000D01*
X89318000Y-57683500D01*
X89254500Y-57620000D01*
X89191000Y-57683500D01*
X89191000Y-57683500D01*
G37*
X89191000Y-57683500D02*
X89254500Y-57747000D01*
X89318000Y-57683500D01*
X89254500Y-57620000D01*
X89191000Y-57683500D01*
G36*
X101910623Y-55131372D02*
X101774283Y-55259248D01*
X101802251Y-55332763D01*
X101820005Y-55334000D01*
X101927424Y-55243794D01*
X101966628Y-55187377D01*
X101981597Y-55100471D01*
X101910623Y-55131372D01*
X101910623Y-55131372D01*
G37*
X101910623Y-55131372D02*
X101774283Y-55259248D01*
X101802251Y-55332763D01*
X101820005Y-55334000D01*
X101927424Y-55243794D01*
X101966628Y-55187377D01*
X101981597Y-55100471D01*
X101910623Y-55131372D01*
G36*
X70776000Y-48285500D02*
X70839500Y-48349000D01*
X70903000Y-48285500D01*
X70839500Y-48222000D01*
X70776000Y-48285500D01*
X70776000Y-48285500D01*
G37*
X70776000Y-48285500D02*
X70839500Y-48349000D01*
X70903000Y-48285500D01*
X70839500Y-48222000D01*
X70776000Y-48285500D01*
G36*
X79752999Y-55386281D02*
X79693761Y-55574270D01*
X79668778Y-55944681D01*
X79666000Y-56223000D01*
X79677204Y-56706008D01*
X79717487Y-56982449D01*
X79796861Y-57099038D01*
X79856500Y-57112000D01*
X80007740Y-56998407D01*
X80047000Y-56731000D01*
X80081172Y-56458709D01*
X80226432Y-56359098D01*
X80364500Y-56350000D01*
X80591409Y-56391006D01*
X80674418Y-56565318D01*
X80682000Y-56731000D01*
X80721916Y-57009880D01*
X80870433Y-57108069D01*
X80936000Y-57112000D01*
X81069485Y-57088015D01*
X81145957Y-56979855D01*
X81180933Y-56733208D01*
X81189930Y-56293764D01*
X81190000Y-56223000D01*
X81183148Y-55755803D01*
X81152245Y-55488152D01*
X81081774Y-55365737D01*
X80956219Y-55334247D01*
X80936000Y-55334000D01*
X80750080Y-55393873D01*
X80684621Y-55616649D01*
X80682000Y-55715000D01*
X80647829Y-55987290D01*
X80502569Y-56086901D01*
X80364500Y-56096000D01*
X80137592Y-56054993D01*
X80054583Y-55880681D01*
X80047000Y-55715000D01*
X79990204Y-55412521D01*
X79856500Y-55334000D01*
X79752999Y-55386281D01*
X79752999Y-55386281D01*
G37*
X79752999Y-55386281D02*
X79693761Y-55574270D01*
X79668778Y-55944681D01*
X79666000Y-56223000D01*
X79677204Y-56706008D01*
X79717487Y-56982449D01*
X79796861Y-57099038D01*
X79856500Y-57112000D01*
X80007740Y-56998407D01*
X80047000Y-56731000D01*
X80081172Y-56458709D01*
X80226432Y-56359098D01*
X80364500Y-56350000D01*
X80591409Y-56391006D01*
X80674418Y-56565318D01*
X80682000Y-56731000D01*
X80721916Y-57009880D01*
X80870433Y-57108069D01*
X80936000Y-57112000D01*
X81069485Y-57088015D01*
X81145957Y-56979855D01*
X81180933Y-56733208D01*
X81189930Y-56293764D01*
X81190000Y-56223000D01*
X81183148Y-55755803D01*
X81152245Y-55488152D01*
X81081774Y-55365737D01*
X80956219Y-55334247D01*
X80936000Y-55334000D01*
X80750080Y-55393873D01*
X80684621Y-55616649D01*
X80682000Y-55715000D01*
X80647829Y-55987290D01*
X80502569Y-56086901D01*
X80364500Y-56096000D01*
X80137592Y-56054993D01*
X80054583Y-55880681D01*
X80047000Y-55715000D01*
X79990204Y-55412521D01*
X79856500Y-55334000D01*
X79752999Y-55386281D01*
G36*
X77854648Y-55368552D02*
X77787315Y-55500361D01*
X77762887Y-55807293D01*
X77761000Y-56014116D01*
X77808110Y-56575303D01*
X77949463Y-56900763D01*
X77960572Y-56912428D01*
X78282934Y-57078124D01*
X78682737Y-57092342D01*
X79034040Y-56955762D01*
X79091540Y-56906318D01*
X79210893Y-56671345D01*
X79267818Y-56323981D01*
X79265580Y-55945593D01*
X79207443Y-55617546D01*
X79096672Y-55421206D01*
X79031000Y-55397500D01*
X78906868Y-55474795D01*
X78832798Y-55733910D01*
X78802114Y-56064250D01*
X78764368Y-56461237D01*
X78693910Y-56663190D01*
X78566110Y-56728946D01*
X78523000Y-56731000D01*
X78377181Y-56689680D01*
X78294863Y-56526477D01*
X78251359Y-56182525D01*
X78243887Y-56065439D01*
X78199155Y-55649703D01*
X78112756Y-55431332D01*
X77983250Y-55357627D01*
X77854648Y-55368552D01*
X77854648Y-55368552D01*
G37*
X77854648Y-55368552D02*
X77787315Y-55500361D01*
X77762887Y-55807293D01*
X77761000Y-56014116D01*
X77808110Y-56575303D01*
X77949463Y-56900763D01*
X77960572Y-56912428D01*
X78282934Y-57078124D01*
X78682737Y-57092342D01*
X79034040Y-56955762D01*
X79091540Y-56906318D01*
X79210893Y-56671345D01*
X79267818Y-56323981D01*
X79265580Y-55945593D01*
X79207443Y-55617546D01*
X79096672Y-55421206D01*
X79031000Y-55397500D01*
X78906868Y-55474795D01*
X78832798Y-55733910D01*
X78802114Y-56064250D01*
X78764368Y-56461237D01*
X78693910Y-56663190D01*
X78566110Y-56728946D01*
X78523000Y-56731000D01*
X78377181Y-56689680D01*
X78294863Y-56526477D01*
X78251359Y-56182525D01*
X78243887Y-56065439D01*
X78199155Y-55649703D01*
X78112756Y-55431332D01*
X77983250Y-55357627D01*
X77854648Y-55368552D01*
G36*
X76657071Y-55407323D02*
X76389825Y-55589239D01*
X76275355Y-55822667D01*
X76291137Y-55926895D01*
X76283977Y-56168841D01*
X76204118Y-56355459D01*
X76117015Y-56663456D01*
X76259838Y-56903837D01*
X76612527Y-57053978D01*
X76853185Y-57087552D01*
X77380000Y-57126604D01*
X77380000Y-56529916D01*
X76999000Y-56529916D01*
X76896746Y-56704864D01*
X76797917Y-56731000D01*
X76649798Y-56657157D01*
X76647105Y-56580187D01*
X76773514Y-56412475D01*
X76925694Y-56391151D01*
X76999000Y-56529916D01*
X77380000Y-56529916D01*
X77380000Y-55905500D01*
X76999000Y-55905500D01*
X76934561Y-56063560D01*
X76862475Y-56071658D01*
X76731264Y-55940545D01*
X76725950Y-55905500D01*
X76824823Y-55756588D01*
X76862475Y-55739341D01*
X76978279Y-55800647D01*
X76999000Y-55905500D01*
X77380000Y-55905500D01*
X77380000Y-55334000D01*
X77008072Y-55334000D01*
X76657071Y-55407323D01*
X76657071Y-55407323D01*
G37*
X76657071Y-55407323D02*
X76389825Y-55589239D01*
X76275355Y-55822667D01*
X76291137Y-55926895D01*
X76283977Y-56168841D01*
X76204118Y-56355459D01*
X76117015Y-56663456D01*
X76259838Y-56903837D01*
X76612527Y-57053978D01*
X76853185Y-57087552D01*
X77380000Y-57126604D01*
X77380000Y-56529916D01*
X76999000Y-56529916D01*
X76896746Y-56704864D01*
X76797917Y-56731000D01*
X76649798Y-56657157D01*
X76647105Y-56580187D01*
X76773514Y-56412475D01*
X76925694Y-56391151D01*
X76999000Y-56529916D01*
X77380000Y-56529916D01*
X77380000Y-55905500D01*
X76999000Y-55905500D01*
X76934561Y-56063560D01*
X76862475Y-56071658D01*
X76731264Y-55940545D01*
X76725950Y-55905500D01*
X76824823Y-55756588D01*
X76862475Y-55739341D01*
X76978279Y-55800647D01*
X76999000Y-55905500D01*
X77380000Y-55905500D01*
X77380000Y-55334000D01*
X77008072Y-55334000D01*
X76657071Y-55407323D01*
G36*
X98572680Y-49341040D02*
X98226746Y-49415505D01*
X98039725Y-49587416D01*
X97964808Y-49891863D01*
X97954000Y-50206259D01*
X97958374Y-50601879D01*
X97988368Y-50788282D01*
X98069291Y-50810251D01*
X98226452Y-50712568D01*
X98236259Y-50705701D01*
X98715922Y-50504982D01*
X99210489Y-50517590D01*
X99663227Y-50713165D01*
X100017403Y-51061346D01*
X100216283Y-51531773D01*
X100240000Y-51777999D01*
X100130538Y-52293988D01*
X99839971Y-52701543D01*
X99425035Y-52970302D01*
X98942461Y-53069905D01*
X98448985Y-52969992D01*
X98236259Y-52850298D01*
X98075058Y-52748155D01*
X97991061Y-52763221D01*
X97959099Y-52940263D01*
X97954002Y-53324050D01*
X97954000Y-53352329D01*
X97954000Y-54052060D01*
X98430250Y-54184322D01*
X98843413Y-54280984D01*
X99174020Y-54292265D01*
X99558250Y-54216539D01*
X99732000Y-54168781D01*
X100403651Y-53853726D01*
X100968408Y-53346862D01*
X101270612Y-52892358D01*
X101478238Y-52246014D01*
X101505946Y-51540474D01*
X101360966Y-50861874D01*
X101053015Y-50299412D01*
X100461841Y-49751482D01*
X99766036Y-49423012D01*
X99124336Y-49328929D01*
X98572680Y-49341040D01*
X98572680Y-49341040D01*
G37*
X98572680Y-49341040D02*
X98226746Y-49415505D01*
X98039725Y-49587416D01*
X97964808Y-49891863D01*
X97954000Y-50206259D01*
X97958374Y-50601879D01*
X97988368Y-50788282D01*
X98069291Y-50810251D01*
X98226452Y-50712568D01*
X98236259Y-50705701D01*
X98715922Y-50504982D01*
X99210489Y-50517590D01*
X99663227Y-50713165D01*
X100017403Y-51061346D01*
X100216283Y-51531773D01*
X100240000Y-51777999D01*
X100130538Y-52293988D01*
X99839971Y-52701543D01*
X99425035Y-52970302D01*
X98942461Y-53069905D01*
X98448985Y-52969992D01*
X98236259Y-52850298D01*
X98075058Y-52748155D01*
X97991061Y-52763221D01*
X97959099Y-52940263D01*
X97954002Y-53324050D01*
X97954000Y-53352329D01*
X97954000Y-54052060D01*
X98430250Y-54184322D01*
X98843413Y-54280984D01*
X99174020Y-54292265D01*
X99558250Y-54216539D01*
X99732000Y-54168781D01*
X100403651Y-53853726D01*
X100968408Y-53346862D01*
X101270612Y-52892358D01*
X101478238Y-52246014D01*
X101505946Y-51540474D01*
X101360966Y-50861874D01*
X101053015Y-50299412D01*
X100461841Y-49751482D01*
X99766036Y-49423012D01*
X99124336Y-49328929D01*
X98572680Y-49341040D01*
G36*
X77751006Y-49438759D02*
X77054333Y-49750957D01*
X76508108Y-50263343D01*
X76278611Y-50623225D01*
X76030986Y-51329905D01*
X76008906Y-52029015D01*
X76185162Y-52687871D01*
X76532545Y-53273790D01*
X77023843Y-53754089D01*
X77631847Y-54096086D01*
X78329348Y-54267097D01*
X79089135Y-54234440D01*
X79255080Y-54198393D01*
X79964512Y-53909999D01*
X80518798Y-53463012D01*
X80910781Y-52899570D01*
X81133304Y-52261814D01*
X81166525Y-51776981D01*
X79905362Y-51776981D01*
X79796895Y-52275109D01*
X79476108Y-52741437D01*
X79062345Y-52990857D01*
X78559216Y-53061990D01*
X78058260Y-52954840D01*
X77721182Y-52741324D01*
X77386180Y-52288203D01*
X77268853Y-51798641D01*
X77348632Y-51324270D01*
X77604949Y-50916722D01*
X78017237Y-50627631D01*
X78564929Y-50508628D01*
X78610818Y-50508000D01*
X79153608Y-50613192D01*
X79563664Y-50894261D01*
X79820934Y-51299445D01*
X79905362Y-51776981D01*
X81166525Y-51776981D01*
X81179209Y-51591882D01*
X81041339Y-50931915D01*
X80712538Y-50324051D01*
X80185648Y-49810429D01*
X80019137Y-49699851D01*
X79617459Y-49484410D01*
X79240475Y-49373005D01*
X78768264Y-49334951D01*
X78586500Y-49333250D01*
X77751006Y-49438759D01*
X77751006Y-49438759D01*
G37*
X77751006Y-49438759D02*
X77054333Y-49750957D01*
X76508108Y-50263343D01*
X76278611Y-50623225D01*
X76030986Y-51329905D01*
X76008906Y-52029015D01*
X76185162Y-52687871D01*
X76532545Y-53273790D01*
X77023843Y-53754089D01*
X77631847Y-54096086D01*
X78329348Y-54267097D01*
X79089135Y-54234440D01*
X79255080Y-54198393D01*
X79964512Y-53909999D01*
X80518798Y-53463012D01*
X80910781Y-52899570D01*
X81133304Y-52261814D01*
X81166525Y-51776981D01*
X79905362Y-51776981D01*
X79796895Y-52275109D01*
X79476108Y-52741437D01*
X79062345Y-52990857D01*
X78559216Y-53061990D01*
X78058260Y-52954840D01*
X77721182Y-52741324D01*
X77386180Y-52288203D01*
X77268853Y-51798641D01*
X77348632Y-51324270D01*
X77604949Y-50916722D01*
X78017237Y-50627631D01*
X78564929Y-50508628D01*
X78610818Y-50508000D01*
X79153608Y-50613192D01*
X79563664Y-50894261D01*
X79820934Y-51299445D01*
X79905362Y-51776981D01*
X81166525Y-51776981D01*
X81179209Y-51591882D01*
X81041339Y-50931915D01*
X80712538Y-50324051D01*
X80185648Y-49810429D01*
X80019137Y-49699851D01*
X79617459Y-49484410D01*
X79240475Y-49373005D01*
X78768264Y-49334951D01*
X78586500Y-49333250D01*
X77751006Y-49438759D01*
G36*
X96144250Y-49368029D02*
X95246783Y-49410476D01*
X94570733Y-49539913D01*
X94094485Y-49769509D01*
X93796420Y-50112435D01*
X93654922Y-50581861D01*
X93636000Y-50896081D01*
X93700909Y-51433718D01*
X93925028Y-51821510D01*
X94348830Y-52134006D01*
X94453157Y-52216265D01*
X94463166Y-52332335D01*
X94359424Y-52529607D01*
X94122501Y-52855474D01*
X93974151Y-53047820D01*
X93598280Y-53538691D01*
X93378265Y-53864079D01*
X93312741Y-54057993D01*
X93400342Y-54154442D01*
X93639704Y-54187436D01*
X93928260Y-54191000D01*
X94628694Y-54191000D01*
X95205750Y-53289056D01*
X95782805Y-52387113D01*
X95820653Y-53257306D01*
X95858500Y-54127500D01*
X97065000Y-54204916D01*
X97065000Y-50952500D01*
X95795000Y-50952500D01*
X95780701Y-51306306D01*
X95714896Y-51473915D01*
X95563228Y-51522547D01*
X95502900Y-51524000D01*
X95204349Y-51461264D01*
X95058400Y-51371600D01*
X94899653Y-51066935D01*
X94941027Y-50747337D01*
X95146848Y-50492307D01*
X95481445Y-50381343D01*
X95502900Y-50381000D01*
X95683735Y-50408977D01*
X95769402Y-50537726D01*
X95794258Y-50834467D01*
X95795000Y-50952500D01*
X97065000Y-50952500D01*
X97065000Y-49365000D01*
X96144250Y-49368029D01*
X96144250Y-49368029D01*
G37*
X96144250Y-49368029D02*
X95246783Y-49410476D01*
X94570733Y-49539913D01*
X94094485Y-49769509D01*
X93796420Y-50112435D01*
X93654922Y-50581861D01*
X93636000Y-50896081D01*
X93700909Y-51433718D01*
X93925028Y-51821510D01*
X94348830Y-52134006D01*
X94453157Y-52216265D01*
X94463166Y-52332335D01*
X94359424Y-52529607D01*
X94122501Y-52855474D01*
X93974151Y-53047820D01*
X93598280Y-53538691D01*
X93378265Y-53864079D01*
X93312741Y-54057993D01*
X93400342Y-54154442D01*
X93639704Y-54187436D01*
X93928260Y-54191000D01*
X94628694Y-54191000D01*
X95205750Y-53289056D01*
X95782805Y-52387113D01*
X95820653Y-53257306D01*
X95858500Y-54127500D01*
X97065000Y-54204916D01*
X97065000Y-50952500D01*
X95795000Y-50952500D01*
X95780701Y-51306306D01*
X95714896Y-51473915D01*
X95563228Y-51522547D01*
X95502900Y-51524000D01*
X95204349Y-51461264D01*
X95058400Y-51371600D01*
X94899653Y-51066935D01*
X94941027Y-50747337D01*
X95146848Y-50492307D01*
X95481445Y-50381343D01*
X95502900Y-50381000D01*
X95683735Y-50408977D01*
X95769402Y-50537726D01*
X95794258Y-50834467D01*
X95795000Y-50952500D01*
X97065000Y-50952500D01*
X97065000Y-49365000D01*
X96144250Y-49368029D01*
G36*
X89810668Y-50381000D02*
X91350000Y-50381000D01*
X91350000Y-51270000D01*
X89953000Y-51270000D01*
X89953000Y-52286000D01*
X90651500Y-52286000D01*
X91050842Y-52292559D01*
X91258700Y-52334588D01*
X91337583Y-52445617D01*
X91350000Y-52659174D01*
X91350000Y-52660662D01*
X91337132Y-52872017D01*
X91257836Y-52987945D01*
X91051073Y-53042948D01*
X90655809Y-53071523D01*
X90619750Y-53073412D01*
X89889500Y-53111500D01*
X89889500Y-54127500D01*
X91193522Y-54163717D01*
X91823802Y-54172619D01*
X92237772Y-54155279D01*
X92472107Y-54108173D01*
X92561888Y-54032256D01*
X92580981Y-53855310D01*
X92593795Y-53469299D01*
X92599775Y-52919094D01*
X92598367Y-52249565D01*
X92591367Y-51646538D01*
X92556500Y-49428500D01*
X89889500Y-49428500D01*
X89810668Y-50381000D01*
X89810668Y-50381000D01*
G37*
X89810668Y-50381000D02*
X91350000Y-50381000D01*
X91350000Y-51270000D01*
X89953000Y-51270000D01*
X89953000Y-52286000D01*
X90651500Y-52286000D01*
X91050842Y-52292559D01*
X91258700Y-52334588D01*
X91337583Y-52445617D01*
X91350000Y-52659174D01*
X91350000Y-52660662D01*
X91337132Y-52872017D01*
X91257836Y-52987945D01*
X91051073Y-53042948D01*
X90655809Y-53071523D01*
X90619750Y-53073412D01*
X89889500Y-53111500D01*
X89889500Y-54127500D01*
X91193522Y-54163717D01*
X91823802Y-54172619D01*
X92237772Y-54155279D01*
X92472107Y-54108173D01*
X92561888Y-54032256D01*
X92580981Y-53855310D01*
X92593795Y-53469299D01*
X92599775Y-52919094D01*
X92598367Y-52249565D01*
X92591367Y-51646538D01*
X92556500Y-49428500D01*
X89889500Y-49428500D01*
X89810668Y-50381000D01*
G36*
X86163521Y-50037806D02*
X86020182Y-50416885D01*
X85811385Y-50963930D01*
X85563494Y-51610089D01*
X85302873Y-52286506D01*
X85263061Y-52389555D01*
X85031256Y-52993882D01*
X84836495Y-53510296D01*
X84695315Y-53894280D01*
X84624251Y-54101315D01*
X84619000Y-54123508D01*
X84733197Y-54162277D01*
X85024717Y-54186683D01*
X85244151Y-54191000D01*
X85621587Y-54179408D01*
X85827659Y-54112948D01*
X85944898Y-53944090D01*
X86016000Y-53746500D01*
X86162699Y-53302000D01*
X87917592Y-53302000D01*
X88103316Y-53746500D01*
X88237562Y-54018896D01*
X88399530Y-54148846D01*
X88680620Y-54188606D01*
X88880788Y-54191000D01*
X89237313Y-54182149D01*
X89397937Y-54131279D01*
X89420702Y-54001913D01*
X89391913Y-53869772D01*
X89320816Y-53647807D01*
X89174686Y-53235381D01*
X88970461Y-52678799D01*
X88870798Y-52413000D01*
X87649757Y-52413000D01*
X87078321Y-52413000D01*
X86730757Y-52402578D01*
X86579842Y-52348876D01*
X86568405Y-52218235D01*
X86592967Y-52127250D01*
X86699842Y-51823170D01*
X86853960Y-51436722D01*
X86887275Y-51358386D01*
X87095500Y-50875273D01*
X87372629Y-51644136D01*
X87649757Y-52413000D01*
X88870798Y-52413000D01*
X88725076Y-52024366D01*
X88520895Y-51488522D01*
X87730500Y-49428500D01*
X87075210Y-49390510D01*
X86419919Y-49352520D01*
X86163521Y-50037806D01*
X86163521Y-50037806D01*
G37*
X86163521Y-50037806D02*
X86020182Y-50416885D01*
X85811385Y-50963930D01*
X85563494Y-51610089D01*
X85302873Y-52286506D01*
X85263061Y-52389555D01*
X85031256Y-52993882D01*
X84836495Y-53510296D01*
X84695315Y-53894280D01*
X84624251Y-54101315D01*
X84619000Y-54123508D01*
X84733197Y-54162277D01*
X85024717Y-54186683D01*
X85244151Y-54191000D01*
X85621587Y-54179408D01*
X85827659Y-54112948D01*
X85944898Y-53944090D01*
X86016000Y-53746500D01*
X86162699Y-53302000D01*
X87917592Y-53302000D01*
X88103316Y-53746500D01*
X88237562Y-54018896D01*
X88399530Y-54148846D01*
X88680620Y-54188606D01*
X88880788Y-54191000D01*
X89237313Y-54182149D01*
X89397937Y-54131279D01*
X89420702Y-54001913D01*
X89391913Y-53869772D01*
X89320816Y-53647807D01*
X89174686Y-53235381D01*
X88970461Y-52678799D01*
X88870798Y-52413000D01*
X87649757Y-52413000D01*
X87078321Y-52413000D01*
X86730757Y-52402578D01*
X86579842Y-52348876D01*
X86568405Y-52218235D01*
X86592967Y-52127250D01*
X86699842Y-51823170D01*
X86853960Y-51436722D01*
X86887275Y-51358386D01*
X87095500Y-50875273D01*
X87372629Y-51644136D01*
X87649757Y-52413000D01*
X88870798Y-52413000D01*
X88725076Y-52024366D01*
X88520895Y-51488522D01*
X87730500Y-49428500D01*
X87075210Y-49390510D01*
X86419919Y-49352520D01*
X86163521Y-50037806D01*
G36*
X81555668Y-50381000D02*
X82587000Y-50381000D01*
X82587000Y-54191000D01*
X83857000Y-54191000D01*
X83857000Y-50381000D01*
X84888333Y-50381000D01*
X84848917Y-49904750D01*
X84809500Y-49428500D01*
X81634500Y-49428500D01*
X81555668Y-50381000D01*
X81555668Y-50381000D01*
G37*
X81555668Y-50381000D02*
X82587000Y-50381000D01*
X82587000Y-54191000D01*
X83857000Y-54191000D01*
X83857000Y-50381000D01*
X84888333Y-50381000D01*
X84848917Y-49904750D01*
X84809500Y-49428500D01*
X81634500Y-49428500D01*
X81555668Y-50381000D01*
G36*
X73981505Y-49390726D02*
X73266716Y-49440848D01*
X72757232Y-49522765D01*
X72404742Y-49654220D01*
X72160941Y-49852957D01*
X71983815Y-50124458D01*
X71810613Y-50663358D01*
X71819920Y-51195002D01*
X71996558Y-51655359D01*
X72325352Y-51980401D01*
X72436938Y-52036116D01*
X72794926Y-52184399D01*
X72102963Y-53103755D01*
X71797345Y-53518492D01*
X71560751Y-53856092D01*
X71427819Y-54066333D01*
X71411000Y-54107055D01*
X71525824Y-54153211D01*
X71821773Y-54183701D01*
X72103347Y-54191000D01*
X72795694Y-54191000D01*
X74014500Y-52349500D01*
X74089128Y-54191000D01*
X75221000Y-54191000D01*
X75221000Y-50952500D01*
X74078000Y-50952500D01*
X74066202Y-51304237D01*
X74002305Y-51470856D01*
X73843557Y-51521069D01*
X73722400Y-51524000D01*
X73405076Y-51472536D01*
X73214400Y-51371600D01*
X73087162Y-51124003D01*
X73062000Y-50952500D01*
X73164232Y-50604156D01*
X73459200Y-50413438D01*
X73722400Y-50381000D01*
X73941259Y-50399961D01*
X74044934Y-50502652D01*
X74076177Y-50757784D01*
X74078000Y-50952500D01*
X75221000Y-50952500D01*
X75221000Y-49331040D01*
X73981505Y-49390726D01*
X73981505Y-49390726D01*
G37*
X73981505Y-49390726D02*
X73266716Y-49440848D01*
X72757232Y-49522765D01*
X72404742Y-49654220D01*
X72160941Y-49852957D01*
X71983815Y-50124458D01*
X71810613Y-50663358D01*
X71819920Y-51195002D01*
X71996558Y-51655359D01*
X72325352Y-51980401D01*
X72436938Y-52036116D01*
X72794926Y-52184399D01*
X72102963Y-53103755D01*
X71797345Y-53518492D01*
X71560751Y-53856092D01*
X71427819Y-54066333D01*
X71411000Y-54107055D01*
X71525824Y-54153211D01*
X71821773Y-54183701D01*
X72103347Y-54191000D01*
X72795694Y-54191000D01*
X74014500Y-52349500D01*
X74089128Y-54191000D01*
X75221000Y-54191000D01*
X75221000Y-50952500D01*
X74078000Y-50952500D01*
X74066202Y-51304237D01*
X74002305Y-51470856D01*
X73843557Y-51521069D01*
X73722400Y-51524000D01*
X73405076Y-51472536D01*
X73214400Y-51371600D01*
X73087162Y-51124003D01*
X73062000Y-50952500D01*
X73164232Y-50604156D01*
X73459200Y-50413438D01*
X73722400Y-50381000D01*
X73941259Y-50399961D01*
X74044934Y-50502652D01*
X74076177Y-50757784D01*
X74078000Y-50952500D01*
X75221000Y-50952500D01*
X75221000Y-49331040D01*
X73981505Y-49390726D01*
G36*
X92354741Y-46485309D02*
X92239804Y-46617150D01*
X92239000Y-46634500D01*
X92344880Y-46789642D01*
X92493000Y-46825000D01*
X92699371Y-46878184D01*
X92747000Y-46952000D01*
X92640632Y-47055185D01*
X92493000Y-47079000D01*
X92286144Y-47158409D01*
X92239000Y-47269500D01*
X92344880Y-47424642D01*
X92493000Y-47460000D01*
X92678921Y-47519873D01*
X92744380Y-47742649D01*
X92747000Y-47841000D01*
X92803797Y-48143478D01*
X92937500Y-48222000D01*
X93041002Y-48169718D01*
X93100240Y-47981729D01*
X93125223Y-47611318D01*
X93128000Y-47333000D01*
X93128000Y-46444000D01*
X92683500Y-46444000D01*
X92354741Y-46485309D01*
X92354741Y-46485309D01*
G37*
X92354741Y-46485309D02*
X92239804Y-46617150D01*
X92239000Y-46634500D01*
X92344880Y-46789642D01*
X92493000Y-46825000D01*
X92699371Y-46878184D01*
X92747000Y-46952000D01*
X92640632Y-47055185D01*
X92493000Y-47079000D01*
X92286144Y-47158409D01*
X92239000Y-47269500D01*
X92344880Y-47424642D01*
X92493000Y-47460000D01*
X92678921Y-47519873D01*
X92744380Y-47742649D01*
X92747000Y-47841000D01*
X92803797Y-48143478D01*
X92937500Y-48222000D01*
X93041002Y-48169718D01*
X93100240Y-47981729D01*
X93125223Y-47611318D01*
X93128000Y-47333000D01*
X93128000Y-46444000D01*
X92683500Y-46444000D01*
X92354741Y-46485309D01*
G36*
X90707993Y-46542350D02*
X90360567Y-46789634D01*
X90129376Y-47114198D01*
X90080000Y-47333000D01*
X90166270Y-47602186D01*
X90375545Y-47893733D01*
X90391728Y-47910272D01*
X90792051Y-48161998D01*
X91234106Y-48209079D01*
X91638230Y-48048083D01*
X91731000Y-47968000D01*
X91952220Y-47595598D01*
X91963046Y-47335927D01*
X91511688Y-47335927D01*
X91396718Y-47572420D01*
X91224534Y-47787210D01*
X91069831Y-47819016D01*
X90833651Y-47709531D01*
X90629387Y-47493775D01*
X90609271Y-47228648D01*
X90738008Y-46992687D01*
X90980304Y-46864431D01*
X91205174Y-46882841D01*
X91472896Y-47061166D01*
X91511688Y-47335927D01*
X91963046Y-47335927D01*
X91969161Y-47189263D01*
X91810303Y-46816734D01*
X91504130Y-46545754D01*
X91090228Y-46444000D01*
X90707993Y-46542350D01*
X90707993Y-46542350D01*
G37*
X90707993Y-46542350D02*
X90360567Y-46789634D01*
X90129376Y-47114198D01*
X90080000Y-47333000D01*
X90166270Y-47602186D01*
X90375545Y-47893733D01*
X90391728Y-47910272D01*
X90792051Y-48161998D01*
X91234106Y-48209079D01*
X91638230Y-48048083D01*
X91731000Y-47968000D01*
X91952220Y-47595598D01*
X91963046Y-47335927D01*
X91511688Y-47335927D01*
X91396718Y-47572420D01*
X91224534Y-47787210D01*
X91069831Y-47819016D01*
X90833651Y-47709531D01*
X90629387Y-47493775D01*
X90609271Y-47228648D01*
X90738008Y-46992687D01*
X90980304Y-46864431D01*
X91205174Y-46882841D01*
X91472896Y-47061166D01*
X91511688Y-47335927D01*
X91963046Y-47335927D01*
X91969161Y-47189263D01*
X91810303Y-46816734D01*
X91504130Y-46545754D01*
X91090228Y-46444000D01*
X90707993Y-46542350D01*
G36*
X88980153Y-46517203D02*
X88694786Y-46704066D01*
X88570195Y-46955468D01*
X88642101Y-47222288D01*
X88744976Y-47331735D01*
X88853171Y-47465037D01*
X88818010Y-47631436D01*
X88672828Y-47855285D01*
X88506391Y-48099683D01*
X88486614Y-48200743D01*
X88612517Y-48221809D01*
X88667151Y-48222000D01*
X88928219Y-48124462D01*
X89120299Y-47939741D01*
X89318000Y-47657483D01*
X89318000Y-47939741D01*
X89393437Y-48169807D01*
X89572000Y-48222000D01*
X89705485Y-48198015D01*
X89781957Y-48089855D01*
X89816933Y-47843208D01*
X89825930Y-47403764D01*
X89826000Y-47333000D01*
X89826000Y-47015500D01*
X89318000Y-47015500D01*
X89249424Y-47184507D01*
X89191000Y-47206000D01*
X89078329Y-47103135D01*
X89064000Y-47015500D01*
X89132577Y-46846492D01*
X89191000Y-46825000D01*
X89303672Y-46927864D01*
X89318000Y-47015500D01*
X89826000Y-47015500D01*
X89826000Y-46444000D01*
X89390572Y-46444000D01*
X88980153Y-46517203D01*
X88980153Y-46517203D01*
G37*
X88980153Y-46517203D02*
X88694786Y-46704066D01*
X88570195Y-46955468D01*
X88642101Y-47222288D01*
X88744976Y-47331735D01*
X88853171Y-47465037D01*
X88818010Y-47631436D01*
X88672828Y-47855285D01*
X88506391Y-48099683D01*
X88486614Y-48200743D01*
X88612517Y-48221809D01*
X88667151Y-48222000D01*
X88928219Y-48124462D01*
X89120299Y-47939741D01*
X89318000Y-47657483D01*
X89318000Y-47939741D01*
X89393437Y-48169807D01*
X89572000Y-48222000D01*
X89705485Y-48198015D01*
X89781957Y-48089855D01*
X89816933Y-47843208D01*
X89825930Y-47403764D01*
X89826000Y-47333000D01*
X89826000Y-47015500D01*
X89318000Y-47015500D01*
X89249424Y-47184507D01*
X89191000Y-47206000D01*
X89078329Y-47103135D01*
X89064000Y-47015500D01*
X89132577Y-46846492D01*
X89191000Y-46825000D01*
X89303672Y-46927864D01*
X89318000Y-47015500D01*
X89826000Y-47015500D01*
X89826000Y-46444000D01*
X89390572Y-46444000D01*
X88980153Y-46517203D01*
G36*
X87394673Y-46464393D02*
X87199634Y-46535002D01*
X87159000Y-46634500D01*
X87260660Y-46802872D01*
X87349500Y-46825000D01*
X87464383Y-46887709D01*
X87523530Y-47107754D01*
X87540000Y-47523500D01*
X87551025Y-47927161D01*
X87598692Y-48137447D01*
X87704890Y-48214550D01*
X87794000Y-48222000D01*
X87940787Y-48191681D01*
X88017254Y-48060597D01*
X88045291Y-47768553D01*
X88048000Y-47523500D01*
X88065103Y-47102262D01*
X88125115Y-46885392D01*
X88238500Y-46825000D01*
X88406873Y-46723340D01*
X88429000Y-46634500D01*
X88361021Y-46514701D01*
X88125660Y-46456190D01*
X87794000Y-46444000D01*
X87394673Y-46464393D01*
X87394673Y-46464393D01*
G37*
X87394673Y-46464393D02*
X87199634Y-46535002D01*
X87159000Y-46634500D01*
X87260660Y-46802872D01*
X87349500Y-46825000D01*
X87464383Y-46887709D01*
X87523530Y-47107754D01*
X87540000Y-47523500D01*
X87551025Y-47927161D01*
X87598692Y-48137447D01*
X87704890Y-48214550D01*
X87794000Y-48222000D01*
X87940787Y-48191681D01*
X88017254Y-48060597D01*
X88045291Y-47768553D01*
X88048000Y-47523500D01*
X88065103Y-47102262D01*
X88125115Y-46885392D01*
X88238500Y-46825000D01*
X88406873Y-46723340D01*
X88429000Y-46634500D01*
X88361021Y-46514701D01*
X88125660Y-46456190D01*
X87794000Y-46444000D01*
X87394673Y-46464393D01*
G36*
X85103489Y-46482815D02*
X85004820Y-46630243D01*
X85000000Y-46706558D01*
X85052830Y-46897341D01*
X85240618Y-46892747D01*
X85498988Y-46917202D01*
X85752745Y-47079348D01*
X85886435Y-47300790D01*
X85889000Y-47333000D01*
X85782156Y-47556526D01*
X85538592Y-47732062D01*
X85273761Y-47781215D01*
X85240618Y-47773252D01*
X85050411Y-47770529D01*
X85000000Y-47959441D01*
X85099330Y-48153009D01*
X85344969Y-48227736D01*
X85658398Y-48182960D01*
X85961093Y-48018020D01*
X86016000Y-47968000D01*
X86236477Y-47596037D01*
X86253323Y-47189299D01*
X86095025Y-46816154D01*
X85790069Y-46544967D01*
X85381000Y-46444000D01*
X85103489Y-46482815D01*
X85103489Y-46482815D01*
G37*
X85103489Y-46482815D02*
X85004820Y-46630243D01*
X85000000Y-46706558D01*
X85052830Y-46897341D01*
X85240618Y-46892747D01*
X85498988Y-46917202D01*
X85752745Y-47079348D01*
X85886435Y-47300790D01*
X85889000Y-47333000D01*
X85782156Y-47556526D01*
X85538592Y-47732062D01*
X85273761Y-47781215D01*
X85240618Y-47773252D01*
X85050411Y-47770529D01*
X85000000Y-47959441D01*
X85099330Y-48153009D01*
X85344969Y-48227736D01*
X85658398Y-48182960D01*
X85961093Y-48018020D01*
X86016000Y-47968000D01*
X86236477Y-47596037D01*
X86253323Y-47189299D01*
X86095025Y-46816154D01*
X85790069Y-46544967D01*
X85381000Y-46444000D01*
X85103489Y-46482815D01*
G36*
X83587488Y-46461706D02*
X83213873Y-46661103D01*
X83104218Y-46778627D01*
X82878561Y-47182612D01*
X82894020Y-47545122D01*
X83152475Y-47910020D01*
X83152728Y-47910272D01*
X83553051Y-48161998D01*
X83995106Y-48209079D01*
X84399230Y-48048083D01*
X84492000Y-47968000D01*
X84683192Y-47647631D01*
X84745355Y-47336227D01*
X84256449Y-47336227D01*
X84169462Y-47616484D01*
X83944405Y-47810010D01*
X83880401Y-47830973D01*
X83751254Y-47786904D01*
X83594651Y-47709531D01*
X83388446Y-47493749D01*
X83368117Y-47230431D01*
X83497966Y-46996228D01*
X83742299Y-46867789D01*
X83977906Y-46886565D01*
X84195789Y-47062000D01*
X84256449Y-47336227D01*
X84745355Y-47336227D01*
X84746000Y-47333000D01*
X84640228Y-46909910D01*
X84367397Y-46608642D01*
X83994240Y-46451730D01*
X83587488Y-46461706D01*
X83587488Y-46461706D01*
G37*
X83587488Y-46461706D02*
X83213873Y-46661103D01*
X83104218Y-46778627D01*
X82878561Y-47182612D01*
X82894020Y-47545122D01*
X83152475Y-47910020D01*
X83152728Y-47910272D01*
X83553051Y-48161998D01*
X83995106Y-48209079D01*
X84399230Y-48048083D01*
X84492000Y-47968000D01*
X84683192Y-47647631D01*
X84745355Y-47336227D01*
X84256449Y-47336227D01*
X84169462Y-47616484D01*
X83944405Y-47810010D01*
X83880401Y-47830973D01*
X83751254Y-47786904D01*
X83594651Y-47709531D01*
X83388446Y-47493749D01*
X83368117Y-47230431D01*
X83497966Y-46996228D01*
X83742299Y-46867789D01*
X83977906Y-46886565D01*
X84195789Y-47062000D01*
X84256449Y-47336227D01*
X84745355Y-47336227D01*
X84746000Y-47333000D01*
X84640228Y-46909910D01*
X84367397Y-46608642D01*
X83994240Y-46451730D01*
X83587488Y-46461706D01*
G36*
X82280934Y-46530419D02*
X82207512Y-46812644D01*
X82180887Y-47110750D01*
X82144185Y-47507088D01*
X82072853Y-47715624D01*
X81936573Y-47802517D01*
X81856750Y-47818082D01*
X81601272Y-47906483D01*
X81558009Y-48034705D01*
X81700727Y-48155069D01*
X82003191Y-48219894D01*
X82079000Y-48222000D01*
X82587000Y-48222000D01*
X82587000Y-47333000D01*
X82574986Y-46845854D01*
X82532827Y-46567479D01*
X82451347Y-46453511D01*
X82403137Y-46444000D01*
X82280934Y-46530419D01*
X82280934Y-46530419D01*
G37*
X82280934Y-46530419D02*
X82207512Y-46812644D01*
X82180887Y-47110750D01*
X82144185Y-47507088D01*
X82072853Y-47715624D01*
X81936573Y-47802517D01*
X81856750Y-47818082D01*
X81601272Y-47906483D01*
X81558009Y-48034705D01*
X81700727Y-48155069D01*
X82003191Y-48219894D01*
X82079000Y-48222000D01*
X82587000Y-48222000D01*
X82587000Y-47333000D01*
X82574986Y-46845854D01*
X82532827Y-46567479D01*
X82451347Y-46453511D01*
X82403137Y-46444000D01*
X82280934Y-46530419D01*
G36*
X81043214Y-46474318D02*
X80966747Y-46605402D01*
X80938710Y-46897446D01*
X80936000Y-47142500D01*
X80924976Y-47546161D01*
X80877309Y-47756447D01*
X80771111Y-47833550D01*
X80682000Y-47841000D01*
X80475144Y-47920409D01*
X80428000Y-48031500D01*
X80529561Y-48175625D01*
X80848202Y-48221997D01*
X80851334Y-48222000D01*
X81165140Y-48198765D01*
X81353599Y-48142333D01*
X81359334Y-48137333D01*
X81403403Y-47974921D01*
X81434025Y-47635922D01*
X81444000Y-47248333D01*
X81435670Y-46808555D01*
X81398730Y-46565790D01*
X81315254Y-46463275D01*
X81190000Y-46444000D01*
X81043214Y-46474318D01*
X81043214Y-46474318D01*
G37*
X81043214Y-46474318D02*
X80966747Y-46605402D01*
X80938710Y-46897446D01*
X80936000Y-47142500D01*
X80924976Y-47546161D01*
X80877309Y-47756447D01*
X80771111Y-47833550D01*
X80682000Y-47841000D01*
X80475144Y-47920409D01*
X80428000Y-48031500D01*
X80529561Y-48175625D01*
X80848202Y-48221997D01*
X80851334Y-48222000D01*
X81165140Y-48198765D01*
X81353599Y-48142333D01*
X81359334Y-48137333D01*
X81403403Y-47974921D01*
X81434025Y-47635922D01*
X81444000Y-47248333D01*
X81435670Y-46808555D01*
X81398730Y-46565790D01*
X81315254Y-46463275D01*
X81190000Y-46444000D01*
X81043214Y-46474318D01*
G36*
X79777027Y-46464828D02*
X79703331Y-46564385D01*
X79678672Y-46798278D01*
X79688610Y-47222114D01*
X79691948Y-47299937D01*
X79724756Y-47772842D01*
X79781695Y-48045635D01*
X79878308Y-48172055D01*
X79951750Y-48198249D01*
X80068345Y-48191001D01*
X80135604Y-48080438D01*
X80166499Y-47816606D01*
X80174000Y-47349552D01*
X80174000Y-47342312D01*
X80167529Y-46872659D01*
X80137657Y-46602643D01*
X80068693Y-46478017D01*
X79944951Y-46444534D01*
X79914198Y-46444000D01*
X79777027Y-46464828D01*
X79777027Y-46464828D01*
G37*
X79777027Y-46464828D02*
X79703331Y-46564385D01*
X79678672Y-46798278D01*
X79688610Y-47222114D01*
X79691948Y-47299937D01*
X79724756Y-47772842D01*
X79781695Y-48045635D01*
X79878308Y-48172055D01*
X79951750Y-48198249D01*
X80068345Y-48191001D01*
X80135604Y-48080438D01*
X80166499Y-47816606D01*
X80174000Y-47349552D01*
X80174000Y-47342312D01*
X80167529Y-46872659D01*
X80137657Y-46602643D01*
X80068693Y-46478017D01*
X79944951Y-46444534D01*
X79914198Y-46444000D01*
X79777027Y-46464828D01*
G36*
X78981514Y-46534998D02*
X78703458Y-46766224D01*
X78559519Y-46920244D01*
X78151537Y-47396500D01*
X78146769Y-46920250D01*
X78118573Y-46600218D01*
X78018457Y-46464788D01*
X77888000Y-46444000D01*
X77754516Y-46467984D01*
X77678044Y-46576144D01*
X77643068Y-46822791D01*
X77634071Y-47262235D01*
X77634000Y-47333000D01*
X77642241Y-47803839D01*
X77675941Y-48073739D01*
X77748566Y-48195481D01*
X77860823Y-48222000D01*
X78062712Y-48127137D01*
X78331427Y-47884416D01*
X78495823Y-47690913D01*
X78904000Y-47159826D01*
X78904000Y-47690913D01*
X78923384Y-48032408D01*
X79002557Y-48187415D01*
X79158000Y-48222000D01*
X79291485Y-48198015D01*
X79367957Y-48089855D01*
X79402933Y-47843208D01*
X79411930Y-47403764D01*
X79412000Y-47333000D01*
X79403476Y-46861238D01*
X79369176Y-46590791D01*
X79296007Y-46469292D01*
X79189750Y-46443994D01*
X78981514Y-46534998D01*
X78981514Y-46534998D01*
G37*
X78981514Y-46534998D02*
X78703458Y-46766224D01*
X78559519Y-46920244D01*
X78151537Y-47396500D01*
X78146769Y-46920250D01*
X78118573Y-46600218D01*
X78018457Y-46464788D01*
X77888000Y-46444000D01*
X77754516Y-46467984D01*
X77678044Y-46576144D01*
X77643068Y-46822791D01*
X77634071Y-47262235D01*
X77634000Y-47333000D01*
X77642241Y-47803839D01*
X77675941Y-48073739D01*
X77748566Y-48195481D01*
X77860823Y-48222000D01*
X78062712Y-48127137D01*
X78331427Y-47884416D01*
X78495823Y-47690913D01*
X78904000Y-47159826D01*
X78904000Y-47690913D01*
X78923384Y-48032408D01*
X79002557Y-48187415D01*
X79158000Y-48222000D01*
X79291485Y-48198015D01*
X79367957Y-48089855D01*
X79402933Y-47843208D01*
X79411930Y-47403764D01*
X79412000Y-47333000D01*
X79403476Y-46861238D01*
X79369176Y-46590791D01*
X79296007Y-46469292D01*
X79189750Y-46443994D01*
X78981514Y-46534998D01*
G36*
X76472865Y-46474907D02*
X76427784Y-46489817D01*
X76250047Y-46621921D01*
X76300820Y-46757648D01*
X76559691Y-46850097D01*
X76586250Y-46853890D01*
X76935500Y-46899652D01*
X76583205Y-47074599D01*
X76282837Y-47323368D01*
X76141782Y-47646717D01*
X76189950Y-47961502D01*
X76238369Y-48033149D01*
X76488651Y-48170577D01*
X76856015Y-48210243D01*
X77214116Y-48140268D01*
X77337814Y-48014461D01*
X77279402Y-47873126D01*
X77096423Y-47784896D01*
X76922260Y-47792171D01*
X76679885Y-47800734D01*
X76628783Y-47694021D01*
X76771896Y-47527192D01*
X76903750Y-47445455D01*
X77212322Y-47231786D01*
X77311363Y-46995387D01*
X77285759Y-46809552D01*
X77115015Y-46593385D01*
X76806802Y-46467956D01*
X76472865Y-46474907D01*
X76472865Y-46474907D01*
G37*
X76472865Y-46474907D02*
X76427784Y-46489817D01*
X76250047Y-46621921D01*
X76300820Y-46757648D01*
X76559691Y-46850097D01*
X76586250Y-46853890D01*
X76935500Y-46899652D01*
X76583205Y-47074599D01*
X76282837Y-47323368D01*
X76141782Y-47646717D01*
X76189950Y-47961502D01*
X76238369Y-48033149D01*
X76488651Y-48170577D01*
X76856015Y-48210243D01*
X77214116Y-48140268D01*
X77337814Y-48014461D01*
X77279402Y-47873126D01*
X77096423Y-47784896D01*
X76922260Y-47792171D01*
X76679885Y-47800734D01*
X76628783Y-47694021D01*
X76771896Y-47527192D01*
X76903750Y-47445455D01*
X77212322Y-47231786D01*
X77311363Y-46995387D01*
X77285759Y-46809552D01*
X77115015Y-46593385D01*
X76806802Y-46467956D01*
X76472865Y-46474907D01*
G04 #@! TD*
M02*
