G04 #@! TF.GenerationSoftware,KiCad,Pcbnew,(6.0.9)*
G04 #@! TF.CreationDate,2022-12-13T11:15:51-07:00*
G04 #@! TF.ProjectId,Thermostat1,54686572-6d6f-4737-9461-74312e6b6963,rev?*
G04 #@! TF.SameCoordinates,Original*
G04 #@! TF.FileFunction,Legend,Top*
G04 #@! TF.FilePolarity,Positive*
%FSLAX46Y46*%
G04 Gerber Fmt 4.6, Leading zero omitted, Abs format (unit mm)*
G04 Created by KiCad (PCBNEW (6.0.9)) date 2022-12-13 11:15:51*
%MOMM*%
%LPD*%
G01*
G04 APERTURE LIST*
G04 Aperture macros list*
%AMRoundRect*
0 Rectangle with rounded corners*
0 $1 Rounding radius*
0 $2 $3 $4 $5 $6 $7 $8 $9 X,Y pos of 4 corners*
0 Add a 4 corners polygon primitive as box body*
4,1,4,$2,$3,$4,$5,$6,$7,$8,$9,$2,$3,0*
0 Add four circle primitives for the rounded corners*
1,1,$1+$1,$2,$3*
1,1,$1+$1,$4,$5*
1,1,$1+$1,$6,$7*
1,1,$1+$1,$8,$9*
0 Add four rect primitives between the rounded corners*
20,1,$1+$1,$2,$3,$4,$5,0*
20,1,$1+$1,$4,$5,$6,$7,0*
20,1,$1+$1,$6,$7,$8,$9,0*
20,1,$1+$1,$8,$9,$2,$3,0*%
G04 Aperture macros list end*
%ADD10C,0.508000*%
%ADD11C,0.300000*%
%ADD12C,0.150000*%
%ADD13C,0.120000*%
%ADD14RoundRect,0.051000X-0.800000X0.800000X-0.800000X-0.800000X0.800000X-0.800000X0.800000X0.800000X0*%
%ADD15C,1.702000*%
%ADD16RoundRect,0.301000X-0.400000X-0.625000X0.400000X-0.625000X0.400000X0.625000X-0.400000X0.625000X0*%
%ADD17O,1.952000X3.150000*%
%ADD18C,2.102000*%
%ADD19RoundRect,0.288500X-0.250000X-0.237500X0.250000X-0.237500X0.250000X0.237500X-0.250000X0.237500X0*%
%ADD20RoundRect,0.288500X0.237500X-0.250000X0.237500X0.250000X-0.237500X0.250000X-0.237500X-0.250000X0*%
%ADD21RoundRect,0.051000X0.750000X-0.750000X0.750000X0.750000X-0.750000X0.750000X-0.750000X-0.750000X0*%
%ADD22C,1.602000*%
%ADD23RoundRect,0.288500X0.287500X0.237500X-0.287500X0.237500X-0.287500X-0.237500X0.287500X-0.237500X0*%
%ADD24RoundRect,0.201000X-0.150000X0.587500X-0.150000X-0.587500X0.150000X-0.587500X0.150000X0.587500X0*%
%ADD25RoundRect,0.051000X0.900000X-1.250000X0.900000X1.250000X-0.900000X1.250000X-0.900000X-1.250000X0*%
%ADD26RoundRect,0.301000X-0.475000X0.337500X-0.475000X-0.337500X0.475000X-0.337500X0.475000X0.337500X0*%
%ADD27RoundRect,0.288500X-0.300000X-0.237500X0.300000X-0.237500X0.300000X0.237500X-0.300000X0.237500X0*%
%ADD28RoundRect,0.288500X-0.237500X0.300000X-0.237500X-0.300000X0.237500X-0.300000X0.237500X0.300000X0*%
%ADD29C,5.702000*%
%ADD30RoundRect,0.288500X0.250000X0.237500X-0.250000X0.237500X-0.250000X-0.237500X0.250000X-0.237500X0*%
%ADD31RoundRect,0.201000X-0.587500X-0.150000X0.587500X-0.150000X0.587500X0.150000X-0.587500X0.150000X0*%
%ADD32RoundRect,0.288500X-0.237500X0.250000X-0.237500X-0.250000X0.237500X-0.250000X0.237500X0.250000X0*%
%ADD33RoundRect,0.301000X-0.875000X-1.025000X0.875000X-1.025000X0.875000X1.025000X-0.875000X1.025000X0*%
%ADD34RoundRect,0.301000X0.875000X1.025000X-0.875000X1.025000X-0.875000X-1.025000X0.875000X-1.025000X0*%
%ADD35RoundRect,0.301000X0.337500X0.475000X-0.337500X0.475000X-0.337500X-0.475000X0.337500X-0.475000X0*%
%ADD36RoundRect,0.201000X-0.150000X0.750000X-0.150000X-0.750000X0.150000X-0.750000X0.150000X0.750000X0*%
%ADD37RoundRect,0.288500X0.300000X0.237500X-0.300000X0.237500X-0.300000X-0.237500X0.300000X-0.237500X0*%
%ADD38RoundRect,0.051000X0.700000X0.700000X-0.700000X0.700000X-0.700000X-0.700000X0.700000X-0.700000X0*%
%ADD39C,1.502000*%
%ADD40RoundRect,0.051000X-0.850000X0.850000X-0.850000X-0.850000X0.850000X-0.850000X0.850000X0.850000X0*%
%ADD41O,1.802000X1.802000*%
%ADD42RoundRect,0.051000X0.600000X1.000000X-0.600000X1.000000X-0.600000X-1.000000X0.600000X-1.000000X0*%
%ADD43O,1.302000X2.102000*%
%ADD44RoundRect,0.051000X1.980000X-0.990000X1.980000X0.990000X-1.980000X0.990000X-1.980000X-0.990000X0*%
%ADD45O,4.062000X2.082000*%
%ADD46C,1.952000*%
%ADD47RoundRect,0.051000X0.925000X-0.925000X0.925000X0.925000X-0.925000X0.925000X-0.925000X-0.925000X0*%
G04 APERTURE END LIST*
D10*
X112340571Y-84981142D02*
X112340571Y-85827809D01*
X113671047Y-85827809D02*
X111131047Y-85827809D01*
X111131047Y-84618285D01*
X113671047Y-83287809D02*
X113550095Y-83529714D01*
X113429142Y-83650666D01*
X113187238Y-83771619D01*
X112461523Y-83771619D01*
X112219619Y-83650666D01*
X112098666Y-83529714D01*
X111977714Y-83287809D01*
X111977714Y-82924952D01*
X112098666Y-82683047D01*
X112219619Y-82562095D01*
X112461523Y-82441142D01*
X113187238Y-82441142D01*
X113429142Y-82562095D01*
X113550095Y-82683047D01*
X113671047Y-82924952D01*
X113671047Y-83287809D01*
X113671047Y-81352571D02*
X111977714Y-81352571D01*
X112461523Y-81352571D02*
X112219619Y-81231619D01*
X112098666Y-81110666D01*
X111977714Y-80868761D01*
X111977714Y-80626857D01*
X111977714Y-80143047D02*
X111977714Y-79175428D01*
X111131047Y-79780190D02*
X113308190Y-79780190D01*
X113550095Y-79659238D01*
X113671047Y-79417333D01*
X113671047Y-79175428D01*
X113429142Y-74942095D02*
X113550095Y-75063047D01*
X113671047Y-75425904D01*
X113671047Y-75667809D01*
X113550095Y-76030666D01*
X113308190Y-76272571D01*
X113066285Y-76393523D01*
X112582476Y-76514476D01*
X112219619Y-76514476D01*
X111735809Y-76393523D01*
X111493904Y-76272571D01*
X111252000Y-76030666D01*
X111131047Y-75667809D01*
X111131047Y-75425904D01*
X111252000Y-75063047D01*
X111372952Y-74942095D01*
X113671047Y-73490666D02*
X113550095Y-73732571D01*
X113429142Y-73853523D01*
X113187238Y-73974476D01*
X112461523Y-73974476D01*
X112219619Y-73853523D01*
X112098666Y-73732571D01*
X111977714Y-73490666D01*
X111977714Y-73127809D01*
X112098666Y-72885904D01*
X112219619Y-72764952D01*
X112461523Y-72644000D01*
X113187238Y-72644000D01*
X113429142Y-72764952D01*
X113550095Y-72885904D01*
X113671047Y-73127809D01*
X113671047Y-73490666D01*
X113671047Y-71192571D02*
X113550095Y-71434476D01*
X113308190Y-71555428D01*
X111131047Y-71555428D01*
X113671047Y-69862095D02*
X113550095Y-70104000D01*
X113308190Y-70224952D01*
X111131047Y-70224952D01*
X113671047Y-68894476D02*
X111977714Y-68894476D01*
X111131047Y-68894476D02*
X111252000Y-69015428D01*
X111372952Y-68894476D01*
X111252000Y-68773523D01*
X111131047Y-68894476D01*
X111372952Y-68894476D01*
X111977714Y-67684952D02*
X113671047Y-67684952D01*
X112219619Y-67684952D02*
X112098666Y-67564000D01*
X111977714Y-67322095D01*
X111977714Y-66959238D01*
X112098666Y-66717333D01*
X112340571Y-66596380D01*
X113671047Y-66596380D01*
X113550095Y-65507809D02*
X113671047Y-65265904D01*
X113671047Y-64782095D01*
X113550095Y-64540190D01*
X113308190Y-64419238D01*
X113187238Y-64419238D01*
X112945333Y-64540190D01*
X112824380Y-64782095D01*
X112824380Y-65144952D01*
X112703428Y-65386857D01*
X112461523Y-65507809D01*
X112340571Y-65507809D01*
X112098666Y-65386857D01*
X111977714Y-65144952D01*
X111977714Y-64782095D01*
X112098666Y-64540190D01*
D11*
X60699428Y-61154571D02*
X61556571Y-61154571D01*
X61128000Y-62654571D02*
X61128000Y-61154571D01*
X62056571Y-62654571D02*
X62056571Y-61154571D01*
X62699428Y-62654571D02*
X62699428Y-61868857D01*
X62628000Y-61726000D01*
X62485142Y-61654571D01*
X62270857Y-61654571D01*
X62128000Y-61726000D01*
X62056571Y-61797428D01*
X63985142Y-62583142D02*
X63842285Y-62654571D01*
X63556571Y-62654571D01*
X63413714Y-62583142D01*
X63342285Y-62440285D01*
X63342285Y-61868857D01*
X63413714Y-61726000D01*
X63556571Y-61654571D01*
X63842285Y-61654571D01*
X63985142Y-61726000D01*
X64056571Y-61868857D01*
X64056571Y-62011714D01*
X63342285Y-62154571D01*
X64699428Y-62654571D02*
X64699428Y-61654571D01*
X64699428Y-61940285D02*
X64770857Y-61797428D01*
X64842285Y-61726000D01*
X64985142Y-61654571D01*
X65128000Y-61654571D01*
X65628000Y-62654571D02*
X65628000Y-61654571D01*
X65628000Y-61797428D02*
X65699428Y-61726000D01*
X65842285Y-61654571D01*
X66056571Y-61654571D01*
X66199428Y-61726000D01*
X66270857Y-61868857D01*
X66270857Y-62654571D01*
X66270857Y-61868857D02*
X66342285Y-61726000D01*
X66485142Y-61654571D01*
X66699428Y-61654571D01*
X66842285Y-61726000D01*
X66913714Y-61868857D01*
X66913714Y-62654571D01*
X67842285Y-62654571D02*
X67699428Y-62583142D01*
X67628000Y-62511714D01*
X67556571Y-62368857D01*
X67556571Y-61940285D01*
X67628000Y-61797428D01*
X67699428Y-61726000D01*
X67842285Y-61654571D01*
X68056571Y-61654571D01*
X68199428Y-61726000D01*
X68270857Y-61797428D01*
X68342285Y-61940285D01*
X68342285Y-62368857D01*
X68270857Y-62511714D01*
X68199428Y-62583142D01*
X68056571Y-62654571D01*
X67842285Y-62654571D01*
X68913714Y-62583142D02*
X69056571Y-62654571D01*
X69342285Y-62654571D01*
X69485142Y-62583142D01*
X69556571Y-62440285D01*
X69556571Y-62368857D01*
X69485142Y-62226000D01*
X69342285Y-62154571D01*
X69128000Y-62154571D01*
X68985142Y-62083142D01*
X68913714Y-61940285D01*
X68913714Y-61868857D01*
X68985142Y-61726000D01*
X69128000Y-61654571D01*
X69342285Y-61654571D01*
X69485142Y-61726000D01*
X69985142Y-61654571D02*
X70556571Y-61654571D01*
X70199428Y-61154571D02*
X70199428Y-62440285D01*
X70270857Y-62583142D01*
X70413714Y-62654571D01*
X70556571Y-62654571D01*
X71699428Y-62654571D02*
X71699428Y-61868857D01*
X71628000Y-61726000D01*
X71485142Y-61654571D01*
X71199428Y-61654571D01*
X71056571Y-61726000D01*
X71699428Y-62583142D02*
X71556571Y-62654571D01*
X71199428Y-62654571D01*
X71056571Y-62583142D01*
X70985142Y-62440285D01*
X70985142Y-62297428D01*
X71056571Y-62154571D01*
X71199428Y-62083142D01*
X71556571Y-62083142D01*
X71699428Y-62011714D01*
X72199428Y-61654571D02*
X72770857Y-61654571D01*
X72413714Y-61154571D02*
X72413714Y-62440285D01*
X72485142Y-62583142D01*
X72628000Y-62654571D01*
X72770857Y-62654571D01*
X75270857Y-62654571D02*
X74770857Y-61940285D01*
X74413714Y-62654571D02*
X74413714Y-61154571D01*
X74985142Y-61154571D01*
X75128000Y-61226000D01*
X75199428Y-61297428D01*
X75270857Y-61440285D01*
X75270857Y-61654571D01*
X75199428Y-61797428D01*
X75128000Y-61868857D01*
X74985142Y-61940285D01*
X74413714Y-61940285D01*
X76485142Y-62583142D02*
X76342285Y-62654571D01*
X76056571Y-62654571D01*
X75913714Y-62583142D01*
X75842285Y-62440285D01*
X75842285Y-61868857D01*
X75913714Y-61726000D01*
X76056571Y-61654571D01*
X76342285Y-61654571D01*
X76485142Y-61726000D01*
X76556571Y-61868857D01*
X76556571Y-62011714D01*
X75842285Y-62154571D01*
X77056571Y-61654571D02*
X77413714Y-62654571D01*
X77770857Y-61654571D01*
X79770857Y-61154571D02*
X79913714Y-61154571D01*
X80056571Y-61226000D01*
X80128000Y-61297428D01*
X80199428Y-61440285D01*
X80270857Y-61726000D01*
X80270857Y-62083142D01*
X80199428Y-62368857D01*
X80128000Y-62511714D01*
X80056571Y-62583142D01*
X79913714Y-62654571D01*
X79770857Y-62654571D01*
X79628000Y-62583142D01*
X79556571Y-62511714D01*
X79485142Y-62368857D01*
X79413714Y-62083142D01*
X79413714Y-61726000D01*
X79485142Y-61440285D01*
X79556571Y-61297428D01*
X79628000Y-61226000D01*
X79770857Y-61154571D01*
X80913714Y-62511714D02*
X80985142Y-62583142D01*
X80913714Y-62654571D01*
X80842285Y-62583142D01*
X80913714Y-62511714D01*
X80913714Y-62654571D01*
X81485142Y-61154571D02*
X82413714Y-61154571D01*
X81913714Y-61726000D01*
X82128000Y-61726000D01*
X82270857Y-61797428D01*
X82342285Y-61868857D01*
X82413714Y-62011714D01*
X82413714Y-62368857D01*
X82342285Y-62511714D01*
X82270857Y-62583142D01*
X82128000Y-62654571D01*
X81699428Y-62654571D01*
X81556571Y-62583142D01*
X81485142Y-62511714D01*
D10*
X117674571Y-86831714D02*
X117819714Y-86976857D01*
X117964857Y-87412285D01*
X117964857Y-87702571D01*
X117819714Y-88138000D01*
X117529428Y-88428285D01*
X117239142Y-88573428D01*
X116658571Y-88718571D01*
X116223142Y-88718571D01*
X115642571Y-88573428D01*
X115352285Y-88428285D01*
X115062000Y-88138000D01*
X114916857Y-87702571D01*
X114916857Y-87412285D01*
X115062000Y-86976857D01*
X115207142Y-86831714D01*
X117964857Y-85525428D02*
X115932857Y-85525428D01*
X116513428Y-85525428D02*
X116223142Y-85380285D01*
X116078000Y-85235142D01*
X115932857Y-84944857D01*
X115932857Y-84654571D01*
X117819714Y-82477428D02*
X117964857Y-82767714D01*
X117964857Y-83348285D01*
X117819714Y-83638571D01*
X117529428Y-83783714D01*
X116368285Y-83783714D01*
X116078000Y-83638571D01*
X115932857Y-83348285D01*
X115932857Y-82767714D01*
X116078000Y-82477428D01*
X116368285Y-82332285D01*
X116658571Y-82332285D01*
X116948857Y-83783714D01*
X117964857Y-79719714D02*
X116368285Y-79719714D01*
X116078000Y-79864857D01*
X115932857Y-80155142D01*
X115932857Y-80735714D01*
X116078000Y-81026000D01*
X117819714Y-79719714D02*
X117964857Y-80010000D01*
X117964857Y-80735714D01*
X117819714Y-81026000D01*
X117529428Y-81171142D01*
X117239142Y-81171142D01*
X116948857Y-81026000D01*
X116803714Y-80735714D01*
X116803714Y-80010000D01*
X116658571Y-79719714D01*
X115932857Y-78703714D02*
X115932857Y-77542571D01*
X114916857Y-78268285D02*
X117529428Y-78268285D01*
X117819714Y-78123142D01*
X117964857Y-77832857D01*
X117964857Y-77542571D01*
X117964857Y-76091142D02*
X117819714Y-76381428D01*
X117674571Y-76526571D01*
X117384285Y-76671714D01*
X116513428Y-76671714D01*
X116223142Y-76526571D01*
X116078000Y-76381428D01*
X115932857Y-76091142D01*
X115932857Y-75655714D01*
X116078000Y-75365428D01*
X116223142Y-75220285D01*
X116513428Y-75075142D01*
X117384285Y-75075142D01*
X117674571Y-75220285D01*
X117819714Y-75365428D01*
X117964857Y-75655714D01*
X117964857Y-76091142D01*
X117964857Y-73768857D02*
X115932857Y-73768857D01*
X116513428Y-73768857D02*
X116223142Y-73623714D01*
X116078000Y-73478571D01*
X115932857Y-73188285D01*
X115932857Y-72898000D01*
X117964857Y-69559714D02*
X114916857Y-69559714D01*
X116368285Y-69559714D02*
X116368285Y-67818000D01*
X117964857Y-67818000D02*
X114916857Y-67818000D01*
X115932857Y-65060285D02*
X117964857Y-65060285D01*
X115932857Y-66366571D02*
X117529428Y-66366571D01*
X117819714Y-66221428D01*
X117964857Y-65931142D01*
X117964857Y-65495714D01*
X117819714Y-65205428D01*
X117674571Y-65060285D01*
X117964857Y-63608857D02*
X114916857Y-63608857D01*
X116078000Y-63608857D02*
X115932857Y-63318571D01*
X115932857Y-62738000D01*
X116078000Y-62447714D01*
X116223142Y-62302571D01*
X116513428Y-62157428D01*
X117384285Y-62157428D01*
X117674571Y-62302571D01*
X117819714Y-62447714D01*
X117964857Y-62738000D01*
X117964857Y-63318571D01*
X117819714Y-63608857D01*
D12*
X84929142Y-96930380D02*
X84595809Y-96454190D01*
X84357714Y-96930380D02*
X84357714Y-95930380D01*
X84738666Y-95930380D01*
X84833904Y-95978000D01*
X84881523Y-96025619D01*
X84929142Y-96120857D01*
X84929142Y-96263714D01*
X84881523Y-96358952D01*
X84833904Y-96406571D01*
X84738666Y-96454190D01*
X84357714Y-96454190D01*
X85881523Y-96930380D02*
X85310095Y-96930380D01*
X85595809Y-96930380D02*
X85595809Y-95930380D01*
X85500571Y-96073238D01*
X85405333Y-96168476D01*
X85310095Y-96216095D01*
X86214857Y-95930380D02*
X86881523Y-95930380D01*
X86452952Y-96930380D01*
X84929142Y-102010380D02*
X84595809Y-101534190D01*
X84357714Y-102010380D02*
X84357714Y-101010380D01*
X84738666Y-101010380D01*
X84833904Y-101058000D01*
X84881523Y-101105619D01*
X84929142Y-101200857D01*
X84929142Y-101343714D01*
X84881523Y-101438952D01*
X84833904Y-101486571D01*
X84738666Y-101534190D01*
X84357714Y-101534190D01*
X85881523Y-102010380D02*
X85310095Y-102010380D01*
X85595809Y-102010380D02*
X85595809Y-101010380D01*
X85500571Y-101153238D01*
X85405333Y-101248476D01*
X85310095Y-101296095D01*
X86738666Y-101010380D02*
X86548190Y-101010380D01*
X86452952Y-101058000D01*
X86405333Y-101105619D01*
X86310095Y-101248476D01*
X86262476Y-101438952D01*
X86262476Y-101819904D01*
X86310095Y-101915142D01*
X86357714Y-101962761D01*
X86452952Y-102010380D01*
X86643428Y-102010380D01*
X86738666Y-101962761D01*
X86786285Y-101915142D01*
X86833904Y-101819904D01*
X86833904Y-101581809D01*
X86786285Y-101486571D01*
X86738666Y-101438952D01*
X86643428Y-101391333D01*
X86452952Y-101391333D01*
X86357714Y-101438952D01*
X86310095Y-101486571D01*
X86262476Y-101581809D01*
X65456961Y-80919133D02*
X65504580Y-80776276D01*
X65504580Y-80538180D01*
X65456961Y-80442942D01*
X65409342Y-80395323D01*
X65314104Y-80347704D01*
X65218866Y-80347704D01*
X65123628Y-80395323D01*
X65076009Y-80442942D01*
X65028390Y-80538180D01*
X64980771Y-80728657D01*
X64933152Y-80823895D01*
X64885533Y-80871514D01*
X64790295Y-80919133D01*
X64695057Y-80919133D01*
X64599819Y-80871514D01*
X64552200Y-80823895D01*
X64504580Y-80728657D01*
X64504580Y-80490561D01*
X64552200Y-80347704D01*
X64504580Y-80014371D02*
X65504580Y-79776276D01*
X64790295Y-79585800D01*
X65504580Y-79395323D01*
X64504580Y-79157228D01*
X64837914Y-78347704D02*
X65504580Y-78347704D01*
X64456961Y-78585800D02*
X65171247Y-78823895D01*
X65171247Y-78204847D01*
X34186761Y-51117333D02*
X34234380Y-50974476D01*
X34234380Y-50736380D01*
X34186761Y-50641142D01*
X34139142Y-50593523D01*
X34043904Y-50545904D01*
X33948666Y-50545904D01*
X33853428Y-50593523D01*
X33805809Y-50641142D01*
X33758190Y-50736380D01*
X33710571Y-50926857D01*
X33662952Y-51022095D01*
X33615333Y-51069714D01*
X33520095Y-51117333D01*
X33424857Y-51117333D01*
X33329619Y-51069714D01*
X33282000Y-51022095D01*
X33234380Y-50926857D01*
X33234380Y-50688761D01*
X33282000Y-50545904D01*
X33234380Y-50212571D02*
X34234380Y-49974476D01*
X33520095Y-49784000D01*
X34234380Y-49593523D01*
X33234380Y-49355428D01*
X33234380Y-49069714D02*
X33234380Y-48450666D01*
X33615333Y-48784000D01*
X33615333Y-48641142D01*
X33662952Y-48545904D01*
X33710571Y-48498285D01*
X33805809Y-48450666D01*
X34043904Y-48450666D01*
X34139142Y-48498285D01*
X34186761Y-48545904D01*
X34234380Y-48641142D01*
X34234380Y-48926857D01*
X34186761Y-49022095D01*
X34139142Y-49069714D01*
X34440761Y-34861333D02*
X34488380Y-34718476D01*
X34488380Y-34480380D01*
X34440761Y-34385142D01*
X34393142Y-34337523D01*
X34297904Y-34289904D01*
X34202666Y-34289904D01*
X34107428Y-34337523D01*
X34059809Y-34385142D01*
X34012190Y-34480380D01*
X33964571Y-34670857D01*
X33916952Y-34766095D01*
X33869333Y-34813714D01*
X33774095Y-34861333D01*
X33678857Y-34861333D01*
X33583619Y-34813714D01*
X33536000Y-34766095D01*
X33488380Y-34670857D01*
X33488380Y-34432761D01*
X33536000Y-34289904D01*
X33488380Y-33956571D02*
X34488380Y-33718476D01*
X33774095Y-33528000D01*
X34488380Y-33337523D01*
X33488380Y-33099428D01*
X33583619Y-32766095D02*
X33536000Y-32718476D01*
X33488380Y-32623238D01*
X33488380Y-32385142D01*
X33536000Y-32289904D01*
X33583619Y-32242285D01*
X33678857Y-32194666D01*
X33774095Y-32194666D01*
X33916952Y-32242285D01*
X34488380Y-32813714D01*
X34488380Y-32194666D01*
X27836761Y-42760733D02*
X27884380Y-42617876D01*
X27884380Y-42379780D01*
X27836761Y-42284542D01*
X27789142Y-42236923D01*
X27693904Y-42189304D01*
X27598666Y-42189304D01*
X27503428Y-42236923D01*
X27455809Y-42284542D01*
X27408190Y-42379780D01*
X27360571Y-42570257D01*
X27312952Y-42665495D01*
X27265333Y-42713114D01*
X27170095Y-42760733D01*
X27074857Y-42760733D01*
X26979619Y-42713114D01*
X26932000Y-42665495D01*
X26884380Y-42570257D01*
X26884380Y-42332161D01*
X26932000Y-42189304D01*
X26884380Y-41855971D02*
X27884380Y-41617876D01*
X27170095Y-41427400D01*
X27884380Y-41236923D01*
X26884380Y-40998828D01*
X27884380Y-40094066D02*
X27884380Y-40665495D01*
X27884380Y-40379780D02*
X26884380Y-40379780D01*
X27027238Y-40475019D01*
X27122476Y-40570257D01*
X27170095Y-40665495D01*
X82486833Y-78016380D02*
X82153500Y-77540190D01*
X81915404Y-78016380D02*
X81915404Y-77016380D01*
X82296357Y-77016380D01*
X82391595Y-77064000D01*
X82439214Y-77111619D01*
X82486833Y-77206857D01*
X82486833Y-77349714D01*
X82439214Y-77444952D01*
X82391595Y-77492571D01*
X82296357Y-77540190D01*
X81915404Y-77540190D01*
X83058261Y-77444952D02*
X82963023Y-77397333D01*
X82915404Y-77349714D01*
X82867785Y-77254476D01*
X82867785Y-77206857D01*
X82915404Y-77111619D01*
X82963023Y-77064000D01*
X83058261Y-77016380D01*
X83248738Y-77016380D01*
X83343976Y-77064000D01*
X83391595Y-77111619D01*
X83439214Y-77206857D01*
X83439214Y-77254476D01*
X83391595Y-77349714D01*
X83343976Y-77397333D01*
X83248738Y-77444952D01*
X83058261Y-77444952D01*
X82963023Y-77492571D01*
X82915404Y-77540190D01*
X82867785Y-77635428D01*
X82867785Y-77825904D01*
X82915404Y-77921142D01*
X82963023Y-77968761D01*
X83058261Y-78016380D01*
X83248738Y-78016380D01*
X83343976Y-77968761D01*
X83391595Y-77921142D01*
X83439214Y-77825904D01*
X83439214Y-77635428D01*
X83391595Y-77540190D01*
X83343976Y-77492571D01*
X83248738Y-77444952D01*
X55316380Y-74842666D02*
X54840190Y-75176000D01*
X55316380Y-75414095D02*
X54316380Y-75414095D01*
X54316380Y-75033142D01*
X54364000Y-74937904D01*
X54411619Y-74890285D01*
X54506857Y-74842666D01*
X54649714Y-74842666D01*
X54744952Y-74890285D01*
X54792571Y-74937904D01*
X54840190Y-75033142D01*
X54840190Y-75414095D01*
X54316380Y-74509333D02*
X54316380Y-73842666D01*
X55316380Y-74271238D01*
X64460380Y-74842666D02*
X63984190Y-75176000D01*
X64460380Y-75414095D02*
X63460380Y-75414095D01*
X63460380Y-75033142D01*
X63508000Y-74937904D01*
X63555619Y-74890285D01*
X63650857Y-74842666D01*
X63793714Y-74842666D01*
X63888952Y-74890285D01*
X63936571Y-74937904D01*
X63984190Y-75033142D01*
X63984190Y-75414095D01*
X63460380Y-73985523D02*
X63460380Y-74176000D01*
X63508000Y-74271238D01*
X63555619Y-74318857D01*
X63698476Y-74414095D01*
X63888952Y-74461714D01*
X64269904Y-74461714D01*
X64365142Y-74414095D01*
X64412761Y-74366476D01*
X64460380Y-74271238D01*
X64460380Y-74080761D01*
X64412761Y-73985523D01*
X64365142Y-73937904D01*
X64269904Y-73890285D01*
X64031809Y-73890285D01*
X63936571Y-73937904D01*
X63888952Y-73985523D01*
X63841333Y-74080761D01*
X63841333Y-74271238D01*
X63888952Y-74366476D01*
X63936571Y-74414095D01*
X64031809Y-74461714D01*
X83907333Y-71572380D02*
X83574000Y-71096190D01*
X83335904Y-71572380D02*
X83335904Y-70572380D01*
X83716857Y-70572380D01*
X83812095Y-70620000D01*
X83859714Y-70667619D01*
X83907333Y-70762857D01*
X83907333Y-70905714D01*
X83859714Y-71000952D01*
X83812095Y-71048571D01*
X83716857Y-71096190D01*
X83335904Y-71096190D01*
X84812095Y-70572380D02*
X84335904Y-70572380D01*
X84288285Y-71048571D01*
X84335904Y-71000952D01*
X84431142Y-70953333D01*
X84669238Y-70953333D01*
X84764476Y-71000952D01*
X84812095Y-71048571D01*
X84859714Y-71143809D01*
X84859714Y-71381904D01*
X84812095Y-71477142D01*
X84764476Y-71524761D01*
X84669238Y-71572380D01*
X84431142Y-71572380D01*
X84335904Y-71524761D01*
X84288285Y-71477142D01*
X83907333Y-74112380D02*
X83574000Y-73636190D01*
X83335904Y-74112380D02*
X83335904Y-73112380D01*
X83716857Y-73112380D01*
X83812095Y-73160000D01*
X83859714Y-73207619D01*
X83907333Y-73302857D01*
X83907333Y-73445714D01*
X83859714Y-73540952D01*
X83812095Y-73588571D01*
X83716857Y-73636190D01*
X83335904Y-73636190D01*
X84764476Y-73445714D02*
X84764476Y-74112380D01*
X84526380Y-73064761D02*
X84288285Y-73779047D01*
X84907333Y-73779047D01*
X37282380Y-74842666D02*
X36806190Y-75176000D01*
X37282380Y-75414095D02*
X36282380Y-75414095D01*
X36282380Y-75033142D01*
X36330000Y-74937904D01*
X36377619Y-74890285D01*
X36472857Y-74842666D01*
X36615714Y-74842666D01*
X36710952Y-74890285D01*
X36758571Y-74937904D01*
X36806190Y-75033142D01*
X36806190Y-75414095D01*
X36282380Y-74509333D02*
X36282380Y-73890285D01*
X36663333Y-74223619D01*
X36663333Y-74080761D01*
X36710952Y-73985523D01*
X36758571Y-73937904D01*
X36853809Y-73890285D01*
X37091904Y-73890285D01*
X37187142Y-73937904D01*
X37234761Y-73985523D01*
X37282380Y-74080761D01*
X37282380Y-74366476D01*
X37234761Y-74461714D01*
X37187142Y-74509333D01*
X39568380Y-74842666D02*
X39092190Y-75176000D01*
X39568380Y-75414095D02*
X38568380Y-75414095D01*
X38568380Y-75033142D01*
X38616000Y-74937904D01*
X38663619Y-74890285D01*
X38758857Y-74842666D01*
X38901714Y-74842666D01*
X38996952Y-74890285D01*
X39044571Y-74937904D01*
X39092190Y-75033142D01*
X39092190Y-75414095D01*
X38663619Y-74461714D02*
X38616000Y-74414095D01*
X38568380Y-74318857D01*
X38568380Y-74080761D01*
X38616000Y-73985523D01*
X38663619Y-73937904D01*
X38758857Y-73890285D01*
X38854095Y-73890285D01*
X38996952Y-73937904D01*
X39568380Y-74509333D01*
X39568380Y-73890285D01*
X57348380Y-74889666D02*
X56872190Y-75223000D01*
X57348380Y-75461095D02*
X56348380Y-75461095D01*
X56348380Y-75080142D01*
X56396000Y-74984904D01*
X56443619Y-74937285D01*
X56538857Y-74889666D01*
X56681714Y-74889666D01*
X56776952Y-74937285D01*
X56824571Y-74984904D01*
X56872190Y-75080142D01*
X56872190Y-75461095D01*
X57348380Y-73937285D02*
X57348380Y-74508714D01*
X57348380Y-74223000D02*
X56348380Y-74223000D01*
X56491238Y-74318238D01*
X56586476Y-74413476D01*
X56634095Y-74508714D01*
X54506761Y-80919133D02*
X54554380Y-80776276D01*
X54554380Y-80538180D01*
X54506761Y-80442942D01*
X54459142Y-80395323D01*
X54363904Y-80347704D01*
X54268666Y-80347704D01*
X54173428Y-80395323D01*
X54125809Y-80442942D01*
X54078190Y-80538180D01*
X54030571Y-80728657D01*
X53982952Y-80823895D01*
X53935333Y-80871514D01*
X53840095Y-80919133D01*
X53744857Y-80919133D01*
X53649619Y-80871514D01*
X53602000Y-80823895D01*
X53554380Y-80728657D01*
X53554380Y-80490561D01*
X53602000Y-80347704D01*
X53554380Y-80014371D02*
X54554380Y-79776276D01*
X53840095Y-79585800D01*
X54554380Y-79395323D01*
X53554380Y-79157228D01*
X53554380Y-78300085D02*
X53554380Y-78776276D01*
X54030571Y-78823895D01*
X53982952Y-78776276D01*
X53935333Y-78681038D01*
X53935333Y-78442942D01*
X53982952Y-78347704D01*
X54030571Y-78300085D01*
X54125809Y-78252466D01*
X54363904Y-78252466D01*
X54459142Y-78300085D01*
X54506761Y-78347704D01*
X54554380Y-78442942D01*
X54554380Y-78681038D01*
X54506761Y-78776276D01*
X54459142Y-78823895D01*
X26884380Y-107441904D02*
X27693904Y-107441904D01*
X27789142Y-107394285D01*
X27836761Y-107346666D01*
X27884380Y-107251428D01*
X27884380Y-107060952D01*
X27836761Y-106965714D01*
X27789142Y-106918095D01*
X27693904Y-106870476D01*
X26884380Y-106870476D01*
X27884380Y-105870476D02*
X27884380Y-106441904D01*
X27884380Y-106156190D02*
X26884380Y-106156190D01*
X27027238Y-106251428D01*
X27122476Y-106346666D01*
X27170095Y-106441904D01*
X96797904Y-73350380D02*
X96797904Y-72350380D01*
X97036000Y-72350380D01*
X97178857Y-72398000D01*
X97274095Y-72493238D01*
X97321714Y-72588476D01*
X97369333Y-72778952D01*
X97369333Y-72921809D01*
X97321714Y-73112285D01*
X97274095Y-73207523D01*
X97178857Y-73302761D01*
X97036000Y-73350380D01*
X96797904Y-73350380D01*
X97750285Y-72445619D02*
X97797904Y-72398000D01*
X97893142Y-72350380D01*
X98131238Y-72350380D01*
X98226476Y-72398000D01*
X98274095Y-72445619D01*
X98321714Y-72540857D01*
X98321714Y-72636095D01*
X98274095Y-72778952D01*
X97702666Y-73350380D01*
X98321714Y-73350380D01*
X96874104Y-82494380D02*
X96874104Y-81494380D01*
X97112200Y-81494380D01*
X97255057Y-81542000D01*
X97350295Y-81637238D01*
X97397914Y-81732476D01*
X97445533Y-81922952D01*
X97445533Y-82065809D01*
X97397914Y-82256285D01*
X97350295Y-82351523D01*
X97255057Y-82446761D01*
X97112200Y-82494380D01*
X96874104Y-82494380D01*
X98397914Y-82494380D02*
X97826485Y-82494380D01*
X98112200Y-82494380D02*
X98112200Y-81494380D01*
X98016961Y-81637238D01*
X97921723Y-81732476D01*
X97826485Y-81780095D01*
X90463619Y-85439238D02*
X90416000Y-85534476D01*
X90320761Y-85629714D01*
X90177904Y-85772571D01*
X90130285Y-85867809D01*
X90130285Y-85963047D01*
X90368380Y-85915428D02*
X90320761Y-86010666D01*
X90225523Y-86105904D01*
X90035047Y-86153523D01*
X89701714Y-86153523D01*
X89511238Y-86105904D01*
X89416000Y-86010666D01*
X89368380Y-85915428D01*
X89368380Y-85724952D01*
X89416000Y-85629714D01*
X89511238Y-85534476D01*
X89701714Y-85486857D01*
X90035047Y-85486857D01*
X90225523Y-85534476D01*
X90320761Y-85629714D01*
X90368380Y-85724952D01*
X90368380Y-85915428D01*
X90368380Y-84534476D02*
X90368380Y-85105904D01*
X90368380Y-84820190D02*
X89368380Y-84820190D01*
X89511238Y-84915428D01*
X89606476Y-85010666D01*
X89654095Y-85105904D01*
X83510380Y-90908095D02*
X82510380Y-90908095D01*
X82510380Y-90670000D01*
X82558000Y-90527142D01*
X82653238Y-90431904D01*
X82748476Y-90384285D01*
X82938952Y-90336666D01*
X83081809Y-90336666D01*
X83272285Y-90384285D01*
X83367523Y-90431904D01*
X83462761Y-90527142D01*
X83510380Y-90670000D01*
X83510380Y-90908095D01*
X82843714Y-89479523D02*
X83510380Y-89479523D01*
X82462761Y-89717619D02*
X83177047Y-89955714D01*
X83177047Y-89336666D01*
X59031142Y-63158666D02*
X59078761Y-63206285D01*
X59126380Y-63349142D01*
X59126380Y-63444380D01*
X59078761Y-63587238D01*
X58983523Y-63682476D01*
X58888285Y-63730095D01*
X58697809Y-63777714D01*
X58554952Y-63777714D01*
X58364476Y-63730095D01*
X58269238Y-63682476D01*
X58174000Y-63587238D01*
X58126380Y-63444380D01*
X58126380Y-63349142D01*
X58174000Y-63206285D01*
X58221619Y-63158666D01*
X59126380Y-62682476D02*
X59126380Y-62492000D01*
X59078761Y-62396761D01*
X59031142Y-62349142D01*
X58888285Y-62253904D01*
X58697809Y-62206285D01*
X58316857Y-62206285D01*
X58221619Y-62253904D01*
X58174000Y-62301523D01*
X58126380Y-62396761D01*
X58126380Y-62587238D01*
X58174000Y-62682476D01*
X58221619Y-62730095D01*
X58316857Y-62777714D01*
X58554952Y-62777714D01*
X58650190Y-62730095D01*
X58697809Y-62682476D01*
X58745428Y-62587238D01*
X58745428Y-62396761D01*
X58697809Y-62301523D01*
X58650190Y-62253904D01*
X58554952Y-62206285D01*
X69175333Y-89003142D02*
X69127714Y-89050761D01*
X68984857Y-89098380D01*
X68889619Y-89098380D01*
X68746761Y-89050761D01*
X68651523Y-88955523D01*
X68603904Y-88860285D01*
X68556285Y-88669809D01*
X68556285Y-88526952D01*
X68603904Y-88336476D01*
X68651523Y-88241238D01*
X68746761Y-88146000D01*
X68889619Y-88098380D01*
X68984857Y-88098380D01*
X69127714Y-88146000D01*
X69175333Y-88193619D01*
X70032476Y-88098380D02*
X69842000Y-88098380D01*
X69746761Y-88146000D01*
X69699142Y-88193619D01*
X69603904Y-88336476D01*
X69556285Y-88526952D01*
X69556285Y-88907904D01*
X69603904Y-89003142D01*
X69651523Y-89050761D01*
X69746761Y-89098380D01*
X69937238Y-89098380D01*
X70032476Y-89050761D01*
X70080095Y-89003142D01*
X70127714Y-88907904D01*
X70127714Y-88669809D01*
X70080095Y-88574571D01*
X70032476Y-88526952D01*
X69937238Y-88479333D01*
X69746761Y-88479333D01*
X69651523Y-88526952D01*
X69603904Y-88574571D01*
X69556285Y-88669809D01*
X52681142Y-63312166D02*
X52728761Y-63359785D01*
X52776380Y-63502642D01*
X52776380Y-63597880D01*
X52728761Y-63740738D01*
X52633523Y-63835976D01*
X52538285Y-63883595D01*
X52347809Y-63931214D01*
X52204952Y-63931214D01*
X52014476Y-63883595D01*
X51919238Y-63835976D01*
X51824000Y-63740738D01*
X51776380Y-63597880D01*
X51776380Y-63502642D01*
X51824000Y-63359785D01*
X51871619Y-63312166D01*
X52204952Y-62740738D02*
X52157333Y-62835976D01*
X52109714Y-62883595D01*
X52014476Y-62931214D01*
X51966857Y-62931214D01*
X51871619Y-62883595D01*
X51824000Y-62835976D01*
X51776380Y-62740738D01*
X51776380Y-62550261D01*
X51824000Y-62455023D01*
X51871619Y-62407404D01*
X51966857Y-62359785D01*
X52014476Y-62359785D01*
X52109714Y-62407404D01*
X52157333Y-62455023D01*
X52204952Y-62550261D01*
X52204952Y-62740738D01*
X52252571Y-62835976D01*
X52300190Y-62883595D01*
X52395428Y-62931214D01*
X52585904Y-62931214D01*
X52681142Y-62883595D01*
X52728761Y-62835976D01*
X52776380Y-62740738D01*
X52776380Y-62550261D01*
X52728761Y-62455023D01*
X52681142Y-62407404D01*
X52585904Y-62359785D01*
X52395428Y-62359785D01*
X52300190Y-62407404D01*
X52252571Y-62455023D01*
X52204952Y-62550261D01*
X37592095Y-102052380D02*
X37592095Y-101052380D01*
X37592095Y-101528571D02*
X38163523Y-101528571D01*
X38163523Y-102052380D02*
X38163523Y-101052380D01*
X39068285Y-101385714D02*
X39068285Y-102052380D01*
X38830190Y-101004761D02*
X38592095Y-101719047D01*
X39211142Y-101719047D01*
X28688833Y-57347142D02*
X28641214Y-57394761D01*
X28498357Y-57442380D01*
X28403119Y-57442380D01*
X28260261Y-57394761D01*
X28165023Y-57299523D01*
X28117404Y-57204285D01*
X28069785Y-57013809D01*
X28069785Y-56870952D01*
X28117404Y-56680476D01*
X28165023Y-56585238D01*
X28260261Y-56490000D01*
X28403119Y-56442380D01*
X28498357Y-56442380D01*
X28641214Y-56490000D01*
X28688833Y-56537619D01*
X29593595Y-56442380D02*
X29117404Y-56442380D01*
X29069785Y-56918571D01*
X29117404Y-56870952D01*
X29212642Y-56823333D01*
X29450738Y-56823333D01*
X29545976Y-56870952D01*
X29593595Y-56918571D01*
X29641214Y-57013809D01*
X29641214Y-57251904D01*
X29593595Y-57347142D01*
X29545976Y-57394761D01*
X29450738Y-57442380D01*
X29212642Y-57442380D01*
X29117404Y-57394761D01*
X29069785Y-57347142D01*
X88765142Y-81732380D02*
X88431809Y-81256190D01*
X88193714Y-81732380D02*
X88193714Y-80732380D01*
X88574666Y-80732380D01*
X88669904Y-80780000D01*
X88717523Y-80827619D01*
X88765142Y-80922857D01*
X88765142Y-81065714D01*
X88717523Y-81160952D01*
X88669904Y-81208571D01*
X88574666Y-81256190D01*
X88193714Y-81256190D01*
X89717523Y-81732380D02*
X89146095Y-81732380D01*
X89431809Y-81732380D02*
X89431809Y-80732380D01*
X89336571Y-80875238D01*
X89241333Y-80970476D01*
X89146095Y-81018095D01*
X90336571Y-80732380D02*
X90431809Y-80732380D01*
X90527047Y-80780000D01*
X90574666Y-80827619D01*
X90622285Y-80922857D01*
X90669904Y-81113333D01*
X90669904Y-81351428D01*
X90622285Y-81541904D01*
X90574666Y-81637142D01*
X90527047Y-81684761D01*
X90431809Y-81732380D01*
X90336571Y-81732380D01*
X90241333Y-81684761D01*
X90193714Y-81637142D01*
X90146095Y-81541904D01*
X90098476Y-81351428D01*
X90098476Y-81113333D01*
X90146095Y-80922857D01*
X90193714Y-80827619D01*
X90241333Y-80780000D01*
X90336571Y-80732380D01*
X86010761Y-80619119D02*
X85915523Y-80571500D01*
X85820285Y-80476261D01*
X85677428Y-80333404D01*
X85582190Y-80285785D01*
X85486952Y-80285785D01*
X85534571Y-80523880D02*
X85439333Y-80476261D01*
X85344095Y-80381023D01*
X85296476Y-80190547D01*
X85296476Y-79857214D01*
X85344095Y-79666738D01*
X85439333Y-79571500D01*
X85534571Y-79523880D01*
X85725047Y-79523880D01*
X85820285Y-79571500D01*
X85915523Y-79666738D01*
X85963142Y-79857214D01*
X85963142Y-80190547D01*
X85915523Y-80381023D01*
X85820285Y-80476261D01*
X85725047Y-80523880D01*
X85534571Y-80523880D01*
X86344095Y-79619119D02*
X86391714Y-79571500D01*
X86486952Y-79523880D01*
X86725047Y-79523880D01*
X86820285Y-79571500D01*
X86867904Y-79619119D01*
X86915523Y-79714357D01*
X86915523Y-79809595D01*
X86867904Y-79952452D01*
X86296476Y-80523880D01*
X86915523Y-80523880D01*
X62428380Y-75826857D02*
X61952190Y-76160190D01*
X62428380Y-76398285D02*
X61428380Y-76398285D01*
X61428380Y-76017333D01*
X61476000Y-75922095D01*
X61523619Y-75874476D01*
X61618857Y-75826857D01*
X61761714Y-75826857D01*
X61856952Y-75874476D01*
X61904571Y-75922095D01*
X61952190Y-76017333D01*
X61952190Y-76398285D01*
X62428380Y-74874476D02*
X62428380Y-75445904D01*
X62428380Y-75160190D02*
X61428380Y-75160190D01*
X61571238Y-75255428D01*
X61666476Y-75350666D01*
X61714095Y-75445904D01*
X61428380Y-74541142D02*
X61428380Y-73922095D01*
X61809333Y-74255428D01*
X61809333Y-74112571D01*
X61856952Y-74017333D01*
X61904571Y-73969714D01*
X61999809Y-73922095D01*
X62237904Y-73922095D01*
X62333142Y-73969714D01*
X62380761Y-74017333D01*
X62428380Y-74112571D01*
X62428380Y-74398285D01*
X62380761Y-74493523D01*
X62333142Y-74541142D01*
X35814095Y-32456380D02*
X35814095Y-31456380D01*
X35814095Y-31932571D02*
X36385523Y-31932571D01*
X36385523Y-32456380D02*
X36385523Y-31456380D01*
X37385523Y-32456380D02*
X36814095Y-32456380D01*
X37099809Y-32456380D02*
X37099809Y-31456380D01*
X37004571Y-31599238D01*
X36909333Y-31694476D01*
X36814095Y-31742095D01*
X58507333Y-101703142D02*
X58459714Y-101750761D01*
X58316857Y-101798380D01*
X58221619Y-101798380D01*
X58078761Y-101750761D01*
X57983523Y-101655523D01*
X57935904Y-101560285D01*
X57888285Y-101369809D01*
X57888285Y-101226952D01*
X57935904Y-101036476D01*
X57983523Y-100941238D01*
X58078761Y-100846000D01*
X58221619Y-100798380D01*
X58316857Y-100798380D01*
X58459714Y-100846000D01*
X58507333Y-100893619D01*
X59459714Y-101798380D02*
X58888285Y-101798380D01*
X59174000Y-101798380D02*
X59174000Y-100798380D01*
X59078761Y-100941238D01*
X58983523Y-101036476D01*
X58888285Y-101084095D01*
X34647142Y-100718857D02*
X34694761Y-100766476D01*
X34742380Y-100909333D01*
X34742380Y-101004571D01*
X34694761Y-101147428D01*
X34599523Y-101242666D01*
X34504285Y-101290285D01*
X34313809Y-101337904D01*
X34170952Y-101337904D01*
X33980476Y-101290285D01*
X33885238Y-101242666D01*
X33790000Y-101147428D01*
X33742380Y-101004571D01*
X33742380Y-100909333D01*
X33790000Y-100766476D01*
X33837619Y-100718857D01*
X34742380Y-99766476D02*
X34742380Y-100337904D01*
X34742380Y-100052190D02*
X33742380Y-100052190D01*
X33885238Y-100147428D01*
X33980476Y-100242666D01*
X34028095Y-100337904D01*
X33837619Y-99385523D02*
X33790000Y-99337904D01*
X33742380Y-99242666D01*
X33742380Y-99004571D01*
X33790000Y-98909333D01*
X33837619Y-98861714D01*
X33932857Y-98814095D01*
X34028095Y-98814095D01*
X34170952Y-98861714D01*
X34742380Y-99433142D01*
X34742380Y-98814095D01*
X93710380Y-90914695D02*
X92710380Y-90914695D01*
X92710380Y-90676600D01*
X92758000Y-90533742D01*
X92853238Y-90438504D01*
X92948476Y-90390885D01*
X93138952Y-90343266D01*
X93281809Y-90343266D01*
X93472285Y-90390885D01*
X93567523Y-90438504D01*
X93662761Y-90533742D01*
X93710380Y-90676600D01*
X93710380Y-90914695D01*
X92710380Y-90009933D02*
X92710380Y-89390885D01*
X93091333Y-89724219D01*
X93091333Y-89581361D01*
X93138952Y-89486123D01*
X93186571Y-89438504D01*
X93281809Y-89390885D01*
X93519904Y-89390885D01*
X93615142Y-89438504D01*
X93662761Y-89486123D01*
X93710380Y-89581361D01*
X93710380Y-89867076D01*
X93662761Y-89962314D01*
X93615142Y-90009933D01*
X46569333Y-101703142D02*
X46521714Y-101750761D01*
X46378857Y-101798380D01*
X46283619Y-101798380D01*
X46140761Y-101750761D01*
X46045523Y-101655523D01*
X45997904Y-101560285D01*
X45950285Y-101369809D01*
X45950285Y-101226952D01*
X45997904Y-101036476D01*
X46045523Y-100941238D01*
X46140761Y-100846000D01*
X46283619Y-100798380D01*
X46378857Y-100798380D01*
X46521714Y-100846000D01*
X46569333Y-100893619D01*
X46950285Y-100893619D02*
X46997904Y-100846000D01*
X47093142Y-100798380D01*
X47331238Y-100798380D01*
X47426476Y-100846000D01*
X47474095Y-100893619D01*
X47521714Y-100988857D01*
X47521714Y-101084095D01*
X47474095Y-101226952D01*
X46902666Y-101798380D01*
X47521714Y-101798380D01*
X60396380Y-75826857D02*
X59920190Y-76160190D01*
X60396380Y-76398285D02*
X59396380Y-76398285D01*
X59396380Y-76017333D01*
X59444000Y-75922095D01*
X59491619Y-75874476D01*
X59586857Y-75826857D01*
X59729714Y-75826857D01*
X59824952Y-75874476D01*
X59872571Y-75922095D01*
X59920190Y-76017333D01*
X59920190Y-76398285D01*
X60396380Y-74874476D02*
X60396380Y-75445904D01*
X60396380Y-75160190D02*
X59396380Y-75160190D01*
X59539238Y-75255428D01*
X59634476Y-75350666D01*
X59682095Y-75445904D01*
X59729714Y-74017333D02*
X60396380Y-74017333D01*
X59348761Y-74255428D02*
X60063047Y-74493523D01*
X60063047Y-73874476D01*
X111506095Y-91384380D02*
X111506095Y-90384380D01*
X111506095Y-90860571D02*
X112077523Y-90860571D01*
X112077523Y-91384380D02*
X112077523Y-90384380D01*
X113029904Y-90384380D02*
X112553714Y-90384380D01*
X112506095Y-90860571D01*
X112553714Y-90812952D01*
X112648952Y-90765333D01*
X112887047Y-90765333D01*
X112982285Y-90812952D01*
X113029904Y-90860571D01*
X113077523Y-90955809D01*
X113077523Y-91193904D01*
X113029904Y-91289142D01*
X112982285Y-91336761D01*
X112887047Y-91384380D01*
X112648952Y-91384380D01*
X112553714Y-91336761D01*
X112506095Y-91289142D01*
X37949142Y-87442166D02*
X37996761Y-87489785D01*
X38044380Y-87632642D01*
X38044380Y-87727880D01*
X37996761Y-87870738D01*
X37901523Y-87965976D01*
X37806285Y-88013595D01*
X37615809Y-88061214D01*
X37472952Y-88061214D01*
X37282476Y-88013595D01*
X37187238Y-87965976D01*
X37092000Y-87870738D01*
X37044380Y-87727880D01*
X37044380Y-87632642D01*
X37092000Y-87489785D01*
X37139619Y-87442166D01*
X37044380Y-87108833D02*
X37044380Y-86442166D01*
X38044380Y-86870738D01*
X35052095Y-59634380D02*
X35052095Y-58634380D01*
X35052095Y-59110571D02*
X35623523Y-59110571D01*
X35623523Y-59634380D02*
X35623523Y-58634380D01*
X36052095Y-58729619D02*
X36099714Y-58682000D01*
X36194952Y-58634380D01*
X36433047Y-58634380D01*
X36528285Y-58682000D01*
X36575904Y-58729619D01*
X36623523Y-58824857D01*
X36623523Y-58920095D01*
X36575904Y-59062952D01*
X36004476Y-59634380D01*
X36623523Y-59634380D01*
X91694095Y-62174380D02*
X91694095Y-61174380D01*
X91694095Y-61650571D02*
X92265523Y-61650571D01*
X92265523Y-62174380D02*
X92265523Y-61174380D01*
X92646476Y-61174380D02*
X93265523Y-61174380D01*
X92932190Y-61555333D01*
X93075047Y-61555333D01*
X93170285Y-61602952D01*
X93217904Y-61650571D01*
X93265523Y-61745809D01*
X93265523Y-61983904D01*
X93217904Y-62079142D01*
X93170285Y-62126761D01*
X93075047Y-62174380D01*
X92789333Y-62174380D01*
X92694095Y-62126761D01*
X92646476Y-62079142D01*
X32377142Y-88495142D02*
X32329523Y-88542761D01*
X32186666Y-88590380D01*
X32091428Y-88590380D01*
X31948571Y-88542761D01*
X31853333Y-88447523D01*
X31805714Y-88352285D01*
X31758095Y-88161809D01*
X31758095Y-88018952D01*
X31805714Y-87828476D01*
X31853333Y-87733238D01*
X31948571Y-87638000D01*
X32091428Y-87590380D01*
X32186666Y-87590380D01*
X32329523Y-87638000D01*
X32377142Y-87685619D01*
X33329523Y-88590380D02*
X32758095Y-88590380D01*
X33043809Y-88590380D02*
X33043809Y-87590380D01*
X32948571Y-87733238D01*
X32853333Y-87828476D01*
X32758095Y-87876095D01*
X33948571Y-87590380D02*
X34043809Y-87590380D01*
X34139047Y-87638000D01*
X34186666Y-87685619D01*
X34234285Y-87780857D01*
X34281904Y-87971333D01*
X34281904Y-88209428D01*
X34234285Y-88399904D01*
X34186666Y-88495142D01*
X34139047Y-88542761D01*
X34043809Y-88590380D01*
X33948571Y-88590380D01*
X33853333Y-88542761D01*
X33805714Y-88495142D01*
X33758095Y-88399904D01*
X33710476Y-88209428D01*
X33710476Y-87971333D01*
X33758095Y-87780857D01*
X33805714Y-87685619D01*
X33853333Y-87638000D01*
X33948571Y-87590380D01*
X79806380Y-103608095D02*
X78806380Y-103608095D01*
X78806380Y-103370000D01*
X78854000Y-103227142D01*
X78949238Y-103131904D01*
X79044476Y-103084285D01*
X79234952Y-103036666D01*
X79377809Y-103036666D01*
X79568285Y-103084285D01*
X79663523Y-103131904D01*
X79758761Y-103227142D01*
X79806380Y-103370000D01*
X79806380Y-103608095D01*
X78806380Y-102131904D02*
X78806380Y-102608095D01*
X79282571Y-102655714D01*
X79234952Y-102608095D01*
X79187333Y-102512857D01*
X79187333Y-102274761D01*
X79234952Y-102179523D01*
X79282571Y-102131904D01*
X79377809Y-102084285D01*
X79615904Y-102084285D01*
X79711142Y-102131904D01*
X79758761Y-102179523D01*
X79806380Y-102274761D01*
X79806380Y-102512857D01*
X79758761Y-102608095D01*
X79711142Y-102655714D01*
X91813142Y-79032380D02*
X91479809Y-78556190D01*
X91241714Y-79032380D02*
X91241714Y-78032380D01*
X91622666Y-78032380D01*
X91717904Y-78080000D01*
X91765523Y-78127619D01*
X91813142Y-78222857D01*
X91813142Y-78365714D01*
X91765523Y-78460952D01*
X91717904Y-78508571D01*
X91622666Y-78556190D01*
X91241714Y-78556190D01*
X92765523Y-79032380D02*
X92194095Y-79032380D01*
X92479809Y-79032380D02*
X92479809Y-78032380D01*
X92384571Y-78175238D01*
X92289333Y-78270476D01*
X92194095Y-78318095D01*
X93146476Y-78127619D02*
X93194095Y-78080000D01*
X93289333Y-78032380D01*
X93527428Y-78032380D01*
X93622666Y-78080000D01*
X93670285Y-78127619D01*
X93717904Y-78222857D01*
X93717904Y-78318095D01*
X93670285Y-78460952D01*
X93098857Y-79032380D01*
X93717904Y-79032380D01*
X32123142Y-90527142D02*
X32075523Y-90574761D01*
X31932666Y-90622380D01*
X31837428Y-90622380D01*
X31694571Y-90574761D01*
X31599333Y-90479523D01*
X31551714Y-90384285D01*
X31504095Y-90193809D01*
X31504095Y-90050952D01*
X31551714Y-89860476D01*
X31599333Y-89765238D01*
X31694571Y-89670000D01*
X31837428Y-89622380D01*
X31932666Y-89622380D01*
X32075523Y-89670000D01*
X32123142Y-89717619D01*
X33075523Y-90622380D02*
X32504095Y-90622380D01*
X32789809Y-90622380D02*
X32789809Y-89622380D01*
X32694571Y-89765238D01*
X32599333Y-89860476D01*
X32504095Y-89908095D01*
X34027904Y-90622380D02*
X33456476Y-90622380D01*
X33742190Y-90622380D02*
X33742190Y-89622380D01*
X33646952Y-89765238D01*
X33551714Y-89860476D01*
X33456476Y-89908095D01*
X80462380Y-81414857D02*
X79986190Y-81748190D01*
X80462380Y-81986285D02*
X79462380Y-81986285D01*
X79462380Y-81605333D01*
X79510000Y-81510095D01*
X79557619Y-81462476D01*
X79652857Y-81414857D01*
X79795714Y-81414857D01*
X79890952Y-81462476D01*
X79938571Y-81510095D01*
X79986190Y-81605333D01*
X79986190Y-81986285D01*
X80462380Y-80462476D02*
X80462380Y-81033904D01*
X80462380Y-80748190D02*
X79462380Y-80748190D01*
X79605238Y-80843428D01*
X79700476Y-80938666D01*
X79748095Y-81033904D01*
X80462380Y-79510095D02*
X80462380Y-80081523D01*
X80462380Y-79795809D02*
X79462380Y-79795809D01*
X79605238Y-79891047D01*
X79700476Y-79986285D01*
X79748095Y-80081523D01*
D13*
X84844936Y-97388000D02*
X86299064Y-97388000D01*
X84844936Y-99208000D02*
X86299064Y-99208000D01*
X84844936Y-102468000D02*
X86299064Y-102468000D01*
X84844936Y-104288000D02*
X86299064Y-104288000D01*
X68782200Y-85565800D02*
X66062200Y-85565800D01*
X66062200Y-85565800D02*
X66062200Y-73265800D01*
X75642200Y-73265800D02*
X78362200Y-73265800D01*
X66062200Y-73265800D02*
X68782200Y-73265800D01*
X73782200Y-85565800D02*
X70642200Y-85565800D01*
X78362200Y-85565800D02*
X75642200Y-85565800D01*
X78362200Y-73265800D02*
X78362200Y-85565800D01*
X70642200Y-73265800D02*
X73782200Y-73265800D01*
X76831250Y-79315800D02*
G75*
G03*
X76831250Y-79315800I-4579050J0D01*
G01*
X29909200Y-48163600D02*
X28409200Y-48163600D01*
X25909200Y-49413600D02*
X25909200Y-53913600D01*
X28409200Y-55163600D02*
X29909200Y-55163600D01*
X32409200Y-53913600D02*
X32409200Y-49413600D01*
X29909200Y-27665800D02*
X28409200Y-27665800D01*
X25909200Y-28915800D02*
X25909200Y-33415800D01*
X32409200Y-33415800D02*
X32409200Y-28915800D01*
X28409200Y-34665800D02*
X29909200Y-34665800D01*
X35406400Y-43677400D02*
X35406400Y-39177400D01*
X31406400Y-44927400D02*
X32906400Y-44927400D01*
X32906400Y-37927400D02*
X31406400Y-37927400D01*
X28906400Y-39177400D02*
X28906400Y-43677400D01*
X82398776Y-79516500D02*
X82908224Y-79516500D01*
X82398776Y-78471500D02*
X82908224Y-78471500D01*
X55386500Y-72033224D02*
X55386500Y-71523776D01*
X54341500Y-72033224D02*
X54341500Y-71523776D01*
X64530500Y-72033224D02*
X64530500Y-71523776D01*
X63485500Y-72033224D02*
X63485500Y-71523776D01*
X87130936Y-70972000D02*
X88585064Y-70972000D01*
X87130936Y-72792000D02*
X88585064Y-72792000D01*
X87080136Y-75560600D02*
X88534264Y-75560600D01*
X87080136Y-73740600D02*
X88534264Y-73740600D01*
X36307500Y-72033224D02*
X36307500Y-71523776D01*
X37352500Y-72033224D02*
X37352500Y-71523776D01*
X39638500Y-72033224D02*
X39638500Y-71523776D01*
X38593500Y-72033224D02*
X38593500Y-71523776D01*
X57418500Y-72033224D02*
X57418500Y-71523776D01*
X56373500Y-72033224D02*
X56373500Y-71523776D01*
X48382200Y-85565800D02*
X45242200Y-85565800D01*
X45242200Y-73265800D02*
X48382200Y-73265800D01*
X50242200Y-73265800D02*
X52962200Y-73265800D01*
X52962200Y-85565800D02*
X50242200Y-85565800D01*
X52962200Y-73265800D02*
X52962200Y-85565800D01*
X40662200Y-85565800D02*
X40662200Y-73265800D01*
X43382200Y-85565800D02*
X40662200Y-85565800D01*
X40662200Y-73265800D02*
X43382200Y-73265800D01*
X51431250Y-79315800D02*
G75*
G03*
X51431250Y-79315800I-4579050J0D01*
G01*
X31314000Y-103654000D02*
X31314000Y-100054000D01*
X26864000Y-101854000D02*
G75*
G03*
X28365193Y-104210400I2600000J0D01*
G01*
X28365193Y-99497600D02*
G75*
G03*
X26864000Y-101854000I1098807J-2356400D01*
G01*
X30586795Y-104178184D02*
G75*
G03*
X31314000Y-103654000I-1122795J2324184D01*
G01*
X31314000Y-100054000D02*
G75*
G03*
X30586795Y-99529816I-1850000J-1800000D01*
G01*
X96812200Y-75411000D02*
X99272200Y-75411000D01*
X99272200Y-75411000D02*
X99272200Y-73941000D01*
X99272200Y-73941000D02*
X96812200Y-73941000D01*
X96812200Y-84936000D02*
X99272200Y-84936000D01*
X99272200Y-84936000D02*
X99272200Y-83466000D01*
X99272200Y-83466000D02*
X96812200Y-83466000D01*
X94270000Y-84660500D02*
X94270000Y-85310500D01*
X91150000Y-84660500D02*
X91150000Y-85310500D01*
X91150000Y-84660500D02*
X91150000Y-84010500D01*
X94270000Y-84660500D02*
X94270000Y-82985500D01*
X83948000Y-91760000D02*
X83948000Y-86360000D01*
X83948000Y-91760000D02*
X87248000Y-91760000D01*
X87248000Y-91760000D02*
X87248000Y-86360000D01*
X56161000Y-62963248D02*
X56161000Y-63485752D01*
X57631000Y-62963248D02*
X57631000Y-63485752D01*
X72143233Y-89156000D02*
X72435767Y-89156000D01*
X72143233Y-88136000D02*
X72435767Y-88136000D01*
X53338000Y-62999233D02*
X53338000Y-63291767D01*
X54358000Y-62999233D02*
X54358000Y-63291767D01*
X28709233Y-58930000D02*
X29001767Y-58930000D01*
X28709233Y-57910000D02*
X29001767Y-57910000D01*
X92814224Y-81265500D02*
X92304776Y-81265500D01*
X92814224Y-82310500D02*
X92304776Y-82310500D01*
X84582000Y-80911500D02*
X82907000Y-80911500D01*
X84582000Y-84031500D02*
X83932000Y-84031500D01*
X84582000Y-84031500D02*
X85232000Y-84031500D01*
X84582000Y-80911500D02*
X85232000Y-80911500D01*
X61453500Y-71476776D02*
X61453500Y-71986224D01*
X62498500Y-71476776D02*
X62498500Y-71986224D01*
X58915000Y-106908000D02*
X67150000Y-106908000D01*
X67150000Y-102388000D02*
X58915000Y-102388000D01*
X58915000Y-102388000D02*
X58915000Y-106908000D01*
X32256000Y-100183733D02*
X32256000Y-100476267D01*
X33276000Y-100183733D02*
X33276000Y-100476267D01*
G36*
X33212224Y-71249929D02*
G01*
X33714667Y-71285019D01*
X34213505Y-71354593D01*
X34460384Y-71404348D01*
X34550288Y-71425167D01*
X34721339Y-71494374D01*
X34877313Y-71592965D01*
X35013213Y-71717781D01*
X35124686Y-71864825D01*
X35168258Y-71946174D01*
X35208380Y-72029250D01*
X35261678Y-72205853D01*
X35282670Y-72389124D01*
X35270687Y-72573204D01*
X35226111Y-72752207D01*
X35190110Y-72837150D01*
X35155509Y-72915479D01*
X35091147Y-73074184D01*
X35061416Y-73154488D01*
X34993929Y-73345693D01*
X34887931Y-73737104D01*
X34815664Y-74136123D01*
X34777653Y-74539847D01*
X34774176Y-74945342D01*
X34787600Y-75147663D01*
X34806192Y-75356503D01*
X34875919Y-75769971D01*
X34982253Y-76175571D01*
X35124349Y-76570066D01*
X35301071Y-76950312D01*
X35404034Y-77132955D01*
X35510408Y-77313815D01*
X35750795Y-77657757D01*
X36020909Y-77978880D01*
X36318595Y-78274624D01*
X36478555Y-78410413D01*
X34669410Y-78561261D01*
X34666817Y-78429090D01*
X34625463Y-78168003D01*
X34543776Y-77916600D01*
X34423767Y-77681070D01*
X34268391Y-77467214D01*
X34081473Y-77280296D01*
X33867617Y-77124920D01*
X33632087Y-77004911D01*
X33380684Y-76923224D01*
X33119597Y-76881870D01*
X32987426Y-76879277D01*
X32855255Y-76881870D01*
X32594169Y-76923224D01*
X32342765Y-77004911D01*
X32107236Y-77124921D01*
X31893379Y-77280297D01*
X31706462Y-77467214D01*
X31551086Y-77681071D01*
X31431076Y-77916600D01*
X31349389Y-78168004D01*
X31308035Y-78429090D01*
X31305442Y-78561261D01*
X30503749Y-77127492D01*
X30606255Y-76945931D01*
X30782799Y-76568175D01*
X30856326Y-76373071D01*
X30932163Y-76157146D01*
X31046331Y-75713938D01*
X31116698Y-75261703D01*
X31142592Y-74804760D01*
X31135947Y-74576001D01*
X31124089Y-74351008D01*
X31063185Y-73904564D01*
X30960384Y-73465869D01*
X30816604Y-73038846D01*
X30727269Y-72832009D01*
X30691453Y-72746971D01*
X30647298Y-72567834D01*
X30635798Y-72383693D01*
X30657323Y-72200454D01*
X30711180Y-72023991D01*
X30751581Y-71941033D01*
X30795300Y-71859790D01*
X30907040Y-71713011D01*
X31043170Y-71588517D01*
X31199323Y-71490302D01*
X31370491Y-71421515D01*
X31460422Y-71400921D01*
X31707370Y-71351854D01*
X32206246Y-71283532D01*
X32708625Y-71249479D01*
X32960393Y-71247553D01*
X33212224Y-71249929D01*
G37*
G36*
X31305442Y-78561261D02*
G01*
X31308035Y-78693432D01*
X31349387Y-78954519D01*
X31431073Y-79205923D01*
X31551082Y-79441454D01*
X31706458Y-79655311D01*
X31893376Y-79842229D01*
X32107233Y-79997605D01*
X32342764Y-80117614D01*
X32594168Y-80199300D01*
X32855255Y-80240652D01*
X32987426Y-80243245D01*
X33119597Y-80240652D01*
X33380684Y-80199299D01*
X33632088Y-80117613D01*
X33867618Y-79997604D01*
X34081474Y-79842227D01*
X34268392Y-79655309D01*
X34423769Y-79441453D01*
X34543778Y-79205923D01*
X34625464Y-78954519D01*
X34666817Y-78693432D01*
X34669410Y-78561261D01*
X36478555Y-78410413D01*
X36635699Y-78537926D01*
X36968226Y-78768625D01*
X37319301Y-78969979D01*
X37686340Y-79140505D01*
X37875757Y-79211743D01*
X38059401Y-79276566D01*
X38434981Y-79379681D01*
X38817713Y-79451852D01*
X39011177Y-79474190D01*
X39102672Y-79485668D01*
X39279784Y-79536922D01*
X39444926Y-79618919D01*
X39592811Y-79729034D01*
X39718705Y-79863742D01*
X39770375Y-79940118D01*
X39818890Y-80018568D01*
X39890198Y-80188658D01*
X39930053Y-80368733D01*
X39937179Y-80553028D01*
X39911348Y-80735643D01*
X39884332Y-80823837D01*
X39866025Y-80879430D01*
X39827701Y-80990037D01*
X39807689Y-81045039D01*
X39709636Y-81306199D01*
X39479006Y-81814191D01*
X39210193Y-82303054D01*
X38904773Y-82769921D01*
X38564535Y-83212058D01*
X38379987Y-83421249D01*
X38316943Y-83488504D01*
X38171433Y-83601647D01*
X38008102Y-83687073D01*
X37832171Y-83742052D01*
X37649262Y-83764826D01*
X37557128Y-83761790D01*
X37465214Y-83754985D01*
X37285809Y-83712855D01*
X37116767Y-83639468D01*
X36963484Y-83537166D01*
X36830857Y-83409218D01*
X36775332Y-83335655D01*
X36635427Y-83146736D01*
X36323911Y-82794626D01*
X35979088Y-82475064D01*
X35604340Y-82191186D01*
X35203344Y-81945777D01*
X34780036Y-81741246D01*
X34560291Y-81657723D01*
X34366335Y-81589403D01*
X33969118Y-81482887D01*
X33564127Y-81411407D01*
X33154447Y-81375508D01*
X32948822Y-81373303D01*
X32722000Y-81375441D01*
X32270368Y-81417976D01*
X31824935Y-81503830D01*
X31389847Y-81632203D01*
X30969152Y-81801901D01*
X30766700Y-81904204D01*
X30573088Y-82008086D01*
X30203930Y-82246426D01*
X29858334Y-82517805D01*
X29539247Y-82819909D01*
X29249390Y-83150161D01*
X29118260Y-83326463D01*
X29062566Y-83399973D01*
X28929600Y-83527744D01*
X28775982Y-83629758D01*
X28606635Y-83702746D01*
X28426988Y-83744367D01*
X28334993Y-83750884D01*
X28242862Y-83753711D01*
X28060024Y-83730510D01*
X27884250Y-83675093D01*
X27721167Y-83589234D01*
X27575998Y-83475683D01*
X27513161Y-83408246D01*
X27346694Y-83219084D01*
X27037311Y-82821295D01*
X26756129Y-82403094D01*
X26504491Y-81966479D01*
X26283597Y-81513532D01*
X26094502Y-81046416D01*
X26014279Y-80807549D01*
X25987488Y-80719305D01*
X25962146Y-80536657D01*
X25969761Y-80352417D01*
X26010089Y-80172484D01*
X26081838Y-80002618D01*
X26130555Y-79924314D01*
X26182444Y-79848084D01*
X26308703Y-79713710D01*
X26456842Y-79603927D01*
X26622140Y-79522232D01*
X26799330Y-79471230D01*
X26890841Y-79459857D01*
X27109201Y-79435177D01*
X27540440Y-79350506D01*
X27962001Y-79226320D01*
X28370271Y-79063681D01*
X28761751Y-78863984D01*
X28948745Y-78748556D01*
X29138949Y-78624852D01*
X29497070Y-78346214D01*
X29826631Y-78034317D01*
X30124555Y-77692072D01*
X30388061Y-77322675D01*
X30503749Y-77127492D01*
X31305442Y-78561261D01*
G37*
X94108000Y-93576600D02*
X97408000Y-93576600D01*
X94108000Y-93576600D02*
X94108000Y-88176600D01*
X97408000Y-93576600D02*
X97408000Y-88176600D01*
X48014000Y-106908000D02*
X56249000Y-106908000D01*
X56249000Y-102388000D02*
X48014000Y-102388000D01*
X56249000Y-106908000D02*
X56249000Y-102388000D01*
X59421500Y-71476776D02*
X59421500Y-71986224D01*
X60466500Y-71476776D02*
X60466500Y-71986224D01*
X39626000Y-87129233D02*
X39626000Y-87421767D01*
X38606000Y-87129233D02*
X38606000Y-87421767D01*
X29725252Y-87403000D02*
X29202748Y-87403000D01*
X29725252Y-88873000D02*
X29202748Y-88873000D01*
X78514000Y-102870000D02*
X78514000Y-105180000D01*
X74394000Y-105180000D02*
X74624000Y-105180000D01*
X74394000Y-100560000D02*
X74624000Y-100560000D01*
X78514000Y-102870000D02*
X78514000Y-100560000D01*
X78514000Y-105180000D02*
X78284000Y-105180000D01*
X78514000Y-100560000D02*
X78284000Y-100560000D01*
X78284000Y-100560000D02*
X78284000Y-98820000D01*
X74394000Y-102870000D02*
X74394000Y-105180000D01*
X74394000Y-102870000D02*
X74394000Y-100560000D01*
X92201276Y-80532500D02*
X92710724Y-80532500D01*
X92201276Y-79487500D02*
X92710724Y-79487500D01*
X29356267Y-90680000D02*
X29063733Y-90680000D01*
X29356267Y-89660000D02*
X29063733Y-89660000D01*
X81011500Y-82701224D02*
X81011500Y-82191776D01*
X82056500Y-82701224D02*
X82056500Y-82191776D01*
%LPC*%
D14*
X72898000Y-98806000D03*
D15*
X72898000Y-103806000D03*
D16*
X84022000Y-98298000D03*
X87122000Y-98298000D03*
X84022000Y-103378000D03*
X87122000Y-103378000D03*
D14*
X72898000Y-100362000D03*
D15*
X72898000Y-102362000D03*
D17*
X69712200Y-85665800D03*
X69712200Y-73165800D03*
X74712200Y-85665800D03*
X74712200Y-73165800D03*
D18*
X26909200Y-48413600D03*
X26909200Y-54913600D03*
X31409200Y-48413600D03*
X31409200Y-54913600D03*
X26909200Y-34415800D03*
X26909200Y-27915800D03*
X31409200Y-27915800D03*
X31409200Y-34415800D03*
X29906400Y-38177400D03*
X29906400Y-44677400D03*
X34406400Y-38177400D03*
X34406400Y-44677400D03*
D19*
X81741000Y-78994000D03*
X83566000Y-78994000D03*
D20*
X54864000Y-72691000D03*
X54864000Y-70866000D03*
X64008000Y-72691000D03*
X64008000Y-70866000D03*
D16*
X86308000Y-71882000D03*
X89408000Y-71882000D03*
X86257200Y-74650600D03*
X89357200Y-74650600D03*
D20*
X36830000Y-72691000D03*
X36830000Y-70866000D03*
X39116000Y-72691000D03*
X39116000Y-70866000D03*
X56896000Y-72691000D03*
X56896000Y-70866000D03*
D17*
X44312200Y-85665800D03*
X44312200Y-73165800D03*
X49312200Y-73165800D03*
X49312200Y-85665800D03*
D21*
X29464000Y-104394000D03*
D22*
X29464000Y-101854000D03*
X29464000Y-99314000D03*
D23*
X98487200Y-74676000D03*
X96737200Y-74676000D03*
X98487200Y-84201000D03*
X96737200Y-84201000D03*
D24*
X93660000Y-83723000D03*
X91760000Y-83723000D03*
X92710000Y-85598000D03*
D25*
X85598000Y-90360000D03*
X85598000Y-86360000D03*
D26*
X56896000Y-62187000D03*
X56896000Y-64262000D03*
D27*
X71427000Y-88646000D03*
X73152000Y-88646000D03*
D28*
X53848000Y-62283000D03*
X53848000Y-64008000D03*
D29*
X35636200Y-104724200D03*
D27*
X27993000Y-58420000D03*
X29718000Y-58420000D03*
D30*
X93472000Y-81788000D03*
X91647000Y-81788000D03*
D31*
X83644500Y-81521500D03*
X83644500Y-83421500D03*
X85519500Y-82471500D03*
D32*
X61976000Y-70819000D03*
X61976000Y-72644000D03*
D29*
X35636200Y-27914600D03*
D33*
X60300000Y-104648000D03*
X66700000Y-104648000D03*
D28*
X32766000Y-99467500D03*
X32766000Y-101192500D03*
D25*
X95758000Y-92176600D03*
X95758000Y-88176600D03*
D34*
X54864000Y-104648000D03*
X48464000Y-104648000D03*
D32*
X59944000Y-70819000D03*
X59944000Y-72644000D03*
D29*
X115189000Y-94234000D03*
D28*
X39116000Y-86413000D03*
X39116000Y-88138000D03*
D29*
X35636200Y-54914800D03*
X88900000Y-64185800D03*
D35*
X30501500Y-88138000D03*
X28426500Y-88138000D03*
D36*
X77724000Y-99720000D03*
X75184000Y-99720000D03*
X75184000Y-106020000D03*
X77724000Y-106020000D03*
D19*
X91543500Y-80010000D03*
X93368500Y-80010000D03*
D37*
X30072500Y-90170000D03*
X28347500Y-90170000D03*
D20*
X81534000Y-83359000D03*
X81534000Y-81534000D03*
D38*
X100330000Y-88138000D03*
D39*
X100330000Y-95758000D03*
X100330000Y-100828000D03*
X100330000Y-105918000D03*
X92700000Y-105928000D03*
X92700000Y-100848000D03*
X92710000Y-95758000D03*
X92710000Y-88138000D03*
D40*
X41656000Y-62230000D03*
D41*
X44196000Y-62230000D03*
X46736000Y-62230000D03*
X49276000Y-62230000D03*
D40*
X106172000Y-92202000D03*
D41*
X108712000Y-92202000D03*
D42*
X72641280Y-92964000D03*
D43*
X70101280Y-92964000D03*
X67561280Y-92964000D03*
X65021280Y-92964000D03*
X62481280Y-92964000D03*
X59941280Y-92964000D03*
X57401280Y-92964000D03*
X54861280Y-92964000D03*
X52321280Y-92964000D03*
X49781280Y-92964000D03*
X47241280Y-92964000D03*
X44701280Y-92964000D03*
X42161280Y-92964000D03*
X39621280Y-92964000D03*
X37081280Y-92964000D03*
X34541280Y-92964000D03*
X32001280Y-92964000D03*
X29461280Y-92964000D03*
X26921280Y-92964000D03*
X26924000Y-67567680D03*
X29464000Y-67567680D03*
X32001280Y-67564000D03*
X34541280Y-67564000D03*
X37081280Y-67564000D03*
X39621280Y-67564000D03*
X42161280Y-67564000D03*
X44701280Y-67564000D03*
X47241280Y-67564000D03*
X49781280Y-67564000D03*
X52321280Y-67564000D03*
X54861280Y-67564000D03*
X57401280Y-67564000D03*
X59941280Y-67564000D03*
X62481280Y-67564000D03*
X65021280Y-67564000D03*
X67561280Y-67564000D03*
X70101280Y-67564000D03*
X72641280Y-67564000D03*
D44*
X106680000Y-80946000D03*
D45*
X106680000Y-75946000D03*
X106680000Y-70946000D03*
X106680000Y-65946000D03*
D46*
X47777400Y-99237800D03*
X50317400Y-99237800D03*
X52857400Y-99237800D03*
X55397400Y-99237800D03*
X60477400Y-99237800D03*
X63017400Y-99237800D03*
D47*
X65557400Y-99237800D03*
D38*
X89408000Y-88138000D03*
D39*
X89408000Y-95758000D03*
X89408000Y-100838000D03*
X89408000Y-105918000D03*
X81788000Y-105918000D03*
X81788000Y-100838000D03*
X81788000Y-95758000D03*
X81788000Y-88138000D03*
D40*
X106172000Y-94742000D03*
D41*
X108712000Y-94742000D03*
M02*
