G04 #@! TF.GenerationSoftware,KiCad,Pcbnew,(6.0.9)*
G04 #@! TF.CreationDate,2022-11-18T10:30:43-07:00*
G04 #@! TF.ProjectId,Thermostat1,54686572-6d6f-4737-9461-74312e6b6963,rev?*
G04 #@! TF.SameCoordinates,Original*
G04 #@! TF.FileFunction,Soldermask,Top*
G04 #@! TF.FilePolarity,Negative*
%FSLAX46Y46*%
G04 Gerber Fmt 4.6, Leading zero omitted, Abs format (unit mm)*
G04 Created by KiCad (PCBNEW (6.0.9)) date 2022-11-18 10:30:43*
%MOMM*%
%LPD*%
G01*
G04 APERTURE LIST*
G04 Aperture macros list*
%AMRoundRect*
0 Rectangle with rounded corners*
0 $1 Rounding radius*
0 $2 $3 $4 $5 $6 $7 $8 $9 X,Y pos of 4 corners*
0 Add a 4 corners polygon primitive as box body*
4,1,4,$2,$3,$4,$5,$6,$7,$8,$9,$2,$3,0*
0 Add four circle primitives for the rounded corners*
1,1,$1+$1,$2,$3*
1,1,$1+$1,$4,$5*
1,1,$1+$1,$6,$7*
1,1,$1+$1,$8,$9*
0 Add four rect primitives between the rounded corners*
20,1,$1+$1,$2,$3,$4,$5,0*
20,1,$1+$1,$4,$5,$6,$7,0*
20,1,$1+$1,$6,$7,$8,$9,0*
20,1,$1+$1,$8,$9,$2,$3,0*%
G04 Aperture macros list end*
%ADD10O,1.952000X3.150000*%
%ADD11C,2.102000*%
%ADD12RoundRect,0.288500X-0.250000X-0.237500X0.250000X-0.237500X0.250000X0.237500X-0.250000X0.237500X0*%
%ADD13RoundRect,0.288500X0.237500X-0.250000X0.237500X0.250000X-0.237500X0.250000X-0.237500X-0.250000X0*%
%ADD14RoundRect,0.301000X-0.400000X-0.625000X0.400000X-0.625000X0.400000X0.625000X-0.400000X0.625000X0*%
%ADD15RoundRect,0.051000X0.525000X0.750000X-0.525000X0.750000X-0.525000X-0.750000X0.525000X-0.750000X0*%
%ADD16O,1.152000X1.602000*%
%ADD17RoundRect,0.288500X0.287500X0.237500X-0.287500X0.237500X-0.287500X-0.237500X0.287500X-0.237500X0*%
%ADD18RoundRect,0.288500X-0.237500X0.250000X-0.237500X-0.250000X0.237500X-0.250000X0.237500X0.250000X0*%
%ADD19RoundRect,0.201000X-0.150000X0.587500X-0.150000X-0.587500X0.150000X-0.587500X0.150000X0.587500X0*%
%ADD20RoundRect,0.051000X0.900000X-1.250000X0.900000X1.250000X-0.900000X1.250000X-0.900000X-1.250000X0*%
%ADD21RoundRect,0.301000X-0.475000X0.337500X-0.475000X-0.337500X0.475000X-0.337500X0.475000X0.337500X0*%
%ADD22RoundRect,0.288500X-0.300000X-0.237500X0.300000X-0.237500X0.300000X0.237500X-0.300000X0.237500X0*%
%ADD23RoundRect,0.288500X-0.237500X0.300000X-0.237500X-0.300000X0.237500X-0.300000X0.237500X0.300000X0*%
%ADD24C,5.702000*%
%ADD25RoundRect,0.288500X0.250000X0.237500X-0.250000X0.237500X-0.250000X-0.237500X0.250000X-0.237500X0*%
%ADD26RoundRect,0.201000X-0.587500X-0.150000X0.587500X-0.150000X0.587500X0.150000X-0.587500X0.150000X0*%
%ADD27RoundRect,0.301000X-0.875000X-1.025000X0.875000X-1.025000X0.875000X1.025000X-0.875000X1.025000X0*%
%ADD28RoundRect,0.051000X0.850000X-0.850000X0.850000X0.850000X-0.850000X0.850000X-0.850000X-0.850000X0*%
%ADD29O,1.802000X1.802000*%
%ADD30RoundRect,0.301000X0.875000X1.025000X-0.875000X1.025000X-0.875000X-1.025000X0.875000X-1.025000X0*%
%ADD31RoundRect,0.301000X0.337500X0.475000X-0.337500X0.475000X-0.337500X-0.475000X0.337500X-0.475000X0*%
%ADD32RoundRect,0.201000X-0.750000X-0.150000X0.750000X-0.150000X0.750000X0.150000X-0.750000X0.150000X0*%
%ADD33RoundRect,0.288500X0.300000X0.237500X-0.300000X0.237500X-0.300000X-0.237500X0.300000X-0.237500X0*%
%ADD34RoundRect,0.051000X0.700000X0.700000X-0.700000X0.700000X-0.700000X-0.700000X0.700000X-0.700000X0*%
%ADD35C,1.502000*%
%ADD36RoundRect,0.051000X-0.850000X0.850000X-0.850000X-0.850000X0.850000X-0.850000X0.850000X0.850000X0*%
%ADD37RoundRect,0.051000X0.600000X1.000000X-0.600000X1.000000X-0.600000X-1.000000X0.600000X-1.000000X0*%
%ADD38O,1.302000X2.102000*%
%ADD39RoundRect,0.051000X1.980000X-0.990000X1.980000X0.990000X-1.980000X0.990000X-1.980000X-0.990000X0*%
%ADD40O,4.062000X2.082000*%
%ADD41RoundRect,0.051000X0.925000X-0.925000X0.925000X0.925000X-0.925000X0.925000X-0.925000X-0.925000X0*%
%ADD42C,1.952000*%
G04 APERTURE END LIST*
D10*
X69712200Y-85665800D03*
X69712200Y-73165800D03*
X74712200Y-85665800D03*
X74712200Y-73165800D03*
D11*
X26909200Y-48413600D03*
X26909200Y-54913600D03*
X31409200Y-48413600D03*
X31409200Y-54913600D03*
X26909200Y-34415800D03*
X26909200Y-27915800D03*
X31409200Y-27915800D03*
X31409200Y-34415800D03*
X29906400Y-38177400D03*
X29906400Y-44677400D03*
X34406400Y-38177400D03*
X34406400Y-44677400D03*
D12*
X81741000Y-78994000D03*
X83566000Y-78994000D03*
D13*
X54864000Y-72691000D03*
X54864000Y-70866000D03*
X58928000Y-72691000D03*
X58928000Y-70866000D03*
D14*
X86308000Y-71882000D03*
X89408000Y-71882000D03*
X86257200Y-74650600D03*
X89357200Y-74650600D03*
D13*
X36830000Y-72691000D03*
X36830000Y-70866000D03*
X39116000Y-72691000D03*
X39116000Y-70866000D03*
X56896000Y-72691000D03*
X56896000Y-70866000D03*
D10*
X44312200Y-85665800D03*
X44312200Y-73165800D03*
X49312200Y-73165800D03*
X49312200Y-85665800D03*
D15*
X30734000Y-104216200D03*
D16*
X29464000Y-104216200D03*
X28194000Y-104216200D03*
D17*
X98487200Y-74676000D03*
X96737200Y-74676000D03*
X98487200Y-84201000D03*
X96737200Y-84201000D03*
D18*
X43688000Y-95711000D03*
X43688000Y-97536000D03*
D19*
X93660000Y-83723000D03*
X91760000Y-83723000D03*
X92710000Y-85598000D03*
D20*
X85598000Y-90360000D03*
X85598000Y-86360000D03*
D21*
X56896000Y-62187000D03*
X56896000Y-64262000D03*
D22*
X71427000Y-88646000D03*
X73152000Y-88646000D03*
D23*
X53848000Y-62283000D03*
X53848000Y-64008000D03*
D24*
X35636200Y-104724200D03*
D22*
X27993000Y-58420000D03*
X29718000Y-58420000D03*
D25*
X93472000Y-81788000D03*
X91647000Y-81788000D03*
D26*
X83644500Y-81521500D03*
X83644500Y-83421500D03*
X85519500Y-82471500D03*
D24*
X35636200Y-27914600D03*
D27*
X60300000Y-104648000D03*
X66700000Y-104648000D03*
D22*
X28501000Y-100076000D03*
X30226000Y-100076000D03*
D28*
X106172000Y-92202000D03*
D29*
X108712000Y-92202000D03*
D20*
X95758000Y-92176600D03*
X95758000Y-88176600D03*
D30*
X54864000Y-104648000D03*
X48464000Y-104648000D03*
D24*
X115189000Y-94234000D03*
D23*
X39116000Y-86413000D03*
X39116000Y-88138000D03*
D24*
X35636200Y-54914800D03*
X88900000Y-64185800D03*
D31*
X30501500Y-88138000D03*
X28426500Y-88138000D03*
D32*
X70510000Y-99314000D03*
X70510000Y-101854000D03*
X76810000Y-101854000D03*
X76810000Y-99314000D03*
D12*
X91543500Y-80010000D03*
X93368500Y-80010000D03*
D28*
X106172000Y-94742000D03*
D29*
X108712000Y-94742000D03*
D33*
X30072500Y-90170000D03*
X28347500Y-90170000D03*
D13*
X81534000Y-83359000D03*
X81534000Y-81534000D03*
D34*
X100330000Y-88138000D03*
D35*
X100330000Y-95758000D03*
X100330000Y-100828000D03*
X100330000Y-105918000D03*
X92700000Y-105928000D03*
X92700000Y-100848000D03*
X92710000Y-95758000D03*
X92710000Y-88138000D03*
D36*
X41656000Y-62230000D03*
D29*
X44196000Y-62230000D03*
X46736000Y-62230000D03*
X49276000Y-62230000D03*
D37*
X72641280Y-92964000D03*
D38*
X70101280Y-92964000D03*
X67561280Y-92964000D03*
X65021280Y-92964000D03*
X62481280Y-92964000D03*
X59941280Y-92964000D03*
X57401280Y-92964000D03*
X54861280Y-92964000D03*
X52321280Y-92964000D03*
X49781280Y-92964000D03*
X47241280Y-92964000D03*
X44701280Y-92964000D03*
X42161280Y-92964000D03*
X39621280Y-92964000D03*
X37081280Y-92964000D03*
X34541280Y-92964000D03*
X32001280Y-92964000D03*
X29461280Y-92964000D03*
X26921280Y-92964000D03*
X26924000Y-67567680D03*
X29464000Y-67567680D03*
X32001280Y-67564000D03*
X34541280Y-67564000D03*
X37081280Y-67564000D03*
X39621280Y-67564000D03*
X42161280Y-67564000D03*
X44701280Y-67564000D03*
X47241280Y-67564000D03*
X49781280Y-67564000D03*
X52321280Y-67564000D03*
X54861280Y-67564000D03*
X57401280Y-67564000D03*
X59941280Y-67564000D03*
X62481280Y-67564000D03*
X65021280Y-67564000D03*
X67561280Y-67564000D03*
X70101280Y-67564000D03*
X72641280Y-67564000D03*
D39*
X111760000Y-80946000D03*
D40*
X111760000Y-75946000D03*
X111760000Y-70946000D03*
X111760000Y-65946000D03*
D41*
X65557400Y-99237800D03*
D42*
X63017400Y-99237800D03*
X60477400Y-99237800D03*
X55397400Y-99237800D03*
X52857400Y-99237800D03*
X50317400Y-99237800D03*
X47777400Y-99237800D03*
D34*
X89408000Y-88138000D03*
D35*
X89408000Y-95758000D03*
X89408000Y-100838000D03*
X89408000Y-105918000D03*
X81788000Y-105918000D03*
X81788000Y-100838000D03*
X81788000Y-95758000D03*
X81788000Y-88138000D03*
G36*
X30159212Y-103588849D02*
G01*
X30160000Y-103590440D01*
X30160000Y-104841878D01*
X30159000Y-104843610D01*
X30157000Y-104843610D01*
X30156081Y-104842441D01*
X30136405Y-104775429D01*
X30084062Y-104730074D01*
X30015509Y-104720217D01*
X29952352Y-104749060D01*
X29937437Y-104765570D01*
X29935534Y-104766185D01*
X29934050Y-104764844D01*
X29934366Y-104763011D01*
X29961085Y-104728190D01*
X30018424Y-104589758D01*
X30038000Y-104441068D01*
X30038000Y-103991332D01*
X30018424Y-103842642D01*
X29961085Y-103704210D01*
X29930125Y-103663862D01*
X29929864Y-103661879D01*
X29931451Y-103660661D01*
X29932974Y-103661093D01*
X29985421Y-103703772D01*
X30054249Y-103711503D01*
X30116328Y-103680798D01*
X30152038Y-103621261D01*
X30156016Y-103590186D01*
X30157228Y-103588595D01*
X30159212Y-103588849D01*
G37*
G36*
X28962076Y-103714204D02*
G01*
X28962110Y-103715811D01*
X28909576Y-103842642D01*
X28890000Y-103991332D01*
X28890000Y-104441068D01*
X28909576Y-104589758D01*
X28960941Y-104713765D01*
X28960680Y-104715748D01*
X28958832Y-104716513D01*
X28957445Y-104715663D01*
X28952707Y-104708770D01*
X28952484Y-104708344D01*
X28943930Y-104685706D01*
X28902008Y-104630202D01*
X28837013Y-104606275D01*
X28769403Y-104621287D01*
X28720474Y-104670636D01*
X28714149Y-104684294D01*
X28702689Y-104713687D01*
X28702462Y-104714110D01*
X28699374Y-104718504D01*
X28697560Y-104719346D01*
X28695924Y-104718196D01*
X28695890Y-104716589D01*
X28748424Y-104589758D01*
X28768000Y-104441068D01*
X28768000Y-103991332D01*
X28748424Y-103842642D01*
X28697059Y-103718635D01*
X28697320Y-103716652D01*
X28699168Y-103715887D01*
X28700555Y-103716737D01*
X28705293Y-103723630D01*
X28705516Y-103724056D01*
X28714070Y-103746694D01*
X28755992Y-103802198D01*
X28820987Y-103826125D01*
X28888597Y-103811113D01*
X28937526Y-103761764D01*
X28943851Y-103748106D01*
X28955311Y-103718713D01*
X28955538Y-103718290D01*
X28958626Y-103713896D01*
X28960440Y-103713054D01*
X28962076Y-103714204D01*
G37*
M02*
