G04 #@! TF.GenerationSoftware,KiCad,Pcbnew,(6.0.9)*
G04 #@! TF.CreationDate,2022-11-18T10:30:43-07:00*
G04 #@! TF.ProjectId,Thermostat1,54686572-6d6f-4737-9461-74312e6b6963,rev?*
G04 #@! TF.SameCoordinates,Original*
G04 #@! TF.FileFunction,Legend,Bot*
G04 #@! TF.FilePolarity,Positive*
%FSLAX46Y46*%
G04 Gerber Fmt 4.6, Leading zero omitted, Abs format (unit mm)*
G04 Created by KiCad (PCBNEW (6.0.9)) date 2022-11-18 10:30:43*
%MOMM*%
%LPD*%
G01*
G04 APERTURE LIST*
G04 Aperture macros list*
%AMRoundRect*
0 Rectangle with rounded corners*
0 $1 Rounding radius*
0 $2 $3 $4 $5 $6 $7 $8 $9 X,Y pos of 4 corners*
0 Add a 4 corners polygon primitive as box body*
4,1,4,$2,$3,$4,$5,$6,$7,$8,$9,$2,$3,0*
0 Add four circle primitives for the rounded corners*
1,1,$1+$1,$2,$3*
1,1,$1+$1,$4,$5*
1,1,$1+$1,$6,$7*
1,1,$1+$1,$8,$9*
0 Add four rect primitives between the rounded corners*
20,1,$1+$1,$2,$3,$4,$5,0*
20,1,$1+$1,$4,$5,$6,$7,0*
20,1,$1+$1,$6,$7,$8,$9,0*
20,1,$1+$1,$8,$9,$2,$3,0*%
G04 Aperture macros list end*
%ADD10C,0.150000*%
%ADD11C,0.120000*%
%ADD12O,1.952000X3.150000*%
%ADD13C,2.102000*%
%ADD14RoundRect,0.051000X0.525000X0.750000X-0.525000X0.750000X-0.525000X-0.750000X0.525000X-0.750000X0*%
%ADD15O,1.152000X1.602000*%
%ADD16C,5.702000*%
%ADD17RoundRect,0.051000X0.850000X-0.850000X0.850000X0.850000X-0.850000X0.850000X-0.850000X-0.850000X0*%
%ADD18O,1.802000X1.802000*%
%ADD19RoundRect,0.051000X0.700000X0.700000X-0.700000X0.700000X-0.700000X-0.700000X0.700000X-0.700000X0*%
%ADD20C,1.502000*%
%ADD21RoundRect,0.051000X-0.850000X0.850000X-0.850000X-0.850000X0.850000X-0.850000X0.850000X0.850000X0*%
%ADD22RoundRect,0.051000X0.600000X1.000000X-0.600000X1.000000X-0.600000X-1.000000X0.600000X-1.000000X0*%
%ADD23O,1.302000X2.102000*%
%ADD24RoundRect,0.288500X-0.300000X-0.237500X0.300000X-0.237500X0.300000X0.237500X-0.300000X0.237500X0*%
%ADD25RoundRect,0.051000X1.980000X-0.990000X1.980000X0.990000X-1.980000X0.990000X-1.980000X-0.990000X0*%
%ADD26O,4.062000X2.082000*%
%ADD27RoundRect,0.051000X0.925000X-0.925000X0.925000X0.925000X-0.925000X0.925000X-0.925000X-0.925000X0*%
%ADD28C,1.952000*%
G04 APERTURE END LIST*
D10*
X98468095Y-86290380D02*
X98468095Y-85290380D01*
X97896666Y-86290380D02*
X98325238Y-85718952D01*
X97896666Y-85290380D02*
X98468095Y-85861809D01*
X96944285Y-86290380D02*
X97515714Y-86290380D01*
X97230000Y-86290380D02*
X97230000Y-85290380D01*
X97325238Y-85433238D01*
X97420476Y-85528476D01*
X97515714Y-85576095D01*
X38314380Y-61896666D02*
X39028666Y-61896666D01*
X39171523Y-61849047D01*
X39266761Y-61753809D01*
X39314380Y-61610952D01*
X39314380Y-61515714D01*
X38409619Y-62325238D02*
X38362000Y-62372857D01*
X38314380Y-62468095D01*
X38314380Y-62706190D01*
X38362000Y-62801428D01*
X38409619Y-62849047D01*
X38504857Y-62896666D01*
X38600095Y-62896666D01*
X38742952Y-62849047D01*
X39314380Y-62277619D01*
X39314380Y-62896666D01*
X74193660Y-79502095D02*
X75003184Y-79502095D01*
X75098422Y-79549714D01*
X75146041Y-79597333D01*
X75193660Y-79692571D01*
X75193660Y-79883047D01*
X75146041Y-79978285D01*
X75098422Y-80025904D01*
X75003184Y-80073523D01*
X74193660Y-80073523D01*
X74288899Y-80502095D02*
X74241280Y-80549714D01*
X74193660Y-80644952D01*
X74193660Y-80883047D01*
X74241280Y-80978285D01*
X74288899Y-81025904D01*
X74384137Y-81073523D01*
X74479375Y-81073523D01*
X74622232Y-81025904D01*
X75193660Y-80454476D01*
X75193660Y-81073523D01*
X54106518Y-80192571D02*
X53773184Y-80192571D01*
X53630327Y-80716380D02*
X54106518Y-80716380D01*
X54106518Y-79716380D01*
X53630327Y-79716380D01*
X53249375Y-80668761D02*
X53106518Y-80716380D01*
X52868422Y-80716380D01*
X52773184Y-80668761D01*
X52725565Y-80621142D01*
X52677946Y-80525904D01*
X52677946Y-80430666D01*
X52725565Y-80335428D01*
X52773184Y-80287809D01*
X52868422Y-80240190D01*
X53058899Y-80192571D01*
X53154137Y-80144952D01*
X53201756Y-80097333D01*
X53249375Y-80002095D01*
X53249375Y-79906857D01*
X53201756Y-79811619D01*
X53154137Y-79764000D01*
X53058899Y-79716380D01*
X52820803Y-79716380D01*
X52677946Y-79764000D01*
X52249375Y-80716380D02*
X52249375Y-79716380D01*
X51868422Y-79716380D01*
X51773184Y-79764000D01*
X51725565Y-79811619D01*
X51677946Y-79906857D01*
X51677946Y-80049714D01*
X51725565Y-80144952D01*
X51773184Y-80192571D01*
X51868422Y-80240190D01*
X52249375Y-80240190D01*
X51344613Y-79716380D02*
X50725565Y-79716380D01*
X51058899Y-80097333D01*
X50916041Y-80097333D01*
X50820803Y-80144952D01*
X50773184Y-80192571D01*
X50725565Y-80287809D01*
X50725565Y-80525904D01*
X50773184Y-80621142D01*
X50820803Y-80668761D01*
X50916041Y-80716380D01*
X51201756Y-80716380D01*
X51296994Y-80668761D01*
X51344613Y-80621142D01*
X50344613Y-79811619D02*
X50296994Y-79764000D01*
X50201756Y-79716380D01*
X49963660Y-79716380D01*
X49868422Y-79764000D01*
X49820803Y-79811619D01*
X49773184Y-79906857D01*
X49773184Y-80002095D01*
X49820803Y-80144952D01*
X50392232Y-80716380D01*
X49773184Y-80716380D01*
X49344613Y-80335428D02*
X48582708Y-80335428D01*
X48106518Y-80716380D02*
X48106518Y-79716380D01*
X47868422Y-79716380D01*
X47725565Y-79764000D01*
X47630327Y-79859238D01*
X47582708Y-79954476D01*
X47535089Y-80144952D01*
X47535089Y-80287809D01*
X47582708Y-80478285D01*
X47630327Y-80573523D01*
X47725565Y-80668761D01*
X47868422Y-80716380D01*
X48106518Y-80716380D01*
X46725565Y-80668761D02*
X46820803Y-80716380D01*
X47011280Y-80716380D01*
X47106518Y-80668761D01*
X47154137Y-80573523D01*
X47154137Y-80192571D01*
X47106518Y-80097333D01*
X47011280Y-80049714D01*
X46820803Y-80049714D01*
X46725565Y-80097333D01*
X46677946Y-80192571D01*
X46677946Y-80287809D01*
X47154137Y-80383047D01*
X46344613Y-80049714D02*
X46106518Y-80716380D01*
X45868422Y-80049714D01*
X45487470Y-80716380D02*
X45487470Y-79716380D01*
X44916041Y-80716380D02*
X45344613Y-80144952D01*
X44916041Y-79716380D02*
X45487470Y-80287809D01*
X44487470Y-80716380D02*
X44487470Y-80049714D01*
X44487470Y-79716380D02*
X44535089Y-79764000D01*
X44487470Y-79811619D01*
X44439851Y-79764000D01*
X44487470Y-79716380D01*
X44487470Y-79811619D01*
X44154137Y-80049714D02*
X43773184Y-80049714D01*
X44011280Y-79716380D02*
X44011280Y-80573523D01*
X43963660Y-80668761D01*
X43868422Y-80716380D01*
X43773184Y-80716380D01*
X42868422Y-80621142D02*
X42916041Y-80668761D01*
X43058899Y-80716380D01*
X43154137Y-80716380D01*
X43296994Y-80668761D01*
X43392232Y-80573523D01*
X43439851Y-80478285D01*
X43487470Y-80287809D01*
X43487470Y-80144952D01*
X43439851Y-79954476D01*
X43392232Y-79859238D01*
X43296994Y-79764000D01*
X43154137Y-79716380D01*
X43058899Y-79716380D01*
X42916041Y-79764000D01*
X42868422Y-79811619D01*
X29144613Y-70131500D02*
X29844613Y-70131500D01*
X29844613Y-69964833D01*
X29811280Y-69864833D01*
X29744613Y-69798166D01*
X29677946Y-69764833D01*
X29544613Y-69731500D01*
X29444613Y-69731500D01*
X29311280Y-69764833D01*
X29244613Y-69798166D01*
X29177946Y-69864833D01*
X29144613Y-69964833D01*
X29144613Y-70131500D01*
X29844613Y-69298166D02*
X29844613Y-69231500D01*
X29811280Y-69164833D01*
X29777946Y-69131500D01*
X29711280Y-69098166D01*
X29577946Y-69064833D01*
X29411280Y-69064833D01*
X29277946Y-69098166D01*
X29211280Y-69131500D01*
X29177946Y-69164833D01*
X29144613Y-69231500D01*
X29144613Y-69298166D01*
X29177946Y-69364833D01*
X29211280Y-69398166D01*
X29277946Y-69431500D01*
X29411280Y-69464833D01*
X29577946Y-69464833D01*
X29711280Y-69431500D01*
X29777946Y-69398166D01*
X29811280Y-69364833D01*
X29844613Y-69298166D01*
X39971280Y-71531500D02*
X40004613Y-71598166D01*
X40004613Y-71698166D01*
X39971280Y-71798166D01*
X39904613Y-71864833D01*
X39837946Y-71898166D01*
X39704613Y-71931500D01*
X39604613Y-71931500D01*
X39471280Y-71898166D01*
X39404613Y-71864833D01*
X39337946Y-71798166D01*
X39304613Y-71698166D01*
X39304613Y-71631500D01*
X39337946Y-71531500D01*
X39371280Y-71498166D01*
X39604613Y-71498166D01*
X39604613Y-71631500D01*
X39304613Y-71198166D02*
X40004613Y-71198166D01*
X40004613Y-70931500D01*
X39971280Y-70864833D01*
X39937946Y-70831500D01*
X39871280Y-70798166D01*
X39771280Y-70798166D01*
X39704613Y-70831500D01*
X39671280Y-70864833D01*
X39637946Y-70931500D01*
X39637946Y-71198166D01*
X39304613Y-70498166D02*
X40004613Y-70498166D01*
X40004613Y-70031500D02*
X40004613Y-69898166D01*
X39971280Y-69831500D01*
X39904613Y-69764833D01*
X39771280Y-69731500D01*
X39537946Y-69731500D01*
X39404613Y-69764833D01*
X39337946Y-69831500D01*
X39304613Y-69898166D01*
X39304613Y-70031500D01*
X39337946Y-70098166D01*
X39404613Y-70164833D01*
X39537946Y-70198166D01*
X39771280Y-70198166D01*
X39904613Y-70164833D01*
X39971280Y-70098166D01*
X40004613Y-70031500D01*
X40004613Y-69298166D02*
X40004613Y-69231500D01*
X39971280Y-69164833D01*
X39937946Y-69131500D01*
X39871280Y-69098166D01*
X39737946Y-69064833D01*
X39571280Y-69064833D01*
X39437946Y-69098166D01*
X39371280Y-69131500D01*
X39337946Y-69164833D01*
X39304613Y-69231500D01*
X39304613Y-69298166D01*
X39337946Y-69364833D01*
X39371280Y-69398166D01*
X39437946Y-69431500D01*
X39571280Y-69464833D01*
X39737946Y-69464833D01*
X39871280Y-69431500D01*
X39937946Y-69398166D01*
X39971280Y-69364833D01*
X40004613Y-69298166D01*
X45051280Y-72198166D02*
X45084613Y-72264833D01*
X45084613Y-72364833D01*
X45051280Y-72464833D01*
X44984613Y-72531500D01*
X44917946Y-72564833D01*
X44784613Y-72598166D01*
X44684613Y-72598166D01*
X44551280Y-72564833D01*
X44484613Y-72531500D01*
X44417946Y-72464833D01*
X44384613Y-72364833D01*
X44384613Y-72298166D01*
X44417946Y-72198166D01*
X44451280Y-72164833D01*
X44684613Y-72164833D01*
X44684613Y-72298166D01*
X44384613Y-71864833D02*
X45084613Y-71864833D01*
X45084613Y-71598166D01*
X45051280Y-71531500D01*
X45017946Y-71498166D01*
X44951280Y-71464833D01*
X44851280Y-71464833D01*
X44784613Y-71498166D01*
X44751280Y-71531500D01*
X44717946Y-71598166D01*
X44717946Y-71864833D01*
X44384613Y-71164833D02*
X45084613Y-71164833D01*
X45084613Y-70698166D02*
X45084613Y-70564833D01*
X45051280Y-70498166D01*
X44984613Y-70431500D01*
X44851280Y-70398166D01*
X44617946Y-70398166D01*
X44484613Y-70431500D01*
X44417946Y-70498166D01*
X44384613Y-70564833D01*
X44384613Y-70698166D01*
X44417946Y-70764833D01*
X44484613Y-70831500D01*
X44617946Y-70864833D01*
X44851280Y-70864833D01*
X44984613Y-70831500D01*
X45051280Y-70764833D01*
X45084613Y-70698166D01*
X44384613Y-69731500D02*
X44384613Y-70131500D01*
X44384613Y-69931500D02*
X45084613Y-69931500D01*
X44984613Y-69998166D01*
X44917946Y-70064833D01*
X44884613Y-70131500D01*
X45084613Y-69131500D02*
X45084613Y-69264833D01*
X45051280Y-69331500D01*
X45017946Y-69364833D01*
X44917946Y-69431500D01*
X44784613Y-69464833D01*
X44517946Y-69464833D01*
X44451280Y-69431500D01*
X44417946Y-69398166D01*
X44384613Y-69331500D01*
X44384613Y-69198166D01*
X44417946Y-69131500D01*
X44451280Y-69098166D01*
X44517946Y-69064833D01*
X44684613Y-69064833D01*
X44751280Y-69098166D01*
X44784613Y-69131500D01*
X44817946Y-69198166D01*
X44817946Y-69331500D01*
X44784613Y-69398166D01*
X44751280Y-69431500D01*
X44684613Y-69464833D01*
X37431280Y-91063166D02*
X37464613Y-91129833D01*
X37464613Y-91229833D01*
X37431280Y-91329833D01*
X37364613Y-91396500D01*
X37297946Y-91429833D01*
X37164613Y-91463166D01*
X37064613Y-91463166D01*
X36931280Y-91429833D01*
X36864613Y-91396500D01*
X36797946Y-91329833D01*
X36764613Y-91229833D01*
X36764613Y-91163166D01*
X36797946Y-91063166D01*
X36831280Y-91029833D01*
X37064613Y-91029833D01*
X37064613Y-91163166D01*
X36764613Y-90729833D02*
X37464613Y-90729833D01*
X37464613Y-90463166D01*
X37431280Y-90396500D01*
X37397946Y-90363166D01*
X37331280Y-90329833D01*
X37231280Y-90329833D01*
X37164613Y-90363166D01*
X37131280Y-90396500D01*
X37097946Y-90463166D01*
X37097946Y-90729833D01*
X36764613Y-90029833D02*
X37464613Y-90029833D01*
X37464613Y-89563166D02*
X37464613Y-89429833D01*
X37431280Y-89363166D01*
X37364613Y-89296500D01*
X37231280Y-89263166D01*
X36997946Y-89263166D01*
X36864613Y-89296500D01*
X36797946Y-89363166D01*
X36764613Y-89429833D01*
X36764613Y-89563166D01*
X36797946Y-89629833D01*
X36864613Y-89696500D01*
X36997946Y-89729833D01*
X37231280Y-89729833D01*
X37364613Y-89696500D01*
X37431280Y-89629833D01*
X37464613Y-89563166D01*
X36764613Y-88596500D02*
X36764613Y-88996500D01*
X36764613Y-88796500D02*
X37464613Y-88796500D01*
X37364613Y-88863166D01*
X37297946Y-88929833D01*
X37264613Y-88996500D01*
X37464613Y-88363166D02*
X37464613Y-87929833D01*
X37197946Y-88163166D01*
X37197946Y-88063166D01*
X37164613Y-87996500D01*
X37131280Y-87963166D01*
X37064613Y-87929833D01*
X36897946Y-87929833D01*
X36831280Y-87963166D01*
X36797946Y-87996500D01*
X36764613Y-88063166D01*
X36764613Y-88263166D01*
X36797946Y-88329833D01*
X36831280Y-88363166D01*
X37497946Y-87129833D02*
X36597946Y-87729833D01*
X36764613Y-86896500D02*
X37464613Y-86896500D01*
X36964613Y-86663166D01*
X37464613Y-86429833D01*
X36764613Y-86429833D01*
X37464613Y-86196500D02*
X37464613Y-85796500D01*
X36764613Y-85996500D02*
X37464613Y-85996500D01*
X36831280Y-85163166D02*
X36797946Y-85196500D01*
X36764613Y-85296500D01*
X36764613Y-85363166D01*
X36797946Y-85463166D01*
X36864613Y-85529833D01*
X36931280Y-85563166D01*
X37064613Y-85596500D01*
X37164613Y-85596500D01*
X37297946Y-85563166D01*
X37364613Y-85529833D01*
X37431280Y-85463166D01*
X37464613Y-85363166D01*
X37464613Y-85296500D01*
X37431280Y-85196500D01*
X37397946Y-85163166D01*
X36764613Y-84863166D02*
X37464613Y-84863166D01*
X36764613Y-84463166D02*
X37164613Y-84763166D01*
X37464613Y-84463166D02*
X37064613Y-84863166D01*
X52671280Y-91063166D02*
X52704613Y-91129833D01*
X52704613Y-91229833D01*
X52671280Y-91329833D01*
X52604613Y-91396500D01*
X52537946Y-91429833D01*
X52404613Y-91463166D01*
X52304613Y-91463166D01*
X52171280Y-91429833D01*
X52104613Y-91396500D01*
X52037946Y-91329833D01*
X52004613Y-91229833D01*
X52004613Y-91163166D01*
X52037946Y-91063166D01*
X52071280Y-91029833D01*
X52304613Y-91029833D01*
X52304613Y-91163166D01*
X52004613Y-90729833D02*
X52704613Y-90729833D01*
X52704613Y-90463166D01*
X52671280Y-90396500D01*
X52637946Y-90363166D01*
X52571280Y-90329833D01*
X52471280Y-90329833D01*
X52404613Y-90363166D01*
X52371280Y-90396500D01*
X52337946Y-90463166D01*
X52337946Y-90729833D01*
X52004613Y-90029833D02*
X52704613Y-90029833D01*
X52704613Y-89563166D02*
X52704613Y-89429833D01*
X52671280Y-89363166D01*
X52604613Y-89296500D01*
X52471280Y-89263166D01*
X52237946Y-89263166D01*
X52104613Y-89296500D01*
X52037946Y-89363166D01*
X52004613Y-89429833D01*
X52004613Y-89563166D01*
X52037946Y-89629833D01*
X52104613Y-89696500D01*
X52237946Y-89729833D01*
X52471280Y-89729833D01*
X52604613Y-89696500D01*
X52671280Y-89629833D01*
X52704613Y-89563166D01*
X52637946Y-88996500D02*
X52671280Y-88963166D01*
X52704613Y-88896500D01*
X52704613Y-88729833D01*
X52671280Y-88663166D01*
X52637946Y-88629833D01*
X52571280Y-88596500D01*
X52504613Y-88596500D01*
X52404613Y-88629833D01*
X52004613Y-89029833D01*
X52004613Y-88596500D01*
X52704613Y-87963166D02*
X52704613Y-88296500D01*
X52371280Y-88329833D01*
X52404613Y-88296500D01*
X52437946Y-88229833D01*
X52437946Y-88063166D01*
X52404613Y-87996500D01*
X52371280Y-87963166D01*
X52304613Y-87929833D01*
X52137946Y-87929833D01*
X52071280Y-87963166D01*
X52037946Y-87996500D01*
X52004613Y-88063166D01*
X52004613Y-88229833D01*
X52037946Y-88296500D01*
X52071280Y-88329833D01*
X27217619Y-90885894D02*
X27217619Y-91362084D01*
X26741428Y-91409703D01*
X26789047Y-91362084D01*
X26836666Y-91266846D01*
X26836666Y-91028751D01*
X26789047Y-90933513D01*
X26741428Y-90885894D01*
X26646190Y-90838275D01*
X26408095Y-90838275D01*
X26312857Y-90885894D01*
X26265238Y-90933513D01*
X26217619Y-91028751D01*
X26217619Y-91266846D01*
X26265238Y-91362084D01*
X26312857Y-91409703D01*
X27217619Y-90552560D02*
X26217619Y-90219227D01*
X27217619Y-89885894D01*
X31684613Y-70131500D02*
X32384613Y-70131500D01*
X32384613Y-69964833D01*
X32351280Y-69864833D01*
X32284613Y-69798166D01*
X32217946Y-69764833D01*
X32084613Y-69731500D01*
X31984613Y-69731500D01*
X31851280Y-69764833D01*
X31784613Y-69798166D01*
X31717946Y-69864833D01*
X31684613Y-69964833D01*
X31684613Y-70131500D01*
X31684613Y-69064833D02*
X31684613Y-69464833D01*
X31684613Y-69264833D02*
X32384613Y-69264833D01*
X32284613Y-69331500D01*
X32217946Y-69398166D01*
X32184613Y-69464833D01*
X65404613Y-91529833D02*
X64704613Y-91296500D01*
X65404613Y-91063166D01*
X64704613Y-90829833D02*
X65404613Y-90829833D01*
X64704613Y-90429833D01*
X65404613Y-90429833D01*
X65437946Y-89596500D02*
X64537946Y-90196500D01*
X65371280Y-88996500D02*
X65404613Y-89063166D01*
X65404613Y-89163166D01*
X65371280Y-89263166D01*
X65304613Y-89329833D01*
X65237946Y-89363166D01*
X65104613Y-89396500D01*
X65004613Y-89396500D01*
X64871280Y-89363166D01*
X64804613Y-89329833D01*
X64737946Y-89263166D01*
X64704613Y-89163166D01*
X64704613Y-89096500D01*
X64737946Y-88996500D01*
X64771280Y-88963166D01*
X65004613Y-88963166D01*
X65004613Y-89096500D01*
X64704613Y-88663166D02*
X65404613Y-88663166D01*
X65404613Y-88396500D01*
X65371280Y-88329833D01*
X65337946Y-88296500D01*
X65271280Y-88263166D01*
X65171280Y-88263166D01*
X65104613Y-88296500D01*
X65071280Y-88329833D01*
X65037946Y-88396500D01*
X65037946Y-88663166D01*
X64704613Y-87963166D02*
X65404613Y-87963166D01*
X65404613Y-87496500D02*
X65404613Y-87363166D01*
X65371280Y-87296500D01*
X65304613Y-87229833D01*
X65171280Y-87196500D01*
X64937946Y-87196500D01*
X64804613Y-87229833D01*
X64737946Y-87296500D01*
X64704613Y-87363166D01*
X64704613Y-87496500D01*
X64737946Y-87563166D01*
X64804613Y-87629833D01*
X64937946Y-87663166D01*
X65171280Y-87663166D01*
X65304613Y-87629833D01*
X65371280Y-87563166D01*
X65404613Y-87496500D01*
X65404613Y-86963166D02*
X65404613Y-86529833D01*
X65137946Y-86763166D01*
X65137946Y-86663166D01*
X65104613Y-86596500D01*
X65071280Y-86563166D01*
X65004613Y-86529833D01*
X64837946Y-86529833D01*
X64771280Y-86563166D01*
X64737946Y-86596500D01*
X64704613Y-86663166D01*
X64704613Y-86863166D01*
X64737946Y-86929833D01*
X64771280Y-86963166D01*
X64704613Y-86196500D02*
X64704613Y-86063166D01*
X64737946Y-85996500D01*
X64771280Y-85963166D01*
X64871280Y-85896500D01*
X65004613Y-85863166D01*
X65271280Y-85863166D01*
X65337946Y-85896500D01*
X65371280Y-85929833D01*
X65404613Y-85996500D01*
X65404613Y-86129833D01*
X65371280Y-86196500D01*
X65337946Y-86229833D01*
X65271280Y-86263166D01*
X65104613Y-86263166D01*
X65037946Y-86229833D01*
X65004613Y-86196500D01*
X64971280Y-86129833D01*
X64971280Y-85996500D01*
X65004613Y-85929833D01*
X65037946Y-85896500D01*
X65104613Y-85863166D01*
X26671280Y-70331500D02*
X26637946Y-70364833D01*
X26604613Y-70464833D01*
X26604613Y-70531500D01*
X26637946Y-70631500D01*
X26704613Y-70698166D01*
X26771280Y-70731500D01*
X26904613Y-70764833D01*
X27004613Y-70764833D01*
X27137946Y-70731500D01*
X27204613Y-70698166D01*
X27271280Y-70631500D01*
X27304613Y-70531500D01*
X27304613Y-70464833D01*
X27271280Y-70364833D01*
X27237946Y-70331500D01*
X26604613Y-69698166D02*
X26604613Y-70031500D01*
X27304613Y-70031500D01*
X26604613Y-69464833D02*
X27304613Y-69464833D01*
X26604613Y-69064833D02*
X27004613Y-69364833D01*
X27304613Y-69064833D02*
X26904613Y-69464833D01*
X42511280Y-71531500D02*
X42544613Y-71598166D01*
X42544613Y-71698166D01*
X42511280Y-71798166D01*
X42444613Y-71864833D01*
X42377946Y-71898166D01*
X42244613Y-71931500D01*
X42144613Y-71931500D01*
X42011280Y-71898166D01*
X41944613Y-71864833D01*
X41877946Y-71798166D01*
X41844613Y-71698166D01*
X41844613Y-71631500D01*
X41877946Y-71531500D01*
X41911280Y-71498166D01*
X42144613Y-71498166D01*
X42144613Y-71631500D01*
X41844613Y-71198166D02*
X42544613Y-71198166D01*
X42544613Y-70931500D01*
X42511280Y-70864833D01*
X42477946Y-70831500D01*
X42411280Y-70798166D01*
X42311280Y-70798166D01*
X42244613Y-70831500D01*
X42211280Y-70864833D01*
X42177946Y-70931500D01*
X42177946Y-71198166D01*
X41844613Y-70498166D02*
X42544613Y-70498166D01*
X42544613Y-70031500D02*
X42544613Y-69898166D01*
X42511280Y-69831500D01*
X42444613Y-69764833D01*
X42311280Y-69731500D01*
X42077946Y-69731500D01*
X41944613Y-69764833D01*
X41877946Y-69831500D01*
X41844613Y-69898166D01*
X41844613Y-70031500D01*
X41877946Y-70098166D01*
X41944613Y-70164833D01*
X42077946Y-70198166D01*
X42311280Y-70198166D01*
X42444613Y-70164833D01*
X42511280Y-70098166D01*
X42544613Y-70031500D01*
X42311280Y-69131500D02*
X41844613Y-69131500D01*
X42577946Y-69298166D02*
X42077946Y-69464833D01*
X42077946Y-69031500D01*
X67911280Y-72198166D02*
X67944613Y-72264833D01*
X67944613Y-72364833D01*
X67911280Y-72464833D01*
X67844613Y-72531500D01*
X67777946Y-72564833D01*
X67644613Y-72598166D01*
X67544613Y-72598166D01*
X67411280Y-72564833D01*
X67344613Y-72531500D01*
X67277946Y-72464833D01*
X67244613Y-72364833D01*
X67244613Y-72298166D01*
X67277946Y-72198166D01*
X67311280Y-72164833D01*
X67544613Y-72164833D01*
X67544613Y-72298166D01*
X67244613Y-71864833D02*
X67944613Y-71864833D01*
X67944613Y-71598166D01*
X67911280Y-71531500D01*
X67877946Y-71498166D01*
X67811280Y-71464833D01*
X67711280Y-71464833D01*
X67644613Y-71498166D01*
X67611280Y-71531500D01*
X67577946Y-71598166D01*
X67577946Y-71864833D01*
X67244613Y-71164833D02*
X67944613Y-71164833D01*
X67944613Y-70698166D02*
X67944613Y-70564833D01*
X67911280Y-70498166D01*
X67844613Y-70431500D01*
X67711280Y-70398166D01*
X67477946Y-70398166D01*
X67344613Y-70431500D01*
X67277946Y-70498166D01*
X67244613Y-70564833D01*
X67244613Y-70698166D01*
X67277946Y-70764833D01*
X67344613Y-70831500D01*
X67477946Y-70864833D01*
X67711280Y-70864833D01*
X67844613Y-70831500D01*
X67911280Y-70764833D01*
X67944613Y-70698166D01*
X67877946Y-70131500D02*
X67911280Y-70098166D01*
X67944613Y-70031500D01*
X67944613Y-69864833D01*
X67911280Y-69798166D01*
X67877946Y-69764833D01*
X67811280Y-69731500D01*
X67744613Y-69731500D01*
X67644613Y-69764833D01*
X67244613Y-70164833D01*
X67244613Y-69731500D01*
X67877946Y-69464833D02*
X67911280Y-69431500D01*
X67944613Y-69364833D01*
X67944613Y-69198166D01*
X67911280Y-69131500D01*
X67877946Y-69098166D01*
X67811280Y-69064833D01*
X67744613Y-69064833D01*
X67644613Y-69098166D01*
X67244613Y-69498166D01*
X67244613Y-69064833D01*
X42511280Y-91063166D02*
X42544613Y-91129833D01*
X42544613Y-91229833D01*
X42511280Y-91329833D01*
X42444613Y-91396500D01*
X42377946Y-91429833D01*
X42244613Y-91463166D01*
X42144613Y-91463166D01*
X42011280Y-91429833D01*
X41944613Y-91396500D01*
X41877946Y-91329833D01*
X41844613Y-91229833D01*
X41844613Y-91163166D01*
X41877946Y-91063166D01*
X41911280Y-91029833D01*
X42144613Y-91029833D01*
X42144613Y-91163166D01*
X41844613Y-90729833D02*
X42544613Y-90729833D01*
X42544613Y-90463166D01*
X42511280Y-90396500D01*
X42477946Y-90363166D01*
X42411280Y-90329833D01*
X42311280Y-90329833D01*
X42244613Y-90363166D01*
X42211280Y-90396500D01*
X42177946Y-90463166D01*
X42177946Y-90729833D01*
X41844613Y-90029833D02*
X42544613Y-90029833D01*
X42544613Y-89563166D02*
X42544613Y-89429833D01*
X42511280Y-89363166D01*
X42444613Y-89296500D01*
X42311280Y-89263166D01*
X42077946Y-89263166D01*
X41944613Y-89296500D01*
X41877946Y-89363166D01*
X41844613Y-89429833D01*
X41844613Y-89563166D01*
X41877946Y-89629833D01*
X41944613Y-89696500D01*
X42077946Y-89729833D01*
X42311280Y-89729833D01*
X42444613Y-89696500D01*
X42511280Y-89629833D01*
X42544613Y-89563166D01*
X41844613Y-88596500D02*
X41844613Y-88996500D01*
X41844613Y-88796500D02*
X42544613Y-88796500D01*
X42444613Y-88863166D01*
X42377946Y-88929833D01*
X42344613Y-88996500D01*
X42477946Y-88329833D02*
X42511280Y-88296500D01*
X42544613Y-88229833D01*
X42544613Y-88063166D01*
X42511280Y-87996500D01*
X42477946Y-87963166D01*
X42411280Y-87929833D01*
X42344613Y-87929833D01*
X42244613Y-87963166D01*
X41844613Y-88363166D01*
X41844613Y-87929833D01*
X42577946Y-87129833D02*
X41677946Y-87729833D01*
X41844613Y-86896500D02*
X42544613Y-86896500D01*
X42044613Y-86663166D01*
X42544613Y-86429833D01*
X41844613Y-86429833D01*
X42544613Y-86196500D02*
X42544613Y-85796500D01*
X41844613Y-85996500D02*
X42544613Y-85996500D01*
X41844613Y-85563166D02*
X42544613Y-85563166D01*
X42544613Y-85396500D01*
X42511280Y-85296500D01*
X42444613Y-85229833D01*
X42377946Y-85196500D01*
X42244613Y-85163166D01*
X42144613Y-85163166D01*
X42011280Y-85196500D01*
X41944613Y-85229833D01*
X41877946Y-85296500D01*
X41844613Y-85396500D01*
X41844613Y-85563166D01*
X41844613Y-84863166D02*
X42544613Y-84863166D01*
X34891280Y-75698166D02*
X34924613Y-75764833D01*
X34924613Y-75864833D01*
X34891280Y-75964833D01*
X34824613Y-76031500D01*
X34757946Y-76064833D01*
X34624613Y-76098166D01*
X34524613Y-76098166D01*
X34391280Y-76064833D01*
X34324613Y-76031500D01*
X34257946Y-75964833D01*
X34224613Y-75864833D01*
X34224613Y-75798166D01*
X34257946Y-75698166D01*
X34291280Y-75664833D01*
X34524613Y-75664833D01*
X34524613Y-75798166D01*
X34224613Y-75364833D02*
X34924613Y-75364833D01*
X34924613Y-75098166D01*
X34891280Y-75031500D01*
X34857946Y-74998166D01*
X34791280Y-74964833D01*
X34691280Y-74964833D01*
X34624613Y-74998166D01*
X34591280Y-75031500D01*
X34557946Y-75098166D01*
X34557946Y-75364833D01*
X34224613Y-74664833D02*
X34924613Y-74664833D01*
X34924613Y-74198166D02*
X34924613Y-74064833D01*
X34891280Y-73998166D01*
X34824613Y-73931500D01*
X34691280Y-73898166D01*
X34457946Y-73898166D01*
X34324613Y-73931500D01*
X34257946Y-73998166D01*
X34224613Y-74064833D01*
X34224613Y-74198166D01*
X34257946Y-74264833D01*
X34324613Y-74331500D01*
X34457946Y-74364833D01*
X34691280Y-74364833D01*
X34824613Y-74331500D01*
X34891280Y-74264833D01*
X34924613Y-74198166D01*
X34224613Y-73231500D02*
X34224613Y-73631500D01*
X34224613Y-73431500D02*
X34924613Y-73431500D01*
X34824613Y-73498166D01*
X34757946Y-73564833D01*
X34724613Y-73631500D01*
X34924613Y-72598166D02*
X34924613Y-72931500D01*
X34591280Y-72964833D01*
X34624613Y-72931500D01*
X34657946Y-72864833D01*
X34657946Y-72698166D01*
X34624613Y-72631500D01*
X34591280Y-72598166D01*
X34524613Y-72564833D01*
X34357946Y-72564833D01*
X34291280Y-72598166D01*
X34257946Y-72631500D01*
X34224613Y-72698166D01*
X34224613Y-72864833D01*
X34257946Y-72931500D01*
X34291280Y-72964833D01*
X34957946Y-71764833D02*
X34057946Y-72364833D01*
X34224613Y-71531500D02*
X34924613Y-71531500D01*
X34424613Y-71298166D01*
X34924613Y-71064833D01*
X34224613Y-71064833D01*
X34924613Y-70831500D02*
X34924613Y-70431500D01*
X34224613Y-70631500D02*
X34924613Y-70631500D01*
X34224613Y-70198166D02*
X34924613Y-70198166D01*
X34924613Y-70031500D01*
X34891280Y-69931500D01*
X34824613Y-69864833D01*
X34757946Y-69831500D01*
X34624613Y-69798166D01*
X34524613Y-69798166D01*
X34391280Y-69831500D01*
X34324613Y-69864833D01*
X34257946Y-69931500D01*
X34224613Y-70031500D01*
X34224613Y-70198166D01*
X34924613Y-69364833D02*
X34924613Y-69231500D01*
X34891280Y-69164833D01*
X34824613Y-69098166D01*
X34691280Y-69064833D01*
X34457946Y-69064833D01*
X34324613Y-69098166D01*
X34257946Y-69164833D01*
X34224613Y-69231500D01*
X34224613Y-69364833D01*
X34257946Y-69431500D01*
X34324613Y-69498166D01*
X34457946Y-69531500D01*
X34691280Y-69531500D01*
X34824613Y-69498166D01*
X34891280Y-69431500D01*
X34924613Y-69364833D01*
X47591280Y-91063166D02*
X47624613Y-91129833D01*
X47624613Y-91229833D01*
X47591280Y-91329833D01*
X47524613Y-91396500D01*
X47457946Y-91429833D01*
X47324613Y-91463166D01*
X47224613Y-91463166D01*
X47091280Y-91429833D01*
X47024613Y-91396500D01*
X46957946Y-91329833D01*
X46924613Y-91229833D01*
X46924613Y-91163166D01*
X46957946Y-91063166D01*
X46991280Y-91029833D01*
X47224613Y-91029833D01*
X47224613Y-91163166D01*
X46924613Y-90729833D02*
X47624613Y-90729833D01*
X47624613Y-90463166D01*
X47591280Y-90396500D01*
X47557946Y-90363166D01*
X47491280Y-90329833D01*
X47391280Y-90329833D01*
X47324613Y-90363166D01*
X47291280Y-90396500D01*
X47257946Y-90463166D01*
X47257946Y-90729833D01*
X46924613Y-90029833D02*
X47624613Y-90029833D01*
X47624613Y-89563166D02*
X47624613Y-89429833D01*
X47591280Y-89363166D01*
X47524613Y-89296500D01*
X47391280Y-89263166D01*
X47157946Y-89263166D01*
X47024613Y-89296500D01*
X46957946Y-89363166D01*
X46924613Y-89429833D01*
X46924613Y-89563166D01*
X46957946Y-89629833D01*
X47024613Y-89696500D01*
X47157946Y-89729833D01*
X47391280Y-89729833D01*
X47524613Y-89696500D01*
X47591280Y-89629833D01*
X47624613Y-89563166D01*
X47557946Y-88996500D02*
X47591280Y-88963166D01*
X47624613Y-88896500D01*
X47624613Y-88729833D01*
X47591280Y-88663166D01*
X47557946Y-88629833D01*
X47491280Y-88596500D01*
X47424613Y-88596500D01*
X47324613Y-88629833D01*
X46924613Y-89029833D01*
X46924613Y-88596500D01*
X47624613Y-88363166D02*
X47624613Y-87896500D01*
X46924613Y-88196500D01*
X45051280Y-91063166D02*
X45084613Y-91129833D01*
X45084613Y-91229833D01*
X45051280Y-91329833D01*
X44984613Y-91396500D01*
X44917946Y-91429833D01*
X44784613Y-91463166D01*
X44684613Y-91463166D01*
X44551280Y-91429833D01*
X44484613Y-91396500D01*
X44417946Y-91329833D01*
X44384613Y-91229833D01*
X44384613Y-91163166D01*
X44417946Y-91063166D01*
X44451280Y-91029833D01*
X44684613Y-91029833D01*
X44684613Y-91163166D01*
X44384613Y-90729833D02*
X45084613Y-90729833D01*
X45084613Y-90463166D01*
X45051280Y-90396500D01*
X45017946Y-90363166D01*
X44951280Y-90329833D01*
X44851280Y-90329833D01*
X44784613Y-90363166D01*
X44751280Y-90396500D01*
X44717946Y-90463166D01*
X44717946Y-90729833D01*
X44384613Y-90029833D02*
X45084613Y-90029833D01*
X45084613Y-89563166D02*
X45084613Y-89429833D01*
X45051280Y-89363166D01*
X44984613Y-89296500D01*
X44851280Y-89263166D01*
X44617946Y-89263166D01*
X44484613Y-89296500D01*
X44417946Y-89363166D01*
X44384613Y-89429833D01*
X44384613Y-89563166D01*
X44417946Y-89629833D01*
X44484613Y-89696500D01*
X44617946Y-89729833D01*
X44851280Y-89729833D01*
X44984613Y-89696500D01*
X45051280Y-89629833D01*
X45084613Y-89563166D01*
X44384613Y-88596500D02*
X44384613Y-88996500D01*
X44384613Y-88796500D02*
X45084613Y-88796500D01*
X44984613Y-88863166D01*
X44917946Y-88929833D01*
X44884613Y-88996500D01*
X44851280Y-87996500D02*
X44384613Y-87996500D01*
X45117946Y-88163166D02*
X44617946Y-88329833D01*
X44617946Y-87896500D01*
X45117946Y-87129833D02*
X44217946Y-87729833D01*
X44384613Y-86896500D02*
X45084613Y-86896500D01*
X44584613Y-86663166D01*
X45084613Y-86429833D01*
X44384613Y-86429833D01*
X45084613Y-86196500D02*
X45084613Y-85796500D01*
X44384613Y-85996500D02*
X45084613Y-85996500D01*
X44384613Y-85563166D02*
X45084613Y-85563166D01*
X44584613Y-85329833D01*
X45084613Y-85096500D01*
X44384613Y-85096500D01*
X44417946Y-84796500D02*
X44384613Y-84696500D01*
X44384613Y-84529833D01*
X44417946Y-84463166D01*
X44451280Y-84429833D01*
X44517946Y-84396500D01*
X44584613Y-84396500D01*
X44651280Y-84429833D01*
X44684613Y-84463166D01*
X44717946Y-84529833D01*
X44751280Y-84663166D01*
X44784613Y-84729833D01*
X44817946Y-84763166D01*
X44884613Y-84796500D01*
X44951280Y-84796500D01*
X45017946Y-84763166D01*
X45051280Y-84729833D01*
X45084613Y-84663166D01*
X45084613Y-84496500D01*
X45051280Y-84396500D01*
X34224613Y-91429833D02*
X34924613Y-91429833D01*
X34924613Y-91263166D01*
X34891280Y-91163166D01*
X34824613Y-91096500D01*
X34757946Y-91063166D01*
X34624613Y-91029833D01*
X34524613Y-91029833D01*
X34391280Y-91063166D01*
X34324613Y-91096500D01*
X34257946Y-91163166D01*
X34224613Y-91263166D01*
X34224613Y-91429833D01*
X34857946Y-90763166D02*
X34891280Y-90729833D01*
X34924613Y-90663166D01*
X34924613Y-90496500D01*
X34891280Y-90429833D01*
X34857946Y-90396500D01*
X34791280Y-90363166D01*
X34724613Y-90363166D01*
X34624613Y-90396500D01*
X34224613Y-90796500D01*
X34224613Y-90363166D01*
X52671280Y-72198166D02*
X52704613Y-72264833D01*
X52704613Y-72364833D01*
X52671280Y-72464833D01*
X52604613Y-72531500D01*
X52537946Y-72564833D01*
X52404613Y-72598166D01*
X52304613Y-72598166D01*
X52171280Y-72564833D01*
X52104613Y-72531500D01*
X52037946Y-72464833D01*
X52004613Y-72364833D01*
X52004613Y-72298166D01*
X52037946Y-72198166D01*
X52071280Y-72164833D01*
X52304613Y-72164833D01*
X52304613Y-72298166D01*
X52004613Y-71864833D02*
X52704613Y-71864833D01*
X52704613Y-71598166D01*
X52671280Y-71531500D01*
X52637946Y-71498166D01*
X52571280Y-71464833D01*
X52471280Y-71464833D01*
X52404613Y-71498166D01*
X52371280Y-71531500D01*
X52337946Y-71598166D01*
X52337946Y-71864833D01*
X52004613Y-71164833D02*
X52704613Y-71164833D01*
X52704613Y-70698166D02*
X52704613Y-70564833D01*
X52671280Y-70498166D01*
X52604613Y-70431500D01*
X52471280Y-70398166D01*
X52237946Y-70398166D01*
X52104613Y-70431500D01*
X52037946Y-70498166D01*
X52004613Y-70564833D01*
X52004613Y-70698166D01*
X52037946Y-70764833D01*
X52104613Y-70831500D01*
X52237946Y-70864833D01*
X52471280Y-70864833D01*
X52604613Y-70831500D01*
X52671280Y-70764833D01*
X52704613Y-70698166D01*
X52004613Y-69731500D02*
X52004613Y-70131500D01*
X52004613Y-69931500D02*
X52704613Y-69931500D01*
X52604613Y-69998166D01*
X52537946Y-70064833D01*
X52504613Y-70131500D01*
X52404613Y-69331500D02*
X52437946Y-69398166D01*
X52471280Y-69431500D01*
X52537946Y-69464833D01*
X52571280Y-69464833D01*
X52637946Y-69431500D01*
X52671280Y-69398166D01*
X52704613Y-69331500D01*
X52704613Y-69198166D01*
X52671280Y-69131500D01*
X52637946Y-69098166D01*
X52571280Y-69064833D01*
X52537946Y-69064833D01*
X52471280Y-69098166D01*
X52437946Y-69131500D01*
X52404613Y-69198166D01*
X52404613Y-69331500D01*
X52371280Y-69398166D01*
X52337946Y-69431500D01*
X52271280Y-69464833D01*
X52137946Y-69464833D01*
X52071280Y-69431500D01*
X52037946Y-69398166D01*
X52004613Y-69331500D01*
X52004613Y-69198166D01*
X52037946Y-69131500D01*
X52071280Y-69098166D01*
X52137946Y-69064833D01*
X52271280Y-69064833D01*
X52337946Y-69098166D01*
X52371280Y-69131500D01*
X52404613Y-69198166D01*
X70451280Y-72198166D02*
X70484613Y-72264833D01*
X70484613Y-72364833D01*
X70451280Y-72464833D01*
X70384613Y-72531500D01*
X70317946Y-72564833D01*
X70184613Y-72598166D01*
X70084613Y-72598166D01*
X69951280Y-72564833D01*
X69884613Y-72531500D01*
X69817946Y-72464833D01*
X69784613Y-72364833D01*
X69784613Y-72298166D01*
X69817946Y-72198166D01*
X69851280Y-72164833D01*
X70084613Y-72164833D01*
X70084613Y-72298166D01*
X69784613Y-71864833D02*
X70484613Y-71864833D01*
X70484613Y-71598166D01*
X70451280Y-71531500D01*
X70417946Y-71498166D01*
X70351280Y-71464833D01*
X70251280Y-71464833D01*
X70184613Y-71498166D01*
X70151280Y-71531500D01*
X70117946Y-71598166D01*
X70117946Y-71864833D01*
X69784613Y-71164833D02*
X70484613Y-71164833D01*
X70484613Y-70698166D02*
X70484613Y-70564833D01*
X70451280Y-70498166D01*
X70384613Y-70431500D01*
X70251280Y-70398166D01*
X70017946Y-70398166D01*
X69884613Y-70431500D01*
X69817946Y-70498166D01*
X69784613Y-70564833D01*
X69784613Y-70698166D01*
X69817946Y-70764833D01*
X69884613Y-70831500D01*
X70017946Y-70864833D01*
X70251280Y-70864833D01*
X70384613Y-70831500D01*
X70451280Y-70764833D01*
X70484613Y-70698166D01*
X70417946Y-70131500D02*
X70451280Y-70098166D01*
X70484613Y-70031500D01*
X70484613Y-69864833D01*
X70451280Y-69798166D01*
X70417946Y-69764833D01*
X70351280Y-69731500D01*
X70284613Y-69731500D01*
X70184613Y-69764833D01*
X69784613Y-70164833D01*
X69784613Y-69731500D01*
X70484613Y-69498166D02*
X70484613Y-69064833D01*
X70217946Y-69298166D01*
X70217946Y-69198166D01*
X70184613Y-69131500D01*
X70151280Y-69098166D01*
X70084613Y-69064833D01*
X69917946Y-69064833D01*
X69851280Y-69098166D01*
X69817946Y-69131500D01*
X69784613Y-69198166D01*
X69784613Y-69398166D01*
X69817946Y-69464833D01*
X69851280Y-69498166D01*
X47591280Y-72198166D02*
X47624613Y-72264833D01*
X47624613Y-72364833D01*
X47591280Y-72464833D01*
X47524613Y-72531500D01*
X47457946Y-72564833D01*
X47324613Y-72598166D01*
X47224613Y-72598166D01*
X47091280Y-72564833D01*
X47024613Y-72531500D01*
X46957946Y-72464833D01*
X46924613Y-72364833D01*
X46924613Y-72298166D01*
X46957946Y-72198166D01*
X46991280Y-72164833D01*
X47224613Y-72164833D01*
X47224613Y-72298166D01*
X46924613Y-71864833D02*
X47624613Y-71864833D01*
X47624613Y-71598166D01*
X47591280Y-71531500D01*
X47557946Y-71498166D01*
X47491280Y-71464833D01*
X47391280Y-71464833D01*
X47324613Y-71498166D01*
X47291280Y-71531500D01*
X47257946Y-71598166D01*
X47257946Y-71864833D01*
X46924613Y-71164833D02*
X47624613Y-71164833D01*
X47624613Y-70698166D02*
X47624613Y-70564833D01*
X47591280Y-70498166D01*
X47524613Y-70431500D01*
X47391280Y-70398166D01*
X47157946Y-70398166D01*
X47024613Y-70431500D01*
X46957946Y-70498166D01*
X46924613Y-70564833D01*
X46924613Y-70698166D01*
X46957946Y-70764833D01*
X47024613Y-70831500D01*
X47157946Y-70864833D01*
X47391280Y-70864833D01*
X47524613Y-70831500D01*
X47591280Y-70764833D01*
X47624613Y-70698166D01*
X46924613Y-69731500D02*
X46924613Y-70131500D01*
X46924613Y-69931500D02*
X47624613Y-69931500D01*
X47524613Y-69998166D01*
X47457946Y-70064833D01*
X47424613Y-70131500D01*
X47624613Y-69498166D02*
X47624613Y-69031500D01*
X46924613Y-69331500D01*
X60291280Y-91063166D02*
X60324613Y-91129833D01*
X60324613Y-91229833D01*
X60291280Y-91329833D01*
X60224613Y-91396500D01*
X60157946Y-91429833D01*
X60024613Y-91463166D01*
X59924613Y-91463166D01*
X59791280Y-91429833D01*
X59724613Y-91396500D01*
X59657946Y-91329833D01*
X59624613Y-91229833D01*
X59624613Y-91163166D01*
X59657946Y-91063166D01*
X59691280Y-91029833D01*
X59924613Y-91029833D01*
X59924613Y-91163166D01*
X59624613Y-90729833D02*
X60324613Y-90729833D01*
X60324613Y-90463166D01*
X60291280Y-90396500D01*
X60257946Y-90363166D01*
X60191280Y-90329833D01*
X60091280Y-90329833D01*
X60024613Y-90363166D01*
X59991280Y-90396500D01*
X59957946Y-90463166D01*
X59957946Y-90729833D01*
X59624613Y-90029833D02*
X60324613Y-90029833D01*
X60324613Y-89563166D02*
X60324613Y-89429833D01*
X60291280Y-89363166D01*
X60224613Y-89296500D01*
X60091280Y-89263166D01*
X59857946Y-89263166D01*
X59724613Y-89296500D01*
X59657946Y-89363166D01*
X59624613Y-89429833D01*
X59624613Y-89563166D01*
X59657946Y-89629833D01*
X59724613Y-89696500D01*
X59857946Y-89729833D01*
X60091280Y-89729833D01*
X60224613Y-89696500D01*
X60291280Y-89629833D01*
X60324613Y-89563166D01*
X60324613Y-89029833D02*
X60324613Y-88596500D01*
X60057946Y-88829833D01*
X60057946Y-88729833D01*
X60024613Y-88663166D01*
X59991280Y-88629833D01*
X59924613Y-88596500D01*
X59757946Y-88596500D01*
X59691280Y-88629833D01*
X59657946Y-88663166D01*
X59624613Y-88729833D01*
X59624613Y-88929833D01*
X59657946Y-88996500D01*
X59691280Y-89029833D01*
X60324613Y-87963166D02*
X60324613Y-88296500D01*
X59991280Y-88329833D01*
X60024613Y-88296500D01*
X60057946Y-88229833D01*
X60057946Y-88063166D01*
X60024613Y-87996500D01*
X59991280Y-87963166D01*
X59924613Y-87929833D01*
X59757946Y-87929833D01*
X59691280Y-87963166D01*
X59657946Y-87996500D01*
X59624613Y-88063166D01*
X59624613Y-88229833D01*
X59657946Y-88296500D01*
X59691280Y-88329833D01*
X55211280Y-91063166D02*
X55244613Y-91129833D01*
X55244613Y-91229833D01*
X55211280Y-91329833D01*
X55144613Y-91396500D01*
X55077946Y-91429833D01*
X54944613Y-91463166D01*
X54844613Y-91463166D01*
X54711280Y-91429833D01*
X54644613Y-91396500D01*
X54577946Y-91329833D01*
X54544613Y-91229833D01*
X54544613Y-91163166D01*
X54577946Y-91063166D01*
X54611280Y-91029833D01*
X54844613Y-91029833D01*
X54844613Y-91163166D01*
X54544613Y-90729833D02*
X55244613Y-90729833D01*
X55244613Y-90463166D01*
X55211280Y-90396500D01*
X55177946Y-90363166D01*
X55111280Y-90329833D01*
X55011280Y-90329833D01*
X54944613Y-90363166D01*
X54911280Y-90396500D01*
X54877946Y-90463166D01*
X54877946Y-90729833D01*
X54544613Y-90029833D02*
X55244613Y-90029833D01*
X55244613Y-89563166D02*
X55244613Y-89429833D01*
X55211280Y-89363166D01*
X55144613Y-89296500D01*
X55011280Y-89263166D01*
X54777946Y-89263166D01*
X54644613Y-89296500D01*
X54577946Y-89363166D01*
X54544613Y-89429833D01*
X54544613Y-89563166D01*
X54577946Y-89629833D01*
X54644613Y-89696500D01*
X54777946Y-89729833D01*
X55011280Y-89729833D01*
X55144613Y-89696500D01*
X55211280Y-89629833D01*
X55244613Y-89563166D01*
X55244613Y-89029833D02*
X55244613Y-88596500D01*
X54977946Y-88829833D01*
X54977946Y-88729833D01*
X54944613Y-88663166D01*
X54911280Y-88629833D01*
X54844613Y-88596500D01*
X54677946Y-88596500D01*
X54611280Y-88629833D01*
X54577946Y-88663166D01*
X54544613Y-88729833D01*
X54544613Y-88929833D01*
X54577946Y-88996500D01*
X54611280Y-89029833D01*
X55244613Y-88363166D02*
X55244613Y-87929833D01*
X54977946Y-88163166D01*
X54977946Y-88063166D01*
X54944613Y-87996500D01*
X54911280Y-87963166D01*
X54844613Y-87929833D01*
X54677946Y-87929833D01*
X54611280Y-87963166D01*
X54577946Y-87996500D01*
X54544613Y-88063166D01*
X54544613Y-88263166D01*
X54577946Y-88329833D01*
X54611280Y-88363166D01*
X50131280Y-91063166D02*
X50164613Y-91129833D01*
X50164613Y-91229833D01*
X50131280Y-91329833D01*
X50064613Y-91396500D01*
X49997946Y-91429833D01*
X49864613Y-91463166D01*
X49764613Y-91463166D01*
X49631280Y-91429833D01*
X49564613Y-91396500D01*
X49497946Y-91329833D01*
X49464613Y-91229833D01*
X49464613Y-91163166D01*
X49497946Y-91063166D01*
X49531280Y-91029833D01*
X49764613Y-91029833D01*
X49764613Y-91163166D01*
X49464613Y-90729833D02*
X50164613Y-90729833D01*
X50164613Y-90463166D01*
X50131280Y-90396500D01*
X50097946Y-90363166D01*
X50031280Y-90329833D01*
X49931280Y-90329833D01*
X49864613Y-90363166D01*
X49831280Y-90396500D01*
X49797946Y-90463166D01*
X49797946Y-90729833D01*
X49464613Y-90029833D02*
X50164613Y-90029833D01*
X50164613Y-89563166D02*
X50164613Y-89429833D01*
X50131280Y-89363166D01*
X50064613Y-89296500D01*
X49931280Y-89263166D01*
X49697946Y-89263166D01*
X49564613Y-89296500D01*
X49497946Y-89363166D01*
X49464613Y-89429833D01*
X49464613Y-89563166D01*
X49497946Y-89629833D01*
X49564613Y-89696500D01*
X49697946Y-89729833D01*
X49931280Y-89729833D01*
X50064613Y-89696500D01*
X50131280Y-89629833D01*
X50164613Y-89563166D01*
X50097946Y-88996500D02*
X50131280Y-88963166D01*
X50164613Y-88896500D01*
X50164613Y-88729833D01*
X50131280Y-88663166D01*
X50097946Y-88629833D01*
X50031280Y-88596500D01*
X49964613Y-88596500D01*
X49864613Y-88629833D01*
X49464613Y-89029833D01*
X49464613Y-88596500D01*
X50164613Y-87996500D02*
X50164613Y-88129833D01*
X50131280Y-88196500D01*
X50097946Y-88229833D01*
X49997946Y-88296500D01*
X49864613Y-88329833D01*
X49597946Y-88329833D01*
X49531280Y-88296500D01*
X49497946Y-88263166D01*
X49464613Y-88196500D01*
X49464613Y-88063166D01*
X49497946Y-87996500D01*
X49531280Y-87963166D01*
X49597946Y-87929833D01*
X49764613Y-87929833D01*
X49831280Y-87963166D01*
X49864613Y-87996500D01*
X49897946Y-88063166D01*
X49897946Y-88196500D01*
X49864613Y-88263166D01*
X49831280Y-88296500D01*
X49764613Y-88329833D01*
X50131280Y-71531500D02*
X50164613Y-71598166D01*
X50164613Y-71698166D01*
X50131280Y-71798166D01*
X50064613Y-71864833D01*
X49997946Y-71898166D01*
X49864613Y-71931500D01*
X49764613Y-71931500D01*
X49631280Y-71898166D01*
X49564613Y-71864833D01*
X49497946Y-71798166D01*
X49464613Y-71698166D01*
X49464613Y-71631500D01*
X49497946Y-71531500D01*
X49531280Y-71498166D01*
X49764613Y-71498166D01*
X49764613Y-71631500D01*
X49464613Y-71198166D02*
X50164613Y-71198166D01*
X50164613Y-70931500D01*
X50131280Y-70864833D01*
X50097946Y-70831500D01*
X50031280Y-70798166D01*
X49931280Y-70798166D01*
X49864613Y-70831500D01*
X49831280Y-70864833D01*
X49797946Y-70931500D01*
X49797946Y-71198166D01*
X49464613Y-70498166D02*
X50164613Y-70498166D01*
X50164613Y-70031500D02*
X50164613Y-69898166D01*
X50131280Y-69831500D01*
X50064613Y-69764833D01*
X49931280Y-69731500D01*
X49697946Y-69731500D01*
X49564613Y-69764833D01*
X49497946Y-69831500D01*
X49464613Y-69898166D01*
X49464613Y-70031500D01*
X49497946Y-70098166D01*
X49564613Y-70164833D01*
X49697946Y-70198166D01*
X49931280Y-70198166D01*
X50064613Y-70164833D01*
X50131280Y-70098166D01*
X50164613Y-70031500D01*
X50164613Y-69098166D02*
X50164613Y-69431500D01*
X49831280Y-69464833D01*
X49864613Y-69431500D01*
X49897946Y-69364833D01*
X49897946Y-69198166D01*
X49864613Y-69131500D01*
X49831280Y-69098166D01*
X49764613Y-69064833D01*
X49597946Y-69064833D01*
X49531280Y-69098166D01*
X49497946Y-69131500D01*
X49464613Y-69198166D01*
X49464613Y-69364833D01*
X49497946Y-69431500D01*
X49531280Y-69464833D01*
X73141280Y-71217214D02*
X73188899Y-71312452D01*
X73188899Y-71455309D01*
X73141280Y-71598166D01*
X73046041Y-71693404D01*
X72950803Y-71741023D01*
X72760327Y-71788642D01*
X72617470Y-71788642D01*
X72426994Y-71741023D01*
X72331756Y-71693404D01*
X72236518Y-71598166D01*
X72188899Y-71455309D01*
X72188899Y-71360071D01*
X72236518Y-71217214D01*
X72284137Y-71169595D01*
X72617470Y-71169595D01*
X72617470Y-71360071D01*
X72188899Y-70741023D02*
X73188899Y-70741023D01*
X72188899Y-70169595D01*
X73188899Y-70169595D01*
X72188899Y-69693404D02*
X73188899Y-69693404D01*
X73188899Y-69455309D01*
X73141280Y-69312452D01*
X73046041Y-69217214D01*
X72950803Y-69169595D01*
X72760327Y-69121976D01*
X72617470Y-69121976D01*
X72426994Y-69169595D01*
X72331756Y-69217214D01*
X72236518Y-69312452D01*
X72188899Y-69455309D01*
X72188899Y-69693404D01*
X62831280Y-91063166D02*
X62864613Y-91129833D01*
X62864613Y-91229833D01*
X62831280Y-91329833D01*
X62764613Y-91396500D01*
X62697946Y-91429833D01*
X62564613Y-91463166D01*
X62464613Y-91463166D01*
X62331280Y-91429833D01*
X62264613Y-91396500D01*
X62197946Y-91329833D01*
X62164613Y-91229833D01*
X62164613Y-91163166D01*
X62197946Y-91063166D01*
X62231280Y-91029833D01*
X62464613Y-91029833D01*
X62464613Y-91163166D01*
X62164613Y-90729833D02*
X62864613Y-90729833D01*
X62864613Y-90463166D01*
X62831280Y-90396500D01*
X62797946Y-90363166D01*
X62731280Y-90329833D01*
X62631280Y-90329833D01*
X62564613Y-90363166D01*
X62531280Y-90396500D01*
X62497946Y-90463166D01*
X62497946Y-90729833D01*
X62164613Y-90029833D02*
X62864613Y-90029833D01*
X62864613Y-89563166D02*
X62864613Y-89429833D01*
X62831280Y-89363166D01*
X62764613Y-89296500D01*
X62631280Y-89263166D01*
X62397946Y-89263166D01*
X62264613Y-89296500D01*
X62197946Y-89363166D01*
X62164613Y-89429833D01*
X62164613Y-89563166D01*
X62197946Y-89629833D01*
X62264613Y-89696500D01*
X62397946Y-89729833D01*
X62631280Y-89729833D01*
X62764613Y-89696500D01*
X62831280Y-89629833D01*
X62864613Y-89563166D01*
X62864613Y-89029833D02*
X62864613Y-88596500D01*
X62597946Y-88829833D01*
X62597946Y-88729833D01*
X62564613Y-88663166D01*
X62531280Y-88629833D01*
X62464613Y-88596500D01*
X62297946Y-88596500D01*
X62231280Y-88629833D01*
X62197946Y-88663166D01*
X62164613Y-88729833D01*
X62164613Y-88929833D01*
X62197946Y-88996500D01*
X62231280Y-89029833D01*
X62631280Y-87996500D02*
X62164613Y-87996500D01*
X62897946Y-88163166D02*
X62397946Y-88329833D01*
X62397946Y-87896500D01*
X67944613Y-91529833D02*
X67244613Y-91296500D01*
X67944613Y-91063166D01*
X67244613Y-90829833D02*
X67944613Y-90829833D01*
X67944613Y-90563166D01*
X67911280Y-90496500D01*
X67877946Y-90463166D01*
X67811280Y-90429833D01*
X67711280Y-90429833D01*
X67644613Y-90463166D01*
X67611280Y-90496500D01*
X67577946Y-90563166D01*
X67577946Y-90829833D01*
X67977946Y-89629833D02*
X67077946Y-90229833D01*
X67911280Y-89029833D02*
X67944613Y-89096500D01*
X67944613Y-89196500D01*
X67911280Y-89296500D01*
X67844613Y-89363166D01*
X67777946Y-89396500D01*
X67644613Y-89429833D01*
X67544613Y-89429833D01*
X67411280Y-89396500D01*
X67344613Y-89363166D01*
X67277946Y-89296500D01*
X67244613Y-89196500D01*
X67244613Y-89129833D01*
X67277946Y-89029833D01*
X67311280Y-88996500D01*
X67544613Y-88996500D01*
X67544613Y-89129833D01*
X67244613Y-88696500D02*
X67944613Y-88696500D01*
X67944613Y-88429833D01*
X67911280Y-88363166D01*
X67877946Y-88329833D01*
X67811280Y-88296500D01*
X67711280Y-88296500D01*
X67644613Y-88329833D01*
X67611280Y-88363166D01*
X67577946Y-88429833D01*
X67577946Y-88696500D01*
X67244613Y-87996500D02*
X67944613Y-87996500D01*
X67944613Y-87529833D02*
X67944613Y-87396500D01*
X67911280Y-87329833D01*
X67844613Y-87263166D01*
X67711280Y-87229833D01*
X67477946Y-87229833D01*
X67344613Y-87263166D01*
X67277946Y-87329833D01*
X67244613Y-87396500D01*
X67244613Y-87529833D01*
X67277946Y-87596500D01*
X67344613Y-87663166D01*
X67477946Y-87696500D01*
X67711280Y-87696500D01*
X67844613Y-87663166D01*
X67911280Y-87596500D01*
X67944613Y-87529833D01*
X67944613Y-86996500D02*
X67944613Y-86563166D01*
X67677946Y-86796500D01*
X67677946Y-86696500D01*
X67644613Y-86629833D01*
X67611280Y-86596500D01*
X67544613Y-86563166D01*
X67377946Y-86563166D01*
X67311280Y-86596500D01*
X67277946Y-86629833D01*
X67244613Y-86696500D01*
X67244613Y-86896500D01*
X67277946Y-86963166D01*
X67311280Y-86996500D01*
X67944613Y-85963166D02*
X67944613Y-86096500D01*
X67911280Y-86163166D01*
X67877946Y-86196500D01*
X67777946Y-86263166D01*
X67644613Y-86296500D01*
X67377946Y-86296500D01*
X67311280Y-86263166D01*
X67277946Y-86229833D01*
X67244613Y-86163166D01*
X67244613Y-86029833D01*
X67277946Y-85963166D01*
X67311280Y-85929833D01*
X67377946Y-85896500D01*
X67544613Y-85896500D01*
X67611280Y-85929833D01*
X67644613Y-85963166D01*
X67677946Y-86029833D01*
X67677946Y-86163166D01*
X67644613Y-86229833D01*
X67611280Y-86263166D01*
X67544613Y-86296500D01*
X65371280Y-75564833D02*
X65404613Y-75631500D01*
X65404613Y-75731500D01*
X65371280Y-75831500D01*
X65304613Y-75898166D01*
X65237946Y-75931500D01*
X65104613Y-75964833D01*
X65004613Y-75964833D01*
X64871280Y-75931500D01*
X64804613Y-75898166D01*
X64737946Y-75831500D01*
X64704613Y-75731500D01*
X64704613Y-75664833D01*
X64737946Y-75564833D01*
X64771280Y-75531500D01*
X65004613Y-75531500D01*
X65004613Y-75664833D01*
X64704613Y-75231500D02*
X65404613Y-75231500D01*
X65404613Y-74964833D01*
X65371280Y-74898166D01*
X65337946Y-74864833D01*
X65271280Y-74831500D01*
X65171280Y-74831500D01*
X65104613Y-74864833D01*
X65071280Y-74898166D01*
X65037946Y-74964833D01*
X65037946Y-75231500D01*
X64704613Y-74531500D02*
X65404613Y-74531500D01*
X65404613Y-74064833D02*
X65404613Y-73931500D01*
X65371280Y-73864833D01*
X65304613Y-73798166D01*
X65171280Y-73764833D01*
X64937946Y-73764833D01*
X64804613Y-73798166D01*
X64737946Y-73864833D01*
X64704613Y-73931500D01*
X64704613Y-74064833D01*
X64737946Y-74131500D01*
X64804613Y-74198166D01*
X64937946Y-74231500D01*
X65171280Y-74231500D01*
X65304613Y-74198166D01*
X65371280Y-74131500D01*
X65404613Y-74064833D01*
X64704613Y-73098166D02*
X64704613Y-73498166D01*
X64704613Y-73298166D02*
X65404613Y-73298166D01*
X65304613Y-73364833D01*
X65237946Y-73431500D01*
X65204613Y-73498166D01*
X65437946Y-72298166D02*
X64537946Y-72898166D01*
X65404613Y-72064833D02*
X64837946Y-72064833D01*
X64771280Y-72031500D01*
X64737946Y-71998166D01*
X64704613Y-71931500D01*
X64704613Y-71798166D01*
X64737946Y-71731500D01*
X64771280Y-71698166D01*
X64837946Y-71664833D01*
X65404613Y-71664833D01*
X65404613Y-71198166D02*
X65404613Y-71131500D01*
X65371280Y-71064833D01*
X65337946Y-71031500D01*
X65271280Y-70998166D01*
X65137946Y-70964833D01*
X64971280Y-70964833D01*
X64837946Y-70998166D01*
X64771280Y-71031500D01*
X64737946Y-71064833D01*
X64704613Y-71131500D01*
X64704613Y-71198166D01*
X64737946Y-71264833D01*
X64771280Y-71298166D01*
X64837946Y-71331500D01*
X64971280Y-71364833D01*
X65137946Y-71364833D01*
X65271280Y-71331500D01*
X65337946Y-71298166D01*
X65371280Y-71264833D01*
X65404613Y-71198166D01*
X65404613Y-70764833D02*
X65404613Y-70364833D01*
X64704613Y-70564833D02*
X65404613Y-70564833D01*
X65404613Y-70198166D02*
X64704613Y-69731500D01*
X65404613Y-69731500D02*
X64704613Y-70198166D01*
X64704613Y-69464833D02*
X65404613Y-69464833D01*
X65404613Y-69298166D01*
X65371280Y-69198166D01*
X65304613Y-69131500D01*
X65237946Y-69098166D01*
X65104613Y-69064833D01*
X65004613Y-69064833D01*
X64871280Y-69098166D01*
X64804613Y-69131500D01*
X64737946Y-69198166D01*
X64704613Y-69298166D01*
X64704613Y-69464833D01*
X37431280Y-71531500D02*
X37464613Y-71598166D01*
X37464613Y-71698166D01*
X37431280Y-71798166D01*
X37364613Y-71864833D01*
X37297946Y-71898166D01*
X37164613Y-71931500D01*
X37064613Y-71931500D01*
X36931280Y-71898166D01*
X36864613Y-71864833D01*
X36797946Y-71798166D01*
X36764613Y-71698166D01*
X36764613Y-71631500D01*
X36797946Y-71531500D01*
X36831280Y-71498166D01*
X37064613Y-71498166D01*
X37064613Y-71631500D01*
X36764613Y-71198166D02*
X37464613Y-71198166D01*
X37464613Y-70931500D01*
X37431280Y-70864833D01*
X37397946Y-70831500D01*
X37331280Y-70798166D01*
X37231280Y-70798166D01*
X37164613Y-70831500D01*
X37131280Y-70864833D01*
X37097946Y-70931500D01*
X37097946Y-71198166D01*
X36764613Y-70498166D02*
X37464613Y-70498166D01*
X37464613Y-70031500D02*
X37464613Y-69898166D01*
X37431280Y-69831500D01*
X37364613Y-69764833D01*
X37231280Y-69731500D01*
X36997946Y-69731500D01*
X36864613Y-69764833D01*
X36797946Y-69831500D01*
X36764613Y-69898166D01*
X36764613Y-70031500D01*
X36797946Y-70098166D01*
X36864613Y-70164833D01*
X36997946Y-70198166D01*
X37231280Y-70198166D01*
X37364613Y-70164833D01*
X37431280Y-70098166D01*
X37464613Y-70031500D01*
X37397946Y-69464833D02*
X37431280Y-69431500D01*
X37464613Y-69364833D01*
X37464613Y-69198166D01*
X37431280Y-69131500D01*
X37397946Y-69098166D01*
X37331280Y-69064833D01*
X37264613Y-69064833D01*
X37164613Y-69098166D01*
X36764613Y-69498166D01*
X36764613Y-69064833D01*
X57751280Y-91063166D02*
X57784613Y-91129833D01*
X57784613Y-91229833D01*
X57751280Y-91329833D01*
X57684613Y-91396500D01*
X57617946Y-91429833D01*
X57484613Y-91463166D01*
X57384613Y-91463166D01*
X57251280Y-91429833D01*
X57184613Y-91396500D01*
X57117946Y-91329833D01*
X57084613Y-91229833D01*
X57084613Y-91163166D01*
X57117946Y-91063166D01*
X57151280Y-91029833D01*
X57384613Y-91029833D01*
X57384613Y-91163166D01*
X57084613Y-90729833D02*
X57784613Y-90729833D01*
X57784613Y-90463166D01*
X57751280Y-90396500D01*
X57717946Y-90363166D01*
X57651280Y-90329833D01*
X57551280Y-90329833D01*
X57484613Y-90363166D01*
X57451280Y-90396500D01*
X57417946Y-90463166D01*
X57417946Y-90729833D01*
X57084613Y-90029833D02*
X57784613Y-90029833D01*
X57784613Y-89563166D02*
X57784613Y-89429833D01*
X57751280Y-89363166D01*
X57684613Y-89296500D01*
X57551280Y-89263166D01*
X57317946Y-89263166D01*
X57184613Y-89296500D01*
X57117946Y-89363166D01*
X57084613Y-89429833D01*
X57084613Y-89563166D01*
X57117946Y-89629833D01*
X57184613Y-89696500D01*
X57317946Y-89729833D01*
X57551280Y-89729833D01*
X57684613Y-89696500D01*
X57751280Y-89629833D01*
X57784613Y-89563166D01*
X57784613Y-89029833D02*
X57784613Y-88596500D01*
X57517946Y-88829833D01*
X57517946Y-88729833D01*
X57484613Y-88663166D01*
X57451280Y-88629833D01*
X57384613Y-88596500D01*
X57217946Y-88596500D01*
X57151280Y-88629833D01*
X57117946Y-88663166D01*
X57084613Y-88729833D01*
X57084613Y-88929833D01*
X57117946Y-88996500D01*
X57151280Y-89029833D01*
X57717946Y-88329833D02*
X57751280Y-88296500D01*
X57784613Y-88229833D01*
X57784613Y-88063166D01*
X57751280Y-87996500D01*
X57717946Y-87963166D01*
X57651280Y-87929833D01*
X57584613Y-87929833D01*
X57484613Y-87963166D01*
X57084613Y-88363166D01*
X57084613Y-87929833D01*
X60291280Y-72198166D02*
X60324613Y-72264833D01*
X60324613Y-72364833D01*
X60291280Y-72464833D01*
X60224613Y-72531500D01*
X60157946Y-72564833D01*
X60024613Y-72598166D01*
X59924613Y-72598166D01*
X59791280Y-72564833D01*
X59724613Y-72531500D01*
X59657946Y-72464833D01*
X59624613Y-72364833D01*
X59624613Y-72298166D01*
X59657946Y-72198166D01*
X59691280Y-72164833D01*
X59924613Y-72164833D01*
X59924613Y-72298166D01*
X59624613Y-71864833D02*
X60324613Y-71864833D01*
X60324613Y-71598166D01*
X60291280Y-71531500D01*
X60257946Y-71498166D01*
X60191280Y-71464833D01*
X60091280Y-71464833D01*
X60024613Y-71498166D01*
X59991280Y-71531500D01*
X59957946Y-71598166D01*
X59957946Y-71864833D01*
X59624613Y-71164833D02*
X60324613Y-71164833D01*
X60324613Y-70698166D02*
X60324613Y-70564833D01*
X60291280Y-70498166D01*
X60224613Y-70431500D01*
X60091280Y-70398166D01*
X59857946Y-70398166D01*
X59724613Y-70431500D01*
X59657946Y-70498166D01*
X59624613Y-70564833D01*
X59624613Y-70698166D01*
X59657946Y-70764833D01*
X59724613Y-70831500D01*
X59857946Y-70864833D01*
X60091280Y-70864833D01*
X60224613Y-70831500D01*
X60291280Y-70764833D01*
X60324613Y-70698166D01*
X60257946Y-70131500D02*
X60291280Y-70098166D01*
X60324613Y-70031500D01*
X60324613Y-69864833D01*
X60291280Y-69798166D01*
X60257946Y-69764833D01*
X60191280Y-69731500D01*
X60124613Y-69731500D01*
X60024613Y-69764833D01*
X59624613Y-70164833D01*
X59624613Y-69731500D01*
X59624613Y-69064833D02*
X59624613Y-69464833D01*
X59624613Y-69264833D02*
X60324613Y-69264833D01*
X60224613Y-69331500D01*
X60157946Y-69398166D01*
X60124613Y-69464833D01*
X40121280Y-90834595D02*
X40168899Y-90929833D01*
X40168899Y-91072690D01*
X40121280Y-91215547D01*
X40026041Y-91310785D01*
X39930803Y-91358404D01*
X39740327Y-91406023D01*
X39597470Y-91406023D01*
X39406994Y-91358404D01*
X39311756Y-91310785D01*
X39216518Y-91215547D01*
X39168899Y-91072690D01*
X39168899Y-90977452D01*
X39216518Y-90834595D01*
X39264137Y-90786976D01*
X39597470Y-90786976D01*
X39597470Y-90977452D01*
X39168899Y-90358404D02*
X40168899Y-90358404D01*
X39168899Y-89786976D01*
X40168899Y-89786976D01*
X39168899Y-89310785D02*
X40168899Y-89310785D01*
X40168899Y-89072690D01*
X40121280Y-88929833D01*
X40026041Y-88834595D01*
X39930803Y-88786976D01*
X39740327Y-88739357D01*
X39597470Y-88739357D01*
X39406994Y-88786976D01*
X39311756Y-88834595D01*
X39216518Y-88929833D01*
X39168899Y-89072690D01*
X39168899Y-89310785D01*
X31684613Y-91429833D02*
X32384613Y-91429833D01*
X32384613Y-91263166D01*
X32351280Y-91163166D01*
X32284613Y-91096500D01*
X32217946Y-91063166D01*
X32084613Y-91029833D01*
X31984613Y-91029833D01*
X31851280Y-91063166D01*
X31784613Y-91096500D01*
X31717946Y-91163166D01*
X31684613Y-91263166D01*
X31684613Y-91429833D01*
X32384613Y-90796500D02*
X32384613Y-90363166D01*
X32117946Y-90596500D01*
X32117946Y-90496500D01*
X32084613Y-90429833D01*
X32051280Y-90396500D01*
X31984613Y-90363166D01*
X31817946Y-90363166D01*
X31751280Y-90396500D01*
X31717946Y-90429833D01*
X31684613Y-90496500D01*
X31684613Y-90696500D01*
X31717946Y-90763166D01*
X31751280Y-90796500D01*
X57901280Y-71217214D02*
X57948899Y-71312452D01*
X57948899Y-71455309D01*
X57901280Y-71598166D01*
X57806041Y-71693404D01*
X57710803Y-71741023D01*
X57520327Y-71788642D01*
X57377470Y-71788642D01*
X57186994Y-71741023D01*
X57091756Y-71693404D01*
X56996518Y-71598166D01*
X56948899Y-71455309D01*
X56948899Y-71360071D01*
X56996518Y-71217214D01*
X57044137Y-71169595D01*
X57377470Y-71169595D01*
X57377470Y-71360071D01*
X56948899Y-70741023D02*
X57948899Y-70741023D01*
X56948899Y-70169595D01*
X57948899Y-70169595D01*
X56948899Y-69693404D02*
X57948899Y-69693404D01*
X57948899Y-69455309D01*
X57901280Y-69312452D01*
X57806041Y-69217214D01*
X57710803Y-69169595D01*
X57520327Y-69121976D01*
X57377470Y-69121976D01*
X57186994Y-69169595D01*
X57091756Y-69217214D01*
X56996518Y-69312452D01*
X56948899Y-69455309D01*
X56948899Y-69693404D01*
X55211280Y-72198166D02*
X55244613Y-72264833D01*
X55244613Y-72364833D01*
X55211280Y-72464833D01*
X55144613Y-72531500D01*
X55077946Y-72564833D01*
X54944613Y-72598166D01*
X54844613Y-72598166D01*
X54711280Y-72564833D01*
X54644613Y-72531500D01*
X54577946Y-72464833D01*
X54544613Y-72364833D01*
X54544613Y-72298166D01*
X54577946Y-72198166D01*
X54611280Y-72164833D01*
X54844613Y-72164833D01*
X54844613Y-72298166D01*
X54544613Y-71864833D02*
X55244613Y-71864833D01*
X55244613Y-71598166D01*
X55211280Y-71531500D01*
X55177946Y-71498166D01*
X55111280Y-71464833D01*
X55011280Y-71464833D01*
X54944613Y-71498166D01*
X54911280Y-71531500D01*
X54877946Y-71598166D01*
X54877946Y-71864833D01*
X54544613Y-71164833D02*
X55244613Y-71164833D01*
X55244613Y-70698166D02*
X55244613Y-70564833D01*
X55211280Y-70498166D01*
X55144613Y-70431500D01*
X55011280Y-70398166D01*
X54777946Y-70398166D01*
X54644613Y-70431500D01*
X54577946Y-70498166D01*
X54544613Y-70564833D01*
X54544613Y-70698166D01*
X54577946Y-70764833D01*
X54644613Y-70831500D01*
X54777946Y-70864833D01*
X55011280Y-70864833D01*
X55144613Y-70831500D01*
X55211280Y-70764833D01*
X55244613Y-70698166D01*
X54544613Y-69731500D02*
X54544613Y-70131500D01*
X54544613Y-69931500D02*
X55244613Y-69931500D01*
X55144613Y-69998166D01*
X55077946Y-70064833D01*
X55044613Y-70131500D01*
X54544613Y-69398166D02*
X54544613Y-69264833D01*
X54577946Y-69198166D01*
X54611280Y-69164833D01*
X54711280Y-69098166D01*
X54844613Y-69064833D01*
X55111280Y-69064833D01*
X55177946Y-69098166D01*
X55211280Y-69131500D01*
X55244613Y-69198166D01*
X55244613Y-69331500D01*
X55211280Y-69398166D01*
X55177946Y-69431500D01*
X55111280Y-69464833D01*
X54944613Y-69464833D01*
X54877946Y-69431500D01*
X54844613Y-69398166D01*
X54811280Y-69331500D01*
X54811280Y-69198166D01*
X54844613Y-69131500D01*
X54877946Y-69098166D01*
X54944613Y-69064833D01*
X29211280Y-91029833D02*
X29177946Y-91063166D01*
X29144613Y-91163166D01*
X29144613Y-91229833D01*
X29177946Y-91329833D01*
X29244613Y-91396500D01*
X29311280Y-91429833D01*
X29444613Y-91463166D01*
X29544613Y-91463166D01*
X29677946Y-91429833D01*
X29744613Y-91396500D01*
X29811280Y-91329833D01*
X29844613Y-91229833D01*
X29844613Y-91163166D01*
X29811280Y-91063166D01*
X29777946Y-91029833D01*
X29144613Y-90729833D02*
X29844613Y-90729833D01*
X29344613Y-90496500D01*
X29844613Y-90263166D01*
X29144613Y-90263166D01*
X29144613Y-89929833D02*
X29844613Y-89929833D01*
X29844613Y-89763166D01*
X29811280Y-89663166D01*
X29744613Y-89596500D01*
X29677946Y-89563166D01*
X29544613Y-89529833D01*
X29444613Y-89529833D01*
X29311280Y-89563166D01*
X29244613Y-89596500D01*
X29177946Y-89663166D01*
X29144613Y-89763166D01*
X29144613Y-89929833D01*
X70175428Y-91460894D02*
X70175428Y-91127560D01*
X69651619Y-90984703D02*
X69651619Y-91460894D01*
X70651619Y-91460894D01*
X70651619Y-90984703D01*
X69651619Y-90556132D02*
X70651619Y-90556132D01*
X69651619Y-89984703D01*
X70651619Y-89984703D01*
X70699238Y-88794227D02*
X69413523Y-89651370D01*
X69651619Y-87889465D02*
X70127809Y-88222799D01*
X69651619Y-88460894D02*
X70651619Y-88460894D01*
X70651619Y-88079941D01*
X70604000Y-87984703D01*
X70556380Y-87937084D01*
X70461142Y-87889465D01*
X70318285Y-87889465D01*
X70223047Y-87937084D01*
X70175428Y-87984703D01*
X70127809Y-88079941D01*
X70127809Y-88460894D01*
X70175428Y-87460894D02*
X70175428Y-87127560D01*
X69651619Y-86984703D02*
X69651619Y-87460894D01*
X70651619Y-87460894D01*
X70651619Y-86984703D01*
X69699238Y-86603751D02*
X69651619Y-86460894D01*
X69651619Y-86222799D01*
X69699238Y-86127560D01*
X69746857Y-86079941D01*
X69842095Y-86032322D01*
X69937333Y-86032322D01*
X70032571Y-86079941D01*
X70080190Y-86127560D01*
X70127809Y-86222799D01*
X70175428Y-86413275D01*
X70223047Y-86508513D01*
X70270666Y-86556132D01*
X70365904Y-86603751D01*
X70461142Y-86603751D01*
X70556380Y-86556132D01*
X70604000Y-86508513D01*
X70651619Y-86413275D01*
X70651619Y-86175180D01*
X70604000Y-86032322D01*
X70175428Y-85603751D02*
X70175428Y-85270418D01*
X69651619Y-85127560D02*
X69651619Y-85603751D01*
X70651619Y-85603751D01*
X70651619Y-85127560D01*
X70651619Y-84841846D02*
X70651619Y-84270418D01*
X69651619Y-84556132D02*
X70651619Y-84556132D01*
X62831280Y-75731500D02*
X62864613Y-75798166D01*
X62864613Y-75898166D01*
X62831280Y-75998166D01*
X62764613Y-76064833D01*
X62697946Y-76098166D01*
X62564613Y-76131500D01*
X62464613Y-76131500D01*
X62331280Y-76098166D01*
X62264613Y-76064833D01*
X62197946Y-75998166D01*
X62164613Y-75898166D01*
X62164613Y-75831500D01*
X62197946Y-75731500D01*
X62231280Y-75698166D01*
X62464613Y-75698166D01*
X62464613Y-75831500D01*
X62164613Y-75398166D02*
X62864613Y-75398166D01*
X62864613Y-75131500D01*
X62831280Y-75064833D01*
X62797946Y-75031500D01*
X62731280Y-74998166D01*
X62631280Y-74998166D01*
X62564613Y-75031500D01*
X62531280Y-75064833D01*
X62497946Y-75131500D01*
X62497946Y-75398166D01*
X62164613Y-74698166D02*
X62864613Y-74698166D01*
X62864613Y-74231500D02*
X62864613Y-74098166D01*
X62831280Y-74031500D01*
X62764613Y-73964833D01*
X62631280Y-73931500D01*
X62397946Y-73931500D01*
X62264613Y-73964833D01*
X62197946Y-74031500D01*
X62164613Y-74098166D01*
X62164613Y-74231500D01*
X62197946Y-74298166D01*
X62264613Y-74364833D01*
X62397946Y-74398166D01*
X62631280Y-74398166D01*
X62764613Y-74364833D01*
X62831280Y-74298166D01*
X62864613Y-74231500D01*
X62864613Y-73698166D02*
X62864613Y-73264833D01*
X62597946Y-73498166D01*
X62597946Y-73398166D01*
X62564613Y-73331500D01*
X62531280Y-73298166D01*
X62464613Y-73264833D01*
X62297946Y-73264833D01*
X62231280Y-73298166D01*
X62197946Y-73331500D01*
X62164613Y-73398166D01*
X62164613Y-73598166D01*
X62197946Y-73664833D01*
X62231280Y-73698166D01*
X62897946Y-72464833D02*
X61997946Y-73064833D01*
X62864613Y-72231500D02*
X62297946Y-72231500D01*
X62231280Y-72198166D01*
X62197946Y-72164833D01*
X62164613Y-72098166D01*
X62164613Y-71964833D01*
X62197946Y-71898166D01*
X62231280Y-71864833D01*
X62297946Y-71831500D01*
X62864613Y-71831500D01*
X62864613Y-71364833D02*
X62864613Y-71298166D01*
X62831280Y-71231500D01*
X62797946Y-71198166D01*
X62731280Y-71164833D01*
X62597946Y-71131500D01*
X62431280Y-71131500D01*
X62297946Y-71164833D01*
X62231280Y-71198166D01*
X62197946Y-71231500D01*
X62164613Y-71298166D01*
X62164613Y-71364833D01*
X62197946Y-71431500D01*
X62231280Y-71464833D01*
X62297946Y-71498166D01*
X62431280Y-71531500D01*
X62597946Y-71531500D01*
X62731280Y-71498166D01*
X62797946Y-71464833D01*
X62831280Y-71431500D01*
X62864613Y-71364833D01*
X62164613Y-70431500D02*
X62497946Y-70664833D01*
X62164613Y-70831500D02*
X62864613Y-70831500D01*
X62864613Y-70564833D01*
X62831280Y-70498166D01*
X62797946Y-70464833D01*
X62731280Y-70431500D01*
X62631280Y-70431500D01*
X62564613Y-70464833D01*
X62531280Y-70498166D01*
X62497946Y-70564833D01*
X62497946Y-70831500D01*
X62864613Y-70198166D02*
X62164613Y-69731500D01*
X62864613Y-69731500D02*
X62164613Y-70198166D01*
X62164613Y-69464833D02*
X62864613Y-69464833D01*
X62864613Y-69298166D01*
X62831280Y-69198166D01*
X62764613Y-69131500D01*
X62697946Y-69098166D01*
X62564613Y-69064833D01*
X62464613Y-69064833D01*
X62331280Y-69098166D01*
X62264613Y-69131500D01*
X62197946Y-69198166D01*
X62164613Y-69298166D01*
X62164613Y-69464833D01*
X73188899Y-91453642D02*
X73188899Y-90834595D01*
X72807946Y-91167928D01*
X72807946Y-91025071D01*
X72760327Y-90929833D01*
X72712708Y-90882214D01*
X72617470Y-90834595D01*
X72379375Y-90834595D01*
X72284137Y-90882214D01*
X72236518Y-90929833D01*
X72188899Y-91025071D01*
X72188899Y-91310785D01*
X72236518Y-91406023D01*
X72284137Y-91453642D01*
X73188899Y-90548880D02*
X72188899Y-90215547D01*
X73188899Y-89882214D01*
X73188899Y-89644119D02*
X73188899Y-89025071D01*
X72807946Y-89358404D01*
X72807946Y-89215547D01*
X72760327Y-89120309D01*
X72712708Y-89072690D01*
X72617470Y-89025071D01*
X72379375Y-89025071D01*
X72284137Y-89072690D01*
X72236518Y-89120309D01*
X72188899Y-89215547D01*
X72188899Y-89501261D01*
X72236518Y-89596500D01*
X72284137Y-89644119D01*
X30900666Y-31345142D02*
X30948285Y-31392761D01*
X31091142Y-31440380D01*
X31186380Y-31440380D01*
X31329238Y-31392761D01*
X31424476Y-31297523D01*
X31472095Y-31202285D01*
X31519714Y-31011809D01*
X31519714Y-30868952D01*
X31472095Y-30678476D01*
X31424476Y-30583238D01*
X31329238Y-30488000D01*
X31186380Y-30440380D01*
X31091142Y-30440380D01*
X30948285Y-30488000D01*
X30900666Y-30535619D01*
X30043523Y-30773714D02*
X30043523Y-31440380D01*
X30281619Y-30392761D02*
X30519714Y-31107047D01*
X29900666Y-31107047D01*
X33948666Y-41759142D02*
X33996285Y-41806761D01*
X34139142Y-41854380D01*
X34234380Y-41854380D01*
X34377238Y-41806761D01*
X34472476Y-41711523D01*
X34520095Y-41616285D01*
X34567714Y-41425809D01*
X34567714Y-41282952D01*
X34520095Y-41092476D01*
X34472476Y-40997238D01*
X34377238Y-40902000D01*
X34234380Y-40854380D01*
X34139142Y-40854380D01*
X33996285Y-40902000D01*
X33948666Y-40949619D01*
X33615333Y-40854380D02*
X32996285Y-40854380D01*
X33329619Y-41235333D01*
X33186761Y-41235333D01*
X33091523Y-41282952D01*
X33043904Y-41330571D01*
X32996285Y-41425809D01*
X32996285Y-41663904D01*
X33043904Y-41759142D01*
X33091523Y-41806761D01*
X33186761Y-41854380D01*
X33472476Y-41854380D01*
X33567714Y-41806761D01*
X33615333Y-41759142D01*
X110958380Y-85264666D02*
X111672666Y-85264666D01*
X111815523Y-85217047D01*
X111910761Y-85121809D01*
X111958380Y-84978952D01*
X111958380Y-84883714D01*
X111958380Y-86264666D02*
X111958380Y-85693238D01*
X111958380Y-85978952D02*
X110958380Y-85978952D01*
X111101238Y-85883714D01*
X111196476Y-85788476D01*
X111244095Y-85693238D01*
X70048380Y-99623714D02*
X69048380Y-99623714D01*
X69048380Y-100004666D01*
X69096000Y-100099904D01*
X69143619Y-100147523D01*
X69238857Y-100195142D01*
X69381714Y-100195142D01*
X69476952Y-100147523D01*
X69524571Y-100099904D01*
X69572190Y-100004666D01*
X69572190Y-99623714D01*
X70000761Y-100576095D02*
X70048380Y-100718952D01*
X70048380Y-100957047D01*
X70000761Y-101052285D01*
X69953142Y-101099904D01*
X69857904Y-101147523D01*
X69762666Y-101147523D01*
X69667428Y-101099904D01*
X69619809Y-101052285D01*
X69572190Y-100957047D01*
X69524571Y-100766571D01*
X69476952Y-100671333D01*
X69429333Y-100623714D01*
X69334095Y-100576095D01*
X69238857Y-100576095D01*
X69143619Y-100623714D01*
X69096000Y-100671333D01*
X69048380Y-100766571D01*
X69048380Y-101004666D01*
X69096000Y-101147523D01*
X70048380Y-102099904D02*
X70048380Y-101528476D01*
X70048380Y-101814190D02*
X69048380Y-101814190D01*
X69191238Y-101718952D01*
X69286476Y-101623714D01*
X69334095Y-101528476D01*
X86336095Y-86090380D02*
X86336095Y-85090380D01*
X85764666Y-86090380D02*
X86193238Y-85518952D01*
X85764666Y-85090380D02*
X86336095Y-85661809D01*
X85383714Y-85185619D02*
X85336095Y-85138000D01*
X85240857Y-85090380D01*
X85002761Y-85090380D01*
X84907523Y-85138000D01*
X84859904Y-85185619D01*
X84812285Y-85280857D01*
X84812285Y-85376095D01*
X84859904Y-85518952D01*
X85431333Y-86090380D01*
X84812285Y-86090380D01*
D11*
X96860000Y-87898000D02*
X96860000Y-89098000D01*
X101680000Y-86688000D02*
X101680000Y-107358000D01*
X98030000Y-87748000D02*
X95030000Y-87748000D01*
X96160000Y-87898000D02*
X96860000Y-87898000D01*
X96160000Y-89098000D02*
X96160000Y-87898000D01*
X101840000Y-86538000D02*
X100630000Y-86538000D01*
X91360000Y-107358000D02*
X91360000Y-86688000D01*
X96860000Y-88528000D02*
X97960000Y-88528000D01*
X96860000Y-89098000D02*
X96160000Y-89098000D01*
X95030000Y-87748000D02*
X95030000Y-86688000D01*
X96160000Y-88528000D02*
X95060000Y-88528000D01*
X91360000Y-86688000D02*
X101680000Y-86688000D01*
X101840000Y-87838000D02*
X101840000Y-86538000D01*
X98030000Y-86688000D02*
X98030000Y-87728000D01*
X101680000Y-107358000D02*
X91360000Y-107358000D01*
X96860000Y-88698000D02*
X96160000Y-88298000D01*
X42926000Y-60900000D02*
X50606000Y-60900000D01*
X41656000Y-60900000D02*
X40326000Y-60900000D01*
X42926000Y-60900000D02*
X42926000Y-63560000D01*
X50606000Y-60900000D02*
X50606000Y-63560000D01*
X40326000Y-60900000D02*
X40326000Y-62230000D01*
X42926000Y-63560000D02*
X50606000Y-63560000D01*
X73761600Y-89233880D02*
X79654400Y-89233880D01*
X73741280Y-66064000D02*
X73741280Y-94463999D01*
X73741280Y-94463999D02*
X25821280Y-94464000D01*
X25821280Y-94464000D02*
X25821280Y-66064001D01*
X79654400Y-89233880D02*
X79654400Y-71250680D01*
X79654400Y-71250680D02*
X73761600Y-71250680D01*
X25821280Y-66064001D02*
X73741280Y-66064000D01*
X27640233Y-31498000D02*
X27932767Y-31498000D01*
X27640233Y-30478000D02*
X27932767Y-30478000D01*
X30688233Y-40892000D02*
X30980767Y-40892000D01*
X30688233Y-41912000D02*
X30980767Y-41912000D01*
X108160000Y-62746000D02*
X106110000Y-62746000D01*
X118060000Y-62796000D02*
X113010000Y-62796000D01*
X118060000Y-83596000D02*
X118060000Y-62796000D01*
X106110000Y-62746000D02*
X106410000Y-63296000D01*
X106410000Y-63296000D02*
X105460000Y-63296000D01*
X105460000Y-63296000D02*
X105460000Y-83596000D01*
X113010000Y-62796000D02*
X113260000Y-63296000D01*
X105460000Y-83596000D02*
X118060000Y-83596000D01*
X113260000Y-63296000D02*
X107860000Y-63296000D01*
X107860000Y-63296000D02*
X108160000Y-62746000D01*
X67702400Y-105347800D02*
X45632400Y-105347800D01*
X45632400Y-95927800D02*
X67702400Y-95927800D01*
X45632400Y-105347800D02*
X45632400Y-95927800D01*
X68002400Y-105647800D02*
X66752400Y-105647800D01*
X68002400Y-104397800D02*
X68002400Y-105647800D01*
X67702400Y-95927800D02*
X67702400Y-105347800D01*
X84108000Y-87798000D02*
X84108000Y-86738000D01*
X85238000Y-88578000D02*
X84138000Y-88578000D01*
X90948000Y-87888000D02*
X90948000Y-86588000D01*
X85938000Y-87948000D02*
X85938000Y-89148000D01*
X80408000Y-107328000D02*
X80408000Y-86738000D01*
X87108000Y-87798000D02*
X84108000Y-87798000D01*
X90788000Y-86738000D02*
X90788000Y-107328000D01*
X87108000Y-86738000D02*
X87108000Y-87778000D01*
X90788000Y-107328000D02*
X80408000Y-107328000D01*
X80408000Y-86738000D02*
X90788000Y-86738000D01*
X85238000Y-87948000D02*
X85938000Y-87948000D01*
X85938000Y-89148000D02*
X85238000Y-89148000D01*
X85238000Y-89148000D02*
X85238000Y-87948000D01*
X85938000Y-88748000D02*
X85238000Y-88348000D01*
X90948000Y-86588000D02*
X89738000Y-86588000D01*
X85938000Y-88578000D02*
X87038000Y-88578000D01*
%LPC*%
D12*
X69712200Y-85665800D03*
X69712200Y-73165800D03*
X74712200Y-85665800D03*
X74712200Y-73165800D03*
D13*
X26909200Y-48413600D03*
X26909200Y-54913600D03*
X31409200Y-48413600D03*
X31409200Y-54913600D03*
X26909200Y-34415800D03*
X26909200Y-27915800D03*
X31409200Y-27915800D03*
X31409200Y-34415800D03*
X29906400Y-38177400D03*
X29906400Y-44677400D03*
X34406400Y-38177400D03*
X34406400Y-44677400D03*
D12*
X44312200Y-85665800D03*
X44312200Y-73165800D03*
X49312200Y-73165800D03*
X49312200Y-85665800D03*
D14*
X30734000Y-104216200D03*
D15*
X29464000Y-104216200D03*
X28194000Y-104216200D03*
D16*
X35636200Y-104724200D03*
X35636200Y-27914600D03*
D17*
X106172000Y-92202000D03*
D18*
X108712000Y-92202000D03*
D16*
X115189000Y-94234000D03*
X35636200Y-54914800D03*
X88900000Y-64185800D03*
D17*
X106172000Y-94742000D03*
D18*
X108712000Y-94742000D03*
D19*
X100330000Y-88138000D03*
D20*
X100330000Y-95758000D03*
X100330000Y-100828000D03*
X100330000Y-105918000D03*
X92700000Y-105928000D03*
X92700000Y-100848000D03*
X92710000Y-95758000D03*
X92710000Y-88138000D03*
D21*
X41656000Y-62230000D03*
D18*
X44196000Y-62230000D03*
X46736000Y-62230000D03*
X49276000Y-62230000D03*
D22*
X72641280Y-92964000D03*
D23*
X70101280Y-92964000D03*
X67561280Y-92964000D03*
X65021280Y-92964000D03*
X62481280Y-92964000D03*
X59941280Y-92964000D03*
X57401280Y-92964000D03*
X54861280Y-92964000D03*
X52321280Y-92964000D03*
X49781280Y-92964000D03*
X47241280Y-92964000D03*
X44701280Y-92964000D03*
X42161280Y-92964000D03*
X39621280Y-92964000D03*
X37081280Y-92964000D03*
X34541280Y-92964000D03*
X32001280Y-92964000D03*
X29461280Y-92964000D03*
X26921280Y-92964000D03*
X26924000Y-67567680D03*
X29464000Y-67567680D03*
X32001280Y-67564000D03*
X34541280Y-67564000D03*
X37081280Y-67564000D03*
X39621280Y-67564000D03*
X42161280Y-67564000D03*
X44701280Y-67564000D03*
X47241280Y-67564000D03*
X49781280Y-67564000D03*
X52321280Y-67564000D03*
X54861280Y-67564000D03*
X57401280Y-67564000D03*
X59941280Y-67564000D03*
X62481280Y-67564000D03*
X65021280Y-67564000D03*
X67561280Y-67564000D03*
X70101280Y-67564000D03*
X72641280Y-67564000D03*
D24*
X26924000Y-30988000D03*
X28649000Y-30988000D03*
X29972000Y-41402000D03*
X31697000Y-41402000D03*
D25*
X111760000Y-80946000D03*
D26*
X111760000Y-75946000D03*
X111760000Y-70946000D03*
X111760000Y-65946000D03*
D27*
X65557400Y-99237800D03*
D28*
X63017400Y-99237800D03*
X60477400Y-99237800D03*
X55397400Y-99237800D03*
X52857400Y-99237800D03*
X50317400Y-99237800D03*
X47777400Y-99237800D03*
D19*
X89408000Y-88138000D03*
D20*
X89408000Y-95758000D03*
X89408000Y-100838000D03*
X89408000Y-105918000D03*
X81788000Y-105918000D03*
X81788000Y-100838000D03*
X81788000Y-95758000D03*
X81788000Y-88138000D03*
M02*
