M48
;DRILL file {KiCad 5.0.2-bee76a0~70~ubuntu18.04.1} date Fri 28 Jun 2019 06:52:37 PM MDT
;FORMAT={3:3/ absolute / metric / suppress leading zeros}
FMAT,2
METRIC,TZ
T1C0.400
T2C0.700
T3C0.750
T4C0.800
T5C0.900
T6C1.000
T7C1.100
T8C1.320
T9C3.200
%
G90
G05
T1
X57764Y-104087
T2
X101000Y-108000
X101000Y-115620
X101000Y-120690
X101000Y-125780
X108620Y-108000
X108620Y-115620
X108630Y-120710
X108630Y-125790
T3
X33000Y-125000
X34270Y-125000
X35540Y-125000
X120000Y-104000
X121270Y-104000
X122540Y-104000
T4
X101000Y-87000
X111160Y-87000
X69000Y-114000
X79160Y-114000
X46000Y-57840
X46000Y-68000
X64000Y-104000
X64000Y-114160
X46000Y-31840
X46000Y-42000
X52440Y-73000
X52440Y-88240
X54980Y-73000
X54980Y-88240
X57520Y-73000
X57520Y-88240
X60060Y-73000
X60060Y-88240
X62600Y-73000
X62600Y-88240
X65140Y-73000
X65140Y-88240
X67680Y-73000
X67680Y-88240
X70220Y-73000
X70220Y-88240
X72760Y-73000
X72760Y-88240
X75300Y-73000
X75300Y-88240
X77840Y-73000
X77840Y-88240
X80380Y-73000
X80380Y-88240
X82920Y-73000
X82920Y-88240
X85460Y-73000
X85460Y-88240
X88000Y-73000
X88000Y-88240
X114840Y-98000
X125000Y-98000
X100840Y-75000
X111000Y-75000
X69000Y-107000
X79160Y-107000
X36000Y-44840
X36000Y-55000
T5
X117000Y-75000
X119540Y-75000
X117000Y-87000
X119540Y-87000
T6
X52000Y-38000
X52000Y-40540
X52000Y-43080
X52000Y-45620
T7
X35000Y-35000
X35000Y-39500
X41500Y-35000
X41500Y-39500
X40000Y-46500
X40000Y-53000
X44500Y-46500
X44500Y-53000
X71000Y-119000
X71000Y-123500
X77500Y-119000
X77500Y-123500
X71000Y-97000
X71000Y-101500
X77500Y-97000
X77500Y-101500
X35000Y-60000
X35000Y-64500
X41500Y-60000
X41500Y-64500
X99000Y-98000
X109160Y-98000
T8
X121000Y-112000
X121000Y-117000
T9
X125000Y-125000
X125000Y-35000
X35000Y-81000
T6
X34000Y-100000G85X34000Y-102000
G05
X36000Y-105700G85X38000Y-105700
G05
X40000Y-100000G85X40000Y-102000
G05
T0
M30
